<svg width="280" height="230" viewBox="0 0 280 230" fill="none" xmlns="http://www.w3.org/2000/svg">
<rect width="280" height="229" transform="translate(0 0.594482)" fill="white"/>
<path d="M62.4325 69.3546L156.488 67.7441L162.119 91.8877C162.737 94.5369 165.107 96.4049 167.827 96.3866L199.956 96.1702C198.867 97.9043 199.172 110.435 199.461 116.483C196.819 114.295 191.473 109.894 191.226 109.795C190.916 109.671 183.3 108.061 185.096 115.059C186.532 120.658 194.115 128.292 197.727 131.409C198.078 134.897 200.241 142.222 206.087 143.609C211.932 144.996 219.626 143.65 222.743 142.804L229.585 166.946C231.153 172.48 226.996 177.98 221.245 177.98H84.7863C80.788 177.98 77.3083 175.245 76.3632 171.36L54.1578 80.0732C52.8444 74.6737 56.8773 69.4497 62.4325 69.3546Z" fill="white"/>
<path fill-rule="evenodd" clip-rule="evenodd" d="M158.655 48.269H226.152C227.182 48.269 228.077 48.975 228.317 49.9762L239.41 96.2324C239.746 97.6322 238.684 98.9777 237.245 98.9777H213.103H209.809L209.948 98.854C209.256 94.6489 206.939 91.5775 205.867 90.5675C205.351 90.114 203.937 89.4049 202.403 90.1964C201.156 90.8402 200.178 95.4817 199.657 98.9777H169.748C168.718 98.9777 167.823 98.2717 167.583 97.2706L156.49 51.0144C156.154 49.6146 157.216 48.269 158.655 48.269Z" fill="#FDC247"/>
<path d="M112.3 121.392H78.5572C76.3516 121.392 75.4843 124.293 77.3182 125.536L77.6892 125.788C78.0559 126.036 78.4871 126.169 78.9282 126.169H99.091H104.396H112.671C114.877 126.169 115.744 123.268 113.91 122.025L113.539 121.773C113.172 121.525 112.741 121.392 112.3 121.392Z" fill="#FDC247"/>
<path d="M108.706 134.253H83.3384C81.2714 134.253 80.3127 136.851 81.8731 138.224L82.1589 138.476C82.5654 138.833 83.0857 139.03 83.6242 139.03H98.8439H102.931H108.992C111.059 139.03 112.018 136.432 110.457 135.059L110.172 134.808C109.765 134.45 109.245 134.253 108.706 134.253Z" fill="#FDC247"/>
<path fill-rule="evenodd" clip-rule="evenodd" d="M89.0286 90.0352L89.7553 90.7019C91.1391 91.9716 92.5505 92.1809 93.7646 91.9566C95.0115 91.7261 96.0741 91.0302 96.6565 90.4675L97.0788 90.0595L97.5086 90.4595C97.9762 90.8946 98.5589 90.9953 99.1642 90.9103C99.7811 90.8237 100.357 90.5487 100.684 90.3285L100.924 90.1671L101.202 90.2472C101.528 90.3412 101.788 90.5726 101.974 90.7782C102.173 90.9971 102.356 91.2618 102.515 91.5252C102.622 91.703 102.724 91.888 102.817 92.07C102.855 92.0353 102.893 92.0013 102.932 91.9682C103.303 91.6541 103.776 91.3621 104.29 91.2014C104.805 91.0404 105.409 90.9977 105.982 91.2641C106.563 91.5346 107 92.0719 107.274 92.8472C107.762 94.2297 107.1 95.513 106.291 96.4492C105.574 97.2788 104.646 97.956 103.912 98.3858C103.888 98.59 103.843 98.806 103.788 99.0227C103.693 99.3981 103.554 99.8177 103.386 100.253C103.049 101.125 102.583 102.092 102.076 102.948C100.726 105.223 97.5225 106.997 94.2509 106.575C92.465 106.345 90.8971 105.424 89.7083 104.328C88.6942 103.392 87.9147 102.292 87.4991 101.301C86.1991 101.39 84.7578 101.12 83.7203 100.462C83.1238 100.084 82.6218 99.5509 82.4038 98.8455C82.183 98.1313 82.2831 97.3371 82.7088 96.5043C83.0454 95.8457 83.4658 95.3752 83.9553 95.0821C84.4479 94.7872 84.9681 94.6976 85.4576 94.733C85.8175 94.7591 86.1626 94.8524 86.479 94.9825C86.472 94.8377 86.4709 94.6848 86.4782 94.5257L86.5021 94.0094L87.0142 93.9406C87.0788 93.9319 87.224 93.869 87.437 93.6299C87.6388 93.4034 87.8396 93.0879 88.0263 92.7314C88.3987 92.0206 88.6624 91.2492 88.7438 90.9794L89.0286 90.0352ZM89.6284 92.19C89.4942 92.531 89.3236 92.9239 89.1234 93.3061C88.9137 93.7064 88.6584 94.1206 88.3617 94.4537C88.1869 94.6499 87.9707 94.8484 87.7142 94.9883C87.7291 95.2897 87.7806 95.4807 87.8333 95.676C87.872 95.8191 87.9112 95.9645 87.9371 96.1572L88.1634 97.8406L86.9068 96.6979C86.5341 96.3589 85.9397 96.0097 85.3681 95.9682C85.0973 95.9486 84.8372 95.9976 84.5914 96.1447C84.3427 96.2936 84.0669 96.5683 83.8115 97.0679C83.4972 97.6829 83.4824 98.1413 83.587 98.4798C83.6943 98.827 83.9581 99.1466 84.3834 99.4163C85.2527 99.9675 86.6285 100.196 87.8247 100.021L88.3503 99.9445L88.5062 100.452C88.7666 101.3 89.4855 102.438 90.5479 103.417C91.6046 104.392 92.9449 105.158 94.4092 105.347C97.1871 105.705 99.9117 104.169 101.01 102.316C101.482 101.52 101.918 100.615 102.23 99.8071C102.386 99.4035 102.508 99.0325 102.588 98.7178C102.671 98.3928 102.698 98.1665 102.693 98.0374L102.677 97.6483L103.021 97.4654C103.695 97.1072 104.659 96.4435 105.354 95.6394C106.062 94.8201 106.37 94.0068 106.106 93.2597C105.91 92.704 105.659 92.4797 105.459 92.3869C105.251 92.29 104.983 92.2822 104.66 92.3834C104.336 92.4846 104.006 92.6818 103.733 92.9129C103.449 93.1535 103.292 93.3761 103.247 93.4874L102.662 94.9448L102.095 93.4801C101.963 93.1402 101.727 92.6167 101.455 92.1654C101.318 91.9392 101.183 91.7484 101.058 91.6111C101.045 91.5964 101.032 91.5829 101.02 91.5706C100.575 91.8119 99.9817 92.0461 99.3364 92.1367C98.6365 92.235 97.8343 92.1671 97.1142 91.7129C96.3674 92.316 95.2687 92.938 93.9896 93.1744C92.6404 93.4237 91.1085 93.2381 89.6284 92.19Z" fill="#643131"/>
<path fill-rule="evenodd" clip-rule="evenodd" d="M92.3251 82.7529C91.9643 83.3572 91.8237 84.163 91.8172 84.7252L91.8028 85.9583L90.8224 85.2103C90.6657 85.0907 89.6421 84.6597 87.7697 85.4166C87.3985 85.5666 87.1789 85.7846 87.0432 86.0317C86.9015 86.2899 86.8323 86.6165 86.8324 86.9961C86.8325 87.7674 87.1183 88.618 87.3918 89.1633L87.774 89.925L86.9314 90.0531C86.416 90.1315 85.6631 90.3627 85.0897 90.7745C84.5353 91.1727 84.2101 91.6833 84.3047 92.3862C84.4059 93.1393 84.8408 93.5925 85.3957 93.875C85.9732 94.1689 86.6506 94.2555 87.0856 94.2403L87.1289 95.4779C86.5371 95.4986 85.6407 95.3893 84.834 94.9787C84.0046 94.5566 83.2447 93.7966 83.0773 92.5512C82.903 91.2556 83.571 90.3406 84.3672 89.7687C84.8738 89.4048 85.456 89.1576 85.9788 89.0025C85.7656 88.4141 85.594 87.701 85.5939 86.9963C85.5939 86.4769 85.6871 85.9286 85.9576 85.4357C86.2343 84.9317 86.677 84.5224 87.3056 84.2684C88.72 83.6967 89.8679 83.6583 90.6597 83.8352C90.7536 83.2779 90.9384 82.6597 91.2618 82.118C91.5211 81.6838 91.8826 81.2776 92.3782 81.0069C92.8804 80.7327 93.4788 80.6208 94.1651 80.7136C95.6389 80.9129 96.5986 81.3103 97.1911 82.0562C97.7503 82.7601 97.8886 83.6796 98.0254 84.5896L98.0302 84.6218L98.1426 85.4574C98.4291 85.4062 98.7864 85.36 99.1721 85.3519C100.08 85.3328 101.357 85.5252 102.072 86.637C102.454 87.2301 102.56 88.0049 102.59 88.5523C102.606 88.8397 102.601 89.0949 102.593 89.2784C102.593 89.2819 102.593 89.2854 102.593 89.2889C102.601 89.2981 102.609 89.3076 102.617 89.3174C102.75 89.4758 102.917 89.7131 103.034 90.016C103.153 90.3232 103.222 90.704 103.143 91.1299C103.064 91.5569 102.844 91.9822 102.46 92.3907L101.558 91.5428C101.806 91.2779 101.896 91.061 101.926 90.9034C101.955 90.7447 101.932 90.5986 101.879 90.4631C101.825 90.3233 101.742 90.202 101.667 90.1126C101.631 90.0691 101.599 90.0364 101.579 90.0162C101.568 90.0062 101.561 89.9996 101.557 89.9965C101.557 89.9961 101.557 89.9957 101.556 89.9954L101.305 89.7861L101.34 89.4572L101.34 89.4568L101.34 89.4566L101.34 89.4564L101.34 89.4557C101.341 89.4539 101.341 89.4506 101.341 89.4459C101.342 89.4365 101.344 89.4214 101.345 89.4011C101.348 89.3606 101.353 89.2998 101.356 89.2234C101.363 89.0697 101.366 88.8566 101.353 88.6192C101.326 88.1171 101.23 87.6168 101.031 87.3074C100.679 86.7601 99.9897 86.5734 99.1981 86.59C98.8217 86.5979 98.4692 86.6522 98.2082 86.7057C98.0788 86.7323 97.9744 86.7582 97.9039 86.7769C97.8687 86.7863 97.8421 86.7938 97.8253 86.7987C97.8169 86.8012 97.8109 86.803 97.8075 86.804L97.8053 86.8047L97.805 86.8048L97.8044 86.805L97.1038 87.0253L96.8041 84.7964C96.6536 83.796 96.5413 83.2292 96.2214 82.8265C95.9287 82.4581 95.3653 82.1257 93.9991 81.9408C93.5493 81.88 93.221 81.9578 92.9717 82.0939C92.7159 82.2336 92.501 82.4584 92.3251 82.7529Z" fill="#643131"/>
<path fill-rule="evenodd" clip-rule="evenodd" d="M92.35 106.523C92.2377 106.325 92.1239 106.125 92.0187 105.918L93.1232 105.358C93.1851 105.48 93.2676 105.62 93.3601 105.777C93.8923 106.679 94.7569 108.146 93.9383 110.008L92.8045 109.51C93.3474 108.275 92.8653 107.428 92.35 106.523Z" fill="#643131"/>
<path fill-rule="evenodd" clip-rule="evenodd" d="M100.076 109.127C99.0153 107.509 99.1995 105.512 99.2969 104.586L100.529 104.716C100.428 105.667 100.32 107.24 101.112 108.449L100.076 109.127Z" fill="#643131"/>
<path fill-rule="evenodd" clip-rule="evenodd" d="M92.9287 110.018C92.9286 110.017 92.9285 110.017 93.275 109.504C93.6215 108.991 93.6214 108.991 93.6213 108.991L93.6217 108.991L93.6255 108.994C93.6293 108.996 93.6353 109 93.6437 109.006C93.6603 109.017 93.6859 109.033 93.7196 109.055C93.7872 109.098 93.8871 109.16 94.0128 109.233C94.2651 109.382 94.6173 109.575 95.0183 109.758C95.8589 110.142 96.7672 110.409 97.4207 110.284C97.9714 110.179 98.6376 109.74 99.2193 109.25C99.4974 109.016 99.7344 108.789 99.9019 108.62C99.9853 108.536 100.051 108.467 100.095 108.419C100.117 108.396 100.133 108.378 100.144 108.366C100.149 108.36 100.153 108.356 100.156 108.353L100.158 108.35C100.158 108.351 100.158 108.351 100.621 108.762C101.084 109.172 101.084 109.173 101.084 109.173L101.084 109.173L101.082 109.175L101.077 109.18C101.073 109.185 101.068 109.191 101.061 109.199C101.047 109.214 101.026 109.236 101.001 109.264C100.949 109.32 100.875 109.398 100.781 109.492C100.595 109.68 100.331 109.933 100.017 110.197C99.4165 110.704 98.5406 111.331 97.6534 111.5C96.5876 111.704 95.3649 111.278 94.5042 110.885C94.0546 110.68 93.6638 110.465 93.3855 110.301C93.246 110.219 93.1338 110.15 93.0556 110.1C93.0164 110.075 92.9857 110.055 92.9643 110.041C92.9536 110.034 92.9452 110.029 92.9392 110.025L92.932 110.02L92.9298 110.018L92.9287 110.018Z" fill="#643131"/>
<path d="M91.4449 95.9C91.4941 96.2657 91.3048 96.593 91.0223 96.631C90.7397 96.669 90.4707 96.4033 90.4216 96.0376C90.3724 95.6719 90.5616 95.3447 90.8442 95.3067C91.1268 95.2687 91.3957 95.5343 91.4449 95.9Z" fill="#643131"/>
<path d="M99.3968 95.1444C99.3085 95.5027 99.0124 95.7378 98.7356 95.6695C98.4588 95.6013 98.3059 95.2555 98.3943 94.8972C98.4826 94.539 98.7786 94.3039 99.0555 94.3721C99.3323 94.4404 99.4851 94.7861 99.3968 95.1444Z" fill="#643131"/>
<path fill-rule="evenodd" clip-rule="evenodd" d="M90.6917 96.0945C90.8912 96.0232 91.0625 95.8734 91.1459 95.7675L92.1185 96.5343C91.9227 96.7826 91.5709 97.0954 91.1086 97.2606C90.6174 97.4363 90.0101 97.438 89.4114 97.0432L90.093 96.0093C90.3281 96.1643 90.5212 96.1554 90.6917 96.0945Z" fill="#643131"/>
<path fill-rule="evenodd" clip-rule="evenodd" d="M99.1995 95.1035C99.399 95.0322 99.5703 94.8824 99.6537 94.7766L100.626 95.5433C100.431 95.7916 100.079 96.1044 99.6165 96.2697C99.1252 96.4453 98.5179 96.447 97.9192 96.0523L98.6009 95.0183C98.8359 95.1733 99.029 95.1645 99.1995 95.1035Z" fill="#643131"/>
<path fill-rule="evenodd" clip-rule="evenodd" d="M93.1615 98.7664C93.0329 98.3175 93.0621 97.8072 93.1137 97.4867L94.3364 97.6834C94.2989 97.9162 94.294 98.2226 94.352 98.4253C94.3613 98.4575 94.3703 98.4806 94.3776 98.4965C94.7639 98.4429 95.1178 98.2863 95.377 98.1235C95.507 98.0418 95.6007 97.9662 95.6546 97.9146C95.6772 97.893 95.6862 97.8819 95.6863 97.8819C95.6863 97.882 95.6858 97.8826 95.6849 97.8838C95.6825 97.8872 95.6701 97.9044 95.6558 97.9339C95.6445 97.9574 95.6127 98.0275 95.6063 98.1288L96.8422 98.2077C96.8289 98.4161 96.7191 98.5674 96.6873 98.6111L96.687 98.6115C96.6343 98.6841 96.5719 98.751 96.5108 98.8095C96.3865 98.9284 96.2239 99.0539 96.036 99.172C95.6614 99.4074 95.1372 99.644 94.5337 99.7251C94.1831 99.7723 93.8519 99.6898 93.5904 99.4688C93.3496 99.2654 93.2268 98.9943 93.1615 98.7664Z" fill="#643131"/>
<path fill-rule="evenodd" clip-rule="evenodd" d="M94.1335 102.86C93.5804 102.802 93.046 102.683 92.6834 102.5L93.2427 101.395C93.4062 101.478 93.7648 101.576 94.2638 101.629C94.7466 101.68 95.3022 101.682 95.8289 101.611C96.1425 101.569 96.6241 101.437 97.0558 101.266C97.2694 101.181 97.4524 101.093 97.5858 101.013C97.6973 100.946 97.7326 100.908 97.7338 100.909C97.7344 100.909 97.7286 100.917 97.7199 100.933L98.8008 101.537C98.6607 101.788 98.4089 101.963 98.2249 102.074C98.0146 102.2 97.7653 102.316 97.5136 102.416C97.0144 102.615 96.4328 102.78 95.9939 102.839C95.3583 102.924 94.7028 102.921 94.1335 102.86Z" fill="#643131"/>
<path fill-rule="evenodd" clip-rule="evenodd" d="M151.731 48.1181C151.301 46.3215 152.66 44.5945 154.505 44.5945H222.188C223.507 44.5945 224.654 45.5006 224.962 46.7856L236.085 93.2493C236.515 95.046 235.156 96.773 233.311 96.773H209.103V95.5306H233.311C234.354 95.5306 235.122 94.5545 234.879 93.539L223.756 47.0753C223.582 46.349 222.934 45.8368 222.188 45.8368H154.505C153.462 45.8368 152.694 46.813 152.937 47.8285L164.06 94.2921C164.234 95.0185 164.883 95.5306 165.628 95.5306H199.924V96.773H165.628C164.309 96.773 163.162 95.8669 162.854 94.5818L151.731 48.1181Z" fill="#643131"/>
<path fill-rule="evenodd" clip-rule="evenodd" d="M184.354 117.718H147.976V116.616H184.354V117.718Z" fill="#643131"/>
<path fill-rule="evenodd" clip-rule="evenodd" d="M185.824 122.127H149.814V121.025H185.824V122.127Z" fill="#643131"/>
<path fill-rule="evenodd" clip-rule="evenodd" d="M187.294 126.537H151.283V125.067H187.294V126.537Z" fill="#643131"/>
<path fill-rule="evenodd" clip-rule="evenodd" d="M189.131 130.946H153.121V129.477H189.131V130.946Z" fill="#643131"/>
<path fill-rule="evenodd" clip-rule="evenodd" d="M190.601 134.988H154.59V133.886H190.601V134.988Z" fill="#643131"/>
<path fill-rule="evenodd" clip-rule="evenodd" d="M93.9606 110.233C105.953 110.233 115.14 102.629 115.14 93.8334C115.14 85.038 105.953 77.4333 93.9606 77.4333C81.9684 77.4333 72.7809 85.038 72.7809 93.8334C72.7809 102.629 81.9684 110.233 93.9606 110.233ZM93.9606 111.471C106.34 111.471 116.375 103.574 116.375 93.8334C116.375 84.0923 106.34 76.1956 93.9606 76.1956C81.5813 76.1956 71.5459 84.0923 71.5459 93.8334C71.5459 103.574 81.5813 111.471 93.9606 111.471Z" fill="#643131"/>
<path fill-rule="evenodd" clip-rule="evenodd" d="M131.81 119.18L134.385 126.575L70.6172 127.717L68.9177 119.657L131.81 119.18ZM70.442 120.884L71.6179 126.461L132.653 125.367L130.932 120.426L70.442 120.884Z" fill="#643131"/>
<path fill-rule="evenodd" clip-rule="evenodd" d="M135.385 132.414L137.96 139.809L74.1922 140.951L72.4926 132.891L135.385 132.414ZM74.017 134.118L75.1929 139.695L136.228 138.601L134.507 133.659L74.017 134.118Z" fill="#643131"/>
<path fill-rule="evenodd" clip-rule="evenodd" d="M118.353 126.389L116.448 120.355L117.628 119.982L119.534 126.016L118.353 126.389Z" fill="#643131"/>
<path fill-rule="evenodd" clip-rule="evenodd" d="M111.783 139.18L109.877 133.146L111.058 132.773L112.964 138.807L111.783 139.18Z" fill="#643131"/>
<path fill-rule="evenodd" clip-rule="evenodd" d="M84.4065 155.933H93.5201L97.2674 170.631H88.02L84.4065 155.933ZM85.9697 157.153L88.9834 169.412H95.6904L92.565 157.153H85.9697Z" fill="#643131"/>
<path fill-rule="evenodd" clip-rule="evenodd" d="M179.577 155.566H188.691L192.438 170.631H183.191L179.577 155.566ZM181.14 156.816L184.154 169.381H190.861L187.736 156.816H181.14Z" fill="#643131"/>
<path fill-rule="evenodd" clip-rule="evenodd" d="M95.063 146.379H104.284L110.496 170.631H101.144L95.063 146.379ZM96.6508 147.61L102.114 169.4H108.9L103.319 147.61H96.6508Z" fill="#643131"/>
<path fill-rule="evenodd" clip-rule="evenodd" d="M110.496 155.566H119.87L123.724 170.631H114.213L110.496 155.566ZM112.104 156.816L115.204 169.381H122.102L118.887 156.816H112.104Z" fill="#643131"/>
<path fill-rule="evenodd" clip-rule="evenodd" d="M166.349 155.566H175.462L179.21 170.631H169.962L166.349 155.566ZM167.912 156.816L170.926 169.381H177.633L174.507 156.816H167.912Z" fill="#643131"/>
<path fill-rule="evenodd" clip-rule="evenodd" d="M139.525 155.566H148.638L152.386 170.631H143.138L139.525 155.566ZM141.088 156.816L144.102 169.381H150.809L147.683 156.816H141.088Z" fill="#643131"/>
<path fill-rule="evenodd" clip-rule="evenodd" d="M125.929 162.915H135.107L137.32 170.631H127.994L125.929 162.915ZM127.545 164.169L128.939 169.376H135.673L134.18 164.169H127.545Z" fill="#643131"/>
<path fill-rule="evenodd" clip-rule="evenodd" d="M154.59 162.915H163.768L165.981 170.631H156.656L154.59 162.915ZM156.206 164.169L157.6 169.376H164.335L162.842 164.169H156.206Z" fill="#643131"/>
<path fill-rule="evenodd" clip-rule="evenodd" d="M197.95 170.631H82.5693V169.529H197.95V170.631Z" fill="#643131"/>
<path fill-rule="evenodd" clip-rule="evenodd" d="M164.511 58.1635L165.7 57.823L174.102 86.7151L223.656 86.107L223.672 87.3346L173.175 87.9542L164.511 58.1635Z" fill="#643131"/>
<path fill-rule="evenodd" clip-rule="evenodd" d="M164.44 56.3533L168.554 61.7769L167.537 62.4811L165.369 59.6229L165.027 62.9674L163.777 62.8509L164.44 56.3533Z" fill="#643131"/>
<path fill-rule="evenodd" clip-rule="evenodd" d="M225.288 86.8789L218.834 89.3474L218.391 88.1907L221.793 86.8897L218.547 85.6713L218.982 84.5119L225.288 86.8789Z" fill="#643131"/>
<path fill-rule="evenodd" clip-rule="evenodd" d="M207.599 70.3162L220.365 72.9782L220.114 74.1894L207.963 71.6556L199.279 79.5623L183.296 76.9112L174.641 87.219L173.698 86.4222L182.805 75.5758L198.892 78.2442L207.599 70.3162Z" fill="#643131"/>
<path fill-rule="evenodd" clip-rule="evenodd" d="M206.408 91.7996C205.425 90.3963 204.482 89.828 203.592 89.9427C202.731 90.0538 201.925 90.9319 201.27 92.7902C200.636 94.5898 200.237 97.0573 200.015 99.8215C199.572 105.339 199.844 111.874 200.234 116.21L200.39 117.944L199.176 116.698C197.532 115.01 194.898 112.769 192.342 111.497C191.06 110.86 189.856 110.495 188.835 110.519C187.852 110.542 187.026 110.922 186.406 111.843C185.826 112.704 185.808 113.95 186.358 115.562C186.901 117.158 187.957 118.976 189.293 120.839C191.961 124.559 195.652 128.331 198.239 130.667L198.444 130.851V131.127C198.444 132.209 198.651 134.076 199.281 136.079C199.911 138.082 200.95 140.177 202.584 141.767C203.533 142.69 205.154 143.331 207.207 143.691C209.241 144.048 211.61 144.114 213.961 143.961C216.31 143.809 218.617 143.439 220.523 142.936C222.46 142.424 223.882 141.799 224.553 141.194C225.186 140.622 225.711 139.42 226.103 137.672C226.488 135.959 226.719 133.85 226.861 131.606C227.039 128.799 227.075 125.863 227.107 123.26C227.127 121.669 227.145 120.202 227.193 118.966C227.314 115.85 226.844 113.43 226.154 111.695C225.463 109.957 224.575 108.962 223.89 108.585C223.848 108.708 223.805 108.926 223.79 109.264C223.753 110.133 223.917 111.33 224.089 112.179L222.888 112.47C222.618 111.51 222.092 110.019 221.397 108.688C221.05 108.022 220.67 107.413 220.27 106.934C219.865 106.449 219.476 106.141 219.124 106.008C219.044 105.979 218.989 105.969 218.956 105.966C218.924 105.964 218.911 105.968 218.91 105.969L218.91 105.969C218.909 105.969 218.905 105.97 218.897 105.978C218.886 105.987 218.866 106.008 218.841 106.05C218.723 106.251 218.635 106.671 218.63 107.314C218.628 107.485 218.633 107.663 218.642 107.846C218.914 109.181 219.104 110.454 219.213 111.428L217.999 111.646C217.753 110.652 217.486 109.254 217.413 108.006C217.227 107.105 217.004 106.18 216.742 105.31C216.419 104.233 216.047 103.268 215.631 102.542C215.201 101.789 214.794 101.416 214.462 101.315C214.352 101.281 214.299 101.299 214.241 101.338C214.153 101.398 214.027 101.541 213.893 101.83C213.623 102.408 213.428 103.328 213.306 104.461C213.065 106.703 213.137 109.529 213.28 111.451L212.05 111.575C211.569 107.768 210.537 102.108 209.012 97.4942C208.247 95.1818 207.373 93.1758 206.408 91.7996ZM217.983 105.143C218.124 104.991 218.303 104.865 218.524 104.792C218.867 104.679 219.223 104.723 219.558 104.849C220.195 105.088 220.749 105.577 221.219 106.14C221.694 106.71 222.122 107.402 222.493 108.114C222.547 108.217 222.6 108.322 222.652 108.426C222.706 108.194 222.788 107.975 222.912 107.792C223.059 107.575 223.288 107.377 223.612 107.319C223.92 107.264 224.211 107.353 224.455 107.483C225.498 108.043 226.548 109.338 227.303 111.237C228.066 113.156 228.555 115.752 228.429 119.014C228.383 120.181 228.365 121.617 228.345 123.195C228.312 125.834 228.274 128.866 228.096 131.684C227.952 133.953 227.715 136.137 227.31 137.943C226.912 139.715 226.324 141.261 225.381 142.113C224.475 142.932 222.798 143.615 220.838 144.133C218.847 144.659 216.46 145.04 214.041 145.197C211.623 145.354 209.151 145.289 206.994 144.911C204.856 144.536 202.938 143.837 201.722 142.655C199.894 140.876 198.769 138.574 198.101 136.451C197.482 134.482 197.243 132.628 197.211 131.405C194.596 129.022 190.957 125.281 188.289 121.562C186.923 119.657 185.788 117.725 185.187 115.962C184.592 114.216 184.476 112.494 185.381 111.151C186.244 109.867 187.459 109.313 188.806 109.281C190.115 109.25 191.53 109.711 192.892 110.388C195.05 111.462 197.218 113.154 198.869 114.675C198.554 110.392 198.385 104.669 198.783 99.7222C199.008 96.9216 199.417 94.3285 200.104 92.3781C200.771 90.4864 201.799 88.9253 203.434 88.7144C205.043 88.5071 206.371 89.5916 207.42 91.088C208.488 92.6115 209.408 94.752 210.186 97.105C210.937 99.3798 211.57 101.894 212.078 104.319C212.202 103.16 212.414 102.075 212.772 101.305C212.952 100.92 213.196 100.553 213.543 100.316C213.919 100.058 214.363 99.9902 214.822 100.13C215.627 100.375 216.238 101.11 216.704 101.926C217.186 102.769 217.591 103.835 217.927 104.953C217.945 105.016 217.964 105.079 217.983 105.143Z" fill="#643131"/>
<path fill-rule="evenodd" clip-rule="evenodd" d="M54.1174 64.4497L156.405 63.3347L156.419 64.5736L54.1089 65.6888L54.0978 65.6886C53.644 65.6773 53.148 65.6922 52.6236 65.7395C50.5326 66.3983 46.2793 69.5895 46.9893 77.4031C47.1705 79.3972 48.1921 84.4239 49.7516 91.327C51.3063 98.2085 53.3836 106.904 55.659 116.201C60.2092 134.791 65.5489 155.771 69.0781 169.419C69.7695 171.953 73.486 177.342 82.9604 177.198C92.7228 177.049 178.666 177.136 220.457 177.198C222.64 176.851 227.266 174.85 228.659 169.572L222.378 142.958L223.583 142.673L229.919 169.516L229.916 169.598C229.787 173.583 227.996 177.31 225.581 180.037C223.179 182.748 220.068 184.57 217.222 184.57C216.431 184.57 212.876 184.56 207.378 184.544C176.546 184.455 84.6324 184.191 76.7451 184.569C71.9504 184.799 68.635 183.453 66.4471 181.619C64.2844 179.806 63.2584 177.545 62.9811 175.962C56.4201 149.335 42.8177 92.9234 40.9302 80.4012C40.0592 74.6225 41.5483 70.7414 44.0183 68.2497C46.4617 65.7849 49.7817 64.7639 52.4448 64.5118C53.0354 64.4559 53.5981 64.4372 54.1174 64.4497ZM227.723 174.172C225.485 176.974 222.342 178.167 220.596 178.43L220.55 178.437L220.503 178.437C178.719 178.375 92.7317 178.288 82.9793 178.437C72.9398 178.59 68.7208 172.825 67.8821 169.741L67.8811 169.737L67.8801 169.733C64.35 156.082 59.0083 135.094 54.456 116.495C52.18 107.196 50.1006 98.4922 48.5436 91.6002C46.9915 84.7299 45.9463 79.6098 45.7559 77.5152C45.254 71.9918 47.0796 68.4871 49.1416 66.4987C47.6243 67.039 46.1277 67.8814 44.8977 69.1221C42.7502 71.2885 41.3315 74.7539 42.1549 80.2165C44.0319 92.669 57.6199 149.028 64.1888 175.687L64.1942 175.708L64.1979 175.73C64.4219 177.037 65.3037 179.044 67.2425 180.669C69.1664 182.282 72.1673 183.548 76.6859 183.331C84.6137 182.952 176.737 183.217 207.474 183.305C212.922 183.321 216.442 183.331 217.222 183.331C219.577 183.331 222.379 181.783 224.654 179.215C225.926 177.779 227.003 176.055 227.723 174.172Z" fill="#643131"/>
<path fill-rule="evenodd" clip-rule="evenodd" d="M200.565 93.3272C199.89 95.3577 199.415 97.7561 199.184 99.3451L199.052 99.3288C199.284 97.7357 199.761 95.3302 200.439 93.2912C200.777 92.2721 201.167 91.3414 201.604 90.6489C201.822 90.3027 202.053 90.0137 202.297 89.8029C202.541 89.592 202.802 89.4566 203.078 89.4238L203.094 89.5452C202.855 89.5737 202.619 89.6925 202.387 89.8924C202.156 90.0922 201.932 90.3703 201.718 90.7106C201.289 91.3912 200.903 92.3116 200.565 93.3272Z" fill="#643131"/>
</svg>
