<svg width="280" height="230" viewBox="0 0 280 230" fill="none" xmlns="http://www.w3.org/2000/svg">
<rect width="280" height="229" transform="translate(0 0.594482)" fill="white"/>
<path d="M51 181.715L60.9226 176.795L125.366 196.803L201.213 173.978L229.335 184.486L146.471 213.732L51 181.715Z" fill="#FFF0D2"/>
<path d="M153.626 61.1843C154.679 61.0438 157.177 61.1211 158.737 62.5546C160.687 64.3465 162.425 70.5128 159.949 79.2614C157.472 88.0101 157.314 88.8007 158.105 90.2236C158.737 91.362 166.237 98.9548 169.908 102.609L172.119 104.933C169.397 105.758 163.762 107.452 163.003 107.621C162.244 107.789 155.486 101.893 152.201 98.9245L146.301 99.8156C149.525 101.68 154.521 103.874 154.521 103.874C154.521 103.874 152.308 110.356 150.78 112.675C149.199 112.675 137.923 109.671 129.07 106.034C120.218 102.398 120.692 90.2236 120.955 84.2155C121.219 78.2074 130.704 63.2925 134.024 59.7614C137.343 56.2303 144.141 56.7046 144.878 57.5479C145.616 58.3911 146.512 63.029 147.408 64.8209C148.304 66.6128 152.941 66.1911 154.521 65.6114C155.786 65.1476 154.592 63.8722 153.836 63.2925L153.626 61.1843Z" fill="#FDC247"/>
<path fill-rule="evenodd" clip-rule="evenodd" d="M158.03 31.2463C157.02 30.0041 155.184 28.5454 152.725 27.913C150.109 27.24 146.833 27.5146 143.167 29.8967C138.551 32.8965 137.195 37.1694 137.195 40.7426C137.195 42.5222 137.53 44.1351 137.966 45.3468C138.184 45.9518 138.431 46.4691 138.683 46.8621C138.809 47.0584 138.942 47.2332 139.081 47.3745C139.215 47.5103 139.382 47.644 139.58 47.7148L139.935 46.7184C139.937 46.719 139.937 46.7194 139.938 46.7193C139.938 46.7189 139.902 46.7014 139.834 46.6321C139.76 46.5574 139.671 46.445 139.572 46.2901C139.373 45.9807 139.158 45.5396 138.96 44.9881C138.564 43.8869 138.252 42.3951 138.252 40.7426C138.252 37.4516 139.485 33.5509 143.742 30.7843C147.175 28.5532 150.15 28.3429 152.462 28.9378C154.797 29.5384 156.504 30.9722 157.348 32.0883L157.501 32.2902L157.753 32.2977C158.36 32.3156 160.021 32.3403 161.848 32.2978C162.912 32.273 164.337 32.472 165.672 33.3831C166.997 34.2885 168.294 35.9388 169.035 38.9323C169.59 41.1759 168.718 43.0018 167.327 44.4172C166.069 45.6966 164.42 46.6004 163.149 47.0907C162.784 46.426 162 45.1126 160.587 42.9585C159.551 41.3776 157.776 40.5585 156.07 40.1562C154.355 39.7519 152.62 39.7462 151.531 39.8663L151.302 39.8916L151.164 40.0772C150.862 40.4864 149.952 41.326 148.846 42.1433C147.739 42.961 146.543 43.6751 145.695 43.9016L145.968 44.9239C147.021 44.6425 148.352 43.8225 149.473 42.9948C150.472 42.257 151.389 41.4486 151.861 40.897C152.859 40.8113 154.358 40.8395 155.828 41.1861C157.416 41.5606 158.882 42.2846 159.704 43.5393C161.567 46.3804 162.289 47.6889 162.41 47.9605L162.605 48.4003L163.06 48.2472C164.481 47.7699 166.53 46.7354 168.079 45.1595C169.64 43.5717 170.731 41.3858 170.06 38.6777C169.269 35.4815 167.846 33.5874 166.267 32.5089C164.696 31.4361 163.031 31.2119 161.824 31.24C160.226 31.2772 158.757 31.2623 158.03 31.2463Z" fill="#643131"/>
<path fill-rule="evenodd" clip-rule="evenodd" d="M145.205 43.3473C145.891 43.8552 146.303 44.6233 146.484 45.169L145.474 45.4849C145.336 45.0672 145.022 44.509 144.563 44.1688C144.34 44.0042 144.091 43.8956 143.812 43.8671C143.533 43.8388 143.187 43.8861 142.765 44.0874C141.716 44.5869 141.15 45.5895 140.944 46.6189C140.842 47.1299 140.835 47.6251 140.894 48.0289C140.956 48.4533 141.08 48.7013 141.169 48.7931C141.515 49.1529 142.114 49.5739 142.709 49.8944C143.003 50.0528 143.281 50.1779 143.508 50.256C143.747 50.3379 143.856 50.341 143.868 50.3414C143.869 50.3414 143.869 50.3414 143.869 50.3414L144.058 51.357C143.765 51.4089 143.427 51.3224 143.156 51.2295C142.857 51.127 142.524 50.9746 142.195 50.7976C141.545 50.4471 140.844 49.965 140.395 49.4991C140.085 49.178 139.918 48.6776 139.844 48.1747C139.767 47.6511 139.78 47.0399 139.903 46.422C140.148 45.1934 140.855 43.8478 142.299 43.1603C142.873 42.8867 143.417 42.7892 143.922 42.8406C144.426 42.8918 144.854 43.0878 145.205 43.3473Z" fill="#643131"/>
<path fill-rule="evenodd" clip-rule="evenodd" d="M151.808 60.5423C151.892 61.2875 152.186 62.0308 152.428 62.4785L151.32 62.89C151.036 62.3652 150.699 61.5141 150.599 60.6364C150.502 59.7774 150.619 58.7636 151.437 58.0601L152.311 58.7578C151.866 59.1407 151.721 59.7783 151.808 60.5423Z" fill="#643131"/>
<path fill-rule="evenodd" clip-rule="evenodd" d="M162.453 45.4282C162.49 46.3354 162.39 48.6113 161.684 50.5669C161.233 51.8172 160.387 53.0663 159.53 54.0853C158.675 55.1029 157.77 55.9382 157.162 56.3466C157.134 56.3656 157.105 56.3852 157.075 56.4054C155.908 57.1912 153.474 58.831 149.381 58.3426C147.189 58.0811 145.448 56.7306 144.224 55.2183C143.002 53.7097 142.237 51.9709 142.025 50.7989L143.062 50.609C143.236 51.5776 143.912 53.1549 145.04 54.5472C146.164 55.9357 147.68 57.0708 149.505 57.2886C153.213 57.7309 155.379 56.2713 156.49 55.5228C156.52 55.5025 156.549 55.4827 156.578 55.4634C157.076 55.1288 157.909 54.3719 158.726 53.3994C159.542 52.4282 160.303 51.2891 160.694 50.2042C161.337 48.4235 161.434 46.298 161.4 45.4715L162.453 45.4282Z" fill="#643131"/>
<path d="M151.166 49.3642C150.958 49.7814 150.472 49.9615 150.081 49.7665C149.69 49.5714 149.542 49.075 149.75 48.6578C149.958 48.2406 150.443 48.0605 150.835 48.2555C151.226 48.4506 151.374 48.947 151.166 49.3642Z" fill="#643131"/>
<path d="M157.686 50.5781C157.478 50.9953 156.992 51.1754 156.601 50.9803C156.21 50.7853 156.061 50.2889 156.269 49.8717C156.477 49.4544 156.963 49.2743 157.354 49.4694C157.745 49.6645 157.894 50.1608 157.686 50.5781Z" fill="#643131"/>
<path fill-rule="evenodd" clip-rule="evenodd" d="M142.487 53.3226C142.514 53.1768 142.542 53.0256 142.572 52.8992L143.599 53.1424C143.575 53.2422 143.555 53.3515 143.53 53.4832C143.519 53.5468 143.506 53.6157 143.491 53.6912C143.449 53.9088 143.396 54.1591 143.316 54.4095C143.159 54.9027 142.873 55.4735 142.276 55.8028L141.766 54.8788C142.018 54.7402 142.187 54.4758 142.311 54.0883C142.372 53.8984 142.416 53.6969 142.455 53.4918C142.466 53.4375 142.476 53.3805 142.487 53.3226Z" fill="#643131"/>
<path fill-rule="evenodd" clip-rule="evenodd" d="M142.344 55.4253C142.621 55.517 142.924 55.6524 143.115 55.871C143.257 56.0349 143.377 56.2556 143.48 56.48C143.586 56.7128 143.691 56.988 143.794 57.2869C144 57.8845 144.213 58.6135 144.425 59.3569C144.451 59.4455 144.476 59.5342 144.501 59.6229C144.911 61.0542 145.315 62.4709 145.71 63.2632C145.846 63.5365 146.153 63.7807 146.675 63.9628C147.19 64.1425 147.842 64.2357 148.545 64.2579C149.958 64.3024 151.438 64.057 152.148 63.7952C152.259 63.7545 152.313 63.7156 152.336 63.694C152.347 63.6837 152.351 63.6772 152.353 63.6752C152.354 63.6733 152.354 63.6726 152.354 63.6718C152.356 63.6665 152.368 63.593 152.277 63.4179C152.096 63.0701 151.683 62.6622 151.327 62.3877L151.966 61.5506C152.363 61.8565 152.921 62.3771 153.208 62.9289C153.351 63.2035 153.472 63.5726 153.366 63.9554C153.251 64.3682 152.921 64.6344 152.51 64.7859C151.645 65.1045 150.026 65.3603 148.512 65.3125C147.751 65.2885 146.983 65.1872 146.33 64.9596C145.685 64.7345 145.081 64.3588 144.77 63.7351C144.33 62.8505 143.9 61.3443 143.506 59.9634C143.476 59.8576 143.446 59.7525 143.416 59.6485C143.202 58.9014 142.998 58.1993 142.802 57.6329C142.704 57.3499 142.612 57.1098 142.525 56.9202C142.435 56.722 142.365 56.613 142.324 56.5658C142.325 56.567 142.325 56.5665 142.322 56.5644C142.305 56.5532 142.224 56.4966 142.015 56.4273C141.792 56.3535 141.488 56.2854 141.114 56.2342C140.367 56.1322 139.389 56.1042 138.327 56.2093C136.187 56.4211 133.814 57.1614 132.285 58.7957C130.674 60.5168 127.509 65.0895 124.705 70.0068C123.306 72.4589 122.007 74.9802 121.043 77.2558C120.073 79.547 119.466 81.5343 119.404 82.9376C119.273 85.9512 119.094 90.4345 120.029 94.6102C120.962 98.7811 122.98 102.541 127.166 104.269C131.555 106.08 136.551 107.736 140.648 108.939C142.696 109.541 144.516 110.028 145.918 110.364C146.62 110.533 147.213 110.662 147.677 110.749C147.948 110.8 148.163 110.835 148.325 110.855C149.021 109.694 149.856 107.717 150.547 105.937C150.915 104.986 151.237 104.107 151.466 103.465C151.548 103.237 151.618 103.039 151.674 102.878C151.563 102.828 151.432 102.769 151.284 102.702C150.765 102.466 150.04 102.132 149.213 101.739C147.564 100.955 145.5 99.9322 143.875 98.9879C142.17 97.998 139.978 96.5087 138.112 94.6744C136.255 92.8484 134.666 90.6269 134.272 88.1687C133.89 85.7842 134.165 82.7855 134.682 80.1101C135.198 77.4377 135.972 75.0045 136.638 73.7499C136.927 73.204 137.185 72.759 137.406 72.3767C137.429 72.3364 137.452 72.2968 137.475 72.2578C137.713 71.8453 137.9 71.5158 138.049 71.1916C138.334 70.5707 138.494 69.9456 138.519 68.8161L139.569 68.8396C139.541 70.0842 139.36 70.8572 139.002 71.6344C138.829 72.0093 138.619 72.3789 138.383 72.7874C138.36 72.8266 138.337 72.8663 138.314 72.9065C138.093 73.2891 137.845 73.7184 137.564 74.2465C136.97 75.3661 136.221 77.6812 135.713 80.3111C135.206 82.938 134.956 85.7955 135.309 88.0011C135.65 90.1329 137.055 92.1585 138.847 93.9202C140.63 95.6735 142.744 97.1122 144.4 98.0744C145.987 98.9963 148.019 100.004 149.663 100.785C150.482 101.175 151.202 101.507 151.717 101.741C151.975 101.858 152.181 101.95 152.322 102.014C152.393 102.045 152.448 102.07 152.485 102.086C152.503 102.094 152.517 102.1 152.526 102.104L152.539 102.11L152.54 102.11L152.54 102.111C152.54 102.111 152.54 102.111 152.329 102.594C152.826 102.764 152.826 102.764 152.826 102.764L152.826 102.765L152.825 102.765L152.824 102.769L152.819 102.784C152.815 102.796 152.809 102.815 152.8 102.839C152.784 102.888 152.759 102.959 152.727 103.051C152.663 103.234 152.571 103.498 152.455 103.822C152.223 104.47 151.898 105.358 151.525 106.32C150.787 108.224 149.836 110.48 149.039 111.695L148.884 111.932H148.601C148.349 111.932 147.958 111.876 147.484 111.787C146.997 111.695 146.386 111.561 145.674 111.391C144.251 111.049 142.414 110.557 140.354 109.952C136.233 108.742 131.2 107.074 126.767 105.245C122.131 103.332 119.974 99.1782 119.004 94.8417C118.035 90.5099 118.224 85.8923 118.355 82.8914C118.425 81.2875 119.098 79.153 120.077 76.8425C121.062 74.5166 122.382 71.9565 123.793 69.4822C126.608 64.5468 129.822 59.8867 131.52 58.0729C133.298 56.1724 135.967 55.3826 138.224 55.1592C139.361 55.0467 140.421 55.0747 141.255 55.1887C141.671 55.2455 142.042 55.3253 142.344 55.4253ZM152.329 102.594L152.826 102.764L152.982 102.305L152.54 102.111L152.329 102.594ZM153.696 60.472C152.806 60.3019 151.978 60.3185 151.506 60.3817L151.367 59.3358C151.945 59.2583 152.887 59.2433 153.892 59.4354C154.896 59.6273 156.011 60.0349 156.885 60.842C157.99 61.8618 158.934 64.0005 159.309 66.9137C159.686 69.8538 159.494 73.6586 158.243 78.0989C157.005 82.4925 156.359 84.8454 156.115 86.2808C155.995 86.9925 155.981 87.4376 156.028 87.7717C156.073 88.0935 156.178 88.3456 156.359 88.6728C156.409 88.7636 156.561 88.9695 156.838 89.2989C157.103 89.6152 157.455 90.014 157.877 90.4766C158.718 91.4013 159.822 92.5686 161.023 93.8172C163.424 96.3139 166.205 99.126 168.033 100.953L167.292 101.701C165.461 99.8709 162.675 97.0536 160.268 94.5505C159.064 93.2992 157.953 92.124 157.102 91.1887C156.676 90.7214 156.313 90.3108 156.035 89.979C155.767 89.6603 155.548 89.3794 155.441 89.1853C155.228 88.8002 155.057 88.4192 154.988 87.9183C154.919 87.4297 154.951 86.8625 155.08 86.1035C155.336 84.5977 156.003 82.1758 157.232 77.8114C158.449 73.4938 158.625 69.8331 158.267 67.0488C157.906 64.2377 157.013 62.3931 156.175 61.619C155.494 60.9911 154.588 60.6425 153.696 60.472Z" fill="#643131"/>
<path fill-rule="evenodd" clip-rule="evenodd" d="M151.779 89.6701C152.767 86.3283 153.96 82.6864 154.756 80.3521L155.772 80.6903C154.978 83.0153 153.791 86.6429 152.808 89.9671C152.316 91.6297 151.877 93.211 151.564 94.5132C151.246 95.8385 151.074 96.8121 151.083 97.2953L151.093 97.7748L150.61 97.8311C149.464 97.9648 147.652 98.1252 145.933 98.1721C145.074 98.1955 144.228 98.1909 143.497 98.1386C142.782 98.0876 142.117 97.988 141.654 97.7919L142.076 96.8186C142.363 96.9403 142.875 97.0326 143.574 97.0825C144.257 97.1312 145.063 97.1365 145.903 97.1136C147.373 97.0735 148.919 96.948 150.034 96.8296C150.096 96.1816 150.277 95.2862 150.521 94.2686C150.84 92.9413 151.285 91.3406 151.779 89.6701Z" fill="#643131"/>
<path fill-rule="evenodd" clip-rule="evenodd" d="M139.304 87.8086C138.999 86.048 139.016 84.16 139.124 82.9526L140.173 83.0464C140.07 84.188 140.056 85.981 140.341 87.6296C140.483 88.4536 140.697 89.2205 140.999 89.8455C141.301 90.4728 141.674 90.9195 142.114 91.1639L141.603 92.0833C140.907 91.6967 140.408 91.0435 140.051 90.3024C139.692 89.5592 139.456 88.6893 139.304 87.8086ZM143.708 91.3344C142.824 90.0774 142.17 88.5824 141.834 87.5844L142.831 87.2491C143.144 88.1792 143.758 89.5765 144.569 90.7296C144.975 91.3058 145.416 91.8015 145.876 92.149C146.335 92.4958 146.786 92.6753 147.227 92.6753V93.7271C146.488 93.7271 145.819 93.4246 145.241 92.9881C144.664 92.5523 144.151 91.9634 143.708 91.3344Z" fill="#643131"/>
<path fill-rule="evenodd" clip-rule="evenodd" d="M154.825 102.404C152.78 100.625 150.92 98.659 149.828 97.3873L150.642 96.6992C151.706 97.9384 153.531 99.8663 155.53 101.607C157.55 103.365 159.673 104.865 161.345 105.339L161.051 106.359C159.129 105.814 156.849 104.167 154.825 102.404Z" fill="#643131"/>
<path fill-rule="evenodd" clip-rule="evenodd" d="M114.573 113.064C114.936 107.571 117.668 101.615 120.058 97.814L120.949 98.375C118.604 102.104 115.97 107.887 115.623 113.134C115.45 115.75 115.848 118.189 117.088 120.175C118.321 122.151 120.425 123.741 123.79 124.599C129.99 126.178 134.382 126.461 137.694 126.674C139.006 126.758 140.148 126.832 141.167 126.97C142.954 127.214 144.379 127.669 145.54 128.823C146.683 129.959 147.509 131.71 148.265 134.393C149.514 138.825 148.259 144.108 146.262 148.839C144.372 153.317 141.779 157.394 139.837 159.952C141.476 161.047 143.804 162.539 145.976 163.8C147.17 164.494 148.308 165.112 149.255 165.555C149.729 165.777 150.146 165.951 150.493 166.069C150.776 166.165 150.987 166.214 151.131 166.231C152.276 165.693 154.269 164.371 156.203 162.92C158.206 161.416 160.049 159.846 160.766 158.956C162.351 156.986 164.645 153.167 166.653 149.16C168.666 145.144 170.347 141.027 170.758 138.455C170.834 137.981 170.955 137.39 171.096 136.709C171.494 134.779 172.043 132.12 172.117 129.315C172.217 125.534 171.439 121.709 168.375 119.31L169.023 118.481C172.484 121.19 173.272 125.448 173.169 129.343C173.092 132.254 172.507 135.085 172.108 137.018C171.975 137.662 171.863 138.207 171.797 138.621C171.359 141.368 169.609 145.612 167.594 149.633C165.918 152.975 164.028 156.226 162.487 158.411C165.014 160.621 171.568 164.192 179.284 162.141C180.851 160.119 184.135 155.466 185.629 151.869C186.58 149.581 187.624 145.467 188.272 141.268C188.922 137.052 189.155 132.865 188.55 130.395C188.448 129.978 188.349 129.558 188.25 129.135C187.727 126.913 187.189 124.627 186.082 122.33C184.775 119.618 182.668 116.886 178.826 114.331L179.408 113.454C183.406 116.113 185.64 118.989 187.029 121.872C188.191 124.283 188.758 126.695 189.28 128.918C189.378 129.334 189.474 129.743 189.572 130.145C190.231 132.836 189.963 137.206 189.312 141.429C188.657 145.668 187.597 149.875 186.601 152.274C185.015 156.092 181.536 160.973 180.005 162.928L179.898 163.065L179.73 163.111C171.572 165.361 164.64 161.652 161.862 159.263C161.768 159.386 161.676 159.504 161.585 159.616C160.775 160.622 158.83 162.264 156.835 163.762C154.835 165.263 152.688 166.692 151.445 167.245L151.343 167.29H151.231C150.916 167.29 150.542 167.198 150.156 167.067C149.758 166.932 149.302 166.74 148.809 166.509C147.822 166.047 146.654 165.411 145.448 164.711C143.034 163.31 140.438 161.631 138.782 160.512L138.314 160.196L138.663 159.751C140.586 157.298 143.33 153.08 145.293 148.429C147.263 143.759 148.402 138.756 147.252 134.679C146.509 132.042 145.743 130.509 144.799 129.571C143.874 128.651 142.717 128.244 141.025 128.014C140.095 127.887 139.008 127.817 137.739 127.735C134.413 127.521 129.834 127.225 123.531 125.62C119.951 124.708 117.596 122.978 116.195 120.733C114.801 118.499 114.39 115.818 114.573 113.064Z" fill="#643131"/>
<path fill-rule="evenodd" clip-rule="evenodd" d="M154.699 104.936C153.568 104.735 152.411 104.859 151.703 105.033L151.456 103.989C152.275 103.787 153.581 103.647 154.88 103.878C156.18 104.11 157.548 104.73 158.349 106.118C159.29 107.747 159.569 109.947 159.467 111.784C159.416 112.708 159.267 113.572 159.038 114.258C158.924 114.601 158.785 114.914 158.618 115.171C158.454 115.423 158.239 115.661 157.957 115.792C156.309 116.563 154.515 115.276 154.58 113.352C154.603 112.683 154.422 112.041 153.937 111.562C153.45 111.08 152.575 110.686 151.053 110.686C150.377 110.686 149.894 110.994 149.513 111.238C149.394 111.313 149.285 111.383 149.184 111.435L148.713 110.474C148.731 110.465 148.766 110.442 148.816 110.408C149.124 110.202 150.004 109.612 151.053 109.612C152.742 109.612 153.92 110.05 154.67 110.79C155.422 111.533 155.662 112.502 155.632 113.389C155.592 114.58 156.64 115.227 157.519 114.816C157.553 114.8 157.634 114.742 157.74 114.579C157.842 114.421 157.946 114.198 158.041 113.912C158.232 113.341 158.369 112.577 158.416 111.723C158.512 110.002 158.238 108.041 157.442 106.663C156.855 105.645 155.827 105.137 154.699 104.936Z" fill="#643131"/>
<path fill-rule="evenodd" clip-rule="evenodd" d="M193.297 89.2686L185.064 110.853L184.876 110.944C180.984 112.832 175.146 115.646 170.28 117.951C167.848 119.103 165.656 120.13 164.072 120.85C163.28 121.21 162.636 121.495 162.187 121.683C161.964 121.775 161.78 121.848 161.647 121.893C161.585 121.915 161.511 121.938 161.443 121.951C161.418 121.956 161.342 121.97 161.252 121.96C161.213 121.956 161.123 121.942 161.026 121.883L140.539 112.548L145.813 110.356L146.219 111.324L143.167 112.592L160.968 120.703C161.058 120.427 161.181 120.06 161.331 119.616C161.669 118.618 162.148 117.224 162.717 115.584C163.764 112.561 165.113 108.697 166.436 104.923L158.551 107.253L158.251 106.248L166.864 103.703C167.93 100.664 168.954 97.751 169.761 95.4616L169.854 95.1962L193.297 89.2686ZM162.122 120.57C162.522 120.397 163.032 120.17 163.634 119.896C165.21 119.18 167.396 118.156 169.827 117.004C174.611 114.737 180.338 111.978 184.226 110.093L191.592 90.7815L170.662 96.0739C169.848 98.3853 168.827 101.289 167.77 104.301C166.342 108.374 164.849 112.646 163.713 115.925C163.145 117.566 162.667 118.957 162.33 119.95C162.253 120.179 162.183 120.386 162.122 120.57Z" fill="#643131"/>
<path fill-rule="evenodd" clip-rule="evenodd" d="M162.082 162.424C161.613 161.158 161.783 160.104 162.389 159.286L163.237 159.915C162.869 160.411 162.711 161.083 163.071 162.057C163.44 163.052 164.351 164.485 165.581 166.106C166.801 167.713 168.302 169.464 169.809 171.086C171.317 172.708 172.824 174.194 174.054 175.274C174.67 175.815 175.207 176.246 175.636 176.541C175.851 176.688 176.028 176.795 176.167 176.864C176.295 176.926 176.357 176.94 176.369 176.943C176.371 176.943 176.372 176.943 176.37 176.943C176.408 176.944 176.429 176.94 176.47 176.893C176.527 176.826 176.599 176.69 176.658 176.454C176.775 175.982 176.798 175.3 176.753 174.544C176.709 173.798 176.602 173.025 176.483 172.393C176.424 172.078 176.363 171.803 176.306 171.588C176.246 171.36 176.201 171.237 176.182 171.2C176.103 171.043 176.025 170.838 175.94 170.613C175.91 170.533 175.879 170.449 175.846 170.365C175.713 170.022 175.529 169.579 175.233 168.994C174.639 167.823 173.589 166.07 171.587 163.429L172.428 162.791C174.458 165.469 175.545 167.276 176.174 168.517C176.489 169.139 176.687 169.616 176.829 169.983C176.878 170.108 176.918 170.213 176.952 170.304C177.024 170.496 177.071 170.62 177.124 170.723C177.198 170.87 177.266 171.089 177.327 171.32C177.391 171.564 177.457 171.864 177.52 172.198C177.646 172.865 177.76 173.684 177.807 174.481C177.853 175.268 177.838 176.079 177.682 176.708C177.604 177.022 177.479 177.338 177.269 177.582C177.041 177.846 176.723 178.011 176.334 177.998C176.114 177.99 175.891 177.904 175.702 177.811C175.5 177.711 175.276 177.574 175.038 177.41C174.561 177.082 173.988 176.621 173.357 176.067C172.093 174.957 170.561 173.445 169.036 171.804C167.511 170.163 165.986 168.385 164.74 166.744C163.504 165.115 162.508 163.577 162.082 162.424Z" fill="#643131"/>
<path fill-rule="evenodd" clip-rule="evenodd" d="M139.724 164.418C139.455 163.096 139.784 162.08 140.508 161.365L141.25 162.116C140.81 162.55 140.551 163.19 140.758 164.208C140.969 165.248 141.65 166.803 142.617 168.593C143.576 170.368 144.791 172.328 146.032 174.162C147.273 175.997 148.535 177.696 149.585 178.952C150.111 179.581 150.576 180.089 150.954 180.446C151.144 180.625 151.303 180.757 151.43 180.846C151.547 180.928 151.606 180.951 151.617 180.955C151.619 180.956 151.619 180.956 151.618 180.956C151.655 180.963 151.677 180.962 151.724 180.922C151.791 180.865 151.883 180.742 151.977 180.516C152.165 180.069 152.293 179.398 152.364 178.644C152.435 177.901 152.448 177.12 152.427 176.478C152.417 176.157 152.398 175.876 152.375 175.655C152.351 175.42 152.325 175.291 152.313 175.252C152.258 175.085 152.213 174.87 152.164 174.635C152.146 174.551 152.128 174.464 152.108 174.375C152.029 174.016 151.915 173.55 151.712 172.927C151.306 171.678 150.537 169.785 148.963 166.868L149.892 166.367C151.487 169.324 152.284 171.277 152.716 172.6C152.931 173.263 153.054 173.764 153.139 174.149C153.168 174.28 153.191 174.39 153.211 174.485C153.253 174.685 153.28 174.815 153.316 174.925C153.367 175.081 153.4 175.309 153.425 175.546C153.451 175.797 153.471 176.104 153.482 176.444C153.504 177.122 153.491 177.948 153.415 178.744C153.34 179.528 153.201 180.327 152.95 180.925C152.825 181.223 152.654 181.516 152.408 181.725C152.143 181.951 151.803 182.065 151.421 181.993C151.204 181.952 150.997 181.832 150.825 181.711C150.64 181.582 150.44 181.412 150.23 181.214C149.809 180.816 149.314 180.273 148.775 179.629C147.696 178.338 146.413 176.609 145.158 174.754C143.903 172.898 142.669 170.908 141.689 169.095C140.717 167.296 139.969 165.623 139.724 164.418Z" fill="#643131"/>
<path fill-rule="evenodd" clip-rule="evenodd" d="M184.981 118.991L206.548 121.577L206.628 121.616C208.574 122.568 211.026 124.132 211.909 126.515C212.824 128.983 211.981 132.06 207.971 135.818L207.857 135.924L189.129 139.324L188.94 138.29L207.36 134.946C211.141 131.36 211.61 128.742 210.919 126.878C210.209 124.963 208.197 123.575 206.317 122.636L187.596 125.949L187.411 124.915L202.815 122.188L184.855 120.035L184.981 118.991ZM146.963 133.142L134.351 135.375L134.166 134.34L146.778 132.107L146.963 133.142ZM133.109 148.423L146.248 146.038L146.438 147.072L133.298 149.457L133.109 148.423Z" fill="#643131"/>
<path d="M205.929 123.315C200.1 124.394 188.412 126.438 188.286 125.986C188.168 125.564 186.599 122.775 185.678 121.168L205.929 123.315Z" fill="#FDC247"/>
<path fill-rule="evenodd" clip-rule="evenodd" d="M201.484 155.443C202.015 162.219 203.837 168.703 205.352 172.593L205.557 173.119L125.744 198.128L57.2783 177.14L57.1745 176.995C50.9003 168.255 50.784 159.762 53.2063 152.715C55.619 145.697 60.5416 140.127 64.3496 137.135L65.0022 137.964C61.3154 140.861 56.537 146.273 54.2047 153.058C51.8953 159.776 51.9759 167.853 57.9291 176.236L123.992 196.487C123.543 195.749 123.06 194.721 122.569 193.338C121.479 190.265 120.334 185.382 119.465 177.909C117.702 162.729 128.111 151.879 133.53 148.343L134.107 149.226C128.864 152.647 118.815 163.163 120.514 177.787C121.377 185.216 122.51 190.013 123.564 192.986C124.092 194.473 124.594 195.489 125.024 196.145C125.239 196.473 125.429 196.701 125.587 196.852C125.665 196.926 125.73 196.977 125.781 197.01L204.167 172.449C202.665 168.438 200.948 162.123 200.431 155.526C199.892 148.648 200.649 141.36 204.431 136.082L205.29 136.696C201.725 141.671 200.951 148.652 201.484 155.443Z" fill="#643131"/>
<path fill-rule="evenodd" clip-rule="evenodd" d="M110.327 134.991L61.1374 127.084L61.3063 126.05L110.495 133.957L110.327 134.991ZM67.9939 132.843L60.2883 131.534L60.4665 130.502L68.1721 131.811L67.9939 132.843ZM128.116 138.919L119.671 137.61L119.834 136.575L128.279 137.884L128.116 138.919ZM127.008 144.627L104.419 141.171L104.58 140.136L127.169 143.592L127.008 144.627Z" fill="#643131"/>
<path fill-rule="evenodd" clip-rule="evenodd" d="M108.927 162.886L60.0162 153.458L60.2152 152.429L109.126 161.857L108.927 162.886ZM117.342 157.023L108.945 155.713L109.107 154.678L117.504 155.988L117.342 157.023ZM71.0339 160.266L59.1736 157.909L59.3785 156.882L71.2388 159.239L71.0339 160.266ZM114.154 182.523L91.0627 177.076L91.3041 176.056L114.395 181.504L114.154 182.523Z" fill="#643131"/>
<path fill-rule="evenodd" clip-rule="evenodd" d="M188.075 158.444L199.688 154.844L199.376 153.836L187.763 157.436L188.075 158.444ZM127.983 164.238L136.242 162.05L135.972 161.03L127.712 163.218L127.983 164.238ZM139.252 188.845L161.772 180.976L161.424 179.98L138.904 187.848L139.252 188.845Z" fill="#643131"/>
<path fill-rule="evenodd" clip-rule="evenodd" d="M114.8 109.703L114.993 110.734L55.7117 121.72L134.707 134.503L134.81 134.8C135.532 136.891 136.35 140.118 136.443 143.003C136.49 144.443 136.358 145.841 135.911 146.98C135.458 148.134 134.666 149.05 133.406 149.422L133.287 149.457L51.743 135.347L52.21 134.673C52.737 133.912 53.4946 132.626 54.0402 131.261C54.5969 129.868 54.8827 128.515 54.6157 127.559C53.9999 125.356 52.7412 122.946 52.1906 122.023L51.8059 121.377L114.8 109.703ZM53.6317 122.446L133.912 135.437C134.587 137.47 135.304 140.423 135.389 143.037C135.433 144.411 135.301 145.648 134.928 146.598C134.577 147.492 134.028 148.104 133.219 148.381L53.522 134.59C54.0154 133.794 54.581 132.748 55.0208 131.648C55.5896 130.225 55.9984 128.589 55.6323 127.279C55.1411 125.521 54.2742 123.665 53.6317 122.446Z" fill="#643131"/>
<path d="M113.974 111.189L53.2292 123.156L133.237 136.825L146.484 134.485C144.953 129.326 143.687 129.964 134.556 129.272C125.426 128.581 119.621 125.815 116.085 123.156C113.256 121.029 113.499 114.292 113.974 111.189Z" fill="#FDC247"/>
</svg>
