<svg width="280" height="230" viewBox="0 0 280 230" fill="none" xmlns="http://www.w3.org/2000/svg">
<rect width="280" height="229" transform="translate(0 0.594482)" fill="white"/>
<path fill-rule="evenodd" clip-rule="evenodd" d="M150.69 80.1167H49.7608C49.7608 80.1167 46.3137 86.5131 46.2095 91.1962C46.0976 96.2307 49.7608 103.244 49.7608 103.244H85.9766C85.5693 100.913 85.7959 97.8689 88.682 97.1349C92.3361 96.2056 94.4534 97.1701 95.0553 97.7686C95.374 95.6036 96.978 91.5378 100.844 92.5938C105.678 93.9139 105.784 95.8149 105.837 99.1943V101.834C105.837 101.834 110.04 101.112 111.942 103.244H150.69C150.69 103.244 154.017 96.1744 153.914 91.1962C153.818 86.5737 150.69 80.1167 150.69 80.1167Z" fill="#FFF1D2"/>
<path d="M73.676 154.517C80.3169 144.033 92.0877 141.518 97.1429 141.571L96.7704 143.214C97.9588 144.381 100.878 146.726 103.05 146.768C105.221 146.811 108.672 144.133 110.127 142.789C114.153 143.019 123.505 145.888 128.698 155.523C133.892 165.157 134.268 170.962 133.807 172.659C131.217 174.251 126.176 177.869 126.729 179.61C122.118 179.309 112.702 178.888 111.936 179.61L111.564 185.552L135.084 188.788L66.8115 189.478V188.047C66.3326 181.239 67.035 165 73.676 154.517Z" fill="#FFFBF3"/>
<path d="M147.49 124.501C149.86 119.789 164.17 111.219 171.029 107.523C171.029 107.907 170.676 110.264 170.5 111.394C171.893 112.473 175.176 114.577 177.165 114.365C179.154 114.153 182.966 109.715 184.623 107.523L183.936 105.242C190.618 104.198 205.793 104.913 213.029 116.118C222.074 130.124 225.036 143.866 224.137 164.928C223.238 185.991 223.767 185.089 219.8 186.628C215.832 188.166 175.049 188.697 173.991 188.803C173.145 188.888 170.024 188.573 169.389 188.538C171.223 188.183 174.965 187.305 175.261 186.625L175.948 181.744C174.996 181.072 172.489 179.824 170.077 180.206C167.062 180.683 161.349 183.126 154.896 183.126L154.249 172.884H139.027V171.719C137.123 164.663 144.528 130.39 147.49 124.501Z" fill="#FDC247"/>
<path fill-rule="evenodd" clip-rule="evenodd" d="M91.1215 110.183L91.6636 110.837C93.8877 113.523 96.4598 114.283 98.7782 114.169C101.125 114.053 103.233 113.037 104.443 112.14L104.849 111.839L105.169 112.231C106.016 113.268 107.186 113.617 108.367 113.61C109.557 113.603 110.703 113.231 111.381 112.894L111.604 112.783L111.831 112.884C112.058 112.984 112.279 113.058 112.511 113.135L112.544 113.146C112.778 113.223 113.039 113.311 113.281 113.435C113.532 113.564 113.774 113.739 113.979 114.001C114.001 114.03 114.022 114.059 114.043 114.089C114.306 113.836 114.617 113.594 114.952 113.379C115.619 112.948 116.44 112.583 117.282 112.438C118.124 112.293 119.031 112.363 119.811 112.865C120.598 113.372 121.168 114.263 121.44 115.579C121.904 117.811 120.641 119.708 119.07 121.107C117.596 122.42 115.744 123.397 114.382 123.941C114.307 124.327 114.164 124.763 113.981 125.222C113.738 125.829 113.41 126.508 113.023 127.216C112.251 128.631 111.233 130.186 110.173 131.536C107.437 135.02 101.691 137.288 96.3275 135.841C93.4224 135.057 91.0085 133.163 89.253 131.032C87.636 129.069 86.5417 126.861 86.1384 125.047C83.8434 124.979 81.3297 124.187 79.6958 122.806C78.8185 122.064 78.1645 121.124 77.9784 120.007C77.791 118.883 78.0923 117.664 78.9629 116.4C80.2748 114.495 81.4778 113.375 82.6062 112.986C83.1881 112.786 83.7509 112.78 84.2755 112.964C84.7111 113.117 85.0914 113.39 85.4221 113.737C85.4775 113.762 85.5174 113.79 85.5397 113.807C85.5949 113.85 85.6303 113.895 85.647 113.918C85.6821 113.965 85.7059 114.011 85.7182 114.036C85.7668 114.134 85.822 114.288 85.8727 114.434C85.9111 114.545 85.9524 114.668 85.9961 114.798C86.0816 115.053 86.1766 115.335 86.2782 115.612C86.3356 115.769 86.3927 115.917 86.448 116.049H86.5768C86.8874 116.049 87.2803 115.871 87.7425 115.471C88.1937 115.081 88.6457 114.537 89.0656 113.94C89.9042 112.749 90.5582 111.43 90.7712 110.958L91.1215 110.183ZM86.6719 116.487C86.6719 116.487 86.6709 116.486 86.6689 116.484C86.671 116.486 86.672 116.487 86.6719 116.487ZM91.384 112.131C91.0468 112.788 90.5371 113.701 89.9333 114.559C89.4889 115.19 88.9793 115.813 88.4351 116.283C88.0067 116.653 87.5118 116.968 86.9765 117.078C86.9269 117.174 86.8369 117.306 86.6763 117.388C86.443 117.507 86.2172 117.447 86.0773 117.366C85.9555 117.295 85.8705 117.195 85.8182 117.126C85.7086 116.981 85.6119 116.79 85.5302 116.607C85.4447 116.416 85.3601 116.199 85.2806 115.982C85.1745 115.693 85.0695 115.381 84.9813 115.119C84.9394 114.994 84.9013 114.881 84.8687 114.786C84.8551 114.747 84.8425 114.711 84.8309 114.679L84.7877 114.627C84.5026 114.286 84.2135 114.076 83.926 113.975C83.6465 113.877 83.329 113.869 82.9504 113.999C82.1579 114.272 81.1192 115.147 79.8367 117.009C79.0858 118.099 78.8954 119.041 79.027 119.83C79.1599 120.628 79.6356 121.357 80.3798 121.986C81.8826 123.257 84.3545 124.007 86.5707 123.981L87.0267 123.976L87.1013 124.429C87.3748 126.089 88.4102 128.332 90.0715 130.349C91.7286 132.361 93.9665 134.096 96.6027 134.807C101.553 136.143 106.864 134.023 109.339 130.872C110.362 129.569 111.347 128.064 112.092 126.701C112.464 126.019 112.772 125.379 112.995 124.823C113.221 124.257 113.345 123.81 113.373 123.503L113.404 123.168L113.718 123.051C115.014 122.568 116.907 121.605 118.365 120.306C119.837 118.996 120.745 117.46 120.4 115.797C120.168 114.679 119.72 114.078 119.238 113.767C118.749 113.452 118.134 113.377 117.461 113.493C116.788 113.609 116.1 113.909 115.525 114.28C114.939 114.657 114.531 115.068 114.365 115.363L113.7 116.544L113.386 115.224C113.32 114.947 113.231 114.776 113.142 114.662C113.054 114.549 112.944 114.464 112.796 114.388C112.639 114.307 112.455 114.243 112.211 114.162C112.197 114.157 112.183 114.152 112.169 114.148C112.006 114.094 111.823 114.033 111.63 113.958C110.828 114.319 109.633 114.673 108.373 114.68C107.115 114.688 105.75 114.347 104.68 113.278C103.306 114.192 101.189 115.121 98.8304 115.237C96.3938 115.358 93.7179 114.608 91.384 112.131Z" fill="#643131"/>
<path fill-rule="evenodd" clip-rule="evenodd" d="M97.8203 94.3902C96.9774 95.4359 96.5229 96.8773 96.3725 97.891L96.2201 98.9191L95.4755 98.1844C95.0511 97.7656 93.1598 96.8052 89.6353 97.6948C88.8407 97.8954 88.3018 98.2863 87.9332 98.7792C87.5582 99.2807 87.3394 99.9157 87.2431 100.623C87.0493 102.047 87.3681 103.649 87.7307 104.689L87.9674 105.368L87.2398 105.381C86.2738 105.397 84.8289 105.629 83.6457 106.251C82.4801 106.863 81.6259 107.814 81.6259 109.294C81.6259 110.147 81.6696 110.785 81.7558 111.266C81.8421 111.747 81.9655 112.039 82.1012 112.225C82.3476 112.562 82.7344 112.691 83.6344 112.779L83.5302 113.817C82.6499 113.731 81.7942 113.589 81.2431 112.835C80.98 112.474 80.8159 112.014 80.7144 111.447C80.6128 110.88 80.5684 110.173 80.5684 109.294C80.5684 107.31 81.7587 106.06 83.1487 105.33C84.2513 104.75 85.515 104.473 86.5286 104.377C86.2259 103.277 86.0112 101.834 86.195 100.484C86.3072 99.66 86.5716 98.8426 87.0823 98.1596C87.5995 97.468 88.349 96.9424 89.3733 96.6839C92.2968 95.9459 94.3539 96.3575 95.4857 96.9367C95.7368 95.9168 96.2139 94.7068 96.9927 93.7406C97.496 93.1164 98.1387 92.5776 98.9436 92.2731C99.7545 91.9663 100.692 91.9118 101.753 92.1993C104.203 92.8636 105.597 93.7086 106.337 94.933C107.057 96.1252 107.086 97.5824 107.112 99.216L107.112 99.2201V101.244C107.193 101.237 107.281 101.229 107.374 101.223C107.901 101.187 108.624 101.172 109.4 101.259C110.92 101.429 112.821 102.012 113.671 103.803C114.129 104.766 114.144 105.99 114.07 106.909C114.032 107.38 113.968 107.795 113.914 108.093C113.891 108.219 113.869 108.324 113.852 108.404C113.892 108.499 113.943 108.63 113.995 108.789C114.106 109.125 114.226 109.6 114.26 110.147C114.328 111.255 114.04 112.673 112.627 113.807L111.96 112.997C113.043 112.128 113.257 111.074 113.204 110.211C113.177 109.773 113.08 109.387 112.989 109.11C112.944 108.973 112.901 108.864 112.87 108.791C112.855 108.755 112.842 108.728 112.834 108.711C112.83 108.703 112.828 108.697 112.826 108.694L112.825 108.692L112.825 108.692L112.825 108.692L112.825 108.691L112.825 108.691L112.738 108.521L112.785 108.335L112.785 108.335L112.785 108.335L112.785 108.334L112.786 108.33C112.787 108.326 112.788 108.319 112.791 108.31C112.795 108.292 112.801 108.264 112.809 108.227C112.825 108.153 112.848 108.045 112.873 107.908C112.923 107.635 112.981 107.255 113.016 106.826C113.087 105.945 113.049 104.952 112.714 104.246C112.106 102.967 110.702 102.455 109.282 102.296C108.587 102.218 107.932 102.231 107.447 102.264C107.206 102.281 107.009 102.302 106.874 102.319C106.806 102.327 106.755 102.335 106.72 102.34C106.703 102.342 106.691 102.344 106.683 102.345L106.674 102.347L106.673 102.347L106.673 102.347L106.673 102.347L106.054 102.452V99.2282C106.027 97.5249 105.976 96.3745 105.428 95.4674C104.899 94.5918 103.834 93.8455 101.473 93.2055C100.609 92.9713 99.9033 93.0276 99.3222 93.2474C98.7352 93.4695 98.2371 93.8732 97.8203 94.3902Z" fill="#643131"/>
<path fill-rule="evenodd" clip-rule="evenodd" d="M93.1958 135.38C93.0523 135.023 92.9116 134.673 92.793 134.328L93.7996 133.971C93.8913 134.238 94.0122 134.533 94.1435 134.852C94.8568 136.59 95.8771 139.076 94.1799 141.901L93.2697 141.337C94.6598 139.023 93.8945 137.119 93.1958 135.38Z" fill="#643131"/>
<path fill-rule="evenodd" clip-rule="evenodd" d="M166.852 100.875C166.638 100.477 166.431 100.09 166.249 99.7115L167.206 99.2519C167.36 99.5725 167.547 99.9177 167.748 100.289C168.818 102.265 170.283 104.97 169.253 108.562L168.233 108.269C169.132 105.13 167.912 102.853 166.852 100.875Z" fill="#643131"/>
<path fill-rule="evenodd" clip-rule="evenodd" d="M106.247 141.901C104.703 138.955 105.524 135.615 105.961 133.971L107.128 134.23C106.685 135.897 105.991 138.873 107.331 141.427L106.247 141.901Z" fill="#643131"/>
<path fill-rule="evenodd" clip-rule="evenodd" d="M181.536 103.889C179.449 99.6179 179.221 94.3654 179.138 91.6693L180.199 91.6367C180.282 94.3469 180.515 99.3822 182.49 103.423L181.536 103.889Z" fill="#643131"/>
<path fill-rule="evenodd" clip-rule="evenodd" d="M93.1235 141.696C93.1234 141.696 93.1233 141.696 93.4836 141.303C93.8438 140.91 93.8438 140.909 93.8437 140.909L93.8439 140.91L93.8455 140.911L93.853 140.917C93.86 140.923 93.8707 140.932 93.8851 140.945C93.9139 140.969 93.9573 141.005 94.0141 141.052C94.1277 141.144 94.2946 141.278 94.505 141.438C94.9265 141.76 95.5193 142.185 96.2053 142.605C97.6085 143.463 99.2826 144.221 100.658 144.147C101.812 144.085 103.2 143.415 104.354 142.701C104.919 142.352 105.406 142.006 105.752 141.748C105.925 141.619 106.061 141.512 106.154 141.438C106.201 141.401 106.236 141.372 106.26 141.353C106.271 141.343 106.28 141.336 106.286 141.331L106.292 141.326L106.293 141.325L106.293 141.325C106.293 141.325 106.293 141.325 106.647 141.724C107 142.123 107 142.123 107 142.123L106.999 142.124L106.997 142.126L106.988 142.133C106.981 142.139 106.971 142.147 106.957 142.158C106.93 142.18 106.891 142.212 106.841 142.252C106.74 142.332 106.595 142.446 106.413 142.582C106.048 142.855 105.535 143.22 104.936 143.59C103.763 144.315 102.171 145.12 100.718 145.198C98.976 145.292 97.0478 144.364 95.6282 143.496C94.9027 143.052 94.2789 142.604 93.8367 142.267C93.6153 142.098 93.4385 141.957 93.3165 141.857C93.2554 141.807 93.208 141.768 93.1754 141.74C93.1591 141.726 93.1465 141.716 93.1378 141.708L93.1276 141.7L93.1247 141.697L93.1235 141.696Z" fill="#643131"/>
<path fill-rule="evenodd" clip-rule="evenodd" d="M177.55 109.836C176.748 110.553 175.895 111.169 175.13 111.349C173.42 111.75 171.707 110.969 170.498 110.186C169.88 109.786 169.362 109.364 168.998 109.044C168.816 108.883 168.672 108.747 168.572 108.65C168.522 108.601 168.484 108.562 168.457 108.535C168.443 108.521 168.433 108.511 168.426 108.503C168.422 108.499 168.419 108.496 168.417 108.494L168.414 108.491L168.413 108.49C168.413 108.49 168.413 108.49 168.798 108.124C169.183 107.759 169.183 107.759 169.183 107.759L169.184 107.76L169.189 107.765C169.194 107.771 169.202 107.779 169.213 107.79C169.235 107.812 169.269 107.846 169.313 107.889C169.402 107.976 169.533 108.1 169.701 108.248C170.036 108.544 170.512 108.931 171.075 109.295C172.226 110.04 173.618 110.613 174.888 110.315C175.368 110.202 176.047 109.756 176.842 109.045C177.616 108.353 178.43 107.475 179.176 106.604C179.921 105.735 180.59 104.883 181.073 104.247C181.314 103.93 181.509 103.667 181.642 103.484C181.709 103.392 181.761 103.32 181.796 103.272C181.814 103.248 181.827 103.229 181.836 103.217L181.845 103.203L181.848 103.199L181.848 103.199C181.848 103.199 181.848 103.199 182.281 103.506C182.714 103.813 182.714 103.813 182.714 103.813L182.714 103.814L182.713 103.815L182.71 103.819L182.699 103.834C182.69 103.847 182.676 103.867 182.658 103.892C182.622 103.943 182.568 104.016 182.499 104.11C182.362 104.298 182.164 104.566 181.918 104.89C181.427 105.536 180.744 106.406 179.982 107.295C179.222 108.183 178.373 109.1 177.55 109.836Z" fill="#643131"/>
<path d="M94.7753 118.938C94.7753 119.577 94.3316 120.095 93.7842 120.095C93.2367 120.095 92.793 119.577 92.793 118.938C92.793 118.299 93.2367 117.782 93.7842 117.782C94.3316 117.782 94.7753 118.299 94.7753 118.938Z" fill="#643131"/>
<path d="M108.842 119.481C108.606 120.081 108.038 120.42 107.575 120.237C107.111 120.054 106.927 119.42 107.163 118.819C107.4 118.219 107.967 117.881 108.431 118.064C108.895 118.246 109.079 118.881 108.842 119.481Z" fill="#643131"/>
<path d="M169.597 79.0245C169.701 79.8692 169.255 80.6188 168.603 80.6988C167.95 80.7787 167.337 80.1587 167.233 79.314C167.13 78.4692 167.575 77.7196 168.228 77.6397C168.881 77.5597 169.494 78.1797 169.597 79.0245Z" fill="#643131"/>
<path d="M156.538 83.4837C156.642 84.3284 156.197 85.0781 155.544 85.158C154.891 85.2379 154.278 84.6179 154.175 83.7732C154.071 82.9285 154.516 82.1788 155.169 82.0989C155.822 82.019 156.435 82.6389 156.538 83.4837Z" fill="#643131"/>
<path fill-rule="evenodd" clip-rule="evenodd" d="M93.6105 119.688C94.0826 119.589 94.4934 119.317 94.7152 119.104L95.4362 119.842C95.1054 120.16 94.5266 120.546 93.8261 120.694C93.1005 120.847 92.2513 120.74 91.4714 120.066L92.152 119.291C92.657 119.727 93.1635 119.783 93.6105 119.688Z" fill="#643131"/>
<path fill-rule="evenodd" clip-rule="evenodd" d="M108.809 119.805C109.281 119.686 109.692 119.359 109.913 119.104L110.634 119.99C110.304 120.371 109.725 120.835 109.024 121.012C108.299 121.196 107.45 121.068 106.67 120.259L107.35 119.328C107.855 119.852 108.362 119.919 108.809 119.805Z" fill="#643131"/>
<path fill-rule="evenodd" clip-rule="evenodd" d="M169.387 80.1315C169.725 80.0709 170.014 79.9067 170.162 79.7861L170.767 80.5241C170.51 80.7328 170.075 80.9763 169.555 81.0692C169.022 81.1645 168.387 81.1016 167.793 80.6666L168.358 79.8986C168.704 80.1517 169.062 80.1896 169.387 80.1315Z" fill="#643131"/>
<path fill-rule="evenodd" clip-rule="evenodd" d="M155.348 84.4287C155.607 84.2258 155.779 83.931 155.85 83.7335L156.849 84.0933C156.725 84.4372 156.45 84.9135 156.003 85.2641C155.536 85.6309 154.884 85.8521 154.088 85.6394L154.362 84.6137C154.797 84.73 155.11 84.6153 155.348 84.4287Z" fill="#643131"/>
<path fill-rule="evenodd" clip-rule="evenodd" d="M97.7815 124.286C97.6829 123.63 97.8251 122.885 97.9729 122.407L98.9581 122.697C98.8316 123.106 98.732 123.69 98.7997 124.141C98.8332 124.363 98.9001 124.504 98.9734 124.583C99.0316 124.645 99.1281 124.709 99.3403 124.709C100.1 124.709 100.811 124.506 101.34 124.271C101.603 124.154 101.81 124.034 101.946 123.937C102.015 123.888 102.056 123.852 102.076 123.832C102.078 123.83 102.079 123.829 102.081 123.827C102.067 123.846 102.04 123.891 102.026 123.958L103.035 124.155C102.998 124.337 102.876 124.468 102.821 124.524C102.745 124.602 102.652 124.677 102.552 124.748C102.351 124.891 102.082 125.044 101.766 125.184C101.137 125.463 100.279 125.711 99.3403 125.711C98.8733 125.711 98.4865 125.553 98.2104 125.256C97.9495 124.975 97.8312 124.617 97.7815 124.286ZM102.089 123.818C102.089 123.818 102.087 123.821 102.081 123.827C102.085 123.821 102.088 123.818 102.089 123.818Z" fill="#643131"/>
<path fill-rule="evenodd" clip-rule="evenodd" d="M98.0518 131.247C97.1148 131.004 96.2788 130.668 95.7666 130.293L96.3785 129.346C96.7303 129.603 97.4167 129.899 98.3075 130.13C99.1845 130.358 100.208 130.509 101.203 130.509C101.823 130.509 102.75 130.374 103.583 130.153C103.998 130.042 104.372 129.915 104.664 129.78C104.98 129.635 105.114 129.518 105.145 129.474L106.009 130.164C105.797 130.465 105.432 130.679 105.093 130.835C104.729 131.003 104.294 131.148 103.845 131.268C102.95 131.506 101.933 131.658 101.203 131.658C100.112 131.658 99.0025 131.494 98.0518 131.247Z" fill="#643131"/>
<path fill-rule="evenodd" clip-rule="evenodd" d="M70.3945 151.847C77.1104 141.109 88.9917 138.543 94.1146 138.598L94.1035 139.663C89.2014 139.611 77.7404 142.097 71.2867 152.416C68.0496 157.592 66.2444 164.219 65.3116 170.433C64.3798 176.641 64.3257 182.388 64.5605 185.769L63.5078 185.844C63.2677 182.387 63.3245 176.561 64.2683 170.273C65.2113 163.991 67.0468 157.2 70.3945 151.847Z" fill="#643131"/>
<path fill-rule="evenodd" clip-rule="evenodd" d="M130.386 170.315C128.319 147.438 113.406 141.264 106.339 140.988L106.381 139.918C113.941 140.214 129.33 146.764 131.449 170.218L130.386 170.315Z" fill="#643131"/>
<path fill-rule="evenodd" clip-rule="evenodd" d="M243.849 187.588H35.2396C34.037 187.588 33.0622 188.582 33.0622 189.808C33.0622 191.035 34.037 192.029 35.2396 192.029H243.849C245.051 192.029 246.026 191.035 246.026 189.808C246.026 188.582 245.051 187.588 243.849 187.588ZM35.2396 186.504C33.4504 186.504 32 187.984 32 189.808C32 191.633 33.4504 193.112 35.2396 193.112H243.849C245.638 193.112 247.088 191.633 247.088 189.808C247.088 187.984 245.638 186.504 243.849 186.504H35.2396Z" fill="#643131"/>
<path fill-rule="evenodd" clip-rule="evenodd" d="M81.3048 176.815C81.2832 180.683 81.5536 184.617 81.8095 187.053L80.7496 187.165C80.4903 184.697 80.2171 180.724 80.239 176.809C80.25 174.852 80.3347 172.901 80.5337 171.156C80.7319 169.419 81.0468 167.852 81.5338 166.681L82.5174 167.093C82.0878 168.126 81.7868 169.576 81.5927 171.277C81.3994 172.971 81.3157 174.881 81.3048 176.815ZM115.836 172.37C115.348 170.64 114.7 168.847 114.252 167.728L115.241 167.329C115.699 168.475 116.361 170.304 116.862 172.079C117.112 172.966 117.325 173.849 117.45 174.632C117.573 175.399 117.624 176.13 117.506 176.682L116.464 176.458C116.538 176.111 116.517 175.546 116.398 174.802C116.282 174.076 116.081 173.236 115.836 172.37Z" fill="#643131"/>
<path fill-rule="evenodd" clip-rule="evenodd" d="M159.27 67.5615L159.553 67.6863C169.487 72.0673 175.231 70.1591 176.751 68.8729L177.018 68.6467L177.334 68.8004C179.097 69.6584 180.066 71.507 180.587 73.3313C180.959 74.6373 181.119 75.9943 181.158 77.1146C181.868 76.6246 182.736 76.3406 183.786 76.3805C184.585 76.4108 185.459 76.6857 186.141 77.3745C186.825 78.0661 187.257 79.1154 187.286 80.5818C187.312 81.9373 186.347 83.0428 185.323 83.8295C184.354 84.5731 183.211 85.1268 182.381 85.4389C181.208 87.5981 178.197 92.4356 174.706 95.9645C172.433 98.2624 169.905 99.6613 167.002 99.6086C164.112 99.5561 160.978 98.0673 157.48 94.8778C154.219 91.9045 152.507 87.7157 151.757 83.6746C151.007 79.6335 151.206 75.6765 151.829 73.099L151.875 72.9109L159.27 67.5615ZM159.402 68.7717L152.823 73.5303C152.272 75.9606 152.099 79.6752 152.806 83.4849C153.532 87.3937 155.171 91.339 158.204 94.1044C161.609 97.2085 164.502 98.51 167.021 98.5558C169.527 98.6013 171.789 97.4062 173.943 95.2289C177.435 91.6991 180.461 86.7813 181.533 84.7694L181.63 84.5873L181.827 84.5184C182.588 84.2513 183.731 83.7173 184.668 82.9983C185.627 82.2618 186.236 81.4368 186.219 80.6021C186.195 79.3308 185.826 78.5638 185.378 78.1103C184.926 77.6539 184.333 77.455 183.745 77.4327C182.549 77.3873 181.688 77.875 181.03 78.6628L180.003 79.8943L180.086 78.301C180.146 77.1522 180.047 75.3264 179.56 73.6165C179.103 72.0141 178.336 70.6197 177.148 69.9008C174.923 71.4685 168.897 72.8792 159.402 68.7717Z" fill="#643131"/>
<path fill-rule="evenodd" clip-rule="evenodd" d="M161.273 87.5652C161.018 86.8095 160.893 86.0029 160.855 85.4827L161.923 85.4031C161.956 85.8533 162.067 86.5671 162.287 87.2184C162.396 87.5434 162.528 87.836 162.678 88.0682C162.831 88.3027 162.984 88.4467 163.128 88.5189C163.913 88.9143 164.251 88.6858 164.294 88.6567C164.299 88.6533 164.3 88.6526 164.298 88.656L165.12 89.3462C164.737 89.8098 163.827 90.0767 162.649 89.4833C162.278 89.2967 161.996 88.9878 161.782 88.6583C161.566 88.3264 161.4 87.9438 161.273 87.5652ZM166.725 92.6272C166.507 92.4704 166.379 92.4485 166.349 92.4504C166.262 92.4559 166.066 92.504 165.759 92.6166C165.469 92.723 165.126 92.8688 164.767 93.0328C164.355 93.2208 163.931 93.4288 163.554 93.6203C164.02 93.9802 164.586 94.408 165.012 94.7028C165.129 94.7834 165.321 94.8528 165.589 94.8824C165.851 94.9114 166.151 94.8984 166.45 94.8453C166.749 94.7921 167.03 94.7019 167.257 94.5885C167.49 94.4716 167.628 94.3496 167.691 94.255C167.702 94.2378 167.741 94.1526 167.681 93.9347C167.625 93.7267 167.498 93.4764 167.317 93.2299C167.138 92.9852 166.925 92.7714 166.725 92.6272ZM168.715 93.6504C168.813 94.012 168.838 94.466 168.582 94.8531C168.377 95.1629 168.059 95.3912 167.734 95.5541C167.401 95.7203 167.02 95.839 166.636 95.9071C166.252 95.9753 165.849 95.996 165.472 95.9542C165.1 95.9131 164.717 95.8072 164.406 95.5913C163.704 95.1059 162.664 94.2947 162.234 93.9524L161.595 93.443L162.314 93.0548C162.803 92.79 163.58 92.3908 164.324 92.0508C164.696 91.881 165.067 91.7229 165.393 91.6034C165.702 91.4901 166.026 91.3904 166.282 91.3743C166.681 91.3492 167.06 91.543 167.348 91.7502C167.653 91.9698 167.943 92.2682 168.179 92.5896C168.413 92.9091 168.614 93.2789 168.715 93.6504Z" fill="#643131"/>
<path fill-rule="evenodd" clip-rule="evenodd" d="M172.419 67.5829C174.651 67.4154 176.633 68.2726 177.375 68.7391L176.776 69.5439C176.174 69.1653 174.43 68.4103 172.505 68.5548L172.419 67.5829Z" fill="#643131"/>
<path fill-rule="evenodd" clip-rule="evenodd" d="M159.856 67.4306C159.841 67.427 159.804 67.4199 159.752 67.4199V68.5527C159.599 68.5527 159.464 68.5123 159.391 68.488C159.303 68.4586 159.213 68.4207 159.129 68.381C158.958 68.3012 158.769 68.1951 158.583 68.079C158.224 67.8547 157.804 67.5457 157.551 67.25L158.587 66.5703C158.722 66.7277 159.015 66.9568 159.336 67.1572C159.49 67.2536 159.632 67.3316 159.741 67.3827C159.796 67.4085 159.833 67.4228 159.852 67.4292C159.853 67.4298 159.855 67.4302 159.856 67.4306ZM159.864 67.4327C159.864 67.4328 159.861 67.4323 159.856 67.4306C159.861 67.4318 159.863 67.4326 159.864 67.4327Z" fill="#643131"/>
<path fill-rule="evenodd" clip-rule="evenodd" d="M173.615 48.2449C167.477 47.3961 163.536 52.0043 162.334 54.4438L162.159 54.7973L161.773 54.7318C159.87 54.4095 154.589 54.305 149.071 56.5618C147.406 57.2433 146.398 58.1661 145.817 59.1847C145.233 60.2085 145.052 61.3801 145.13 62.6041C145.287 65.0748 146.49 67.6324 147.336 69.2825C148.246 71.0586 148.334 72.9439 148.164 74.6142C148.05 75.7279 147.808 76.8149 147.612 77.6952C147.521 78.1038 147.44 78.4679 147.386 78.7694C147.095 80.4027 145.913 81.2869 145.09 81.648C145.123 81.7518 145.185 81.8455 145.273 81.9337C145.454 82.1147 145.76 82.2778 146.184 82.3802C147.032 82.5849 148.183 82.5055 149.193 82.0695C149.469 81.9502 149.784 81.6209 150.1 81.03C150.408 80.4559 150.677 79.7138 150.904 78.8965C151.357 77.2641 151.622 75.4154 151.726 74.2144L152.778 74.3066C152.67 75.5525 152.397 77.4698 151.921 79.1831C151.683 80.0387 151.389 80.8644 151.029 81.5357C150.678 82.1901 150.219 82.7837 149.609 83.0473C148.401 83.5687 147.018 83.6756 145.938 83.4148C145.399 83.2845 144.893 83.052 144.53 82.6894C144.151 82.3112 143.944 81.8043 144.02 81.2137L144.065 80.8611L144.406 80.7683C144.94 80.623 146.1 79.9677 146.347 78.5814C146.415 78.2002 146.506 77.7926 146.603 77.3579C146.793 76.5117 147.006 75.5627 147.114 74.5053C147.273 72.9442 147.177 71.2922 146.397 69.7704C145.553 68.1226 144.249 65.3877 144.076 62.6722C143.989 61.3031 144.187 59.9082 144.902 58.6548C145.619 57.3961 146.829 56.3309 148.674 55.5761C154.071 53.3685 159.258 53.3284 161.567 53.6264C163.05 50.9222 167.258 46.2919 173.759 47.1909C181.89 48.3153 188.893 51.1254 192.069 58.4627C195.152 65.5841 195.848 69.3499 196.329 72.1485C196.574 73.5756 196.758 75.315 195.943 77.6112C195.135 79.8876 193.361 82.6657 189.792 86.2338C186.923 89.1032 184.385 90.7117 182.357 91.5492C180.348 92.3792 178.796 92.4682 177.925 92.219L178.213 91.1957C178.768 91.3543 180.062 91.3476 181.957 90.5649C183.833 89.7898 186.258 88.2689 189.049 85.4787C192.555 81.9723 194.213 79.3249 194.949 77.2529C195.678 75.2006 195.519 73.6688 195.289 72.3299C194.819 69.5966 194.143 65.9156 191.101 58.888C188.153 52.0763 181.64 49.3545 173.615 48.2449Z" fill="#643131"/>
<path fill-rule="evenodd" clip-rule="evenodd" d="M196.209 103.494C190.738 102.067 185.331 102.149 182.043 102.661L181.879 101.613C185.294 101.082 190.849 101 196.478 102.468C202.11 103.937 207.864 106.973 211.588 112.716C220.737 126.829 223.72 140.677 222.815 161.797C222.714 164.152 222.631 166.234 222.557 168.076C222.467 170.345 222.391 172.25 222.314 173.85C222.175 176.744 222.031 178.688 221.785 180.027C221.538 181.37 221.172 182.2 220.516 182.777C220.197 183.058 219.834 183.256 219.442 183.431C219.156 183.558 218.832 183.681 218.486 183.813C218.368 183.857 218.248 183.903 218.125 183.951C217.551 184.173 216.403 184.354 214.917 184.514C213.404 184.677 211.466 184.825 209.257 184.959C204.838 185.227 199.312 185.44 193.882 185.609C188.451 185.779 183.112 185.903 179.065 185.991C178.144 186.012 177.291 186.03 176.518 186.047C175.593 186.066 174.783 186.084 174.114 186.099C173.5 186.113 173.006 186.125 172.648 186.135C172.469 186.14 172.326 186.144 172.22 186.148C172.195 186.149 172.173 186.15 172.152 186.151C172.13 186.152 172.11 186.153 172.093 186.154C172.076 186.155 172.064 186.155 172.054 186.156C172.049 186.156 172.045 186.157 172.043 186.157C172.04 186.157 172.039 186.157 172.039 186.157C171.557 186.205 170.507 186.142 169.559 186.071C169.064 186.034 168.589 185.994 168.198 185.961C167.806 185.928 167.498 185.903 167.341 185.894L167.4 184.835C167.565 184.844 167.899 184.872 168.314 184.907C168.709 184.94 169.176 184.979 169.638 185.014C170.627 185.088 171.566 185.139 171.933 185.102C172.093 185.086 172.882 185.066 174.09 185.039C174.76 185.024 175.572 185.006 176.5 184.986C177.272 184.97 178.124 184.952 179.042 184.932C183.088 184.843 188.423 184.719 193.849 184.55C199.276 184.381 204.79 184.167 209.193 183.9C211.395 183.767 213.314 183.62 214.804 183.46C216.321 183.296 217.322 183.124 217.743 182.962C217.881 182.908 218.011 182.859 218.134 182.812C218.469 182.685 218.753 182.576 219.011 182.462C219.355 182.309 219.61 182.162 219.815 181.981C220.207 181.637 220.511 181.089 220.741 179.835C220.973 178.577 221.114 176.703 221.254 173.799C221.331 172.201 221.406 170.305 221.497 168.041C221.57 166.2 221.653 164.116 221.754 161.752C222.653 140.781 219.694 127.17 210.697 113.293C207.162 107.84 201.678 104.92 196.209 103.494ZM155.225 112.078C159.989 108.875 165.313 105.802 168.764 103.95L169.266 104.883C165.837 106.724 160.545 109.779 155.817 112.958C153.453 114.547 151.239 116.162 149.473 117.666C147.691 119.185 146.421 120.544 145.878 121.619C145.165 123.032 144.156 126.22 143.069 130.377C141.988 134.513 140.843 139.555 139.85 144.634C138.857 149.715 138.018 154.825 137.545 159.099C137.309 161.237 137.166 163.158 137.14 164.758C137.114 166.37 137.209 167.615 137.427 168.422L136.403 168.699C136.144 167.743 136.053 166.375 136.079 164.741C136.106 163.096 136.253 161.139 136.491 158.983C136.967 154.67 137.812 149.529 138.809 144.431C139.805 139.333 140.955 134.269 142.043 130.109C143.125 125.969 144.158 122.671 144.931 121.141C145.577 119.862 146.992 118.386 148.785 116.86C150.593 115.319 152.844 113.679 155.225 112.078ZM197.33 147.26C196.653 141.179 195.587 134.758 194.81 130.704L195.853 130.504C196.633 134.579 197.704 141.028 198.384 147.143C198.724 150.2 198.967 153.182 199.026 155.745C199.085 158.292 198.964 160.481 198.547 161.922L198.421 162.357L197.971 162.301C194.128 161.816 187.808 161.203 181.35 160.938C174.878 160.673 168.321 160.76 163.976 161.658C159.566 162.568 156.647 163.243 154.793 163.714C153.865 163.95 153.207 164.135 152.763 164.272C152.607 164.32 152.48 164.362 152.378 164.398L153.362 179.924L152.303 179.991L151.275 163.774L151.541 163.606C151.634 163.547 151.762 163.494 151.89 163.446C152.031 163.393 152.216 163.331 152.45 163.259C152.916 163.115 153.593 162.925 154.531 162.687C156.407 162.21 159.342 161.532 163.761 160.619C168.245 159.693 174.916 159.613 181.394 159.879C187.631 160.134 193.738 160.713 197.638 161.191C197.921 159.909 198.018 158.034 197.966 155.769C197.908 153.249 197.668 150.301 197.33 147.26Z" fill="#643131"/>
<path fill-rule="evenodd" clip-rule="evenodd" d="M196.034 163.08C196.491 162.448 197.054 161.8 197.434 161.394L198.189 162.163C197.83 162.546 197.3 163.157 196.879 163.741C196.668 164.034 196.496 164.305 196.386 164.527C196.331 164.638 196.298 164.723 196.282 164.782C196.273 164.817 196.272 164.832 196.272 164.832C196.272 164.832 196.273 164.82 196.268 164.798L195.235 165.029C195.194 164.829 195.225 164.636 195.265 164.486C195.307 164.33 195.372 164.173 195.447 164.022C195.596 163.722 195.807 163.395 196.034 163.08Z" fill="#643131"/>
<path fill-rule="evenodd" clip-rule="evenodd" d="M158.663 151.279C159.353 155.206 160.245 159.272 160.855 161.814L159.803 162.055C159.189 159.497 158.293 155.41 157.598 151.458C156.909 147.532 156.402 143.658 156.605 141.57L157.68 141.67C157.494 143.593 157.968 147.325 158.663 151.279Z" fill="#643131"/>
<path fill-rule="evenodd" clip-rule="evenodd" d="M173.386 149.726C171.14 147.75 169.48 145.311 168.631 143.655L169.576 143.171C170.374 144.729 171.957 147.055 174.087 148.928C176.22 150.804 178.84 152.174 181.733 151.964L181.81 153.023C178.521 153.262 175.63 151.699 173.386 149.726ZM167.841 153.47C166.452 152.725 165.412 151.616 164.868 150.806L165.749 150.214C166.212 150.903 167.13 151.884 168.342 152.534C169.543 153.178 171.007 153.488 172.623 152.911L172.981 153.91C171.02 154.611 169.241 154.221 167.841 153.47Z" fill="#643131"/>
<path fill-rule="evenodd" clip-rule="evenodd" d="M139.673 169.012C144.078 168.931 148.867 169.126 151.934 169.331L151.863 170.392C148.817 170.189 144.06 169.996 139.692 170.076C137.508 170.116 135.431 170.224 133.72 170.431C131.979 170.642 130.705 170.946 130.057 171.33C128.214 172.422 126.78 173.639 125.794 174.722C125.301 175.263 124.925 175.766 124.666 176.196C124.4 176.637 124.28 176.966 124.254 177.165C124.25 177.195 124.246 177.232 124.333 177.309C124.437 177.402 124.624 177.501 124.898 177.589C125.437 177.762 126.13 177.833 126.607 177.841L126.588 178.905C126.055 178.896 125.248 178.818 124.574 178.602C124.24 178.495 123.891 178.339 123.626 178.104C123.345 177.853 123.14 177.488 123.2 177.028C123.254 176.616 123.459 176.139 123.755 175.647C124.057 175.145 124.479 174.587 125.008 174.005C126.069 172.841 127.585 171.557 129.516 170.414C130.377 169.904 131.858 169.585 133.592 169.375C135.354 169.161 137.471 169.052 139.673 169.012Z" fill="#643131"/>
<path fill-rule="evenodd" clip-rule="evenodd" d="M171.492 176.819C172.523 177.177 173.488 177.634 174.067 177.95L174.401 178.131L173.512 183.566L173.375 183.691C172.837 184.184 172.049 184.585 171.113 184.923C170.169 185.263 169.033 185.552 167.763 185.798C165.222 186.291 162.1 186.62 158.816 186.832C152.245 187.256 144.969 187.213 140.273 187.043L140.272 187.043L140.271 187.043C137.107 186.918 132.087 186.677 127.309 186.36C122.545 186.043 117.981 185.649 115.753 185.213C113.308 184.734 111.596 184.569 110.439 184.458C110.315 184.446 110.196 184.435 110.084 184.423C109.528 184.368 109.061 184.316 108.735 184.21C108.567 184.155 108.376 184.069 108.227 183.909C108.06 183.73 107.991 183.512 107.991 183.295V176.976L108.271 176.825C108.624 176.633 109.089 176.537 109.582 176.489C110.088 176.439 110.679 176.436 111.318 176.463C112.597 176.516 114.12 176.695 115.641 176.906C116.602 177.04 117.575 177.189 118.49 177.328C119.02 177.409 119.53 177.487 120.007 177.557C121.331 177.752 122.382 177.885 122.973 177.885C125.045 177.885 134.728 178.746 139.279 179.173L139.399 179.184L140.21 179.675L140.736 179.145L140.99 179.174C142.959 179.403 148.444 179.726 154.482 179.173C158.243 178.828 161.187 178.166 163.445 177.562C164.208 177.358 164.886 177.163 165.497 176.986C165.796 176.9 166.079 176.819 166.348 176.743C167.15 176.517 167.838 176.341 168.394 176.282C169.324 176.183 170.48 176.468 171.492 176.819ZM171.146 177.832C170.158 177.489 169.19 177.274 168.505 177.347C168.051 177.395 167.444 177.547 166.634 177.775C166.377 177.847 166.099 177.927 165.804 178.012C165.187 178.19 164.49 178.391 163.718 178.597C161.42 179.212 158.415 179.888 154.578 180.24C148.702 180.778 143.341 180.499 141.125 180.267L140.375 181.023L139.06 180.228C134.427 179.795 124.964 178.957 122.973 178.957C122.289 178.957 121.155 178.809 119.854 178.617C119.365 178.545 118.85 178.466 118.318 178.385C117.409 178.247 116.452 178.1 115.496 177.967C113.982 177.757 112.5 177.584 111.274 177.533C110.66 177.507 110.123 177.512 109.685 177.555C109.424 177.58 109.215 177.618 109.054 177.662V183.188C109.056 183.189 109.059 183.19 109.062 183.191C109.255 183.254 109.595 183.299 110.188 183.357C110.299 183.368 110.417 183.38 110.542 183.392C111.703 183.504 113.459 183.673 115.955 184.161C118.105 184.582 122.598 184.973 127.379 185.291C132.145 185.607 137.155 185.848 140.312 185.973C144.984 186.142 152.222 186.184 158.748 185.763C162.012 185.553 165.084 185.227 167.562 184.746C168.801 184.506 169.881 184.23 170.756 183.914C171.543 183.63 172.133 183.326 172.526 183.013L173.228 178.717C172.687 178.444 171.936 178.106 171.146 177.832Z" fill="#643131"/>
<path fill-rule="evenodd" clip-rule="evenodd" d="M139.379 186.174V180.557H140.7V186.174H139.379Z" fill="#643131"/>
<path fill-rule="evenodd" clip-rule="evenodd" d="M53.8981 75.1606H147.268V76.2236H54.3387C50.497 80.2076 49.5254 85.7619 50.0306 90.5894C50.286 93.0302 50.9171 95.257 51.7227 96.962C52.5143 98.6374 53.4248 99.7056 54.2259 100.077H86.8478V101.14H54.0152L53.9204 101.101C52.7114 100.614 51.6148 99.2108 50.7677 97.4181C49.9054 95.5931 49.2457 93.2479 48.9792 90.7007C48.447 85.6156 49.4741 79.6132 53.7432 75.3165L53.8981 75.1606ZM106.671 100.077H152.704L156.89 107.482V100.077H166.141V101.14H157.947V111.504L152.088 101.14H106.671V100.077Z" fill="#643131"/>
<path fill-rule="evenodd" clip-rule="evenodd" d="M136.298 82.6743C135.677 83.0132 134.975 83.6954 134.514 84.2423L133.699 83.5758C134.191 82.9928 134.993 82.1939 135.785 81.7619C136.173 81.5502 136.649 81.3762 137.121 81.4591C137.654 81.5527 138.017 81.9374 138.208 82.4889C138.65 83.7644 138.195 85.077 137.72 86.0458C137.509 86.4779 137.278 86.8703 137.095 87.1819C137.068 87.2266 137.043 87.2695 137.019 87.3107C136.92 87.4804 136.845 87.6117 136.795 87.7133C136.771 87.7636 136.757 87.7961 136.751 87.8148C136.75 87.8178 136.749 87.8201 136.749 87.8218C136.75 87.8148 136.754 87.7959 136.754 87.7682H135.695C135.695 87.6538 135.723 87.552 135.747 87.482C135.773 87.4064 135.807 87.3307 135.842 87.2599C135.91 87.1192 136.004 86.9568 136.101 86.7899C136.127 86.7465 136.153 86.7021 136.18 86.6568C136.364 86.3434 136.573 85.9866 136.767 85.5924C137.218 84.6707 137.505 83.6887 137.206 82.826C137.1 82.5222 136.984 82.4945 136.935 82.4859C136.825 82.4666 136.617 82.5005 136.298 82.6743ZM136.748 87.8247C136.748 87.8249 136.748 87.8239 136.749 87.8218C136.748 87.8236 136.748 87.8246 136.748 87.8247ZM94.9122 83.6483H88.9923V82.6053H96.416L92.562 93.2111L91.5649 92.8597L94.9122 83.6483ZM112.902 83.6483H108.743V82.6053H114.433L111.092 91.3418L110.101 90.9742L112.902 83.6483ZM75.4113 83.9829L67.6829 83.6478L67.7294 82.6058L76.8393 83.0008L73.4 93.6627L72.3907 93.3468L75.4113 83.9829ZM82.0558 87.7682V85.5779H83.1148V87.7682H85.8153V88.8112H83.1148V91.7316H82.0558V88.8112H79.7789V87.7682H82.0558ZM125.528 86.6209H119.492V85.5779H125.528V86.6209ZM102.024 88.4241L100.101 86.4615L100.864 85.7373L102.919 87.8361L104.954 86.4999L105.542 87.3677L103.667 88.599L105.206 90.1701L104.443 90.8943L102.771 89.187L100.776 90.4967L100.189 89.6289L102.024 88.4241ZM125.528 90.115H119.492V89.072H125.528V90.115ZM136.277 91.7316V90.0628H137.336V91.7316H136.277Z" fill="#643131"/>
<path fill-rule="evenodd" clip-rule="evenodd" d="M61.8722 136.615V144.558H60.8075V138.135L60.7013 138.175L60.3297 137.185L61.8722 136.615ZM48.7796 138.177L42.5728 137.903L42.6201 136.847L50.2105 137.183L47.3563 146.196L46.3406 145.879L48.7796 138.177ZM72.9558 137.999C72.8364 138.119 72.7562 138.401 72.7624 138.694L71.6979 138.716C71.6896 138.325 71.7743 137.684 72.1965 137.258C72.4273 137.025 72.7418 136.876 73.1265 136.87C73.4939 136.863 73.889 136.986 74.3104 137.218C74.822 137.499 75.1144 137.927 75.2269 138.416C75.3342 138.884 75.2727 139.38 75.1471 139.833C74.8962 140.738 74.3402 141.645 73.9126 142.205L73.0642 141.566C73.4465 141.066 73.9187 140.281 74.1205 139.553C74.2213 139.189 74.2422 138.884 74.1888 138.651C74.1405 138.441 74.0291 138.271 73.7945 138.142C73.4695 137.963 73.2619 137.924 73.1455 137.926C73.0464 137.928 72.9958 137.958 72.9558 137.999ZM67.1738 137.043L68.0015 137.707L67.0443 138.881L67.1531 141.156H68.8025V142.213H67.2037L67.295 144.124L66.2316 144.174L66.1378 142.213H62.9577L67.1738 137.043ZM66.0873 141.156L66.0375 140.116L65.1888 141.156H66.0873ZM54.256 141.156V139.421H55.3207V141.156H57.435V142.213H55.3207V144.558H54.256V142.213H52.4888V141.156H54.256ZM73.6115 143.966L73.0475 143.139L73.9293 142.547L74.4933 143.374L73.6115 143.966Z" fill="#643131"/>
<path fill-rule="evenodd" clip-rule="evenodd" d="M36.6924 132.65H86.7702L86.9143 132.951L86.4343 133.178C86.9143 132.951 86.9143 132.951 86.9144 132.951L86.9144 132.952L86.9146 132.952L86.9153 132.953L86.9176 132.958C86.9195 132.962 86.9223 132.968 86.9258 132.976C86.9329 132.991 86.9432 133.013 86.9562 133.041C86.9823 133.097 87.0194 133.178 87.0645 133.28C87.1546 133.482 87.2769 133.765 87.4062 134.091C87.6607 134.733 87.9574 135.575 88.0732 136.287C88.1804 136.947 88.1781 137.776 88.1533 138.415C88.1407 138.74 88.1218 139.026 88.1061 139.231C88.0982 139.334 88.0911 139.416 88.0859 139.473C88.0842 139.492 88.0827 139.508 88.0815 139.521C88.0808 139.528 88.0802 139.534 88.0797 139.54L88.078 139.558L88.0773 139.564L88.0773 139.564L88.0773 139.564C88.0773 139.565 88.0773 139.565 87.5485 139.511C87.0198 139.458 87.0198 139.458 87.0198 139.458L87.0202 139.454L87.0217 139.439C87.023 139.425 87.0249 139.405 87.0273 139.379C87.0321 139.326 87.0388 139.248 87.0463 139.151C87.0612 138.956 87.0792 138.683 87.0912 138.375C87.1155 137.747 87.1133 137.006 87.0239 136.456C86.9273 135.862 86.6669 135.108 86.4174 134.479C86.2947 134.17 86.1782 133.9 86.0926 133.707C86.0924 133.707 86.0923 133.707 86.0922 133.706H37.0766C37.0049 133.772 36.9071 133.866 36.7912 133.988C36.5278 134.266 36.1722 134.687 35.8153 135.252C35.1029 136.38 34.3844 138.084 34.3844 140.377C34.3844 142.672 35.1038 144.433 35.8208 145.62C36.1796 146.214 36.5375 146.663 36.8029 146.962C36.9186 147.092 37.0164 147.193 37.0888 147.265H62.7737L66.297 153.974L68.317 147.265H74.1777V148.322H69.1083L66.5652 156.769L62.1296 148.322H36.6795L36.5299 148.193L36.8773 147.793C36.5299 148.193 36.5297 148.193 36.5295 148.193L36.5279 148.191L36.5248 148.189C36.5224 148.187 36.5192 148.184 36.5154 148.18C36.5077 148.174 36.4972 148.164 36.4841 148.152C36.4579 148.128 36.4213 148.094 36.3757 148.05C36.2846 147.961 36.1575 147.832 36.0066 147.662C35.705 147.323 35.3068 146.822 34.9096 146.164C34.1144 144.848 33.3215 142.901 33.3215 140.377C33.3215 137.853 34.1152 135.957 34.915 134.69C35.3143 134.058 35.7147 133.582 36.0184 133.263C36.1703 133.103 36.2984 132.981 36.3905 132.898C36.4365 132.857 36.4736 132.825 36.5003 132.802C36.5136 132.791 36.5243 132.782 36.5322 132.776C36.5362 132.773 36.5394 132.77 36.542 132.768L36.5452 132.766L36.5464 132.765L36.5469 132.764C36.5472 132.764 36.5474 132.764 36.8773 133.178L36.5474 132.764L36.6924 132.65ZM37.2084 133.591C37.2085 133.591 37.2086 133.591 37.2084 133.591V133.591Z" fill="#643131"/>
</svg>
