<svg width="100" height="100" viewBox="0 0 100 100" fill="none" xmlns="http://www.w3.org/2000/svg">
<circle opacity="0.2" cx="50" cy="50" r="50" fill="url(#paint0_radial_482_3341)"/>
<path d="M72.5 55.625C72.5 59.7671 69.1421 63.125 65 63.125C60.8578 63.125 57.5 59.7671 57.5 55.625C57.5 51.4829 60.8578 48.125 65 48.125C69.1421 48.125 72.5 51.4829 72.5 55.625ZM49.9999 77C49.9999 80 52.9999 80 52.9999 80H76.9999C76.9999 80 79.9999 80 79.9999 77C79.9999 74 76.9999 65 64.9999 65C52.9999 65 49.9999 74 49.9999 77Z" fill="#FDC247"/>
<path d="M27.5 27.5C23.3579 27.5 20 30.8579 20 35V65C20 69.1421 23.3579 72.5 27.5 72.5H47.1609C47.6194 71.2759 48.2661 69.9932 49.1341 68.75H27.5C25.4289 68.75 23.75 67.0711 23.75 65V35C23.75 32.9289 25.4289 31.25 27.5 31.25H72.5C74.5711 31.25 76.25 32.9289 76.25 35V64.2898C77.5754 65.1492 78.7091 66.1471 79.6645 67.2249C79.8825 66.5219 80 65.7747 80 65V35C80 30.8579 76.6421 27.5 72.5 27.5H27.5Z" fill="#FDC247"/>
<defs>
<radialGradient id="paint0_radial_482_3341" cx="0" cy="0" r="1" gradientUnits="userSpaceOnUse" gradientTransform="translate(50 50) rotate(90) scale(50)">
<stop offset="0.421875" stop-color="#FDC247"/>
<stop offset="1" stop-color="white" stop-opacity="0"/>
</radialGradient>
</defs>
</svg>
