<svg width="100" height="100" viewBox="0 0 100 100" fill="none" xmlns="http://www.w3.org/2000/svg">
<circle opacity="0.2" cx="50" cy="50" r="50" fill="url(#paint0_radial_482_3339)"/>
<path d="M50 76.25C35.5025 76.25 23.75 64.4975 23.75 50C23.75 35.5025 35.5025 23.75 50 23.75C64.4975 23.75 76.25 35.5025 76.25 50C76.25 64.4975 64.4975 76.25 50 76.25ZM50 80C66.5685 80 80 66.5685 80 50C80 33.4315 66.5685 20 50 20C33.4315 20 20 33.4315 20 50C20 66.5685 33.4315 80 50 80Z" fill="#FDC247"/>
<path d="M36.068 55.877C36.9643 55.3585 38.1113 55.6648 38.6298 56.5611C40.9021 60.4891 45.1444 63.125 50.0001 63.125C54.8558 63.125 59.0982 60.4891 61.3704 56.5611C61.8889 55.6648 63.0359 55.3585 63.9322 55.877C64.8286 56.3955 65.1349 57.5425 64.6164 58.4389C61.7014 63.4779 56.2486 66.875 50.0001 66.875C43.7516 66.875 38.2988 63.4779 35.3838 58.4389C34.8653 57.5425 35.1716 56.3955 36.068 55.877Z" fill="#FDC247"/>
<path d="M46.25 44.375C46.25 47.4816 44.5711 50 42.5 50C40.4289 50 38.75 47.4816 38.75 44.375C38.75 41.2684 40.4289 38.75 42.5 38.75C44.5711 38.75 46.25 41.2684 46.25 44.375Z" fill="#FDC247"/>
<path d="M52.8382 42.7366C53.7431 42.2331 54.8848 42.5584 55.3884 43.4632C56.0193 44.5969 57.167 45.3125 58.4375 45.3125C59.708 45.3125 60.8557 44.5969 61.4866 43.4632C61.9902 42.5584 63.1319 42.2331 64.0368 42.7366C64.9416 43.2402 65.2669 44.3819 64.7634 45.2868C63.5229 47.5157 61.173 49.0625 58.4375 49.0625C55.702 49.0625 53.3521 47.5157 52.1116 45.2868C51.6081 44.3819 51.9334 43.2402 52.8382 42.7366Z" fill="#FDC247"/>
<defs>
<radialGradient id="paint0_radial_482_3339" cx="0" cy="0" r="1" gradientUnits="userSpaceOnUse" gradientTransform="translate(50 50) rotate(90) scale(50)">
<stop offset="0.421875" stop-color="#FDC247"/>
<stop offset="1" stop-color="white" stop-opacity="0"/>
</radialGradient>
</defs>
</svg>
