<svg width="100" height="100" viewBox="0 0 100 100" fill="none" xmlns="http://www.w3.org/2000/svg">
<circle opacity="0.2" cx="50" cy="50" r="50" fill="url(#paint0_radial_482_3325)"/>
<path fill-rule="evenodd" clip-rule="evenodd" d="M50 23.7975C35.5287 23.7975 23.7975 35.5287 23.7975 50C23.7975 64.4713 35.5287 76.2025 50 76.2025C64.4713 76.2025 76.2025 64.4713 76.2025 50C76.2025 45.3696 75.0031 41.025 72.8994 37.2542L76.2157 35.4041C78.6268 39.7259 80 44.7055 80 50C80 66.5685 66.5685 80 50 80C33.4315 80 20 66.5685 20 50C20 33.4315 33.4315 20 50 20C54.966 20 59.6554 21.2081 63.785 23.3481L62.0378 26.7197C58.4354 24.8529 54.3437 23.7975 50 23.7975Z" fill="#FDC247"/>
<path fill-rule="evenodd" clip-rule="evenodd" d="M49.9999 33.671C40.9816 33.671 33.6708 40.9818 33.6708 50.0001C33.6708 59.0184 40.9816 66.3292 49.9999 66.3292C59.0182 66.3292 66.329 59.0184 66.329 50.0001C66.329 46.8814 65.4565 43.9722 63.9433 41.4968L67.1833 39.5161C69.0507 42.5709 70.1265 46.1628 70.1265 50.0001C70.1265 61.1157 61.1155 70.1267 49.9999 70.1267C38.8843 70.1267 29.8733 61.1157 29.8733 50.0001C29.8733 38.8845 38.8843 29.8735 49.9999 29.8735C53.2132 29.8735 56.2557 30.628 58.955 31.9711L57.2634 35.3709C55.0778 34.2835 52.6131 33.671 49.9999 33.671Z" fill="#FDC247"/>
<path fill-rule="evenodd" clip-rule="evenodd" d="M55.2802 47.3058L59.1565 51.182L43.8064 55.1989L47.8233 39.8489L51.5209 43.5465L73.7495 21.318L77.5088 25.0773L55.2802 47.3058Z" fill="#FDC247"/>
<defs>
<radialGradient id="paint0_radial_482_3325" cx="0" cy="0" r="1" gradientUnits="userSpaceOnUse" gradientTransform="translate(50 50) rotate(90) scale(50)">
<stop offset="0.416667" stop-color="#FDC247"/>
<stop offset="1" stop-color="white" stop-opacity="0"/>
</radialGradient>
</defs>
</svg>
