<svg width="100" height="100" viewBox="0 0 100 100" fill="none" xmlns="http://www.w3.org/2000/svg">
<path d="M25.625 20C22.5184 20 20 22.5184 20 25.625V68.75C20 70.8211 21.6789 72.5 23.75 72.5V25.625C23.75 24.5895 24.5895 23.75 25.625 23.75H72.5C72.5 21.6789 70.8211 20 68.75 20H25.625Z" fill="#FDC247"/>
<path d="M33.125 27.5C30.0184 27.5 27.5 30.0184 27.5 33.125V74.375C27.5 77.4816 30.0184 80 33.125 80H55.9467C57.4385 80 58.8693 79.4074 59.9242 78.3525L78.3525 59.9242C79.4074 58.8693 80 57.4385 80 55.9467V33.125C80 30.0184 77.4816 27.5 74.375 27.5H33.125ZM31.25 33.125C31.25 32.0895 32.0895 31.25 33.125 31.25H74.375C75.4105 31.25 76.25 32.0895 76.25 33.125V53.75H59.375C56.2684 53.75 53.75 56.2684 53.75 59.375V76.25H33.125C32.0895 76.25 31.25 75.4105 31.25 74.375V33.125ZM57.5 75.4734V59.375C57.5 58.3395 58.3395 57.5 59.375 57.5H75.4734L57.5 75.4734Z" fill="#FDC247"/>
<circle opacity="0.2" cx="50" cy="50" r="50" fill="url(#paint0_radial_482_3340)"/>
<defs>
<radialGradient id="paint0_radial_482_3340" cx="0" cy="0" r="1" gradientUnits="userSpaceOnUse" gradientTransform="translate(50 50) rotate(90) scale(50)">
<stop offset="0.421875" stop-color="#FDC247"/>
<stop offset="1" stop-color="white" stop-opacity="0"/>
</radialGradient>
</defs>
</svg>
