<svg width="100" height="100" viewBox="0 0 100 100" fill="none" xmlns="http://www.w3.org/2000/svg">
<circle opacity="0.2" cx="50" cy="50" r="50" fill="url(#paint0_radial_482_3342)"/>
<path fill-rule="evenodd" clip-rule="evenodd" d="M56.7501 25.75C56.7501 27.7491 55.881 29.5453 54.5 30.7813V37H56.75C66.6911 37 74.75 45.0589 74.75 55V58.75H80.0001V64.75H74.75V71.5C74.75 76.4705 70.7205 80.5 65.75 80.5H34.25C29.2794 80.5 25.25 76.4705 25.25 71.5V64.75H20V58.75H25.25V55C25.25 45.0589 33.3088 37 43.25 37H46.25V31.3633C44.4411 30.1524 43.2501 28.0903 43.2501 25.75C43.2501 22.0221 46.2721 19 50.0001 19C53.728 19 56.7501 22.0221 56.7501 25.75ZM61.2501 66.25H38.7501V73H61.2501V66.25ZM43.2499 54.25C43.2499 56.7353 41.2352 58.75 38.7499 58.75C36.2646 58.75 34.2499 56.7353 34.2499 54.25C34.2499 51.7647 36.2646 49.75 38.7499 49.75C41.2352 49.75 43.2499 51.7647 43.2499 54.25ZM61.25 58.75C63.7352 58.75 65.75 56.7353 65.75 54.25C65.75 51.7647 63.7352 49.75 61.25 49.75C58.7647 49.75 56.75 51.7647 56.75 54.25C56.75 56.7353 58.7647 58.75 61.25 58.75Z" fill="#FDC247"/>
<defs>
<radialGradient id="paint0_radial_482_3342" cx="0" cy="0" r="1" gradientUnits="userSpaceOnUse" gradientTransform="translate(50 50) rotate(90) scale(50)">
<stop offset="0.432292" stop-color="#FDC247"/>
<stop offset="1" stop-color="#D9D9D9" stop-opacity="0"/>
<stop offset="1" stop-color="white" stop-opacity="0"/>
</radialGradient>
</defs>
</svg>
