<svg width="203" height="1303" viewBox="0 0 203 1303" fill="none" xmlns="http://www.w3.org/2000/svg">
<circle opacity="0.8" cx="100" cy="317" r="100" fill="url(#paint0_radial_988_14214)"/>
<circle opacity="0.8" cx="102" cy="885" r="100" fill="url(#paint1_radial_988_14214)"/>
<path d="M100.939 1149.06C101.525 1149.65 102.475 1149.65 103.061 1149.06L112.607 1139.51C113.192 1138.93 113.192 1137.98 112.607 1137.39C112.021 1136.81 111.071 1136.81 110.485 1137.39L102 1145.88L93.5148 1137.39C92.929 1136.81 91.9792 1136.81 91.3934 1137.39C90.8077 1137.98 90.8077 1138.93 91.3934 1139.51L100.939 1149.06ZM100.5 120L100.5 1148L103.5 1148L103.5 120L100.5 120Z" fill="#545454"/>
<circle cx="101.5" cy="120.5" r="16.5" fill="#66AA5D" stroke="white" stroke-width="2"/>
<circle cx="101.5" cy="316.5" r="21.5" fill="#FDC247" stroke="white" stroke-width="2"/>
<circle cx="101.5" cy="502.5" r="16.5" fill="#66AA5D" stroke="white" stroke-width="2"/>
<circle cx="101.5" cy="693.5" r="16.5" fill="#66AA5D" stroke="white" stroke-width="2"/>
<circle cx="101.5" cy="889.5" r="21.5" fill="#FDC247" stroke="white" stroke-width="2"/>
<circle cx="101.5" cy="1075.5" r="16.5" fill="#66AA5D" stroke="white" stroke-width="2"/>
<defs>
<radialGradient id="paint0_radial_988_14214" cx="0" cy="0" r="1" gradientUnits="userSpaceOnUse" gradientTransform="translate(100 317) rotate(90) scale(100)">
<stop stop-color="#FDC247"/>
<stop offset="1" stop-color="white" stop-opacity="0"/>
</radialGradient>
<radialGradient id="paint1_radial_988_14214" cx="0" cy="0" r="1" gradientUnits="userSpaceOnUse" gradientTransform="translate(102 885) rotate(90) scale(100)">
<stop stop-color="#FDC247"/>
<stop offset="1" stop-color="white" stop-opacity="0"/>
</radialGradient>
</defs>
</svg>
