<svg width="400" height="400" viewBox="0 0 400 400" fill="none" xmlns="http://www.w3.org/2000/svg">
<path opacity="0.3" d="M358.084 308.238L340.492 299.516L226.241 334.986L91.773 294.521L41.9157 313.151L188.824 365L358.084 308.238Z" fill="#66AA5D"/>
<path d="M176.141 94.551C174.272 94.3018 169.844 94.4388 167.079 96.9803C163.623 100.157 160.54 111.089 164.93 126.6C169.321 142.11 169.601 143.512 168.2 146.034C167.079 148.053 153.782 161.514 147.274 167.992L143.354 172.112C148.18 173.576 158.17 176.578 159.515 176.877C160.86 177.176 172.843 166.724 178.666 161.46L189.126 163.04C183.41 166.345 174.553 170.234 174.553 170.234C174.553 170.234 178.476 181.727 181.185 185.838C183.988 185.838 203.98 180.512 219.675 174.065C235.369 167.618 234.528 146.034 234.061 135.383C233.594 124.731 216.779 98.2884 210.893 92.0282C205.008 85.768 192.956 86.6089 191.649 88.1039C190.341 89.5989 188.753 97.8213 187.164 100.998C185.576 104.175 177.355 103.427 174.553 102.4C172.311 101.577 174.428 99.3162 175.767 98.2885L176.141 94.551Z" fill="#66AA5D"/>
<path fill-rule="evenodd" clip-rule="evenodd" d="M168.331 41.4743C170.123 39.272 173.378 36.6859 177.737 35.5647C182.375 34.3716 188.184 34.8584 194.682 39.0816C202.867 44.3999 205.27 51.9752 205.27 58.3101C205.27 61.4651 204.676 64.3247 203.903 66.4728C203.517 67.5454 203.079 68.4625 202.632 69.1593C202.409 69.5073 202.173 69.8173 201.926 70.0677C201.689 70.3086 201.394 70.5456 201.043 70.6711L200.413 68.9046C200.41 68.9057 200.408 68.9063 200.408 68.9062C200.408 68.9055 200.471 68.8745 200.592 68.7515C200.722 68.619 200.88 68.4199 201.056 68.1453C201.408 67.5967 201.789 66.8146 202.141 65.837C202.843 63.8847 203.397 61.2399 203.397 58.3101C203.397 52.4756 201.211 45.5601 193.663 40.6552C187.576 36.6998 182.303 36.3268 178.203 37.3816C174.063 38.4464 171.038 40.9883 169.542 42.967L169.271 43.3251L168.823 43.3383C167.747 43.37 164.802 43.4139 161.563 43.3384C159.677 43.2945 157.15 43.6472 154.784 45.2625C152.434 46.8677 150.135 49.7936 148.821 55.1006C147.837 59.0784 149.384 62.3155 151.85 64.8248C154.08 67.0929 157.004 68.6954 159.257 69.5646C159.904 68.3862 161.294 66.0576 163.798 62.2386C165.636 59.4358 168.782 57.9838 171.807 57.2706C174.847 56.5537 177.924 56.5436 179.854 56.7565L180.261 56.8014L180.504 57.1305C181.04 57.8559 182.653 59.3444 184.615 60.7935C186.577 62.243 188.697 63.5091 190.2 63.9107L189.717 65.7232C187.85 65.2243 185.49 63.7704 183.503 62.3031C181.733 60.995 180.106 59.5618 179.269 58.5839C177.5 58.4319 174.842 58.4819 172.236 59.0965C169.42 59.7604 166.822 61.0439 165.364 63.2683C162.061 68.3053 160.781 70.6251 160.567 71.1067L160.221 71.8863L159.414 71.6149C156.895 70.7687 153.262 68.9347 150.516 66.1408C147.749 63.3258 145.815 59.4505 147.004 54.6493C148.406 48.9829 150.929 45.6247 153.729 43.7127C156.514 41.8108 159.465 41.4132 161.606 41.4631C164.439 41.5291 167.043 41.5026 168.331 41.4743Z" fill="#643131"/>
<path fill-rule="evenodd" clip-rule="evenodd" d="M191.07 62.9276C189.854 63.828 189.122 65.1898 188.803 66.1573L190.593 66.7173C190.838 65.9769 191.394 64.9871 192.209 64.384C192.603 64.0922 193.044 63.8997 193.54 63.8492C194.034 63.7989 194.647 63.8829 195.396 64.2397C197.256 65.1253 198.259 66.9028 198.624 68.7277C198.804 69.6337 198.818 70.5117 198.713 71.2276C198.602 71.98 198.383 72.4197 198.226 72.5824C197.611 73.2203 196.55 73.9667 195.495 74.5349C194.973 74.8158 194.482 75.0375 194.078 75.1759C193.654 75.3211 193.462 75.3267 193.441 75.3273C193.439 75.3273 193.439 75.3274 193.439 75.3274L193.103 77.1279C193.623 77.22 194.222 77.0666 194.702 76.9019C195.233 76.7201 195.822 76.45 196.405 76.1362C197.56 75.5148 198.802 74.66 199.598 73.834C200.146 73.2647 200.444 72.3777 200.574 71.486C200.71 70.5577 200.688 69.4742 200.469 68.3787C200.035 66.2005 198.782 63.8149 196.223 62.596C195.204 62.111 194.239 61.9381 193.344 62.0292C192.451 62.1201 191.691 62.4676 191.07 62.9276Z" fill="#643131"/>
<path fill-rule="evenodd" clip-rule="evenodd" d="M179.363 93.4129C179.213 94.7341 178.692 96.052 178.263 96.8456L180.227 97.5751C180.73 96.6447 181.329 95.1359 181.505 93.5798C181.678 92.0569 181.47 90.2595 180.02 89.0122L178.47 90.2493C179.259 90.9281 179.516 92.0585 179.363 93.4129Z" fill="#643131"/>
<path fill-rule="evenodd" clip-rule="evenodd" d="M160.49 66.6172C160.425 68.2255 160.602 72.2605 161.853 75.7275C162.653 77.9441 164.153 80.1587 165.671 81.9651C167.187 83.7693 168.792 85.2503 169.87 85.9742C169.92 86.0079 169.971 86.0427 170.025 86.0785C172.092 87.4715 176.408 90.3788 183.664 89.513C187.551 89.0492 190.637 86.6551 192.808 83.9738C194.974 81.2993 196.331 78.2166 196.706 76.1388L194.869 75.8022C194.559 77.5194 193.36 80.3158 191.361 82.7841C189.368 85.2457 186.68 87.2581 183.445 87.6442C176.872 88.4285 173.031 85.8407 171.062 84.5138C171.009 84.4777 170.956 84.4426 170.906 84.4085C170.022 83.8151 168.545 82.4734 167.097 80.7492C165.65 79.0273 164.302 77.0078 163.608 75.0844C162.469 71.9274 162.297 68.1593 162.356 66.6939L160.49 66.6172Z" fill="#643131"/>
<path d="M180.501 73.5951C180.87 74.3348 181.731 74.6541 182.425 74.3083C183.118 73.9625 183.382 73.0825 183.013 72.3428C182.644 71.6031 181.783 71.2838 181.089 71.6296C180.396 71.9754 180.132 72.8554 180.501 73.5951Z" fill="#643131"/>
<path d="M168.942 75.7475C169.311 76.4872 170.172 76.8065 170.865 76.4606C171.559 76.1148 171.822 75.2348 171.453 74.4951C171.084 73.7554 170.223 73.4361 169.53 73.7819C168.836 74.1278 168.573 75.0078 168.942 75.7475Z" fill="#643131"/>
<path fill-rule="evenodd" clip-rule="evenodd" d="M195.889 80.6126C195.841 80.3541 195.791 80.086 195.738 79.8619L193.918 80.293C193.96 80.4701 193.995 80.6638 194.038 80.8972C194.059 81.01 194.082 81.1321 194.108 81.266C194.182 81.6518 194.276 82.0955 194.418 82.5395C194.698 83.4138 195.204 84.4258 196.262 85.0096L197.166 83.3715C196.72 83.1259 196.42 82.657 196.2 81.97C196.093 81.6333 196.015 81.2762 195.945 80.9124C195.926 80.8162 195.908 80.7152 195.889 80.6126Z" fill="#643131"/>
<path fill-rule="evenodd" clip-rule="evenodd" d="M196.143 84.3408C195.652 84.5034 195.114 84.7434 194.776 85.131C194.523 85.4216 194.311 85.8129 194.129 86.2106C193.941 86.6233 193.755 87.1112 193.572 87.6413C193.206 88.7007 192.83 89.9931 192.452 91.311C192.407 91.4682 192.363 91.6255 192.318 91.7827C191.592 94.3203 190.875 96.8319 190.175 98.2366C189.934 98.721 189.389 99.154 188.464 99.4769C187.552 99.7954 186.395 99.9606 185.149 99.9999C182.643 100.079 180.02 99.6438 178.761 99.1797C178.565 99.1076 178.469 99.0386 178.428 99.0003C178.409 98.982 178.401 98.9704 178.399 98.9669C178.397 98.9636 178.396 98.9624 178.396 98.961C178.393 98.9514 178.37 98.8213 178.532 98.5108C178.853 97.8942 179.586 97.1711 180.217 96.6844L179.084 95.2003C178.381 95.7425 177.391 96.6656 176.882 97.6438C176.629 98.1307 176.414 98.7851 176.602 99.4636C176.806 100.196 177.391 100.668 178.12 100.936C179.653 101.501 182.523 101.954 185.207 101.87C186.556 101.827 187.919 101.648 189.075 101.244C190.218 100.845 191.291 100.179 191.841 99.0732C192.621 97.5048 193.384 94.8346 194.082 92.3863C194.136 92.1987 194.189 92.0125 194.242 91.8281C194.621 90.5036 194.984 89.2589 195.331 88.2546C195.504 87.7529 195.668 87.3273 195.822 86.991C195.982 86.6397 196.105 86.4464 196.177 86.3629C196.176 86.365 196.177 86.364 196.182 86.3603C196.211 86.3404 196.355 86.2401 196.726 86.1173C197.121 85.9865 197.661 85.8656 198.324 85.7749C199.647 85.594 201.381 85.5444 203.264 85.7307C207.058 86.1063 211.264 87.4187 213.976 90.3162C216.832 93.3675 222.444 101.474 227.415 110.192C229.894 114.539 232.197 119.009 233.906 123.044C235.627 127.106 236.703 130.629 236.812 133.117C237.045 138.46 237.361 146.408 235.705 153.811C234.051 161.206 230.473 167.872 223.052 170.935C215.271 174.145 206.413 177.081 199.149 179.215C195.518 180.282 192.292 181.146 189.806 181.742C188.562 182.04 187.51 182.27 186.687 182.424C186.207 182.515 185.825 182.575 185.539 182.611C184.305 180.553 182.824 177.048 181.6 173.892C180.946 172.207 180.376 170.648 179.969 169.511C179.825 169.106 179.701 168.754 179.601 168.47C179.799 168.381 180.031 168.276 180.292 168.157C181.212 167.739 182.499 167.146 183.964 166.45C186.888 165.06 190.547 163.247 193.429 161.572C196.45 159.818 200.337 157.177 203.645 153.925C206.938 150.688 209.755 146.749 210.453 142.391C211.13 138.164 210.643 132.847 209.727 128.104C208.812 123.366 207.44 119.052 206.259 116.828C205.746 115.86 205.289 115.072 204.897 114.394C204.856 114.322 204.815 114.252 204.775 114.183C204.353 113.452 204.022 112.867 203.758 112.293C203.251 111.192 202.968 110.084 202.924 108.081L201.063 108.123C201.111 110.329 201.434 111.7 202.068 113.078C202.373 113.742 202.747 114.398 203.165 115.122C203.205 115.191 203.246 115.262 203.287 115.333C203.679 116.011 204.119 116.772 204.616 117.709C205.67 119.694 206.998 123.798 207.899 128.461C208.798 133.118 209.241 138.184 208.615 142.094C208.01 145.873 205.52 149.465 202.343 152.588C199.181 155.696 195.434 158.247 192.497 159.953C189.683 161.587 186.081 163.375 183.168 164.759C181.714 165.45 180.437 166.038 179.525 166.453C179.068 166.66 178.703 166.824 178.452 166.937C178.327 166.993 178.23 167.036 178.164 167.065C178.132 167.079 178.107 167.09 178.09 167.098L178.067 167.108L178.066 167.108L178.066 167.108C178.066 167.109 178.066 167.109 178.44 167.965C177.559 168.267 177.559 168.267 177.559 168.267L177.559 168.268L177.56 168.27L177.562 168.276L177.571 168.302C177.579 168.324 177.59 168.357 177.605 168.4C177.634 168.487 177.678 168.613 177.735 168.776C177.848 169.101 178.012 169.569 178.217 170.143C178.628 171.292 179.204 172.866 179.865 174.571C181.175 177.947 182.86 181.946 184.273 184.1L184.549 184.521H185.05C185.496 184.521 186.19 184.421 187.03 184.263C187.893 184.101 188.977 183.864 190.238 183.561C192.761 182.956 196.018 182.084 199.671 181.011C206.976 178.865 215.9 175.908 223.759 172.665C231.977 169.274 235.801 161.91 237.522 154.222C239.24 146.542 238.904 138.355 238.672 133.035C238.548 130.192 237.355 126.407 235.62 122.311C233.873 118.187 231.532 113.649 229.031 109.262C224.041 100.512 218.342 92.2503 215.333 89.0347C212.179 85.6653 207.448 84.2651 203.446 83.869C201.431 83.6695 199.551 83.7193 198.073 83.9213C197.335 84.0221 196.677 84.1636 196.143 84.3408ZM178.44 167.965L177.559 168.267L177.283 167.454L178.066 167.108L178.44 167.965ZM176.017 93.2881C177.595 92.9865 179.063 93.016 179.9 93.128L180.146 91.2737C179.12 91.1363 177.451 91.1097 175.669 91.4504C173.889 91.7905 171.913 92.5131 170.363 93.9441C168.405 95.7519 166.729 99.5437 166.066 104.709C165.397 109.921 165.737 116.666 167.956 124.539C170.151 132.328 171.296 136.499 171.727 139.044C171.941 140.306 171.966 141.095 171.883 141.687C171.803 142.258 171.617 142.705 171.296 143.285C171.207 143.446 170.937 143.811 170.447 144.395C169.977 144.956 169.352 145.663 168.605 146.483C167.113 148.122 165.156 150.192 163.027 152.405C158.769 156.832 153.84 161.817 150.6 165.057L151.913 166.383C155.159 163.138 160.097 158.143 164.366 153.705C166.499 151.487 168.47 149.403 169.979 147.745C170.733 146.917 171.377 146.189 171.871 145.601C172.345 145.036 172.733 144.538 172.924 144.193C173.301 143.511 173.603 142.835 173.727 141.947C173.848 141.081 173.791 140.075 173.563 138.73C173.11 136.06 171.928 131.766 169.747 124.029C167.59 116.374 167.279 109.884 167.913 104.948C168.553 99.9641 170.136 96.6939 171.623 95.3215C172.828 94.2083 174.436 93.5903 176.017 93.2881Z" fill="#643131"/>
<path fill-rule="evenodd" clip-rule="evenodd" d="M179.414 145.053C177.662 139.128 175.548 132.671 174.136 128.533L172.335 129.132C173.742 133.254 175.847 139.686 177.59 145.579C178.462 148.527 179.24 151.33 179.795 153.639C180.36 155.989 180.664 157.714 180.647 158.571L180.631 159.421L181.486 159.521C183.518 159.758 186.731 160.043 189.779 160.126C191.302 160.167 192.8 160.159 194.097 160.066C195.365 159.976 196.544 159.799 197.365 159.452L196.617 157.726C196.107 157.942 195.2 158.105 193.96 158.194C192.75 158.28 191.321 158.29 189.831 158.249C187.225 158.178 184.485 157.956 182.507 157.745C182.398 156.597 182.078 155.009 181.644 153.205C181.078 150.852 180.29 148.014 179.414 145.053Z" fill="#643131"/>
<path fill-rule="evenodd" clip-rule="evenodd" d="M201.532 141.753C202.072 138.632 202.042 135.284 201.85 133.144L199.992 133.31C200.173 135.334 200.199 138.513 199.694 141.436C199.441 142.897 199.062 144.256 198.527 145.364C197.99 146.476 197.33 147.268 196.549 147.702L197.455 149.332C198.69 148.646 199.574 147.488 200.208 146.174C200.844 144.857 201.262 143.314 201.532 141.753ZM193.723 148.004C195.291 145.775 196.451 143.125 197.047 141.356L195.278 140.761C194.723 142.41 193.635 144.887 192.197 146.932C191.478 147.953 190.696 148.832 189.88 149.448C189.066 150.063 188.266 150.381 187.486 150.381V152.246C188.795 152.246 189.981 151.71 191.005 150.936C192.028 150.163 192.939 149.119 193.723 148.004Z" fill="#643131"/>
<path fill-rule="evenodd" clip-rule="evenodd" d="M174.015 167.629C177.639 164.474 180.937 160.989 182.874 158.735L181.431 157.515C179.543 159.712 176.309 163.13 172.764 166.216C169.183 169.333 165.418 171.992 162.455 172.832L162.976 174.64C166.384 173.675 170.425 170.754 174.015 167.629Z" fill="#643131"/>
<path fill-rule="evenodd" clip-rule="evenodd" d="M245.377 186.528C244.733 176.789 239.889 166.23 235.651 159.491L234.072 160.486C238.23 167.098 242.9 177.349 243.516 186.651C243.822 191.289 243.116 195.613 240.918 199.135C238.732 202.637 235.002 205.458 229.035 206.978C218.043 209.778 210.258 210.279 204.385 210.657C202.059 210.806 200.034 210.936 198.228 211.182C195.059 211.614 192.534 212.421 190.475 214.467C188.449 216.48 186.985 219.586 185.645 224.341C183.429 232.199 185.655 241.565 189.195 249.953C192.546 257.893 197.144 265.119 200.586 269.655C197.681 271.597 193.553 274.242 189.703 276.478C187.586 277.707 185.567 278.803 183.889 279.589C183.049 279.982 182.309 280.291 181.694 280.5C181.192 280.67 180.819 280.757 180.564 280.787C178.533 279.834 174.999 277.49 171.571 274.916C168.02 272.251 164.752 269.466 163.482 267.888C160.671 264.396 156.605 257.627 153.044 250.523C149.475 243.401 146.495 236.102 145.767 231.543C145.633 230.702 145.417 229.656 145.168 228.448C144.462 225.026 143.489 220.311 143.357 215.339C143.18 208.637 144.56 201.854 149.991 197.602L148.842 196.131C142.706 200.934 141.309 208.483 141.492 215.388C141.629 220.549 142.665 225.569 143.372 228.996C143.608 230.138 143.807 231.103 143.925 231.837C144.702 236.707 147.804 244.231 151.377 251.36C154.347 257.286 157.699 263.049 160.43 266.923C155.949 270.841 144.331 277.172 130.651 273.536C127.872 269.951 122.05 261.701 119.402 255.325C117.717 251.269 115.866 243.976 114.717 236.531C113.563 229.056 113.151 221.633 114.223 217.254C114.404 216.514 114.579 215.769 114.756 215.02C115.683 211.08 116.637 207.028 118.599 202.955C120.917 198.147 124.652 193.304 131.463 188.774L130.431 187.219C123.343 191.933 119.383 197.032 116.919 202.144C114.86 206.417 113.855 210.694 112.929 214.635C112.755 215.373 112.585 216.098 112.411 216.81C111.243 221.581 111.718 229.329 112.873 236.816C114.033 244.332 115.913 251.79 117.679 256.042C120.491 262.812 126.658 271.465 129.373 274.932L129.563 275.174L129.86 275.256C144.323 279.244 156.612 272.668 161.537 268.433C161.705 268.651 161.869 268.861 162.029 269.06C163.465 270.843 166.913 273.754 170.451 276.41C173.996 279.071 177.802 281.604 180.007 282.585L180.188 282.665H180.386C180.944 282.665 181.607 282.501 182.292 282.268C182.997 282.029 183.806 281.69 184.68 281.28C186.429 280.461 188.501 279.334 190.639 278.093C194.918 275.609 199.521 272.632 202.456 270.648L203.286 270.087L202.668 269.298C199.259 264.949 194.393 257.471 190.914 249.226C187.42 240.947 185.402 232.078 187.44 224.848C188.758 220.174 190.116 217.456 191.789 215.792C193.429 214.162 195.481 213.441 198.48 213.032C200.129 212.808 202.055 212.684 204.306 212.538C210.202 212.158 218.321 211.634 229.495 208.788C235.841 207.171 240.016 204.105 242.5 200.125C244.972 196.164 245.7 191.41 245.377 186.528Z" fill="#643131"/>
<path fill-rule="evenodd" clip-rule="evenodd" d="M174.237 172.118C176.241 171.762 178.293 171.98 179.548 172.289L179.986 170.438C178.534 170.081 176.219 169.833 173.917 170.243C171.611 170.653 169.187 171.752 167.765 174.213C166.097 177.101 165.602 181.002 165.783 184.258C165.874 185.897 166.139 187.429 166.544 188.645C166.747 189.252 166.993 189.807 167.29 190.264C167.58 190.711 167.961 191.131 168.46 191.365C171.382 192.731 174.563 190.45 174.447 187.039C174.407 185.852 174.728 184.713 175.587 183.865C176.451 183.011 178.002 182.312 180.7 182.312C181.899 182.312 182.755 182.858 183.431 183.29C183.641 183.424 183.834 183.547 184.015 183.64L184.85 181.937C184.817 181.92 184.755 181.878 184.667 181.819C184.12 181.453 182.56 180.408 180.7 180.408C177.706 180.408 175.617 181.185 174.289 182.497C172.955 183.814 172.529 185.531 172.582 187.105C172.654 189.216 170.796 190.362 169.238 189.634C169.177 189.605 169.034 189.502 168.846 189.213C168.664 188.933 168.48 188.538 168.311 188.031C167.973 187.018 167.73 185.664 167.646 184.15C167.477 181.1 167.962 177.622 169.373 175.179C170.415 173.375 172.236 172.475 174.237 172.118Z" fill="#643131"/>
<path fill-rule="evenodd" clip-rule="evenodd" d="M105.808 144.342L120.404 182.609L120.737 182.77C127.636 186.117 137.986 191.105 146.613 195.192C150.925 197.235 154.811 199.055 157.62 200.332C159.023 200.97 160.166 201.477 160.962 201.808C161.356 201.973 161.683 202.101 161.919 202.182C162.029 202.22 162.159 202.261 162.28 202.284C162.325 202.292 162.46 202.318 162.62 202.3C162.688 202.292 162.848 202.268 163.019 202.164L199.341 185.613L189.99 181.727L189.27 183.443L194.681 185.692L163.122 200.072C162.962 199.583 162.745 198.932 162.478 198.144C161.88 196.376 161.03 193.905 160.023 190.996C158.166 185.636 155.773 178.786 153.428 172.095L167.408 176.226L167.94 174.444L152.67 169.932C150.78 164.545 148.964 159.38 147.534 155.321L147.368 154.851L105.808 144.342ZM161.077 199.836C160.367 199.53 159.463 199.126 158.397 198.641C155.601 197.371 151.727 195.556 147.416 193.514C138.935 189.495 128.782 184.603 121.888 181.26L108.829 147.024L145.937 156.407C147.38 160.505 149.19 165.652 151.063 170.993C153.595 178.213 156.242 185.787 158.256 191.601C159.263 194.509 160.111 196.975 160.707 198.737C160.844 199.142 160.968 199.509 161.077 199.836Z" fill="#643131"/>
<path fill-rule="evenodd" clip-rule="evenodd" d="M161.149 274.037C161.979 271.793 161.679 269.925 160.604 268.475L159.101 269.589C159.754 270.469 160.034 271.66 159.394 273.387C158.741 275.152 157.127 277.691 154.945 280.565C152.783 283.415 150.122 286.518 147.449 289.394C144.776 292.271 142.105 294.905 139.924 296.819C138.832 297.778 137.878 298.543 137.119 299.065C136.738 299.327 136.423 299.516 136.177 299.637C135.95 299.749 135.84 299.773 135.819 299.778C135.815 299.778 135.814 299.779 135.817 299.778C135.751 299.781 135.712 299.773 135.641 299.69C135.539 299.571 135.412 299.331 135.307 298.91C135.1 298.075 135.058 296.865 135.138 295.524C135.216 294.203 135.406 292.831 135.616 291.712C135.722 291.153 135.831 290.666 135.931 290.285C136.037 289.88 136.117 289.662 136.15 289.597C136.291 289.318 136.429 288.954 136.579 288.556C136.633 288.413 136.688 288.266 136.747 288.116C136.983 287.509 137.309 286.722 137.834 285.686C138.886 283.609 140.747 280.502 144.296 275.819L142.805 274.689C139.207 279.436 137.28 282.639 136.165 284.841C135.607 285.943 135.256 286.788 135.003 287.439C134.916 287.661 134.846 287.847 134.786 288.008C134.657 288.348 134.574 288.568 134.481 288.752C134.35 289.011 134.229 289.401 134.121 289.809C134.008 290.242 133.889 290.775 133.778 291.366C133.555 292.549 133.354 294 133.27 295.414C133.188 296.809 133.214 298.247 133.492 299.362C133.63 299.918 133.851 300.478 134.224 300.911C134.627 301.379 135.192 301.672 135.88 301.648C136.272 301.635 136.666 301.481 137.002 301.316C137.36 301.14 137.757 300.897 138.179 300.607C139.024 300.025 140.04 299.207 141.158 298.225C143.4 296.258 146.117 293.576 148.82 290.667C151.523 287.758 154.226 284.607 156.436 281.696C158.627 278.809 160.392 276.081 161.149 274.037Z" fill="#643131"/>
<path fill-rule="evenodd" clip-rule="evenodd" d="M200.787 277.573C201.264 275.228 200.681 273.428 199.397 272.16L198.082 273.491C198.862 274.261 199.321 275.395 198.954 277.2C198.579 279.044 197.372 281.8 195.658 284.975C193.957 288.122 191.803 291.597 189.603 294.848C187.403 298.101 185.167 301.113 183.305 303.339C182.373 304.454 181.548 305.356 180.877 305.989C180.541 306.306 180.259 306.541 180.034 306.698C179.826 306.844 179.722 306.884 179.702 306.892C179.698 306.893 179.697 306.894 179.7 306.893C179.635 306.905 179.596 306.903 179.512 306.832C179.393 306.731 179.231 306.512 179.063 306.113C178.73 305.32 178.504 304.13 178.377 302.793C178.251 301.476 178.229 300.091 178.266 298.953C178.284 298.384 178.317 297.886 178.357 297.494C178.4 297.077 178.446 296.85 178.469 296.781C178.566 296.483 178.645 296.103 178.733 295.687C178.764 295.537 178.797 295.383 178.831 295.226C178.971 294.59 179.173 293.762 179.533 292.658C180.254 290.444 181.617 287.088 184.407 281.917L182.76 281.029C179.932 286.271 178.519 289.732 177.754 292.078C177.372 293.254 177.154 294.142 177.004 294.824C176.953 295.056 176.912 295.252 176.877 295.42C176.802 295.775 176.754 296.006 176.69 296.201C176.6 296.478 176.54 296.881 176.496 297.301C176.45 297.747 176.415 298.291 176.396 298.893C176.357 300.095 176.38 301.56 176.514 302.97C176.647 304.362 176.893 305.778 177.339 306.838C177.56 307.366 177.864 307.886 178.299 308.257C178.77 308.657 179.373 308.86 180.049 308.731C180.434 308.658 180.8 308.445 181.107 308.231C181.434 308.002 181.788 307.701 182.161 307.35C182.907 306.645 183.785 305.681 184.74 304.539C186.653 302.252 188.928 299.185 191.153 295.897C193.378 292.607 195.567 289.079 197.304 285.864C199.026 282.675 200.353 279.709 200.787 277.573Z" fill="#643131"/>
<path fill-rule="evenodd" clip-rule="evenodd" d="M120.55 197.036L82.3153 201.62L82.1726 201.69C78.7223 203.376 74.3762 206.149 72.8101 210.374C71.1875 214.75 72.6824 220.204 79.7919 226.868L79.9933 227.056L113.197 233.083L113.533 231.25L80.8744 225.322C74.1713 218.965 73.3403 214.323 74.5654 211.019C75.8246 207.622 79.3904 205.163 82.7247 203.497L115.914 209.372L116.242 207.537L88.9324 202.703L120.774 198.886L120.55 197.036ZM187.952 222.124L210.312 226.082L210.64 224.247L188.28 220.289L187.952 222.124ZM212.515 249.215L189.219 244.987L188.884 246.82L212.179 251.048L212.515 249.215Z" fill="#643131"/>
<path d="M83.412 204.701C93.745 206.614 114.467 210.239 114.691 209.437C114.9 208.688 117.682 203.744 119.315 200.895L83.412 204.701Z" fill="#66AA5D"/>
<path fill-rule="evenodd" clip-rule="evenodd" d="M91.2945 261.662C90.3529 273.674 87.1215 285.171 84.4356 292.067L84.0724 292.999L225.571 337.337L346.954 300.127L347.138 299.871C358.262 284.376 358.468 269.319 354.173 256.826C349.896 244.383 341.169 234.509 334.417 229.203L333.261 230.673C339.797 235.81 348.268 245.405 352.403 257.434C356.498 269.344 356.355 283.663 345.8 298.525L228.678 334.428C229.475 333.12 230.331 331.297 231.201 328.846C233.133 323.396 235.164 314.74 236.703 301.491C239.83 274.579 221.377 255.343 211.769 249.074L210.746 250.64C220.041 256.705 237.856 275.349 234.844 301.275C233.314 314.445 231.306 322.951 229.437 328.221C228.501 330.858 227.61 332.659 226.848 333.821C226.468 334.403 226.13 334.808 225.85 335.075C225.712 335.207 225.597 335.296 225.506 335.356L86.5363 291.811C89.1991 284.701 92.2434 273.505 93.1602 261.808C94.116 249.615 92.7736 236.695 86.0684 227.336L84.5468 228.425C90.867 237.246 92.2382 249.622 91.2945 261.662Z" fill="#643131"/>
<path fill-rule="evenodd" clip-rule="evenodd" d="M252.905 225.402L340.112 211.384L339.813 209.551L252.606 223.57L252.905 225.402ZM327.956 221.595L341.617 219.274L341.301 217.444L327.64 219.765L327.956 221.595ZM221.367 232.366L236.338 230.045L236.049 228.211L221.078 230.532L221.367 232.366ZM223.33 242.485L263.378 236.358L263.093 234.523L223.045 240.65L223.33 242.485Z" fill="#643131"/>
<path fill-rule="evenodd" clip-rule="evenodd" d="M255.386 274.856L342.099 258.141L341.746 256.317L255.033 273.032L255.386 274.856ZM240.467 264.461L255.353 262.14L255.066 260.305L240.179 262.626L240.467 264.461ZM322.566 270.212L343.593 266.033L343.229 264.212L322.202 268.39L322.566 270.212ZM246.119 309.671L287.057 300.013L286.629 298.206L245.691 307.863L246.119 309.671Z" fill="#643131"/>
<path fill-rule="evenodd" clip-rule="evenodd" d="M115.065 266.98L94.4764 260.598L95.0304 258.811L115.619 265.194L115.065 266.98ZM221.602 277.254L206.96 273.373L207.439 271.565L222.082 275.445L221.602 277.254ZM201.623 320.878L161.698 306.928L162.315 305.162L202.24 319.112L201.623 320.878Z" fill="#643131"/>
<path fill-rule="evenodd" clip-rule="evenodd" d="M244.975 180.569L244.632 182.397L349.732 201.875L209.681 224.537L209.499 225.063C208.219 228.771 206.769 234.492 206.603 239.606C206.521 242.159 206.755 244.638 207.547 246.656C208.351 248.703 209.755 250.327 211.988 250.986L212.199 251.049L356.768 226.032L355.94 224.838C355.005 223.49 353.662 221.208 352.695 218.788C351.708 216.319 351.201 213.92 351.675 212.226C352.766 208.32 354.998 204.048 355.974 202.411L356.656 201.266L244.975 180.569ZM353.419 203.162L211.09 226.193C209.894 229.796 208.623 235.032 208.473 239.666C208.394 242.102 208.629 244.295 209.29 245.98C209.912 247.564 210.885 248.649 212.32 249.14L353.614 224.691C352.739 223.28 351.736 221.426 350.957 219.475C349.948 216.951 349.223 214.051 349.872 211.729C350.743 208.612 352.28 205.322 353.419 203.162Z" fill="#643131"/>
<path d="M246.437 183.204L354.131 204.42L212.286 228.653L188.801 224.504C191.515 215.357 193.76 216.489 209.947 215.263C226.134 214.037 236.426 209.134 242.695 204.42C247.71 200.648 247.279 188.704 246.437 183.204Z" fill="#66AA5D"/>
</svg>
