<svg width="161" height="160" viewBox="0 0 161 160" fill="none" xmlns="http://www.w3.org/2000/svg">
<circle cx="80.5" cy="80" r="80" fill="url(#paint0_radial_444_3816)"/>
<path d="M72.0389 58.875H71.0389V59.875V64.3312C69.2851 63.5057 67.328 62.9741 65.25 62.8438V58.1068C65.25 55.2611 67.4847 53 70.175 53H117.575C120.265 53 122.5 55.2611 122.5 58.1068V97.0844C122.5 99.9309 120.267 102.188 117.57 102.188H86.8698C85.8155 99.9873 84.3929 98.001 82.6684 96.3125H91.7889H92.7889V95.3125V89.4062C92.7889 88.8741 93.2224 88.4375 93.7639 88.4375H105.614C106.155 88.4375 106.589 88.8741 106.589 89.4062V95.3125V96.3125H107.589H115.489H116.489V95.3125V59.875V58.875H115.489H72.0389ZM75.1 79.5625C75.1 85.5312 70.2454 90.375 64.25 90.375C58.1521 90.375 53.4 85.5348 53.4 79.5625C53.4 73.4855 58.146 68.75 64.25 68.75C70.2454 68.75 75.1 73.5938 75.1 79.5625ZM45.5 111.062C45.5 102.92 52.1235 96.3125 60.3 96.3125H68.2C76.3777 96.3125 83 102.918 83 111.062C83 112.681 81.6818 114 80.05 114H48.45C46.8182 114 45.5 112.681 45.5 111.062Z" stroke="black" stroke-width="2"/>
<defs>
<radialGradient id="paint0_radial_444_3816" cx="0" cy="0" r="1" gradientUnits="userSpaceOnUse" gradientTransform="translate(80.5 80) rotate(90) scale(80)">
<stop stop-color="#66AA5D" stop-opacity="0.6"/>
<stop offset="1" stop-color="white" stop-opacity="0"/>
</radialGradient>
</defs>
</svg>
