<svg width="160" height="160" viewBox="0 0 160 160" fill="none" xmlns="http://www.w3.org/2000/svg">
<circle cx="80" cy="80" r="80" fill="url(#paint0_radial_444_3815)"/>
<path d="M77.8129 71.1618L77.782 71.1486C76.5557 70.6264 75.1164 71.343 74.6459 72.5887C74.2029 73.7615 74.8797 75.3187 76.1752 75.782L76.8539 76.0245L76.8581 76.026C78.0751 76.4668 79.4053 76.8975 80.7406 77.2101L81.5126 77.3909V78.1838V79.9844C81.5126 81.3781 82.6351 82.5 84.0104 82.5C85.3868 82.5 86.5111 81.377 86.5111 79.9844V78.4609V77.6628L87.2893 77.4858C90.6634 76.7184 92.8421 74.6244 93.2442 71.6305L93.2467 71.6119L93.2499 71.5933C93.5381 69.9262 93.3513 68.6263 92.9067 67.5918C92.4595 66.5514 91.7219 65.7106 90.8046 65.0151C88.9353 63.5978 86.454 62.8741 84.5633 62.3319L84.5369 62.3243L84.511 62.3153L83.7653 62.0565C82.8032 61.7818 82.0696 61.5391 81.5126 61.3159C80.9617 61.0952 80.5266 60.8716 80.2072 60.616C79.8621 60.3398 79.6089 59.9895 79.5325 59.5442C79.4769 59.2209 79.5402 58.8978 79.5605 58.7944C79.5627 58.7832 79.5644 58.7746 79.5654 58.7688L79.5655 58.7683C79.666 58.1774 80.038 57.7526 80.4372 57.4738C80.8321 57.1981 81.315 57.0175 81.8132 56.9022C82.8141 56.6705 84.0808 56.6556 85.4061 56.8657L85.4064 56.8658C86.2117 56.9937 87.2133 57.274 88.4424 57.7025C89.7504 58.15 91.1732 57.458 91.6214 56.1497C92.0733 54.8306 91.3775 53.3994 90.0743 52.9461C89.0018 52.5739 88.1146 52.33 87.2858 52.1377L86.5118 51.9581V51.1636V49.5156C86.5118 48.123 85.3875 47 84.0111 47C82.6358 47 81.5134 48.1219 81.5134 49.5156V51.0566V51.8549L80.7349 52.0318C77.3833 52.7933 75.1494 54.8731 74.505 57.9167C74.019 61.1071 75.2944 63.0914 77.0078 64.4293C78.7903 65.8211 81.0363 66.4958 82.3793 66.896C82.3806 66.8964 82.3818 66.8967 82.383 66.8971L83.3215 67.169C83.3218 67.1691 83.3221 67.1692 83.3224 67.1693C85.6031 67.8249 86.8901 68.2958 87.5822 68.7494C87.9557 68.9942 88.2899 69.318 88.434 69.7851C88.5557 70.1796 88.4891 70.5526 88.4619 70.7049C88.4599 70.7162 88.4581 70.7263 88.4566 70.735L77.8129 71.1618ZM77.8129 71.1618L77.8447 71.1728M77.8129 71.1618L77.8447 71.1728M77.8447 71.1728L78.5524 71.4194M77.8447 71.1728L78.5524 71.4194M78.5524 71.4194C79.7989 71.8746 81.3573 72.4428 82.5865 72.6231L78.5524 71.4194ZM117.315 94.8261L117.318 94.8242C119.463 93.2266 122.484 93.6886 124.072 95.8538C125.649 98.0061 125.203 101.023 122.831 102.624L122.814 102.636L122.796 102.649L103.091 117.227C103.091 117.227 103.09 117.227 103.09 117.227C100.668 119.016 97.6839 120 94.6853 120H44.2025C43.6495 120 43 119.433 43 118.653V104.594C43 104.227 43.1567 103.839 43.4202 103.541C43.6849 103.243 43.9776 103.12 44.1963 103.118L52.264 103.25L52.6291 103.256L52.9121 103.025L59.6937 97.4978C59.694 97.4975 59.6943 97.4973 59.6946 97.4971C62.5766 95.1544 66.2939 93.8766 69.8742 93.8766H93.339C95.5705 93.8766 97.3379 95.8734 96.9644 98.1902C96.6748 99.9318 94.8832 101.252 93.0838 101.252H81.6701C79.932 101.252 78.4675 102.803 78.4675 104.595C78.4675 106.347 79.7641 107.938 81.6701 107.938H99.261H99.5907L99.8557 107.742L117.315 94.8261Z" stroke="black" stroke-width="2"/>
<defs>
<radialGradient id="paint0_radial_444_3815" cx="0" cy="0" r="1" gradientUnits="userSpaceOnUse" gradientTransform="translate(80 80) rotate(90) scale(80)">
<stop stop-color="#66AA5D" stop-opacity="0.6"/>
<stop offset="1" stop-color="white" stop-opacity="0"/>
</radialGradient>
</defs>
</svg>
