<svg width="161" height="160" viewBox="0 0 161 160" fill="none" xmlns="http://www.w3.org/2000/svg">
<circle cx="80.5" cy="80" r="80" fill="url(#paint0_radial_444_3817)"/>
<path d="M96.3765 93.6783L96.3784 93.6834C96.6709 94.4935 96.825 95.3749 96.825 96.2969C96.825 97.3781 95.9549 98.25 94.8625 98.25H73.1375C72.0451 98.25 71.175 97.3781 71.175 96.2969C71.175 95.3749 71.3291 94.4935 71.6217 93.6834L71.6235 93.6783C72.5572 91.0482 74.751 89.0635 77.5571 88.4534C77.9174 88.4634 78.2822 88.454 78.595 88.4461C78.7705 88.4416 78.9297 88.4375 79.0625 88.4375H88.9375C89.0695 88.4375 89.2308 88.4417 89.4058 88.4463C89.7012 88.4539 90.0356 88.4627 90.3342 88.4539C93.159 89.0682 95.4488 91.0653 96.3765 93.6783ZM71.1253 73.6562C71.1253 76.3617 68.9221 78.5625 66.2003 78.5625C63.4785 78.5625 61.2753 76.3617 61.2753 73.6562C61.2753 70.9508 63.4785 68.75 66.2003 68.75C68.9221 68.75 71.1253 70.9508 71.1253 73.6562ZM57.35 90.0584C57.35 86.9961 59.8495 84.5 62.9292 84.5H71.4958C71.6175 84.5 71.7385 84.5039 71.8586 84.5116C68.9742 86.2647 66.786 89.0434 65.8026 92.3438H59.6458C58.3682 92.3438 57.35 91.3242 57.35 90.0584ZM102.197 92.3438C101.214 89.0451 99.0242 86.2682 96.0898 84.5151C96.2274 84.5051 96.3656 84.5 96.5042 84.5H105.071C108.151 84.5 110.65 86.9961 110.65 90.0584C110.65 91.3242 109.632 92.3438 108.354 92.3438H102.197ZM106.7 73.6562C106.7 76.3617 104.497 78.5625 101.775 78.5625C99.0532 78.5625 96.85 76.3617 96.85 73.6562C96.85 70.9508 99.0532 68.75 101.775 68.75C104.497 68.75 106.7 70.9508 106.7 73.6562ZM77.1 75.625C77.1 71.8367 80.192 68.75 84 68.75C87.8081 68.75 90.9 71.8367 90.9 75.625C90.9 79.4133 87.8081 82.5 84 82.5C80.192 82.5 77.1 79.4133 77.1 75.625ZM111.65 53C117.643 53 122.5 57.844 122.5 63.8125V103.188C122.5 109.154 117.643 114 111.65 114H56.35C50.3548 114 45.5 109.154 45.5 103.188V63.8125C45.5 57.8438 50.3546 53 56.35 53H111.65ZM51.4 103.188C51.4 105.921 53.6202 108.125 56.35 108.125H111.65C114.384 108.125 116.6 105.921 116.6 103.188V63.8125C116.6 61.0836 114.385 58.875 111.65 58.875H56.35C53.6196 58.875 51.4 61.083 51.4 63.8125V103.188Z" stroke="black" stroke-width="2"/>
<defs>
<radialGradient id="paint0_radial_444_3817" cx="0" cy="0" r="1" gradientUnits="userSpaceOnUse" gradientTransform="translate(80.5 80) rotate(90) scale(80)">
<stop stop-color="#66AA5D" stop-opacity="0.6"/>
<stop offset="1" stop-color="white" stop-opacity="0"/>
</radialGradient>
</defs>
</svg>
