<svg width="398" height="391" viewBox="0 0 398 391" fill="none" xmlns="http://www.w3.org/2000/svg">
<path fill-rule="evenodd" clip-rule="evenodd" d="M218.158 126.787H44.6842C44.6842 126.787 38.7595 137.781 38.5805 145.83C38.388 154.483 44.6842 166.538 44.6842 166.538H106.931C106.231 162.531 106.62 157.299 111.581 156.037C117.861 154.44 121.5 156.098 122.535 157.126C123.083 153.405 125.839 146.417 132.485 148.232C140.792 150.501 140.975 153.769 141.066 159.577V164.115C141.066 164.115 148.29 162.874 151.56 166.538H218.158C218.158 166.538 223.876 154.386 223.699 145.83C223.535 137.885 218.158 126.787 218.158 126.787Z" fill="#FFEDC7"/>
<path d="M212.656 203.073C216.729 194.975 241.324 180.245 253.113 173.892C253.113 174.552 252.507 178.603 252.204 180.546C254.598 182.4 260.241 186.017 263.66 185.652C267.078 185.287 273.63 177.66 276.479 173.892L275.297 169.971C286.783 168.178 312.863 169.406 325.301 188.665C340.848 212.739 345.939 236.356 344.393 272.558C342.848 308.76 343.757 307.21 336.938 309.854C330.119 312.499 260.023 313.411 258.205 313.593C256.75 313.739 251.386 313.198 250.295 313.137C253.447 312.528 259.877 311.018 260.387 309.851L261.568 301.461C259.932 300.306 255.623 298.16 251.477 298.817C246.295 299.638 236.476 303.836 225.384 303.836L224.272 286.233H198.109V284.23C194.836 272.102 207.564 213.195 212.656 203.073Z" fill="#FDC247"/>
<path fill-rule="evenodd" clip-rule="evenodd" d="M115.773 178.464L116.705 179.589C120.528 184.206 124.949 185.512 128.933 185.315C132.967 185.116 136.591 183.369 138.671 181.828L139.368 181.311L139.918 181.985C141.373 183.768 143.385 184.367 145.413 184.355C147.459 184.343 149.429 183.703 150.595 183.124L150.977 182.934L151.368 183.106C151.759 183.28 152.138 183.405 152.538 183.538L152.593 183.556C152.996 183.69 153.445 183.84 153.86 184.054C154.291 184.276 154.708 184.577 155.06 185.028C155.098 185.076 155.134 185.126 155.17 185.177C155.622 184.743 156.157 184.328 156.732 183.957C157.879 183.218 159.29 182.59 160.737 182.341C162.184 182.092 163.744 182.212 165.084 183.075C166.436 183.946 167.415 185.477 167.885 187.738C168.681 191.575 166.51 194.837 163.81 197.241C161.277 199.497 158.094 201.176 155.753 202.111C155.623 202.775 155.379 203.525 155.064 204.313C154.647 205.356 154.082 206.524 153.418 207.741C152.09 210.173 150.341 212.844 148.518 215.165C143.816 221.153 133.939 225.051 124.721 222.564C119.728 221.217 115.579 217.962 112.562 214.299C109.783 210.925 107.902 207.13 107.209 204.012C103.264 203.895 98.9436 202.534 96.1353 200.16C94.6274 198.885 93.5033 197.27 93.1835 195.35C92.8614 193.417 93.3793 191.322 94.8756 189.149C97.1305 185.876 99.1981 183.951 101.138 183.283C102.138 182.939 103.105 182.929 104.007 183.245C104.755 183.507 105.409 183.976 105.977 184.573C106.073 184.615 106.141 184.664 106.18 184.694C106.274 184.768 106.335 184.845 106.364 184.883C106.424 184.964 106.465 185.044 106.486 185.086C106.57 185.255 106.665 185.52 106.752 185.772C106.818 185.962 106.889 186.173 106.964 186.397C107.111 186.834 107.274 187.319 107.449 187.796C107.548 188.065 107.646 188.32 107.741 188.546H107.962C108.496 188.546 109.171 188.24 109.966 187.554C110.741 186.884 111.518 185.948 112.24 184.923C113.681 182.874 114.805 180.608 115.171 179.797L115.773 178.464ZM108.126 189.3C108.126 189.3 108.124 189.299 108.12 189.294C108.124 189.298 108.126 189.3 108.126 189.3ZM116.225 181.813C115.645 182.942 114.769 184.511 113.731 185.985C112.967 187.071 112.091 188.141 111.156 188.949C110.42 189.586 109.569 190.127 108.649 190.315C108.564 190.481 108.409 190.708 108.133 190.848C107.732 191.053 107.344 190.95 107.104 190.81C106.894 190.688 106.748 190.517 106.658 190.398C106.47 190.149 106.304 189.82 106.163 189.506C106.016 189.178 105.871 188.805 105.734 188.432C105.552 187.935 105.371 187.398 105.22 186.948C105.148 186.734 105.082 186.539 105.026 186.377C105.003 186.309 104.981 186.248 104.961 186.192L104.887 186.103C104.397 185.517 103.9 185.155 103.406 184.982C102.926 184.814 102.38 184.799 101.729 185.023C100.367 185.492 98.5817 186.997 96.3776 190.197C95.0869 192.071 94.7597 193.689 94.9858 195.046C95.2142 196.417 96.0319 197.67 97.3109 198.752C99.8939 200.936 104.142 202.224 107.952 202.18L108.735 202.171L108.864 202.949C109.334 205.803 111.113 209.658 113.969 213.125C116.817 216.583 120.663 219.565 125.194 220.788C133.703 223.083 142.832 219.44 147.085 214.025C148.844 211.784 150.537 209.198 151.816 206.855C152.456 205.683 152.986 204.584 153.368 203.627C153.757 202.655 153.97 201.886 154.019 201.359L154.072 200.783L154.611 200.582C156.838 199.751 160.093 198.096 162.599 195.863C165.128 193.611 166.688 190.972 166.096 188.114C165.697 186.191 164.928 185.158 164.099 184.624C163.258 184.082 162.201 183.955 161.045 184.154C159.888 184.353 158.705 184.869 157.717 185.506C156.711 186.155 156.009 186.862 155.724 187.368L154.581 189.397L154.04 187.129C153.927 186.653 153.775 186.36 153.621 186.162C153.47 185.968 153.282 185.822 153.027 185.691C152.758 185.552 152.441 185.442 152.021 185.303C151.997 185.295 151.973 185.287 151.948 185.279C151.67 185.187 151.355 185.082 151.023 184.953C149.645 185.573 147.59 186.182 145.424 186.194C143.262 186.207 140.917 185.622 139.077 183.784C136.715 185.355 133.077 186.952 129.023 187.152C124.835 187.359 120.236 186.07 116.225 181.813Z" fill="#643131"/>
<path fill-rule="evenodd" clip-rule="evenodd" d="M127.287 151.321C125.838 153.118 125.057 155.595 124.798 157.338L124.536 159.105L123.257 157.842C122.527 157.122 119.276 155.471 113.219 157.001C111.853 157.345 110.927 158.017 110.293 158.864C109.649 159.726 109.273 160.818 109.107 162.033C108.774 164.481 109.322 167.235 109.945 169.022L110.352 170.189L109.101 170.211C107.441 170.239 104.958 170.638 102.924 171.706C100.921 172.759 99.4524 174.392 99.4524 176.936C99.4524 178.402 99.5275 179.499 99.6756 180.325C99.824 181.154 100.036 181.655 100.269 181.974C100.693 182.554 101.358 182.775 102.904 182.926L102.725 184.711C101.213 184.563 99.7416 184.32 98.7945 183.022C98.3423 182.403 98.0602 181.611 97.8858 180.638C97.7111 179.663 97.6348 178.448 97.6348 176.936C97.6348 173.526 99.6806 171.378 102.07 170.123C103.965 169.127 106.137 168.651 107.879 168.486C107.359 166.595 106.99 164.115 107.306 161.794C107.498 160.378 107.953 158.973 108.831 157.799C109.72 156.611 111.008 155.707 112.768 155.263C117.793 153.995 121.329 154.702 123.274 155.697C123.706 153.945 124.526 151.865 125.864 150.204C126.729 149.131 127.834 148.205 129.217 147.682C130.611 147.155 132.223 147.061 134.046 147.555C138.258 148.697 140.653 150.149 141.924 152.254C143.163 154.303 143.212 156.807 143.257 159.615L143.257 159.622V163.1C143.396 163.088 143.547 163.076 143.708 163.065C144.614 163.003 145.856 162.978 147.19 163.127C149.802 163.418 153.069 164.421 154.531 167.499C155.318 169.155 155.344 171.258 155.216 172.838C155.151 173.647 155.041 174.361 154.947 174.873C154.908 175.089 154.871 175.27 154.842 175.408C154.911 175.571 154.998 175.795 155.088 176.068C155.278 176.647 155.484 177.463 155.542 178.404C155.659 180.307 155.164 182.744 152.736 184.693L151.589 183.302C153.451 181.807 153.819 179.997 153.728 178.513C153.681 177.76 153.515 177.097 153.359 176.621C153.281 176.384 153.207 176.197 153.154 176.073C153.127 176.011 153.106 175.964 153.092 175.935C153.086 175.921 153.081 175.911 153.078 175.905L153.077 175.903L153.077 175.902L153.076 175.902L153.076 175.901L153.076 175.901L152.927 175.608L153.007 175.288L153.007 175.288L153.007 175.288L153.007 175.287L153.009 175.28C153.011 175.273 153.014 175.261 153.017 175.245C153.025 175.214 153.036 175.166 153.049 175.103C153.077 174.976 153.116 174.789 153.159 174.555C153.244 174.086 153.345 173.432 153.404 172.695C153.526 171.181 153.462 169.473 152.885 168.26C151.841 166.062 149.428 165.181 146.986 164.909C145.793 164.776 144.666 164.797 143.833 164.854C143.418 164.882 143.08 164.919 142.848 164.948C142.732 164.962 142.643 164.975 142.584 164.984C142.554 164.988 142.533 164.992 142.519 164.994L142.505 164.996L142.503 164.996L142.502 164.997L142.502 164.997L141.439 165.178V159.636C141.393 156.709 141.305 154.731 140.363 153.172C139.454 151.667 137.623 150.385 133.564 149.284C132.079 148.882 130.867 148.979 129.868 149.357C128.859 149.738 128.003 150.432 127.287 151.321Z" fill="#643131"/>
<path fill-rule="evenodd" clip-rule="evenodd" d="M119.337 221.772C119.09 221.159 118.848 220.557 118.645 219.963L120.375 219.351C120.532 219.809 120.74 220.315 120.966 220.865C122.192 223.852 123.945 228.125 121.028 232.98L119.464 232.011C121.853 228.034 120.538 224.761 119.337 221.772Z" fill="#643131"/>
<path fill-rule="evenodd" clip-rule="evenodd" d="M245.934 162.467C245.567 161.782 245.211 161.118 244.898 160.466L246.543 159.676C246.808 160.228 247.129 160.821 247.474 161.458C249.314 164.856 251.831 169.504 250.061 175.678L248.307 175.175C249.854 169.78 247.756 165.867 245.934 162.467Z" fill="#643131"/>
<path fill-rule="evenodd" clip-rule="evenodd" d="M141.77 232.98C139.115 227.916 140.526 222.176 141.279 219.351L143.284 219.795C142.522 222.66 141.329 227.775 143.632 232.166L141.77 232.98Z" fill="#643131"/>
<path fill-rule="evenodd" clip-rule="evenodd" d="M271.176 167.646C267.589 160.305 267.196 151.277 267.054 146.643L268.878 146.587C269.021 151.245 269.422 159.9 272.816 166.845L271.176 167.646Z" fill="#643131"/>
<path fill-rule="evenodd" clip-rule="evenodd" d="M119.213 232.629C119.213 232.629 119.213 232.629 119.832 231.953C120.451 231.277 120.451 231.277 120.451 231.277L120.451 231.277L120.454 231.28L120.467 231.291C120.479 231.301 120.497 231.316 120.522 231.337C120.571 231.379 120.646 231.441 120.744 231.521C120.939 231.681 121.226 231.911 121.587 232.186C122.312 232.738 123.331 233.47 124.51 234.191C126.922 235.666 129.799 236.968 132.163 236.841C134.146 236.734 136.532 235.584 138.516 234.357C139.487 233.756 140.324 233.162 140.918 232.717C141.215 232.496 141.45 232.312 141.61 232.185C141.689 232.121 141.75 232.072 141.791 232.039C141.811 232.022 141.826 232.01 141.835 232.002L141.846 231.993L141.848 231.991L141.848 231.991C141.848 231.991 141.848 231.991 142.456 232.677C143.064 233.362 143.064 233.362 143.064 233.362L143.062 233.364L143.058 233.367L143.043 233.379C143.031 233.39 143.013 233.404 142.99 233.423C142.944 233.461 142.876 233.516 142.79 233.585C142.617 233.722 142.367 233.917 142.054 234.152C141.428 234.62 140.545 235.247 139.515 235.884C137.499 237.13 134.764 238.514 132.266 238.648C129.272 238.809 125.958 237.215 123.518 235.723C122.271 234.96 121.199 234.19 120.439 233.611C120.058 233.321 119.754 233.078 119.545 232.906C119.44 232.82 119.358 232.752 119.302 232.705C119.274 232.681 119.252 232.663 119.237 232.65L119.22 232.635L119.215 232.631L119.213 232.629Z" fill="#643131"/>
<path fill-rule="evenodd" clip-rule="evenodd" d="M264.321 177.869C262.943 179.102 261.477 180.16 260.162 180.468C257.224 181.158 254.279 179.815 252.2 178.47C251.138 177.782 250.247 177.058 249.623 176.507C249.31 176.231 249.062 175.996 248.891 175.829C248.805 175.746 248.738 175.679 248.692 175.632C248.669 175.609 248.651 175.59 248.639 175.577C248.632 175.571 248.627 175.566 248.624 175.562L248.619 175.557L248.617 175.555C248.617 175.555 248.617 175.555 249.279 174.927C249.941 174.299 249.94 174.299 249.94 174.298L249.942 174.3L249.951 174.31C249.96 174.319 249.973 174.333 249.992 174.352C250.03 174.39 250.088 174.448 250.164 174.522C250.317 174.671 250.542 174.885 250.83 175.139C251.407 175.648 252.226 176.312 253.192 176.938C255.171 178.22 257.564 179.204 259.745 178.692C260.571 178.498 261.738 177.731 263.105 176.508C264.435 175.319 265.834 173.811 267.116 172.314C268.396 170.82 269.546 169.356 270.376 168.263C270.791 167.717 271.125 167.265 271.355 166.95C271.47 166.793 271.559 166.67 271.619 166.586C271.649 166.545 271.672 166.513 271.687 166.492L271.704 166.468L271.709 166.461L271.709 166.461C271.709 166.461 271.709 166.461 272.453 166.989C273.198 167.517 273.197 167.517 273.197 167.517L273.197 167.518L273.196 167.519L273.191 167.526L273.172 167.552C273.156 167.575 273.132 167.609 273.101 167.652C273.038 167.739 272.946 167.866 272.828 168.027C272.592 168.35 272.251 168.811 271.829 169.367C270.985 170.478 269.812 171.972 268.502 173.501C267.195 175.027 265.737 176.603 264.321 177.869Z" fill="#643131"/>
<path d="M122.052 193.513C122.052 194.611 121.289 195.501 120.348 195.501C119.407 195.501 118.645 194.611 118.645 193.513C118.645 192.415 119.407 191.525 120.348 191.525C121.289 191.525 122.052 192.415 122.052 193.513Z" fill="#643131"/>
<path d="M146.23 194.445C145.824 195.477 144.848 196.058 144.051 195.744C143.254 195.43 142.938 194.339 143.344 193.308C143.751 192.277 144.726 191.695 145.523 192.009C146.32 192.323 146.637 193.414 146.23 194.445Z" fill="#643131"/>
<path d="M250.652 124.91C250.83 126.362 250.065 127.65 248.943 127.788C247.821 127.925 246.767 126.86 246.59 125.408C246.412 123.956 247.177 122.667 248.299 122.53C249.421 122.393 250.475 123.458 250.652 124.91Z" fill="#643131"/>
<path d="M228.207 132.575C228.385 134.027 227.62 135.315 226.498 135.452C225.376 135.59 224.322 134.524 224.144 133.072C223.966 131.62 224.732 130.332 225.854 130.195C226.976 130.057 228.029 131.123 228.207 132.575Z" fill="#643131"/>
<path fill-rule="evenodd" clip-rule="evenodd" d="M120.05 194.802C120.861 194.631 121.567 194.163 121.948 193.797L123.188 195.066C122.619 195.613 121.624 196.277 120.42 196.531C119.173 196.794 117.713 196.61 116.373 195.451L117.543 194.119C118.411 194.869 119.281 194.964 120.05 194.802Z" fill="#643131"/>
<path fill-rule="evenodd" clip-rule="evenodd" d="M146.173 195.003C146.984 194.798 147.69 194.237 148.071 193.797L149.311 195.32C148.742 195.976 147.747 196.772 146.543 197.078C145.296 197.394 143.836 197.173 142.496 195.782L143.666 194.183C144.534 195.083 145.404 195.198 146.173 195.003Z" fill="#643131"/>
<path fill-rule="evenodd" clip-rule="evenodd" d="M250.292 126.813C250.874 126.709 251.37 126.426 251.625 126.219L252.664 127.488C252.223 127.846 251.475 128.265 250.582 128.425C249.666 128.588 248.574 128.48 247.553 127.733L248.524 126.412C249.119 126.848 249.733 126.913 250.292 126.813Z" fill="#643131"/>
<path fill-rule="evenodd" clip-rule="evenodd" d="M226.161 134.199C226.606 133.85 226.901 133.344 227.024 133.004L228.74 133.623C228.527 134.214 228.056 135.032 227.287 135.635C226.484 136.265 225.363 136.646 223.995 136.28L224.466 134.517C225.214 134.717 225.752 134.52 226.161 134.199Z" fill="#643131"/>
<path fill-rule="evenodd" clip-rule="evenodd" d="M127.22 202.703C127.051 201.575 127.295 200.295 127.549 199.475L129.243 199.973C129.025 200.675 128.854 201.678 128.97 202.454C129.028 202.836 129.143 203.078 129.269 203.214C129.369 203.321 129.535 203.43 129.899 203.43C131.205 203.43 132.428 203.081 133.336 202.678C133.789 202.477 134.144 202.27 134.378 202.104C134.497 202.02 134.568 201.958 134.602 201.923C134.605 201.92 134.607 201.917 134.61 201.915C134.586 201.947 134.54 202.024 134.516 202.14L136.25 202.478C136.186 202.792 135.976 203.017 135.882 203.113C135.751 203.246 135.592 203.375 135.42 203.497C135.073 203.743 134.611 204.006 134.069 204.246C132.987 204.727 131.513 205.153 129.899 205.153C129.097 205.153 128.432 204.881 127.958 204.37C127.509 203.887 127.306 203.272 127.22 202.703ZM134.623 201.898C134.624 201.898 134.62 201.904 134.61 201.915C134.618 201.904 134.623 201.898 134.623 201.898Z" fill="#643131"/>
<path fill-rule="evenodd" clip-rule="evenodd" d="M127.683 214.669C126.073 214.251 124.636 213.673 123.756 213.029L124.808 211.401C125.412 211.843 126.592 212.352 128.123 212.749C129.63 213.14 131.39 213.4 133.099 213.4C134.165 213.4 135.758 213.169 137.19 212.788C137.903 212.598 138.547 212.379 139.048 212.148C139.591 211.898 139.822 211.698 139.875 211.622L141.36 212.808C140.995 213.325 140.368 213.693 139.785 213.961C139.161 214.249 138.413 214.499 137.64 214.704C136.102 215.114 134.354 215.376 133.099 215.376C131.225 215.376 129.318 215.093 127.683 214.669Z" fill="#643131"/>
<path fill-rule="evenodd" clip-rule="evenodd" d="M80.1465 250.075C91.6895 231.618 112.111 227.209 120.916 227.302L120.897 229.134C112.471 229.044 92.7724 233.317 81.68 251.053C76.1162 259.949 73.0135 271.339 71.4103 282.019C69.8087 292.689 69.7157 302.567 70.1193 308.379L68.31 308.507C67.8973 302.565 67.9948 292.552 69.6171 281.745C71.2379 270.947 74.3926 259.275 80.1465 250.075Z" fill="#643131"/>
<path fill-rule="evenodd" clip-rule="evenodd" d="M183.257 281.817C179.704 242.497 154.072 231.885 141.926 231.411L141.997 229.573C154.992 230.08 181.442 241.339 185.084 281.651L183.257 281.817Z" fill="#643131"/>
<path fill-rule="evenodd" clip-rule="evenodd" d="M378.274 311.504H19.7244C17.6574 311.504 15.9819 313.213 15.9819 315.321C15.9819 317.429 17.6574 319.138 19.7244 319.138H378.274C380.341 319.138 382.017 317.429 382.017 315.321C382.017 313.213 380.341 311.504 378.274 311.504ZM19.7244 309.643C16.6492 309.643 14.1562 312.185 14.1562 315.321C14.1562 318.458 16.6492 321 19.7244 321H378.274C381.349 321 383.842 318.458 383.842 315.321C383.842 312.185 381.349 309.643 378.274 309.643H19.7244Z" fill="#643131"/>
<path fill-rule="evenodd" clip-rule="evenodd" d="M98.8984 292.988C98.8613 299.637 99.326 306.398 99.7659 310.585L97.9441 310.778C97.4985 306.536 97.0289 299.707 97.0666 292.978C97.0854 289.614 97.231 286.26 97.5731 283.261C97.9137 280.276 98.4549 277.583 99.292 275.57L100.983 276.278C100.244 278.054 99.7268 280.546 99.3931 283.471C99.0611 286.382 98.917 289.664 98.8984 292.988ZM158.25 285.349C157.411 282.375 156.296 279.294 155.527 277.37L157.227 276.685C158.014 278.654 159.152 281.798 160.013 284.848C160.443 286.373 160.808 287.891 161.024 289.237C161.235 290.555 161.322 291.811 161.119 292.76L159.328 292.375C159.455 291.778 159.42 290.807 159.216 289.529C159.015 288.28 158.67 286.837 158.25 285.349Z" fill="#643131"/>
<path fill-rule="evenodd" clip-rule="evenodd" d="M232.904 105.209L233.39 105.423C250.464 112.953 260.335 109.674 262.948 107.463L263.408 107.074L263.951 107.338C266.98 108.813 268.647 111.99 269.541 115.126C270.181 117.371 270.457 119.703 270.524 121.629C271.743 120.786 273.235 120.298 275.04 120.367C276.413 120.419 277.915 120.891 279.087 122.075C280.264 123.264 281.006 125.067 281.056 127.588C281.101 129.918 279.442 131.818 277.681 133.17C276.016 134.448 274.052 135.4 272.625 135.936C270.608 139.647 265.434 147.962 259.434 154.027C255.527 157.976 251.182 160.381 246.192 160.29C241.226 160.2 235.839 157.641 229.827 152.159C224.222 147.049 221.279 139.849 219.99 132.904C218.7 125.958 219.043 119.157 220.114 114.727L220.192 114.403L232.904 105.209ZM233.13 107.289L221.822 115.468C220.874 119.645 220.578 126.03 221.793 132.577C223.04 139.296 225.858 146.077 231.071 150.83C236.922 156.165 241.896 158.402 246.226 158.481C250.532 158.559 254.42 156.505 258.122 152.763C264.124 146.696 269.326 138.243 271.168 134.785L271.335 134.472L271.672 134.354C272.98 133.895 274.946 132.977 276.555 131.741C278.204 130.475 279.25 129.057 279.222 127.623C279.18 125.438 278.547 124.119 277.776 123.34C276.999 122.555 275.98 122.214 274.97 122.175C272.914 122.097 271.433 122.935 270.304 124.289L268.537 126.406L268.68 123.668C268.783 121.693 268.614 118.555 267.776 115.616C266.991 112.862 265.673 110.465 263.632 109.23C259.807 111.924 249.449 114.349 233.13 107.289Z" fill="#643131"/>
<path fill-rule="evenodd" clip-rule="evenodd" d="M236.345 139.59C235.907 138.291 235.693 136.904 235.627 136.01L237.463 135.874C237.52 136.647 237.71 137.874 238.088 138.994C238.277 139.552 238.502 140.055 238.761 140.454C239.023 140.857 239.287 141.105 239.534 141.229C240.884 141.908 241.465 141.516 241.539 141.466C241.547 141.46 241.549 141.459 241.544 141.464L242.958 142.651C242.299 143.448 240.736 143.906 238.71 142.886C238.073 142.566 237.589 142.035 237.221 141.469C236.85 140.898 236.565 140.241 236.345 139.59ZM245.717 148.29C245.343 148.021 245.121 147.983 245.07 147.986C244.921 147.996 244.585 148.078 244.057 148.272C243.558 148.455 242.968 148.705 242.351 148.987C241.643 149.31 240.914 149.668 240.267 149.997C241.067 150.616 242.041 151.351 242.773 151.858C242.973 151.996 243.304 152.115 243.764 152.166C244.214 152.216 244.73 152.194 245.244 152.102C245.758 152.011 246.241 151.856 246.631 151.661C247.032 151.46 247.268 151.25 247.376 151.088C247.396 151.058 247.462 150.912 247.361 150.537C247.263 150.18 247.045 149.75 246.734 149.326C246.426 148.905 246.061 148.538 245.717 148.29ZM249.136 150.049C249.305 150.67 249.348 151.451 248.908 152.116C248.555 152.648 248.009 153.041 247.45 153.321C246.879 153.606 246.223 153.81 245.564 153.928C244.904 154.045 244.211 154.08 243.563 154.008C242.924 153.938 242.266 153.756 241.73 153.385C240.524 152.55 238.737 151.156 237.998 150.568L236.9 149.692L238.134 149.025C238.976 148.57 240.311 147.884 241.59 147.299C242.23 147.008 242.866 146.736 243.427 146.53C243.959 146.336 244.515 146.164 244.955 146.137C245.64 146.094 246.293 146.427 246.788 146.783C247.312 147.16 247.81 147.673 248.215 148.225C248.618 148.775 248.963 149.41 249.136 150.049Z" fill="#643131"/>
<path fill-rule="evenodd" clip-rule="evenodd" d="M255.504 105.246C259.341 104.958 262.747 106.431 264.022 107.233L262.993 108.616C261.958 107.965 258.961 106.668 255.652 106.916L255.504 105.246Z" fill="#643131"/>
<path fill-rule="evenodd" clip-rule="evenodd" d="M233.909 104.983C233.883 104.977 233.82 104.965 233.731 104.965V106.912C233.467 106.912 233.236 106.842 233.111 106.801C232.959 106.75 232.805 106.685 232.659 106.617C232.367 106.479 232.04 106.297 231.721 106.098C231.104 105.712 230.383 105.181 229.947 104.673L231.728 103.504C231.96 103.775 232.463 104.169 233.015 104.513C233.28 104.679 233.524 104.813 233.711 104.901C233.806 104.945 233.869 104.97 233.902 104.981C233.905 104.982 233.907 104.982 233.909 104.983ZM233.922 104.987C233.923 104.987 233.918 104.986 233.909 104.983C233.918 104.985 233.922 104.986 233.922 104.987Z" fill="#643131"/>
<path fill-rule="evenodd" clip-rule="evenodd" d="M257.56 72.0074C247.011 70.5486 240.236 78.469 238.17 82.662L237.87 83.2695L237.206 83.157C233.936 82.6029 224.858 82.4233 215.375 86.3023C212.512 87.4736 210.78 89.0597 209.782 90.8104C208.778 92.5701 208.466 94.5838 208.6 96.6876C208.871 100.934 210.939 105.33 212.392 108.166C213.956 111.219 214.108 114.459 213.815 117.33C213.62 119.244 213.204 121.113 212.867 122.626C212.71 123.328 212.571 123.954 212.479 124.472C211.978 127.279 209.947 128.799 208.532 129.42C208.589 129.598 208.695 129.759 208.847 129.911C209.158 130.222 209.684 130.502 210.413 130.678C211.869 131.03 213.848 130.893 215.584 130.144C216.059 129.939 216.599 129.373 217.144 128.357C217.673 127.371 218.134 126.095 218.525 124.69C219.304 121.885 219.759 118.707 219.937 116.643L221.745 116.801C221.56 118.943 221.09 122.238 220.272 125.183C219.864 126.653 219.359 128.073 218.74 129.226C218.137 130.351 217.348 131.371 216.299 131.825C214.223 132.721 211.846 132.904 209.99 132.456C209.063 132.232 208.193 131.833 207.569 131.209C206.918 130.559 206.563 129.688 206.693 128.673L206.77 128.067L207.356 127.908C208.273 127.658 210.268 126.532 210.692 124.149C210.809 123.494 210.966 122.793 211.133 122.046C211.459 120.591 211.824 118.96 212.01 117.143C212.284 114.46 212.119 111.62 210.779 109.005C209.328 106.173 207.086 101.472 206.789 96.8046C206.639 94.4515 206.98 92.054 208.208 89.8996C209.442 87.7362 211.521 85.9054 214.692 84.6082C223.968 80.8138 232.883 80.7449 236.853 81.257C239.4 76.6091 246.633 68.6508 257.807 70.1959C271.783 72.1286 283.819 76.9584 289.278 89.5695C294.576 101.809 295.773 108.282 296.6 113.092C297.021 115.545 297.338 118.535 295.936 122.481C294.547 126.394 291.498 131.169 285.365 137.301C280.433 142.233 276.071 144.998 272.586 146.437C269.132 147.864 266.464 148.017 264.968 147.589L265.463 145.83C266.417 146.102 268.64 146.091 271.897 144.746C275.123 143.413 279.29 140.799 284.086 136.004C290.113 129.977 292.963 125.427 294.227 121.865C295.48 118.338 295.207 115.705 294.811 113.404C294.004 108.706 292.843 102.379 287.614 90.3004C282.547 78.5929 271.352 73.9146 257.56 72.0074Z" fill="#643131"/>
<path fill-rule="evenodd" clip-rule="evenodd" d="M296.396 166.968C286.992 164.516 277.699 164.657 272.047 165.536L271.766 163.736C277.635 162.823 287.182 162.682 296.857 165.205C306.538 167.73 316.428 172.947 322.828 182.819C338.553 207.075 343.68 230.877 342.124 267.178C341.951 271.225 341.808 274.804 341.682 277.97C341.526 281.87 341.395 285.143 341.263 287.894C341.024 292.868 340.778 296.208 340.354 298.51C339.93 300.819 339.301 302.246 338.173 303.238C337.626 303.719 337.001 304.061 336.327 304.36C335.835 304.579 335.278 304.791 334.684 305.017C334.482 305.094 334.274 305.173 334.064 305.254C333.077 305.636 331.104 305.947 328.551 306.222C325.949 306.502 322.619 306.756 318.822 306.987C311.227 307.447 301.729 307.815 292.396 308.105C283.062 308.396 273.885 308.609 266.929 308.762C265.346 308.797 263.879 308.828 262.551 308.856C260.96 308.891 259.569 308.92 258.419 308.946C257.364 308.97 256.514 308.99 255.9 309.008C255.593 309.016 255.347 309.024 255.165 309.031C255.122 309.033 255.083 309.034 255.048 309.036C255.008 309.038 254.974 309.039 254.945 309.041C254.917 309.042 254.895 309.043 254.878 309.045C254.87 309.045 254.864 309.046 254.859 309.046C254.854 309.046 254.852 309.047 254.853 309.047C254.025 309.129 252.219 309.02 250.59 308.898C249.74 308.835 248.923 308.766 248.25 308.71C247.576 308.653 247.048 308.609 246.778 308.594L246.879 306.775C247.162 306.79 247.738 306.838 248.45 306.898C249.129 306.955 249.933 307.022 250.726 307.081C252.426 307.208 254.04 307.296 254.671 307.233C254.945 307.206 256.301 307.171 258.378 307.125C259.53 307.099 260.926 307.069 262.521 307.034C263.847 307.006 265.311 306.975 266.889 306.94C273.843 306.788 283.013 306.574 292.339 306.284C301.667 305.994 311.143 305.627 318.711 305.168C322.497 304.938 325.795 304.686 328.355 304.41C330.963 304.129 332.684 303.834 333.406 303.554C333.644 303.463 333.867 303.378 334.079 303.297C334.655 303.078 335.143 302.892 335.586 302.696C336.178 302.433 336.616 302.179 336.969 301.869C337.642 301.278 338.164 300.336 338.561 298.181C338.958 296.018 339.202 292.797 339.441 287.806C339.573 285.06 339.703 281.8 339.859 277.91C339.985 274.745 340.128 271.162 340.302 267.1C341.847 231.057 336.76 207.661 321.297 183.81C315.222 174.438 305.794 169.42 296.396 166.968ZM225.953 181.722C234.141 176.217 243.292 170.935 249.224 167.751L250.087 169.356C244.194 172.52 235.097 177.771 226.972 183.234C222.908 185.966 219.103 188.741 216.067 191.327C213.004 193.937 210.821 196.273 209.888 198.121C208.662 200.549 206.928 206.029 205.061 213.173C203.202 220.282 201.234 228.948 199.528 237.679C197.821 246.411 196.378 255.194 195.567 262.541C195.161 266.215 194.914 269.517 194.87 272.267C194.826 275.037 194.988 277.177 195.364 278.563L193.603 279.039C193.158 277.396 193.001 275.046 193.047 272.238C193.092 269.41 193.344 266.047 193.754 262.341C194.572 254.927 196.025 246.091 197.738 237.329C199.451 228.566 201.427 219.863 203.296 212.713C205.156 205.598 206.933 199.929 208.26 197.3C209.37 195.102 211.803 192.564 214.884 189.94C217.993 187.292 221.86 184.474 225.953 181.722ZM298.321 242.192C297.159 231.74 295.325 220.703 293.991 213.735L295.783 213.393C297.123 220.395 298.965 231.481 300.134 241.991C300.719 247.245 301.136 252.37 301.238 256.775C301.338 261.152 301.13 264.915 300.414 267.392L300.197 268.14L299.424 268.043C292.819 267.21 281.956 266.156 270.857 265.701C259.733 265.245 248.462 265.395 240.994 266.938C233.415 268.503 228.398 269.662 225.21 270.473C223.615 270.878 222.485 271.195 221.723 271.431C221.454 271.514 221.235 271.586 221.06 271.647L222.751 298.333L220.931 298.448L219.164 270.575L219.622 270.286C219.781 270.186 220.001 270.094 220.222 270.012C220.464 269.921 220.782 269.814 221.183 269.69C221.986 269.442 223.149 269.117 224.76 268.707C227.985 267.887 233.03 266.722 240.625 265.153C248.331 263.561 259.798 263.423 270.931 263.88C281.652 264.32 292.148 265.315 298.851 266.135C299.338 263.932 299.504 260.709 299.414 256.817C299.315 252.485 298.903 247.419 298.321 242.192Z" fill="#643131"/>
<path fill-rule="evenodd" clip-rule="evenodd" d="M296.093 269.383C296.877 268.295 297.844 267.181 298.498 266.484L299.796 267.805C299.179 268.464 298.268 269.514 297.545 270.517C297.181 271.021 296.885 271.487 296.696 271.868C296.601 272.059 296.546 272.205 296.519 272.307C296.503 272.367 296.501 272.393 296.501 272.393C296.501 272.393 296.502 272.372 296.494 272.335L294.719 272.731C294.648 272.388 294.701 272.056 294.77 271.799C294.842 271.53 294.955 271.26 295.083 271.002C295.338 270.485 295.702 269.924 296.093 269.383Z" fill="#643131"/>
<path fill-rule="evenodd" clip-rule="evenodd" d="M231.859 249.1C233.045 255.849 234.578 262.837 235.627 267.207L233.819 267.621C232.764 263.224 231.223 256.2 230.03 249.407C228.844 242.659 227.974 236 228.322 232.413L230.17 232.584C229.849 235.889 230.665 242.304 231.859 249.1Z" fill="#643131"/>
<path fill-rule="evenodd" clip-rule="evenodd" d="M257.167 246.429C253.305 243.033 250.452 238.842 248.994 235.995L250.618 235.163C251.99 237.841 254.71 241.839 258.372 245.059C262.037 248.282 266.541 250.638 271.513 250.277L271.645 252.097C265.992 252.507 261.024 249.821 257.167 246.429ZM247.635 252.864C245.249 251.584 243.46 249.678 242.525 248.285L244.04 247.268C244.836 248.453 246.413 250.138 248.498 251.256C250.56 252.363 253.077 252.896 255.856 251.903L256.47 253.622C253.1 254.826 250.042 254.156 247.635 252.864Z" fill="#643131"/>
<path fill-rule="evenodd" clip-rule="evenodd" d="M199.222 279.577C206.794 279.439 215.024 279.774 220.296 280.126L220.174 281.95C214.939 281.601 206.762 281.268 199.255 281.406C195.5 281.474 191.931 281.66 188.989 282.017C185.998 282.379 183.809 282.903 182.695 283.562C179.526 285.438 177.063 287.53 175.368 289.391C174.52 290.323 173.873 291.186 173.428 291.926C172.972 292.684 172.765 293.248 172.72 293.591C172.714 293.642 172.707 293.705 172.856 293.839C173.035 293.998 173.357 294.168 173.827 294.319C174.754 294.616 175.945 294.739 176.764 294.753L176.732 296.582C175.815 296.566 174.429 296.432 173.269 296.06C172.695 295.877 172.096 295.609 171.641 295.204C171.157 294.773 170.806 294.145 170.909 293.355C171.001 292.647 171.354 291.828 171.863 290.982C172.382 290.119 173.106 289.16 174.017 288.16C175.84 286.158 178.446 283.953 181.764 281.988C183.245 281.112 185.79 280.562 188.77 280.201C191.799 279.834 195.437 279.647 199.222 279.577Z" fill="#643131"/>
<path fill-rule="evenodd" clip-rule="evenodd" d="M253.911 292.997C255.683 293.612 257.34 294.398 258.337 294.94L258.91 295.252L257.383 304.592L257.147 304.808C256.222 305.655 254.868 306.345 253.26 306.925C251.637 307.51 249.684 308.007 247.5 308.43C243.133 309.276 237.767 309.842 232.123 310.207C220.829 310.936 208.324 310.862 200.253 310.569L200.251 310.569L200.25 310.569C194.81 310.354 186.182 309.94 177.97 309.394C169.783 308.851 161.937 308.173 158.108 307.423C153.906 306.601 150.963 306.318 148.975 306.126C148.761 306.105 148.558 306.086 148.365 306.067C147.41 305.972 146.607 305.882 146.047 305.7C145.757 305.606 145.429 305.457 145.172 305.182C144.885 304.875 144.768 304.5 144.768 304.127V293.267L145.248 293.006C145.855 292.677 146.654 292.512 147.502 292.429C148.372 292.344 149.387 292.338 150.486 292.384C152.684 292.476 155.301 292.783 157.916 293.147C159.568 293.376 161.24 293.632 162.813 293.872C163.723 294.011 164.6 294.144 165.421 294.265C167.696 294.6 169.502 294.829 170.518 294.829C174.079 294.829 190.722 296.309 198.544 297.043L198.751 297.062L200.144 297.905L201.047 296.994L201.485 297.045C204.869 297.437 214.296 297.994 224.674 297.042C231.138 296.45 236.199 295.311 240.08 294.273C241.391 293.923 242.556 293.587 243.607 293.284C244.121 293.136 244.607 292.996 245.07 292.866C246.447 292.478 247.631 292.174 248.585 292.073C250.184 291.903 252.172 292.393 253.911 292.997ZM253.317 294.738C251.618 294.148 249.953 293.779 248.776 293.904C247.996 293.987 246.954 294.247 245.561 294.639C245.118 294.763 244.642 294.901 244.134 295.047C243.074 295.352 241.875 295.698 240.548 296.053C236.599 297.109 231.433 298.272 224.84 298.876C214.739 299.802 205.526 299.321 201.717 298.922L200.427 300.223L198.168 298.856C190.205 298.111 173.939 296.67 170.518 296.67C169.342 296.67 167.393 296.416 165.157 296.087C164.317 295.963 163.431 295.828 162.517 295.688C160.955 295.45 159.31 295.199 157.666 294.97C155.065 294.609 152.517 294.312 150.409 294.223C149.355 294.179 148.432 294.188 147.679 294.261C147.231 294.305 146.872 294.369 146.594 294.446V303.944C146.598 303.945 146.603 303.947 146.607 303.948C146.941 304.056 147.524 304.134 148.544 304.234C148.735 304.253 148.937 304.273 149.151 304.294C151.148 304.486 154.166 304.776 158.456 305.616C162.15 306.339 169.873 307.012 178.09 307.557C186.282 308.101 194.893 308.515 200.32 308.73C208.35 309.02 220.79 309.093 232.006 308.37C237.616 308.007 242.896 307.447 247.156 306.622C249.286 306.209 251.141 305.733 252.645 305.191C253.998 304.704 255.013 304.181 255.687 303.643L256.895 296.259C255.965 295.789 254.674 295.209 253.317 294.738Z" fill="#643131"/>
<path fill-rule="evenodd" clip-rule="evenodd" d="M198.715 309.075V299.421H200.986V309.075H198.715Z" fill="#643131"/>
<path fill-rule="evenodd" clip-rule="evenodd" d="M51.7931 118.27H212.274V120.096H52.5503C45.9474 126.944 44.2775 136.491 45.1458 144.788C45.5848 148.983 46.6694 152.81 48.054 155.741C49.4147 158.62 50.9796 160.457 52.3565 161.094H108.426V162.921H51.9943L51.8315 162.856C49.7535 162.018 47.8686 159.606 46.4127 156.525C44.9306 153.388 43.7968 149.357 43.3386 144.979C42.424 136.239 44.1892 125.923 51.5269 118.537L51.7931 118.27ZM142.497 161.094H221.616L228.811 173.823V161.094H244.712V162.921H230.628V180.736L220.559 162.921H142.497V161.094Z" fill="#643131"/>
<path fill-rule="evenodd" clip-rule="evenodd" d="M193.418 131.184C192.35 131.766 191.143 132.939 190.35 133.879L188.95 132.733C189.796 131.731 191.174 130.358 192.536 129.615C193.203 129.251 194.021 128.952 194.832 129.095C195.748 129.256 196.372 129.917 196.7 130.865C197.46 133.057 196.679 135.313 195.862 136.978C195.498 137.721 195.102 138.395 194.787 138.931C194.742 139.008 194.698 139.082 194.657 139.152C194.486 139.444 194.358 139.67 194.272 139.844C194.23 139.931 194.207 139.987 194.196 140.019C194.194 140.024 194.193 140.028 194.192 140.031C194.195 140.019 194.201 139.986 194.201 139.939H192.381C192.381 139.742 192.43 139.567 192.471 139.447C192.515 139.317 192.573 139.187 192.633 139.065C192.751 138.823 192.912 138.544 193.08 138.257C193.123 138.183 193.168 138.106 193.214 138.028C193.531 137.49 193.891 136.877 194.223 136.199C195 134.615 195.492 132.927 194.978 131.444C194.797 130.922 194.597 130.875 194.513 130.86C194.324 130.827 193.966 130.885 193.418 131.184ZM194.191 140.036C194.191 140.036 194.191 140.034 194.192 140.031C194.191 140.034 194.191 140.036 194.191 140.036ZM122.285 132.858H112.11V131.065H124.87L118.246 149.294L116.532 148.69L122.285 132.858ZM153.205 132.858H146.057V131.065H155.836L150.094 146.081L148.39 145.449L153.205 132.858ZM88.7677 133.433L75.4844 132.857L75.5644 131.066L91.2221 131.745L85.3107 150.07L83.576 149.527L88.7677 133.433ZM100.188 139.939V136.174H102.008V139.939H106.65V141.731H102.008V146.751H100.188V141.731H96.2746V139.939H100.188ZM174.907 137.967H164.532V136.174H174.907V137.967ZM134.508 141.066L131.204 137.693L132.514 136.448L136.048 140.055L139.545 137.759L140.555 139.25L137.332 141.367L139.977 144.067L138.667 145.312L135.793 142.377L132.364 144.628L131.355 143.137L134.508 141.066ZM174.907 143.972H164.532V142.18H174.907V143.972ZM193.382 146.751V143.883H195.202V146.751H193.382Z" fill="#643131"/>
<path fill-rule="evenodd" clip-rule="evenodd" d="M65.4993 223.894V237.546H63.6694V226.508L63.4869 226.576L62.8481 224.874L65.4993 223.894ZM42.9963 226.579L32.3281 226.108L32.4095 224.294L45.4556 224.87L40.5499 240.362L38.8041 239.818L42.9963 226.579ZM84.5495 226.273C84.3441 226.48 84.2063 226.965 84.2169 227.468L82.3874 227.506C82.3732 226.834 82.5187 225.733 83.2443 225C83.641 224.6 84.1815 224.344 84.8428 224.332C85.4743 224.321 86.1534 224.533 86.8776 224.931C87.757 225.414 88.2596 226.15 88.4529 226.991C88.6373 227.794 88.5315 228.647 88.3157 229.425C87.8846 230.981 86.9289 232.54 86.1939 233.502L84.7356 232.405C85.3927 231.545 86.2044 230.195 86.5513 228.944C86.7245 228.319 86.7604 227.794 86.6687 227.395C86.5857 227.033 86.3941 226.741 85.9909 226.519C85.4324 226.212 85.0755 226.144 84.8754 226.148C84.7051 226.151 84.6182 226.204 84.5495 226.273ZM74.6116 224.63L76.0341 225.772L74.389 227.79L74.576 231.7H77.4109V233.516H74.6628L74.8199 236.801L72.992 236.887L72.8308 233.516H67.3651L74.6116 224.63ZM72.744 231.7L72.6585 229.912L71.1998 231.7H72.744ZM52.4089 231.7V228.718H54.2388V231.7H57.8728V233.516H54.2388V237.546H52.4089V233.516H49.3715V231.7H52.4089ZM85.6765 236.53L84.707 235.109L86.2226 234.091L87.192 235.513L85.6765 236.53Z" fill="#643131"/>
<path fill-rule="evenodd" clip-rule="evenodd" d="M22.2214 217.08H108.293L108.541 217.598L107.716 217.988C108.541 217.598 108.541 217.598 108.541 217.598L108.541 217.599L108.542 217.599L108.543 217.602L108.547 217.61C108.55 217.617 108.555 217.627 108.561 217.64C108.573 217.666 108.591 217.703 108.613 217.752C108.658 217.849 108.722 217.988 108.799 218.162C108.954 218.51 109.164 218.997 109.386 219.557C109.824 220.66 110.334 222.108 110.533 223.332C110.717 224.465 110.713 225.89 110.671 226.99C110.649 227.548 110.616 228.04 110.589 228.392C110.576 228.568 110.564 228.71 110.555 228.808C110.552 228.84 110.549 228.867 110.547 228.89C110.546 228.902 110.545 228.913 110.544 228.922L110.541 228.953L110.54 228.964L110.54 228.964L110.54 228.965C110.54 228.965 110.54 228.965 109.631 228.873C108.722 228.782 108.722 228.782 108.722 228.782L108.723 228.774L108.726 228.749C108.728 228.726 108.731 228.691 108.735 228.645C108.743 228.554 108.755 228.42 108.768 228.253C108.794 227.918 108.825 227.45 108.845 226.92C108.887 225.841 108.883 224.567 108.729 223.622C108.563 222.601 108.116 221.305 107.687 220.224C107.476 219.692 107.276 219.228 107.129 218.897C107.128 218.897 107.128 218.897 107.128 218.896H22.8819C22.7585 219.009 22.5905 219.171 22.3913 219.38C21.9386 219.857 21.3273 220.581 20.7139 221.553C19.4896 223.492 18.2546 226.42 18.2546 230.362C18.2546 234.305 19.4909 237.332 20.7233 239.372C21.3401 240.393 21.9552 241.166 22.4114 241.679C22.6102 241.903 22.7784 242.076 22.9028 242.2H67.0491L73.1047 253.732L76.5766 242.2H86.6498V244.016H77.9367L73.5658 258.534L65.9421 244.016H22.1994L21.9421 243.795L22.5393 243.108C21.9421 243.795 21.9418 243.795 21.9414 243.794L21.9387 243.792L21.9334 243.787C21.9292 243.784 21.9238 243.779 21.9172 243.773C21.904 243.762 21.8859 243.745 21.8634 243.725C21.8184 243.684 21.7555 243.625 21.6771 243.549C21.5205 243.397 21.3021 243.174 21.0428 242.882C20.5244 242.299 19.8399 241.438 19.1572 240.308C17.7905 238.045 16.4277 234.698 16.4277 230.362C16.4277 226.023 17.7919 222.764 19.1666 220.587C19.8528 219.5 20.541 218.683 21.063 218.133C21.3241 217.858 21.5442 217.65 21.7025 217.507C21.7816 217.436 21.8454 217.381 21.8912 217.342C21.9141 217.323 21.9325 217.308 21.9461 217.297C21.9529 217.291 21.9585 217.287 21.9629 217.283L21.9685 217.279L21.9706 217.277L21.9714 217.276C21.9718 217.276 21.9722 217.276 22.5393 217.988L21.9722 217.276L22.2214 217.08ZM23.1083 218.698C23.1086 218.698 23.1086 218.698 23.1083 218.698V218.698Z" fill="#643131"/>
</svg>
