<?xml version="1.0" standalone="no"?>
<!DOCTYPE svg PUBLIC "-//W3C//DTD SVG 20010904//EN"
 "http://www.w3.org/TR/2001/REC-SVG-20010904/DTD/svg10.dtd">
<svg version="1.0" xmlns="http://www.w3.org/2000/svg"
 width="700.000000pt" height="700.000000pt" viewBox="0 0 700.000000 700.000000"
 preserveAspectRatio="xMidYMid meet">
<metadata>
Created by potrace 1.11, written by Peter Selinger 2001-2013
</metadata>
<g transform="translate(0.000000,700.000000) scale(0.100000,-0.100000)"
fill="#000000" stroke="none">
<path d="M0 3500 l0 -3500 3500 0 3500 0 0 3500 0 3500 -3500 0 -3500 0 0
-3500z m6790 0 l0 -3290 -3290 0 -3290 0 0 3290 0 3290 3290 0 3290 0 0 -3290z"/>
<path d="M5149 5315 c-154 -31 -308 -123 -433 -256 -150 -160 -235 -320 -236
-443 0 -57 2 -61 44 -101 24 -24 64 -50 89 -60 44 -17 47 -16 84 1 53 26 77
76 107 228 16 79 35 145 50 170 52 90 205 203 325 241 78 25 193 17 252 -17
92 -55 130 -120 130 -225 0 -192 -100 -406 -320 -683 -105 -133 -369 -395
-541 -537 -157 -130 -177 -150 -209 -203 -29 -49 -28 -126 2 -171 26 -39 97
-79 142 -79 18 0 97 18 178 40 299 82 497 115 772 130 151 7 181 6 264 -11 51
-10 107 -19 123 -19 39 0 94 54 103 102 18 95 -64 218 -146 218 -15 0 -100
-11 -190 -25 -507 -77 -843 -125 -852 -122 -5 1 74 77 175 167 263 237 522
498 597 605 81 115 155 267 182 374 17 66 20 106 17 191 -3 99 -6 111 -40 181
-46 92 -101 156 -185 216 -99 70 -176 95 -308 99 -68 2 -136 -2 -176 -11z"/>
<path d="M910 2641 l0 -971 225 0 225 0 0 265 0 265 214 0 c351 0 501 25 671
113 106 55 226 173 273 269 95 195 97 442 5 638 -28 59 -54 93 -122 160 -101
101 -198 154 -357 197 l-99 27 -517 4 -518 3 0 -970z m973 584 c116 -30 181
-81 225 -175 21 -44 26 -70 26 -135 0 -97 -14 -151 -57 -207 -39 -50 -92 -88
-162 -113 -42 -16 -91 -19 -302 -23 l-253 -4 0 336 0 336 233 0 c174 0 247 -4
290 -15z"/>
<path d="M2940 2640 l0 -970 715 0 715 0 0 180 0 180 -490 0 -490 0 0 790 0
790 -225 0 -225 0 0 -970z"/>
</g>
</svg>
