<svg width="400" height="400" viewBox="0 0 400 400" fill="none" xmlns="http://www.w3.org/2000/svg">
<path fill-rule="evenodd" clip-rule="evenodd" d="M219.588 129.742H42.2132C42.2132 129.742 36.1553 140.983 35.9722 149.213C35.7754 158.061 42.2132 170.387 42.2132 170.387H105.86C105.144 166.29 105.542 160.94 110.614 159.65C117.036 158.017 120.757 159.712 121.815 160.763C122.375 156.959 125.194 149.813 131.989 151.669C140.482 153.989 140.669 157.33 140.762 163.269V167.909C140.762 167.909 148.15 166.64 151.492 170.387H219.588C219.588 170.387 225.435 157.962 225.254 149.213C225.086 141.089 219.588 129.742 219.588 129.742Z" fill="#C0E1FF"/>
<path d="M213.965 207.743C218.13 199.463 243.279 184.402 255.333 177.906C255.333 178.58 254.713 182.722 254.403 184.709C256.851 186.605 262.621 190.303 266.116 189.93C269.612 189.557 276.311 181.759 279.224 177.906L278.015 173.897C289.76 172.063 316.427 173.319 329.144 193.011C345.04 217.626 350.246 241.775 348.666 278.791C347.086 315.807 348.015 314.222 341.043 316.926C334.071 319.63 262.398 320.562 260.539 320.749C259.051 320.898 253.567 320.345 252.451 320.282C255.674 319.66 262.249 318.116 262.77 316.922L263.978 308.344C262.305 307.163 257.899 304.969 253.66 305.64C248.361 306.479 238.321 310.772 226.98 310.772L225.843 292.773H199.092V290.726C195.745 278.325 208.76 218.092 213.965 207.743Z" fill="#5AB0FF"/>
<path fill-rule="evenodd" clip-rule="evenodd" d="M114.902 182.581L115.854 183.731C119.763 188.452 124.283 189.787 128.358 189.586C132.482 189.382 136.187 187.596 138.314 186.02L139.027 185.492L139.59 186.181C141.077 188.004 143.134 188.617 145.208 188.604C147.3 188.592 149.314 187.938 150.506 187.345L150.897 187.151L151.296 187.328C151.696 187.505 152.084 187.633 152.493 187.769L152.55 187.788C152.961 187.924 153.42 188.078 153.845 188.297C154.286 188.524 154.712 188.831 155.071 189.292C155.11 189.342 155.148 189.393 155.184 189.445C155.646 189.001 156.194 188.576 156.781 188.198C157.955 187.441 159.397 186.8 160.876 186.545C162.357 186.29 163.951 186.413 165.321 187.295C166.704 188.186 167.705 189.751 168.185 192.063C168.999 195.987 166.779 199.321 164.019 201.78C161.428 204.087 158.174 205.803 155.78 206.759C155.648 207.438 155.398 208.205 155.076 209.011C154.649 210.078 154.072 211.272 153.393 212.516C152.035 215.003 150.247 217.734 148.383 220.107C143.575 226.23 133.476 230.215 124.051 227.673C118.945 226.295 114.703 222.967 111.618 219.221C108.776 215.772 106.853 211.891 106.144 208.703C102.111 208.583 97.6934 207.193 94.8219 204.765C93.2801 203.461 92.1308 201.81 91.8037 199.847C91.4743 197.87 92.0039 195.728 93.5339 193.506C95.8395 190.159 97.9536 188.191 99.9368 187.508C100.959 187.156 101.948 187.146 102.87 187.469C103.636 187.737 104.304 188.217 104.885 188.828C104.983 188.87 105.053 188.92 105.092 188.951C105.189 189.027 105.251 189.105 105.281 189.145C105.342 189.227 105.384 189.308 105.406 189.352C105.491 189.525 105.588 189.795 105.677 190.053C105.745 190.248 105.817 190.463 105.894 190.692C106.045 191.139 106.211 191.635 106.39 192.122C106.491 192.398 106.591 192.658 106.688 192.89H106.915C107.461 192.89 108.151 192.577 108.963 191.875C109.756 191.19 110.551 190.233 111.289 189.185C112.762 187.09 113.912 184.773 114.286 183.944L114.902 182.581ZM107.082 193.661C107.082 193.661 107.08 193.659 107.077 193.655C107.08 193.658 107.082 193.661 107.082 193.661ZM115.363 186.005C114.77 187.16 113.875 188.763 112.814 190.271C112.032 191.381 111.137 192.476 110.181 193.302C109.428 193.952 108.558 194.506 107.617 194.698C107.53 194.868 107.372 195.1 107.09 195.244C106.68 195.453 106.283 195.348 106.037 195.204C105.823 195.079 105.673 194.905 105.582 194.783C105.389 194.528 105.219 194.192 105.075 193.871C104.925 193.536 104.777 193.155 104.637 192.773C104.45 192.264 104.266 191.716 104.111 191.255C104.037 191.036 103.97 190.837 103.913 190.672C103.889 190.603 103.867 190.54 103.846 190.483L103.77 190.392C103.269 189.792 102.761 189.422 102.256 189.245C101.765 189.073 101.207 189.058 100.542 189.287C99.1489 189.767 97.3234 191.306 95.0696 194.578C93.75 196.494 93.4154 198.148 93.6466 199.536C93.8801 200.937 94.7162 202.219 96.0239 203.325C98.665 205.558 103.009 206.875 106.904 206.83L107.705 206.821L107.836 207.617C108.317 210.534 110.137 214.477 113.056 218.021C115.969 221.557 119.902 224.606 124.535 225.856C133.234 228.203 142.569 224.478 146.917 218.941C148.716 216.651 150.447 214.006 151.755 211.61C152.409 210.412 152.951 209.288 153.342 208.309C153.739 207.316 153.957 206.53 154.007 205.991L154.062 205.402L154.613 205.196C156.89 204.346 160.218 202.654 162.781 200.371C165.366 198.069 166.962 195.37 166.356 192.448C165.948 190.482 165.162 189.426 164.314 188.879C163.454 188.325 162.374 188.195 161.191 188.399C160.008 188.602 158.799 189.13 157.789 189.781C156.76 190.445 156.042 191.167 155.75 191.685L154.582 193.76L154.029 191.441C153.913 190.954 153.758 190.654 153.601 190.452C153.446 190.253 153.254 190.104 152.994 189.971C152.718 189.828 152.394 189.716 151.965 189.574C151.94 189.566 151.915 189.557 151.89 189.549C151.605 189.455 151.283 189.348 150.944 189.215C149.535 189.85 147.434 190.472 145.219 190.485C143.009 190.498 140.61 189.899 138.729 188.021C136.315 189.627 132.594 191.259 128.449 191.464C124.167 191.676 119.465 190.358 115.363 186.005Z" fill="#643131"/>
<path fill-rule="evenodd" clip-rule="evenodd" d="M126.674 154.827C125.193 156.664 124.394 159.198 124.13 160.979L123.862 162.786L122.554 161.495C121.808 160.759 118.484 159.071 112.29 160.634C110.893 160.987 109.946 161.674 109.299 162.54C108.64 163.421 108.255 164.537 108.086 165.78C107.745 168.283 108.305 171.099 108.943 172.926L109.359 174.12L108.08 174.141C106.382 174.17 103.843 174.578 101.764 175.671C99.7152 176.747 98.214 178.417 98.214 181.018C98.214 182.517 98.2908 183.639 98.4422 184.484C98.594 185.331 98.8108 185.843 99.0492 186.169C99.4824 186.763 100.162 186.988 101.744 187.143L101.561 188.968C100.014 188.817 98.5097 188.568 97.5413 187.241C97.0789 186.608 96.7905 185.799 96.6121 184.803C96.4335 183.806 96.3555 182.564 96.3555 181.018C96.3555 177.531 98.4473 175.335 100.89 174.052C102.828 173.034 105.049 172.547 106.83 172.378C106.298 170.444 105.921 167.909 106.244 165.536C106.441 164.088 106.906 162.651 107.803 161.451C108.712 160.236 110.029 159.312 111.829 158.858C116.967 157.561 120.582 158.284 122.572 159.302C123.013 157.51 123.851 155.383 125.22 153.685C126.104 152.588 127.234 151.641 128.649 151.106C130.074 150.567 131.722 150.471 133.586 150.976C137.892 152.144 140.341 153.629 141.641 155.781C142.907 157.876 142.958 160.437 143.003 163.308L143.003 163.315V166.871C143.146 166.859 143.3 166.846 143.465 166.835C144.391 166.772 145.662 166.746 147.026 166.898C149.696 167.196 153.036 168.221 154.531 171.368C155.336 173.062 155.362 175.213 155.232 176.828C155.165 177.656 155.053 178.385 154.957 178.909C154.917 179.129 154.879 179.314 154.849 179.456C154.919 179.622 155.009 179.851 155.101 180.131C155.295 180.723 155.506 181.556 155.565 182.519C155.685 184.465 155.179 186.957 152.696 188.95L151.524 187.527C153.427 185.999 153.804 184.148 153.71 182.63C153.663 181.861 153.492 181.183 153.333 180.696C153.253 180.454 153.177 180.263 153.123 180.135C153.096 180.072 153.074 180.024 153.06 179.995C153.054 179.98 153.049 179.97 153.046 179.964L153.045 179.962L153.044 179.961L153.044 179.961L153.044 179.96L153.043 179.959L152.892 179.66L152.973 179.334L152.973 179.333L152.973 179.333L152.973 179.332L152.975 179.325C152.977 179.317 152.98 179.306 152.983 179.29C152.991 179.257 153.002 179.208 153.016 179.143C153.045 179.014 153.084 178.823 153.128 178.584C153.216 178.104 153.318 177.436 153.379 176.682C153.504 175.134 153.438 173.388 152.848 172.147C151.781 169.9 149.314 168.999 146.817 168.72C145.597 168.584 144.444 168.607 143.593 168.664C143.168 168.693 142.823 168.731 142.585 168.76C142.467 168.775 142.376 168.788 142.315 168.797C142.285 168.802 142.263 168.805 142.249 168.807L142.234 168.81L142.232 168.81L142.232 168.81L142.232 168.81L141.145 168.995V163.329C141.097 160.336 141.008 158.314 140.045 156.72C139.115 155.181 137.243 153.87 133.093 152.745C131.575 152.333 130.335 152.432 129.314 152.818C128.282 153.209 127.407 153.918 126.674 154.827Z" fill="#643131"/>
<path fill-rule="evenodd" clip-rule="evenodd" d="M118.546 226.863C118.294 226.235 118.046 225.62 117.838 225.013L119.607 224.387C119.768 224.855 119.981 225.373 120.211 225.935C121.465 228.99 123.258 233.358 120.275 238.322L118.676 237.331C121.119 233.265 119.774 229.918 118.546 226.863Z" fill="#643131"/>
<path fill-rule="evenodd" clip-rule="evenodd" d="M247.992 166.224C247.616 165.523 247.252 164.844 246.932 164.178L248.614 163.37C248.885 163.934 249.213 164.54 249.566 165.192C251.447 168.666 254.021 173.419 252.212 179.731L250.418 179.217C251.999 173.701 249.855 169.7 247.992 166.224Z" fill="#643131"/>
<path fill-rule="evenodd" clip-rule="evenodd" d="M141.485 238.322C138.77 233.145 140.213 227.276 140.982 224.387L143.033 224.842C142.253 227.77 141.034 233.001 143.388 237.49L141.485 238.322Z" fill="#643131"/>
<path fill-rule="evenodd" clip-rule="evenodd" d="M273.798 171.52C270.13 164.013 269.729 154.782 269.583 150.044L271.448 149.987C271.594 154.75 272.004 163.599 275.474 170.701L273.798 171.52Z" fill="#643131"/>
<path fill-rule="evenodd" clip-rule="evenodd" d="M118.42 237.964C118.42 237.963 118.42 237.963 119.053 237.272C119.686 236.581 119.686 236.581 119.686 236.581L119.686 236.581L119.689 236.584L119.702 236.595C119.714 236.606 119.733 236.622 119.758 236.643C119.809 236.686 119.885 236.749 119.985 236.831C120.185 236.994 120.478 237.229 120.848 237.511C121.589 238.075 122.63 238.823 123.836 239.561C126.302 241.069 129.244 242.4 131.661 242.27C133.689 242.161 136.128 240.985 138.157 239.73C139.15 239.116 140.006 238.508 140.613 238.054C140.917 237.827 141.157 237.639 141.32 237.509C141.402 237.444 141.464 237.394 141.505 237.36C141.526 237.343 141.541 237.331 141.551 237.322L141.562 237.314L141.564 237.312L141.564 237.311C141.564 237.312 141.564 237.312 142.186 238.012C142.807 238.713 142.807 238.713 142.807 238.714L142.805 238.715L142.801 238.719L142.786 238.731C142.773 238.741 142.755 238.757 142.732 238.776C142.684 238.815 142.616 238.87 142.527 238.941C142.351 239.081 142.095 239.281 141.774 239.521C141.134 239.999 140.231 240.641 139.179 241.291C137.118 242.566 134.321 243.98 131.767 244.118C128.705 244.283 125.317 242.653 122.822 241.127C121.547 240.347 120.45 239.559 119.673 238.967C119.284 238.671 118.974 238.422 118.759 238.247C118.652 238.159 118.568 238.089 118.511 238.041C118.482 238.017 118.46 237.998 118.445 237.985L118.427 237.97L118.422 237.965L118.42 237.964Z" fill="#643131"/>
<path fill-rule="evenodd" clip-rule="evenodd" d="M266.793 181.972C265.383 183.232 263.884 184.314 262.54 184.63C259.535 185.335 256.524 183.962 254.399 182.587C253.313 181.883 252.402 181.143 251.764 180.579C251.444 180.297 251.19 180.057 251.015 179.887C250.927 179.801 250.859 179.733 250.812 179.685C250.788 179.661 250.77 179.642 250.757 179.629C250.751 179.622 250.745 179.617 250.742 179.613L250.737 179.608L250.735 179.606C250.735 179.606 250.735 179.606 251.411 178.964C252.088 178.322 252.088 178.321 252.088 178.321L252.089 178.323L252.099 178.333C252.108 178.342 252.122 178.356 252.141 178.376C252.18 178.415 252.239 178.474 252.317 178.55C252.473 178.702 252.704 178.921 252.998 179.18C253.588 179.701 254.425 180.38 255.413 181.02C257.437 182.331 259.883 183.337 262.114 182.813C262.958 182.615 264.151 181.831 265.549 180.581C266.909 179.365 268.339 177.822 269.65 176.292C270.959 174.765 272.134 173.267 272.983 172.15C273.407 171.592 273.749 171.13 273.985 170.808C274.102 170.647 274.193 170.521 274.255 170.436C274.285 170.393 274.309 170.361 274.324 170.339L274.341 170.315L274.346 170.308L274.346 170.308C274.346 170.308 274.346 170.308 275.107 170.847C275.868 171.387 275.868 171.387 275.868 171.387L275.868 171.388L275.866 171.39L275.861 171.397L275.842 171.424C275.826 171.447 275.801 171.481 275.769 171.525C275.705 171.614 275.612 171.744 275.491 171.909C275.25 172.239 274.901 172.71 274.469 173.279C273.606 174.415 272.407 175.943 271.067 177.506C269.731 179.066 268.24 180.678 266.793 181.972Z" fill="#643131"/>
<path d="M121.322 197.968C121.322 199.09 120.542 200 119.58 200C118.618 200 117.838 199.09 117.838 197.968C117.838 196.845 118.618 195.936 119.58 195.936C120.542 195.936 121.322 196.845 121.322 197.968Z" fill="#643131"/>
<path d="M146.044 198.922C145.629 199.976 144.631 200.571 143.816 200.25C143.001 199.928 142.678 198.813 143.093 197.759C143.509 196.704 144.506 196.109 145.321 196.431C146.136 196.752 146.46 197.867 146.044 198.922Z" fill="#643131"/>
<path d="M252.816 127.823C252.997 129.307 252.215 130.625 251.068 130.765C249.92 130.906 248.843 129.816 248.661 128.332C248.479 126.847 249.262 125.53 250.409 125.389C251.556 125.249 252.634 126.338 252.816 127.823Z" fill="#643131"/>
<path d="M229.866 135.659C230.048 137.144 229.266 138.461 228.118 138.602C226.971 138.742 225.894 137.653 225.712 136.168C225.53 134.683 226.313 133.366 227.46 133.226C228.607 133.085 229.684 134.175 229.866 135.659Z" fill="#643131"/>
<path fill-rule="evenodd" clip-rule="evenodd" d="M119.275 199.286C120.105 199.111 120.827 198.633 121.216 198.258L122.483 199.556C121.902 200.115 120.885 200.794 119.654 201.054C118.378 201.323 116.886 201.135 115.516 199.95L116.712 198.587C117.599 199.354 118.489 199.452 119.275 199.286Z" fill="#643131"/>
<path fill-rule="evenodd" clip-rule="evenodd" d="M145.986 199.492C146.815 199.282 147.537 198.708 147.927 198.258L149.194 199.816C148.613 200.487 147.596 201.301 146.365 201.613C145.089 201.936 143.597 201.71 142.227 200.288L143.423 198.653C144.31 199.574 145.2 199.691 145.986 199.492Z" fill="#643131"/>
<path fill-rule="evenodd" clip-rule="evenodd" d="M252.447 129.768C253.042 129.662 253.55 129.373 253.81 129.161L254.872 130.458C254.422 130.825 253.657 131.253 252.744 131.416C251.807 131.584 250.691 131.473 249.646 130.708L250.64 129.359C251.248 129.804 251.876 129.87 252.447 129.768Z" fill="#643131"/>
<path fill-rule="evenodd" clip-rule="evenodd" d="M227.774 137.32C228.228 136.964 228.53 136.445 228.656 136.098L230.411 136.731C230.193 137.335 229.711 138.172 228.925 138.788C228.103 139.433 226.958 139.822 225.559 139.448L226.041 137.645C226.806 137.85 227.356 137.648 227.774 137.32Z" fill="#643131"/>
<path fill-rule="evenodd" clip-rule="evenodd" d="M126.605 207.365C126.432 206.212 126.682 204.903 126.942 204.064L128.673 204.573C128.451 205.291 128.276 206.317 128.395 207.11C128.454 207.501 128.571 207.748 128.7 207.887C128.802 207.997 128.972 208.108 129.345 208.108C130.679 208.108 131.93 207.751 132.858 207.339C133.322 207.133 133.685 206.923 133.924 206.753C134.046 206.667 134.118 206.603 134.153 206.568C134.156 206.565 134.158 206.562 134.161 206.559C134.137 206.592 134.089 206.67 134.065 206.79L135.838 207.135C135.772 207.456 135.558 207.686 135.461 207.784C135.328 207.92 135.165 208.053 134.989 208.177C134.635 208.429 134.162 208.697 133.608 208.943C132.502 209.434 130.994 209.87 129.345 209.87C128.524 209.87 127.844 209.592 127.359 209.07C126.901 208.576 126.693 207.947 126.605 207.365ZM134.175 206.542C134.176 206.542 134.172 206.548 134.161 206.559C134.169 206.548 134.174 206.542 134.175 206.542Z" fill="#643131"/>
<path fill-rule="evenodd" clip-rule="evenodd" d="M127.08 219.6C125.434 219.173 123.965 218.582 123.064 217.923L124.14 216.258C124.758 216.711 125.964 217.231 127.53 217.637C129.071 218.037 130.87 218.303 132.618 218.303C133.707 218.303 135.336 218.066 136.801 217.676C137.53 217.482 138.188 217.258 138.7 217.022C139.256 216.766 139.492 216.562 139.546 216.485L141.064 217.697C140.692 218.226 140.05 218.602 139.455 218.876C138.816 219.17 138.051 219.426 137.261 219.636C135.689 220.055 133.901 220.323 132.618 220.323C130.701 220.323 128.751 220.033 127.08 219.6Z" fill="#643131"/>
<path fill-rule="evenodd" clip-rule="evenodd" d="M78.475 255.802C90.2776 236.93 111.158 232.422 120.161 232.518L120.142 234.39C111.527 234.299 91.3849 238.667 80.043 256.802C74.354 265.899 71.1815 277.545 69.5423 288.465C67.9046 299.375 67.8096 309.475 68.2222 315.417L66.3722 315.548C65.9503 309.473 66.05 299.235 67.7087 288.185C69.366 277.144 72.5917 265.209 78.475 255.802Z" fill="#643131"/>
<path fill-rule="evenodd" clip-rule="evenodd" d="M183.906 288.258C180.274 248.054 154.065 237.204 141.646 236.719L141.719 234.839C155.006 235.357 182.051 246.87 185.775 288.089L183.906 288.258Z" fill="#643131"/>
<path fill-rule="evenodd" clip-rule="evenodd" d="M383.307 318.614H16.6933C14.5799 318.614 12.8667 320.361 12.8667 322.516C12.8667 324.672 14.5799 326.419 16.6933 326.419H383.307C385.42 326.419 387.134 324.672 387.134 322.516C387.134 320.361 385.42 318.614 383.307 318.614ZM16.6933 316.71C13.549 316.71 11 319.31 11 322.516C11 325.723 13.549 328.323 16.6933 328.323H383.307C386.451 328.323 389 325.723 389 322.516C389 319.31 386.451 316.71 383.307 316.71H16.6933Z" fill="#643131"/>
<path fill-rule="evenodd" clip-rule="evenodd" d="M97.6487 299.681C97.6107 306.479 98.0859 313.392 98.5356 317.673L96.6728 317.871C96.2172 313.534 95.7371 306.55 95.7756 299.67C95.7948 296.23 95.9438 292.802 96.2936 289.735C96.6417 286.683 97.1952 283.929 98.0511 281.871L99.7796 282.595C99.0247 284.41 98.4956 286.958 98.1545 289.949C97.8149 292.926 97.6677 296.282 97.6487 299.681ZM158.335 291.87C157.478 288.829 156.338 285.679 155.551 283.711L157.289 283.011C158.094 285.024 159.258 288.238 160.138 291.357C160.577 292.916 160.951 294.469 161.172 295.845C161.388 297.192 161.476 298.477 161.269 299.447L159.437 299.053C159.568 298.444 159.532 297.45 159.322 296.144C159.117 294.867 158.764 293.391 158.335 291.87Z" fill="#643131"/>
<path fill-rule="evenodd" clip-rule="evenodd" d="M234.668 107.678L235.165 107.897C252.623 115.596 262.716 112.243 265.388 109.982L265.858 109.585L266.413 109.855C269.511 111.363 271.215 114.612 272.129 117.818C272.783 120.113 273.066 122.498 273.134 124.467C274.381 123.605 275.906 123.106 277.752 123.176C279.156 123.23 280.692 123.713 281.89 124.923C283.093 126.139 283.853 127.983 283.903 130.56C283.949 132.942 282.253 134.885 280.452 136.267C278.75 137.574 276.742 138.547 275.283 139.096C273.221 142.89 267.93 151.392 261.795 157.594C257.8 161.632 253.358 164.09 248.255 163.998C243.177 163.906 237.67 161.289 231.522 155.684C225.791 150.459 222.782 143.097 221.463 135.995C220.145 128.893 220.496 121.939 221.591 117.409L221.671 117.079L234.668 107.678ZM234.899 109.805L223.337 118.167C222.368 122.438 222.065 128.967 223.307 135.662C224.583 142.531 227.464 149.465 232.794 154.325C238.777 159.78 243.862 162.067 248.29 162.148C252.692 162.228 256.668 160.127 260.453 156.301C266.59 150.098 271.909 141.455 273.793 137.919L273.963 137.599L274.309 137.478C275.646 137.009 277.655 136.07 279.301 134.807C280.987 133.512 282.057 132.062 282.028 130.595C281.985 128.361 281.338 127.013 280.549 126.216C279.755 125.414 278.713 125.065 277.68 125.026C275.578 124.946 274.064 125.803 272.909 127.187L271.103 129.352L271.249 126.552C271.354 124.533 271.181 121.324 270.324 118.319C269.522 115.503 268.174 113.052 266.087 111.789C262.176 114.544 251.585 117.023 234.899 109.805Z" fill="#643131"/>
<path fill-rule="evenodd" clip-rule="evenodd" d="M238.186 142.832C237.737 141.504 237.518 140.086 237.451 139.172L239.328 139.032C239.386 139.824 239.582 141.078 239.968 142.223C240.161 142.794 240.391 143.308 240.656 143.716C240.924 144.128 241.194 144.381 241.446 144.508C242.826 145.203 243.42 144.801 243.496 144.75C243.505 144.744 243.507 144.743 243.502 144.749L244.948 145.962C244.273 146.777 242.676 147.246 240.604 146.203C239.953 145.875 239.457 145.332 239.081 144.753C238.702 144.17 238.41 143.497 238.186 142.832ZM247.768 151.728C247.385 151.453 247.159 151.414 247.107 151.417C246.954 151.427 246.61 151.512 246.07 151.709C245.56 151.896 244.957 152.153 244.326 152.441C243.602 152.771 242.857 153.137 242.196 153.473C243.014 154.106 244.009 154.858 244.758 155.376C244.962 155.517 245.301 155.639 245.771 155.691C246.232 155.742 246.759 155.72 247.284 155.626C247.81 155.533 248.304 155.374 248.702 155.175C249.113 154.969 249.355 154.755 249.465 154.589C249.485 154.559 249.553 154.409 249.449 154.026C249.349 153.66 249.126 153.22 248.808 152.787C248.493 152.357 248.12 151.981 247.768 151.728ZM251.264 153.526C251.437 154.162 251.481 154.96 251.031 155.64C250.67 156.184 250.112 156.586 249.54 156.872C248.956 157.164 248.286 157.372 247.611 157.492C246.937 157.612 246.229 157.648 245.566 157.575C244.913 157.503 244.24 157.317 243.691 156.937C242.459 156.084 240.631 154.659 239.876 154.057L238.753 153.162L240.015 152.479C240.875 152.014 242.24 151.313 243.549 150.715C244.202 150.417 244.853 150.139 245.427 149.929C245.97 149.73 246.54 149.554 246.989 149.526C247.689 149.482 248.357 149.823 248.863 150.187C249.399 150.573 249.908 151.097 250.323 151.662C250.734 152.224 251.087 152.873 251.264 153.526Z" fill="#643131"/>
<path fill-rule="evenodd" clip-rule="evenodd" d="M257.774 107.715C261.697 107.421 265.181 108.927 266.484 109.747L265.432 111.162C264.374 110.496 261.309 109.169 257.926 109.423L257.774 107.715Z" fill="#643131"/>
<path fill-rule="evenodd" clip-rule="evenodd" d="M235.697 107.447C235.67 107.441 235.605 107.428 235.515 107.428V109.419C235.245 109.419 235.008 109.348 234.88 109.305C234.725 109.254 234.567 109.187 234.419 109.117C234.119 108.977 233.786 108.791 233.459 108.587C232.828 108.192 232.091 107.649 231.646 107.13L233.466 105.935C233.703 106.212 234.218 106.614 234.782 106.967C235.053 107.136 235.303 107.273 235.494 107.363C235.591 107.408 235.655 107.433 235.689 107.445C235.692 107.445 235.695 107.446 235.697 107.447ZM235.71 107.451C235.71 107.451 235.706 107.45 235.697 107.447C235.705 107.449 235.71 107.45 235.71 107.451Z" fill="#643131"/>
<path fill-rule="evenodd" clip-rule="evenodd" d="M259.877 73.7298C249.09 72.2382 242.163 80.3367 240.05 84.624L239.744 85.2452L239.065 85.1302C235.721 84.5636 226.439 84.38 216.743 88.3462C213.815 89.5438 212.044 91.1656 211.024 92.9557C209.998 94.7549 209.679 96.8139 209.816 98.9651C210.092 103.307 212.207 107.802 213.692 110.702C215.291 113.823 215.448 117.136 215.148 120.072C214.948 122.029 214.523 123.939 214.178 125.486C214.018 126.205 213.876 126.844 213.781 127.374C213.27 130.245 211.192 131.799 209.746 132.433C209.805 132.616 209.912 132.78 210.068 132.935C210.386 133.253 210.924 133.54 211.669 133.72C213.158 134.08 215.181 133.94 216.956 133.174C217.442 132.964 217.994 132.385 218.551 131.347C219.092 130.338 219.564 129.034 219.963 127.598C220.76 124.729 221.225 121.48 221.408 119.369L223.256 119.531C223.067 121.721 222.586 125.09 221.75 128.101C221.333 129.605 220.816 131.056 220.184 132.236C219.567 133.386 218.76 134.429 217.687 134.892C215.565 135.809 213.134 135.996 211.237 135.538C210.288 135.309 209.4 134.901 208.761 134.263C208.096 133.599 207.732 132.708 207.865 131.67L207.944 131.05L208.543 130.887C209.481 130.632 211.521 129.48 211.955 127.044C212.074 126.374 212.234 125.658 212.406 124.894C212.739 123.407 213.112 121.739 213.302 119.88C213.582 117.137 213.414 114.234 212.043 111.559C210.56 108.663 208.267 103.857 207.964 99.0847C207.811 96.6787 208.159 94.2273 209.415 92.0244C210.676 89.8123 212.802 87.9404 216.045 86.614C225.529 82.7343 234.644 82.6638 238.703 83.1874C241.308 78.435 248.704 70.2977 260.129 71.8776C274.42 73.8537 286.726 78.7921 292.308 91.6869C297.725 104.202 298.949 110.82 299.794 115.739C300.225 118.246 300.549 121.303 299.116 125.339C297.695 129.339 294.577 134.222 288.307 140.492C283.264 145.535 278.804 148.362 275.24 149.834C271.709 151.292 268.981 151.449 267.451 151.011L267.958 149.212C268.932 149.491 271.206 149.479 274.536 148.104C277.834 146.742 282.096 144.069 286.999 139.165C293.162 133.003 296.075 128.35 297.369 124.709C298.649 121.102 298.37 118.41 297.966 116.057C297.141 111.254 295.953 104.785 290.607 92.4343C285.425 80.4634 273.979 75.6799 259.877 73.7298Z" fill="#643131"/>
<path fill-rule="evenodd" clip-rule="evenodd" d="M299.585 170.826C289.969 168.318 280.467 168.463 274.688 169.362L274.401 167.521C280.402 166.587 290.164 166.443 300.056 169.023C309.955 171.605 320.068 176.94 326.611 187.033C342.69 211.835 347.932 236.172 346.341 273.289C346.164 277.427 346.018 281.087 345.889 284.324C345.73 288.312 345.596 291.659 345.461 294.471C345.217 299.558 344.965 302.973 344.532 305.326C344.098 307.687 343.455 309.146 342.302 310.16C341.742 310.653 341.103 311.002 340.414 311.308C339.911 311.532 339.342 311.748 338.734 311.979C338.527 312.058 338.315 312.139 338.1 312.222C337.09 312.612 335.073 312.93 332.463 313.211C329.803 313.498 326.397 313.758 322.515 313.993C314.749 314.464 305.038 314.84 295.495 315.137C285.951 315.434 276.567 315.653 269.455 315.809C267.837 315.844 266.337 315.876 264.979 315.905C263.352 315.94 261.93 315.971 260.754 315.997C259.675 316.022 258.806 316.042 258.178 316.06C257.864 316.069 257.612 316.077 257.426 316.084C257.382 316.086 257.342 316.087 257.307 316.089C257.266 316.091 257.231 316.092 257.201 316.094C257.173 316.095 257.15 316.097 257.133 316.098C257.125 316.098 257.118 316.099 257.114 316.099C257.109 316.1 257.107 316.1 257.107 316.1C256.26 316.184 254.414 316.073 252.749 315.948C251.88 315.883 251.044 315.813 250.356 315.755C249.667 315.698 249.127 315.652 248.85 315.637L248.954 313.777C249.244 313.793 249.832 313.842 250.561 313.903C251.255 313.961 252.076 314.029 252.888 314.09C254.626 314.22 256.277 314.31 256.922 314.246C257.202 314.218 258.588 314.182 260.712 314.135C261.89 314.108 263.317 314.077 264.948 314.042C266.304 314.013 267.801 313.981 269.414 313.946C276.525 313.79 285.901 313.572 295.437 313.275C304.974 312.978 314.664 312.603 322.402 312.134C326.272 311.899 329.645 311.641 332.263 311.359C334.93 311.072 336.689 310.769 337.428 310.484C337.67 310.39 337.899 310.303 338.115 310.221C338.704 309.997 339.204 309.807 339.656 309.606C340.261 309.337 340.709 309.078 341.07 308.761C341.758 308.156 342.293 307.193 342.698 304.989C343.104 302.778 343.353 299.485 343.598 294.382C343.733 291.573 343.866 288.24 344.025 284.263C344.154 281.026 344.3 277.363 344.478 273.21C346.058 236.356 340.856 212.434 325.046 188.046C318.834 178.464 309.195 173.333 299.585 170.826ZM227.558 185.912C235.93 180.283 245.286 174.882 251.351 171.627L252.234 173.268C246.208 176.502 236.907 181.871 228.599 187.458C224.444 190.251 220.553 193.089 217.45 195.733C214.317 198.401 212.085 200.79 211.132 202.679C209.878 205.162 208.105 210.766 206.195 218.07C204.295 225.339 202.283 234.2 200.538 243.127C198.793 252.055 197.317 261.036 196.488 268.548C196.073 272.304 195.821 275.681 195.776 278.493C195.73 281.326 195.896 283.513 196.28 284.931L194.48 285.418C194.025 283.738 193.865 281.334 193.911 278.463C193.957 275.572 194.215 272.133 194.634 268.344C195.471 260.763 196.956 251.728 198.708 242.77C200.459 233.809 202.48 224.911 204.391 217.6C206.293 210.324 208.109 204.528 209.467 201.84C210.602 199.592 213.09 196.998 216.24 194.315C219.418 191.607 223.373 188.726 227.558 185.912ZM301.553 247.742C300.365 237.055 298.49 225.77 297.126 218.645L298.958 218.295C300.329 225.455 302.212 236.789 303.407 247.536C304.005 252.909 304.432 258.148 304.535 262.653C304.638 267.128 304.426 270.976 303.693 273.508L303.472 274.273L302.681 274.174C295.927 273.323 284.82 272.244 273.471 271.779C262.097 271.313 250.573 271.467 242.937 273.044C235.187 274.645 230.058 275.829 226.798 276.658C225.167 277.073 224.011 277.397 223.232 277.638C222.958 277.723 222.733 277.797 222.554 277.859L224.284 305.145L222.423 305.263L220.616 276.763L221.084 276.468C221.247 276.365 221.472 276.272 221.698 276.187C221.945 276.094 222.271 275.985 222.68 275.858C223.501 275.604 224.69 275.272 226.338 274.853C229.635 274.014 234.794 272.823 242.559 271.219C250.439 269.592 262.164 269.451 273.548 269.917C284.509 270.367 295.241 271.384 302.096 272.223C302.593 269.97 302.763 266.675 302.671 262.696C302.569 258.267 302.148 253.086 301.553 247.742Z" fill="#643131"/>
<path fill-rule="evenodd" clip-rule="evenodd" d="M299.279 275.544C300.08 274.432 301.069 273.293 301.738 272.581L303.066 273.931C302.434 274.604 301.502 275.679 300.763 276.704C300.392 277.22 300.089 277.695 299.896 278.086C299.799 278.281 299.742 278.43 299.714 278.534C299.698 278.595 299.696 278.622 299.696 278.622C299.696 278.622 299.697 278.601 299.689 278.563L297.874 278.968C297.802 278.617 297.856 278.278 297.926 278.015C298 277.74 298.115 277.463 298.246 277.199C298.507 276.671 298.88 276.097 299.279 275.544Z" fill="#643131"/>
<path fill-rule="evenodd" clip-rule="evenodd" d="M233.601 254.805C234.814 261.706 236.38 268.851 237.453 273.319L235.604 273.742C234.525 269.246 232.95 262.064 231.73 255.118C230.518 248.22 229.628 241.41 229.983 237.742L231.873 237.917C231.546 241.296 232.38 247.856 233.601 254.805Z" fill="#643131"/>
<path fill-rule="evenodd" clip-rule="evenodd" d="M259.475 252.074C255.527 248.602 252.61 244.316 251.118 241.406L252.779 240.555C254.182 243.293 256.964 247.381 260.707 250.673C264.456 253.969 269.06 256.378 274.145 256.009L274.28 257.869C268.499 258.289 263.419 255.543 259.475 252.074ZM249.729 258.655C247.289 257.346 245.46 255.396 244.504 253.972L246.053 252.932C246.867 254.144 248.48 255.867 250.611 257.01C252.721 258.142 255.294 258.687 258.135 257.672L258.763 259.429C255.317 260.661 252.191 259.975 249.729 258.655Z" fill="#643131"/>
<path fill-rule="evenodd" clip-rule="evenodd" d="M200.226 285.968C207.968 285.827 216.384 286.169 221.774 286.529L221.65 288.394C216.297 288.037 207.936 287.697 200.26 287.838C196.421 287.908 192.772 288.098 189.764 288.463C186.705 288.833 184.466 289.368 183.327 290.043C180.088 291.961 177.569 294.1 175.836 296.003C174.969 296.955 174.308 297.838 173.852 298.595C173.386 299.369 173.175 299.946 173.129 300.297C173.122 300.349 173.115 300.414 173.268 300.55C173.451 300.713 173.78 300.887 174.26 301.041C175.208 301.345 176.426 301.471 177.263 301.485L177.23 303.355C176.293 303.338 174.876 303.202 173.69 302.822C173.103 302.634 172.49 302.361 172.025 301.946C171.53 301.505 171.171 300.864 171.276 300.055C171.371 299.331 171.731 298.494 172.252 297.63C172.783 296.747 173.523 295.766 174.455 294.744C176.318 292.697 178.983 290.442 182.376 288.433C183.89 287.537 186.492 286.975 189.539 286.606C192.636 286.231 196.356 286.039 200.226 285.968Z" fill="#643131"/>
<path fill-rule="evenodd" clip-rule="evenodd" d="M256.147 299.69C257.959 300.319 259.653 301.122 260.672 301.676L261.259 301.995L259.697 311.546L259.456 311.766C258.51 312.632 257.125 313.338 255.481 313.93C253.822 314.528 251.824 315.037 249.592 315.469C245.127 316.335 239.64 316.914 233.869 317.286C222.321 318.032 209.534 317.956 201.282 317.657L201.28 317.657L201.279 317.657C195.717 317.437 186.895 317.013 178.498 316.456C170.127 315.9 162.105 315.207 158.189 314.44C153.893 313.599 150.884 313.31 148.851 313.114C148.632 313.093 148.424 313.073 148.227 313.053C147.25 312.956 146.429 312.864 145.857 312.678C145.561 312.582 145.225 312.429 144.962 312.148C144.669 311.835 144.549 311.452 144.549 311.069V299.966L145.04 299.699C145.66 299.362 146.477 299.193 147.345 299.108C148.234 299.022 149.272 299.015 150.395 299.062C152.643 299.157 155.319 299.471 157.993 299.843C159.682 300.077 161.392 300.338 163 300.584C163.931 300.726 164.828 300.863 165.666 300.986C167.993 301.329 169.839 301.563 170.878 301.563C174.519 301.563 191.537 303.076 199.534 303.826L199.746 303.846L201.171 304.708L202.094 303.776L202.542 303.828C206.002 304.229 215.641 304.798 226.253 303.826C232.862 303.22 238.037 302.056 242.005 300.995C243.345 300.636 244.537 300.293 245.611 299.983C246.137 299.831 246.634 299.688 247.107 299.555C248.515 299.159 249.725 298.848 250.701 298.745C252.336 298.571 254.368 299.072 256.147 299.69ZM255.539 301.47C253.803 300.867 252.1 300.489 250.897 300.617C250.099 300.701 249.033 300.967 247.609 301.368C247.156 301.495 246.669 301.636 246.15 301.786C245.066 302.098 243.84 302.451 242.484 302.814C238.446 303.894 233.164 305.083 226.422 305.701C216.094 306.647 206.673 306.155 202.779 305.748L201.46 307.078L199.15 305.681C191.008 304.919 174.376 303.446 170.878 303.446C169.676 303.446 167.683 303.186 165.396 302.849C164.537 302.722 163.632 302.584 162.697 302.441C161.101 302.198 159.419 301.941 157.738 301.707C155.077 301.338 152.473 301.034 150.318 300.943C149.24 300.898 148.296 300.907 147.525 300.982C147.067 301.027 146.7 301.093 146.416 301.171V310.882C146.421 310.884 146.425 310.885 146.43 310.887C146.771 310.998 147.367 311.076 148.41 311.18C148.605 311.199 148.812 311.219 149.031 311.24C151.072 311.437 154.158 311.734 158.545 312.592C162.323 313.332 170.219 314.019 178.621 314.577C186.997 315.133 195.801 315.557 201.35 315.776C209.561 316.073 222.282 316.148 233.749 315.408C239.486 315.038 244.884 314.465 249.24 313.621C251.417 313.199 253.314 312.712 254.853 312.158C256.236 311.659 257.273 311.125 257.963 310.575L259.198 303.025C258.247 302.545 256.927 301.951 255.539 301.47Z" fill="#643131"/>
<path fill-rule="evenodd" clip-rule="evenodd" d="M199.71 316.129V306.258H202.033V316.129H199.71Z" fill="#643131"/>
<path fill-rule="evenodd" clip-rule="evenodd" d="M49.4843 121.032H213.574V122.9H50.2586C43.5071 129.902 41.7997 139.663 42.6875 148.147C43.1364 152.436 44.2454 156.35 45.6612 159.346C47.0525 162.291 48.6525 164.168 50.0604 164.82H107.391V166.688H49.6901L49.5236 166.621C47.3988 165.764 45.4716 163.298 43.9829 160.148C42.4675 156.941 41.3081 152.819 40.8397 148.343C39.9045 139.406 41.7094 128.857 49.2122 121.306L49.4843 121.032ZM142.229 164.82H223.127L230.484 177.835V164.82H246.743V166.688H232.342V184.903L222.046 166.688H142.229V164.82Z" fill="#643131"/>
<path fill-rule="evenodd" clip-rule="evenodd" d="M194.296 134.237C193.204 134.833 191.97 136.032 191.159 136.993L189.728 135.822C190.592 134.797 192.002 133.393 193.394 132.634C194.076 132.262 194.913 131.956 195.742 132.102C196.678 132.266 197.316 132.942 197.652 133.911C198.429 136.153 197.63 138.46 196.795 140.162C196.423 140.922 196.018 141.611 195.695 142.159C195.649 142.237 195.605 142.313 195.563 142.385C195.388 142.683 195.257 142.914 195.169 143.093C195.126 143.181 195.103 143.238 195.091 143.271C195.09 143.277 195.088 143.281 195.087 143.283C195.09 143.271 195.097 143.238 195.097 143.189H193.235C193.235 142.988 193.286 142.809 193.328 142.686C193.373 142.553 193.432 142.42 193.493 142.296C193.614 142.049 193.778 141.763 193.95 141.47C193.995 141.394 194.041 141.316 194.087 141.236C194.411 140.685 194.78 140.058 195.119 139.365C195.913 137.746 196.417 136.02 195.891 134.504C195.706 133.97 195.501 133.921 195.415 133.906C195.222 133.872 194.856 133.932 194.296 134.237ZM195.086 143.289C195.086 143.289 195.086 143.287 195.087 143.283C195.087 143.287 195.086 143.288 195.086 143.289ZM121.563 135.949H111.16V134.116H124.206L117.433 152.755L115.681 152.137L121.563 135.949ZM153.179 135.949H145.87V134.116H155.869L149.997 149.47L148.256 148.824L153.179 135.949ZM87.2921 136.537L73.71 135.948L73.7918 134.117L89.8017 134.811L83.7573 153.548L81.9835 152.993L87.2921 136.537ZM98.9692 143.189V139.34H100.83V143.189H105.576V145.022H100.83V150.155H98.9692V145.022H94.9678V143.189H98.9692ZM175.369 141.173H164.76V139.34H175.369V141.173ZM134.062 144.342L130.683 140.893L132.023 139.62L135.635 143.309L139.212 140.96L140.244 142.485L136.949 144.649L139.653 147.41L138.314 148.683L135.375 145.683L131.869 147.984L130.837 146.459L134.062 144.342ZM175.369 147.314H164.76V145.481H175.369V147.314ZM194.259 150.155V147.222H196.12V150.155H194.259Z" fill="#643131"/>
<path fill-rule="evenodd" clip-rule="evenodd" d="M63.4983 229.032V242.992H61.6272V231.705L61.4406 231.774L60.7874 230.034L63.4983 229.032ZM40.4891 231.778L29.5811 231.296L29.6643 229.441L43.0037 230.03L37.9877 245.871L36.2027 245.314L40.4891 231.778ZM82.9769 231.465C82.767 231.677 82.626 232.173 82.6369 232.687L80.7662 232.726C80.7517 232.039 80.9005 230.913 81.6424 230.163C82.048 229.754 82.6007 229.492 83.2769 229.48C83.9226 229.469 84.6169 229.685 85.3574 230.092C86.2565 230.586 86.7705 231.339 86.9681 232.199C87.1567 233.02 87.0485 233.892 86.8278 234.688C86.387 236.278 85.4098 237.873 84.6584 238.856L83.1672 237.735C83.8391 236.855 84.6691 235.475 85.0238 234.196C85.2009 233.557 85.2376 233.02 85.1437 232.612C85.0589 232.242 84.8631 231.943 84.4507 231.716C83.8797 231.402 83.5148 231.333 83.3102 231.337C83.136 231.34 83.0472 231.394 82.9769 231.465ZM72.8155 229.785L74.27 230.953L72.5879 233.015L72.7791 237.014H75.6778V238.871H72.8679L73.0285 242.23L71.1595 242.318L70.9947 238.871H65.406L72.8155 229.785ZM70.9059 237.014L70.8185 235.185L69.327 237.014H70.9059ZM50.1134 237.014V233.964H51.9845V237.014H55.7002V238.871H51.9845V242.992H50.1134V238.871H47.0077V237.014H50.1134ZM84.1292 241.952L83.138 240.499L84.6876 239.458L85.6789 240.912L84.1292 241.952Z" fill="#643131"/>
<path fill-rule="evenodd" clip-rule="evenodd" d="M19.2462 222.064H107.254L107.507 222.595L106.664 222.993C107.507 222.595 107.507 222.595 107.507 222.595L107.508 222.595L107.508 222.596L107.509 222.598L107.513 222.607C107.516 222.614 107.521 222.624 107.527 222.637C107.54 222.664 107.558 222.702 107.581 222.752C107.627 222.851 107.692 222.993 107.771 223.171C107.93 223.527 108.144 224.025 108.372 224.598C108.819 225.725 109.34 227.206 109.544 228.458C109.732 229.616 109.728 231.073 109.685 232.197C109.663 232.768 109.629 233.271 109.602 233.631C109.588 233.811 109.575 233.956 109.566 234.057C109.563 234.089 109.561 234.117 109.558 234.141C109.557 234.153 109.556 234.164 109.555 234.173L109.552 234.205L109.551 234.216L109.551 234.216L109.551 234.217C109.551 234.217 109.551 234.217 108.622 234.123C107.693 234.03 107.693 234.03 107.693 234.03L107.693 234.022L107.696 233.996C107.698 233.972 107.702 233.937 107.706 233.89C107.714 233.797 107.726 233.66 107.739 233.489C107.765 233.147 107.797 232.668 107.818 232.126C107.861 231.023 107.857 229.721 107.7 228.754C107.53 227.71 107.073 226.385 106.634 225.28C106.418 224.736 106.214 224.261 106.063 223.923C106.063 223.923 106.063 223.922 106.062 223.922H19.9216C19.7955 224.037 19.6236 224.202 19.4199 224.417C18.957 224.904 18.332 225.645 17.7048 226.638C16.453 228.621 15.1902 231.615 15.1902 235.645C15.1902 239.678 16.4544 242.772 17.7145 244.859C18.3451 245.903 18.974 246.693 19.4406 247.217C19.6438 247.446 19.8158 247.623 19.943 247.749H65.0822L71.274 259.541L74.8239 247.749H85.1237V249.607H76.2146L71.7454 264.452L63.9502 249.607H19.2237L18.9607 249.381L19.5713 248.678C18.9607 249.381 18.9603 249.38 18.96 249.38L18.9572 249.378L18.9517 249.373C18.9475 249.369 18.9419 249.364 18.9352 249.358C18.9216 249.347 18.9032 249.33 18.8802 249.309C18.8342 249.267 18.7698 249.207 18.6897 249.129C18.5296 248.973 18.3063 248.746 18.0411 248.447C17.5111 247.851 16.8112 246.971 16.1131 245.815C14.7157 243.501 13.3223 240.08 13.3223 235.645C13.3223 231.209 14.7171 227.877 16.1227 225.651C16.8243 224.539 17.528 223.704 18.0617 223.142C18.3288 222.861 18.5538 222.647 18.7157 222.501C18.7966 222.429 18.8618 222.372 18.9086 222.333C18.932 222.313 18.9508 222.298 18.9648 222.287C18.9717 222.281 18.9774 222.276 18.9819 222.273L18.9876 222.268L18.9898 222.266L18.9906 222.266C18.991 222.265 18.9914 222.265 19.5713 222.993L18.9914 222.265L19.2462 222.064ZM20.1531 223.72C20.1534 223.719 20.1534 223.719 20.1531 223.72V223.72Z" fill="#643131"/>
</svg>
