<svg width="160" height="160" viewBox="0 0 160 160" fill="none" xmlns="http://www.w3.org/2000/svg">
<circle cx="80" cy="80" r="80" fill="url(#paint0_radial_479_3323)"/>
<path d="M46.6 97.8393V97.2067L46.0284 96.9357C41.2775 94.6833 38 89.8694 38 84.2857C38 76.5512 44.2865 70.2857 52.05 70.2857H56.35C58.8202 70.2857 61.2952 70.9693 63.3834 72.1607C59.7467 75.8269 57.5 80.8703 57.5 86.4286C57.5 91.1131 58.9822 95.4548 61.8 98.9106V101.429C61.8 103.244 60.3293 104.714 58.5 104.714H49.9C48.0741 104.714 46.6 103.243 46.6 101.429V97.8393ZM46.6 78.6205V75.9977L44.8538 77.9548C43.3564 79.633 42.45 81.8639 42.45 84.2857C42.45 86.7075 43.3564 88.9384 44.8538 90.6167L46.6 92.5737V89.9509V78.6205ZM102.5 86.4286C102.5 80.8691 100.252 75.8247 96.6142 72.1583C98.6802 70.9669 101.081 70.2857 103.65 70.2857H107.95C115.719 70.2857 122 76.551 122 84.2857C122 89.8689 118.718 94.6832 113.971 96.9359L113.4 97.207V97.8393V101.429C113.4 103.244 111.929 104.714 110.1 104.714H101.5C99.6707 104.714 98.2 103.244 98.2 101.429V98.8991C100.892 95.4629 102.5 91.1316 102.5 86.4286ZM113.4 89.9509V92.7602L115.175 90.5827C116.506 88.9506 117.55 86.739 117.55 84.2857C117.55 81.8324 116.506 79.6208 115.175 77.9887L113.4 75.8112V78.6205V89.9509ZM88.1712 99.0787L87.6 99.3498V99.9821V105.714C87.6 107.529 86.1293 109 84.3 109H75.7C73.8707 109 72.4 107.529 72.4 105.714V99.9821V99.3498L71.8288 99.0787C67.0824 96.8261 63.8 92.0118 63.8 86.4286C63.8 78.6938 70.0813 72.4286 77.85 72.4286H82.15C89.9187 72.4286 96.2 78.6938 96.2 86.4286C96.2 92.0118 92.9176 96.8261 88.1712 99.0787ZM70.6552 92.761L72.4 94.7087V92.0937V80.7634V78.1484L70.6552 80.0961C69.15 81.7763 68.25 84.0084 68.25 86.4286C68.25 88.8488 69.15 91.0808 70.6552 92.761ZM89.3751 80.1315L87.6 77.9541V80.7634V92.0937V94.9225L89.3778 92.7222C90.7041 91.0808 91.75 88.8838 91.75 86.4286C91.75 83.9753 90.7056 81.7637 89.3751 80.1315ZM60.725 57.5C60.725 61.083 57.803 64 54.2 64C50.5933 64 47.675 61.0833 47.675 57.5C47.675 53.913 50.5929 51 54.2 51C57.8034 51 60.725 53.9134 60.725 57.5ZM112.325 57.5C112.325 61.083 109.403 64 105.8 64C102.197 64 99.275 61.083 99.275 57.5C99.275 53.9134 102.197 51 105.8 51C109.403 51 112.325 53.9134 112.325 57.5ZM72.4 58.5714C72.4 54.393 75.8052 51 80 51C84.1948 51 87.6 54.393 87.6 58.5714C87.6 62.7437 84.1943 66.1429 80 66.1429C75.8057 66.1429 72.4 62.7437 72.4 58.5714Z" stroke="black" stroke-width="2"/>
<defs>
<radialGradient id="paint0_radial_479_3323" cx="0" cy="0" r="1" gradientUnits="userSpaceOnUse" gradientTransform="translate(80 80) rotate(90) scale(80)">
<stop stop-color="#5AB0FF" stop-opacity="0.6"/>
<stop offset="1" stop-color="white" stop-opacity="0"/>
</radialGradient>
</defs>
</svg>
