<svg width="161" height="160" viewBox="0 0 161 160" fill="none" xmlns="http://www.w3.org/2000/svg">
<circle cx="80.5" cy="80" r="80" fill="url(#paint0_radial_479_3335)"/>
<path d="M68.5389 55.875H67.5389V56.875V61.3312C65.7851 60.5057 63.828 59.9741 61.75 59.8438V55.1068C61.75 52.2611 63.9847 50 66.675 50H114.075C116.765 50 119 52.2611 119 55.1068V94.0844C119 96.9309 116.767 99.1875 114.07 99.1875H83.3698C82.3155 96.9873 80.8929 95.001 79.1684 93.3125H88.2889H89.2889V92.3125V86.4062C89.2889 85.8741 89.7224 85.4375 90.2639 85.4375H102.114C102.655 85.4375 103.089 85.8741 103.089 86.4062V92.3125V93.3125H104.089H111.989H112.989V92.3125V56.875V55.875H111.989H68.5389ZM71.6 76.5625C71.6 82.5312 66.7454 87.375 60.75 87.375C54.6521 87.375 49.9 82.5348 49.9 76.5625C49.9 70.4855 54.646 65.75 60.75 65.75C66.7454 65.75 71.6 70.5938 71.6 76.5625ZM42 108.062C42 99.9196 48.6235 93.3125 56.8 93.3125H64.7C72.8777 93.3125 79.5 99.9184 79.5 108.062C79.5 109.681 78.1818 111 76.55 111H44.95C43.3182 111 42 109.681 42 108.062Z" stroke="black" stroke-width="2"/>
<defs>
<radialGradient id="paint0_radial_479_3335" cx="0" cy="0" r="1" gradientUnits="userSpaceOnUse" gradientTransform="translate(80.5 80) rotate(90) scale(80)">
<stop stop-color="#5AB0FF" stop-opacity="0.6"/>
<stop offset="1" stop-color="white" stop-opacity="0"/>
</radialGradient>
</defs>
</svg>
