<svg width="137" height="135" viewBox="0 0 137 135" fill="none" xmlns="http://www.w3.org/2000/svg">
<g clip-path="url(#clip0_322_1128)">
<path d="M48.8832 0C57.0924 0 63.7607 6.61025 63.7607 14.7656V120.234C63.7607 128.382 57.0924 135 48.8832 135C41.2053 135 34.8824 129.226 34.0854 121.79C32.7039 122.159 31.2427 122.344 29.755 122.344C20.3636 122.344 12.7521 114.776 12.7521 105.469C12.7521 103.518 13.0895 101.619 13.7059 99.8789C5.6933 96.873 0 89.1738 0 80.1562C0 71.7451 4.97067 64.4678 12.1597 61.0928C9.86962 58.2188 8.50142 54.3428 8.50142 50.625C8.50142 42.5303 14.2372 35.7803 21.8938 34.1191C21.4767 32.6689 21.2535 31.1133 21.2535 29.5312C21.2535 21.6369 26.7263 15.0082 34.0854 13.1651C34.8824 5.76387 41.2053 0 48.8832 0ZM101.937 13.1651C109.296 15.0082 114.769 21.6369 114.769 29.5312C114.769 31.1133 114.557 32.6689 114.132 34.1191C121.783 35.7803 127.521 42.5303 127.521 50.625C127.521 54.3428 126.166 58.2188 123.855 61.0928C131.055 64.4678 136.023 71.7451 136.023 80.1562C136.023 89.1738 130.337 96.873 122.314 99.8789C122.925 101.619 123.271 103.518 123.271 105.469C123.271 114.776 115.646 122.344 106.268 122.344C104.78 122.344 103.319 122.159 101.937 121.79C101.14 129.226 94.8174 135 87.1396 135C78.9304 135 72.2621 128.382 72.2621 120.234V14.7656C72.2621 6.61025 78.9304 0 87.1396 0C94.8174 0 101.14 5.76387 101.937 13.1651Z" fill="#3466BB"/>
</g>
<defs>
<clipPath id="clip0_322_1128">
<rect width="136.023" height="135" fill="white"/>
</clipPath>
</defs>
</svg>
