<svg width="169" height="135" viewBox="0 0 169 135" fill="none" xmlns="http://www.w3.org/2000/svg">
<g clip-path="url(#clip0_322_872)">
<path d="M155.859 0H54.7613C47.7845 0 42.1241 5.8667 42.1241 13.086V25.3125C48.29 25.3125 53.9978 27.1005 58.7367 30.0085V16.875H151.41V92.8125H134.56V80.1562C134.56 77.8259 132.674 75.9375 130.348 75.9375H105.073C102.747 75.9375 100.861 77.8259 100.861 80.1562V92.8125H75.639C81.4495 97.1578 86.0489 102.964 89.0029 109.688H155.848C162.836 109.688 168.496 103.834 168.496 96.6094V13.086C168.496 5.8667 162.836 0 155.859 0ZM42.1241 84.375C56.0829 84.375 67.3985 73.0424 67.3985 59.0625C67.3985 45.0826 56.0829 33.75 42.1241 33.75C27.9335 33.75 16.8496 44.8506 16.8496 59.0625C16.8496 73.0371 27.9335 84.375 42.1241 84.375ZM50.5489 92.8125H33.6992C15.0883 92.8125 0 107.924 0 126.562C0 131.222 3.77274 135 8.42481 135H75.8233C80.4754 135 84.2481 131.222 84.2481 126.562C84.2481 107.921 69.1624 92.8125 50.5489 92.8125Z" fill="#3466BB"/>
</g>
<defs>
<clipPath id="clip0_322_872">
<rect width="168.496" height="135" fill="white"/>
</clipPath>
</defs>
</svg>
