<svg width="152" height="135" viewBox="0 0 152 135" fill="none" xmlns="http://www.w3.org/2000/svg">
<g clip-path="url(#clip0_322_868)">
<path d="M149.412 88.6729C145.962 83.9769 139.383 82.9617 134.705 86.4398L103.229 109.688H71.5165C69.2162 109.688 67.5459 107.776 67.5459 105.472C67.5459 103.165 69.4523 101.253 71.5165 101.253H92.0929C96.0636 101.253 100.179 98.3841 100.868 94.234C101.722 88.9605 97.6808 84.3779 92.5531 84.3779H50.2512C43.388 84.3779 36.2829 86.8169 30.7608 91.2993L18.5332 101.25L3.97066 101.013C1.9067 101.013 0 103.175 0 105.469V130.776C0 133.102 1.9067 135 3.97066 135H94.9802C100.773 135 106.529 133.105 111.205 129.655L146.73 103.415C151.858 99.958 152.857 93.3662 149.412 88.6729ZM73.444 46.1426C71.4455 45.8525 68.8159 44.9033 66.5019 44.0596L65.2134 43.6113C61.9265 42.2139 58.3239 44.165 57.1669 47.2236C56.0099 50.2822 57.7247 54.1318 61.0035 55.3025L62.2275 55.7392C64.459 56.5463 66.9292 57.3463 69.4299 57.9308V61.1719C69.4299 64.6655 72.2515 67.5 75.7357 67.5C79.2199 67.5 82.0466 64.6655 82.0466 61.1719V58.4297C88.6916 56.9207 93.3223 52.6685 94.169 46.3746C96.4535 33.1778 83.9426 29.5893 77.2293 27.6671L75.8369 27.1846C68.9211 25.2176 69.3156 24.3686 69.4996 23.2849C69.8036 21.5009 73.5229 20.6323 77.9695 21.3361C79.268 21.5421 80.9593 22.0076 83.1366 22.7657C86.4315 23.8945 90.0287 22.1561 91.1621 18.8528C92.2954 15.5495 90.5549 11.9472 87.2598 10.8029C85.2608 10.1102 83.5994 9.65382 82.048 9.29443V6.32812C82.048 2.83447 79.2212 0 75.737 0C72.2528 0 69.4313 2.83447 69.4313 6.32812V9.10195C62.7942 10.6075 58.1399 14.8315 56.8251 21.128C54.8003 34.1719 67.5012 37.916 72.287 39.3398L73.9957 39.8342C82.3209 42.2236 82.1868 42.9693 81.9738 44.2217C81.6746 46.0107 77.9669 46.8809 73.444 46.1426Z" fill="#3466BB"/>
</g>
<defs>
<clipPath id="clip0_322_868">
<rect width="151.463" height="135" fill="white"/>
</clipPath>
</defs>
</svg>
