<svg width="152" height="135" viewBox="0 0 152 135" fill="none" xmlns="http://www.w3.org/2000/svg">
<g clip-path="url(#clip0_322_1132)">
<path d="M25.3125 80.1826C25.3125 76.9764 26.6232 73.8993 28.909 71.7425L47.9276 53.7917C48.3627 53.3817 48.9225 53.1824 49.4071 52.8483C46.6963 46.6172 40.8691 42.1875 33.75 42.1875H16.875C7.5542 42.1875 0 49.7549 0 59.0625V84.375C0 89.0341 3.77842 92.8125 8.2002 92.8125L8.4375 126.562C8.4375 131.222 12.2159 135 16.875 135H33.75C38.4091 135 42.1875 131.222 42.1875 126.562V101.147L28.909 88.6148C26.3936 86.458 25.3125 83.373 25.3125 80.1826ZM126.562 33.75C135.891 33.75 143.438 26.2037 143.438 16.875C143.438 7.54629 135.891 0 126.562 0C117.234 0 109.688 7.54629 109.688 16.875C109.688 26.2037 117.229 33.75 126.562 33.75ZM25.3125 33.75C34.6412 33.75 42.1875 26.2037 42.1875 16.875C42.1875 7.54629 34.6465 0 25.3125 0C15.9785 0 8.4375 7.54629 8.4375 16.875C8.4375 26.2037 15.9864 33.75 25.3125 33.75ZM117.176 77.8623L98.165 59.9326C97.2448 59.0643 95.8956 58.827 94.7347 59.3264C93.5771 59.8271 92.8125 60.9609 92.8125 62.2266V71.7188H59.0625V62.2266C59.0625 60.9623 58.3092 59.8184 57.1477 59.3183C55.9775 58.8252 54.6328 58.8252 53.71 59.9326L34.6992 77.8623C33.4323 79.0581 33.4323 81.2742 34.6992 82.4687L53.7152 100.417C54.6354 101.285 55.9847 101.522 57.1456 101.022C58.2979 100.538 59.0625 99.3779 59.0625 98.1123V88.5938H92.8125V98.1229C92.8125 99.3872 93.5658 100.531 94.7273 101.034C95.889 101.533 97.2382 101.295 98.1577 100.428L117.174 82.4795C118.441 81.29 118.441 79.0752 117.176 77.8623ZM135 42.1875H118.125C111.243 42.1875 104.947 46.6093 102.468 52.8451C102.954 53.1802 103.515 53.3796 103.951 53.7912L122.967 71.7367C125.244 73.8809 126.562 76.9658 126.562 80.1826C126.563 83.3889 125.252 86.4659 122.966 88.6227L109.688 101.145V126.562C109.688 131.222 113.466 135 118.125 135H135C139.659 135 143.438 131.222 143.438 126.562V92.8125C148.097 92.8125 151.875 89.0341 151.875 84.375V59.0625C151.875 49.7549 144.308 42.1875 135 42.1875Z" fill="#3466BB"/>
</g>
<defs>
<clipPath id="clip0_322_1132">
<rect width="151.875" height="135" fill="white"/>
</clipPath>
</defs>
</svg>
