<svg width="169" height="135" viewBox="0 0 169 135" fill="none" xmlns="http://www.w3.org/2000/svg">
<g clip-path="url(#clip0_322_1134)">
<path d="M48.5156 23.2031C48.5156 31.3506 41.8975 37.9688 33.75 37.9688C25.5946 37.9688 18.9844 31.3506 18.9844 23.2031C18.9844 15.0478 25.5946 8.4375 33.75 8.4375C41.8975 8.4375 48.5156 15.0478 48.5156 23.2031ZM54.9492 51.7588C47.1182 58.7197 42.1875 68.8711 42.1875 80.1562C42.1875 89.2002 45.1143 97.5059 50.625 104.019V109.688C50.625 114.354 46.8545 118.125 42.1875 118.125H25.3125C20.6534 118.125 16.875 114.354 16.875 109.688V102.621C6.89766 97.875 0 87.7236 0 75.9375C0 59.6162 13.2205 46.4062 29.5312 46.4062H37.9688C44.0596 46.4062 50.1504 48.3838 54.9492 51.7588ZM16.875 64.7842C14.2488 67.7373 12.6562 71.666 12.6562 75.9375C12.6562 80.209 14.2488 84.1377 16.875 87.0908V64.7842ZM118.125 109.688V104.019C123.398 97.5059 126.562 89.2002 126.562 80.1562C126.562 68.8711 121.632 58.7197 113.801 51.7588C118.6 48.3838 124.453 46.4062 130.781 46.4062H139.219C155.54 46.4062 168.75 59.6162 168.75 75.9375C168.75 87.7236 161.842 97.875 151.875 102.621V109.688C151.875 114.354 148.104 118.125 143.438 118.125H126.562C121.896 118.125 118.125 114.354 118.125 109.688ZM151.875 87.0908C154.274 84.1377 156.094 80.209 156.094 75.9375C156.094 71.666 154.274 67.7373 151.875 64.7842V87.0908ZM149.766 23.2031C149.766 31.3506 143.147 37.9688 135 37.9688C126.853 37.9688 120.234 31.3506 120.234 23.2031C120.234 15.0478 126.853 8.4375 135 8.4375C143.147 8.4375 149.766 15.0478 149.766 23.2031ZM67.5 25.3125C67.5 15.9917 75.0674 8.4375 84.375 8.4375C93.6826 8.4375 101.25 15.9917 101.25 25.3125C101.25 34.6201 93.6826 42.1875 84.375 42.1875C75.0674 42.1875 67.5 34.6201 67.5 25.3125ZM118.125 80.1562C118.125 91.9424 111.217 102.094 101.25 106.84V118.125C101.25 122.792 97.4795 126.562 92.8125 126.562H75.9375C71.2705 126.562 67.5 122.792 67.5 118.125V106.84C57.5332 102.094 50.625 91.9424 50.625 80.1562C50.625 63.835 63.835 50.625 80.1562 50.625H88.5938C104.915 50.625 118.125 63.835 118.125 80.1562ZM67.5 91.3096V69.0029C64.8633 71.9561 63.2812 75.8848 63.2812 80.1562C63.2812 84.4277 64.8633 88.3564 67.5 91.3096ZM101.25 69.0029V91.3096C103.649 88.3301 105.469 84.4277 105.469 80.1562C105.469 75.8848 103.649 71.9561 101.25 69.0029Z" fill="#3466BB"/>
</g>
<defs>
<clipPath id="clip0_322_1134">
<rect width="168.75" height="135" fill="white"/>
</clipPath>
</defs>
</svg>
