<svg width="444" height="416" viewBox="0 0 444 416" fill="none" xmlns="http://www.w3.org/2000/svg">
<g filter="url(#filter0_d_321_842)">
<path d="M215.867 25.4035L33.9356 159.379C31.5043 161.169 30.495 164.317 31.4319 167.188L101.36 381.432C102.3 384.311 104.985 386.26 108.015 386.26H333.346C336.361 386.26 339.037 384.329 339.988 381.468L411.206 167.241C412.168 164.346 411.145 161.161 408.676 159.368L224.131 25.3757C221.664 23.5846 218.322 23.5959 215.867 25.4035Z" fill="#ECECEC"/>
</g>
<path d="M213.431 235.636C217.404 229.856 225.939 229.856 229.913 235.636L309.758 351.791C314.319 358.426 309.568 367.456 301.517 367.456H141.827C133.775 367.456 129.025 358.426 133.586 351.791L213.431 235.636Z" fill="#3466BB"/>
<path d="M235.097 235.776C230.839 230.202 233.493 222.09 240.223 220.111L375.448 180.345C383.173 178.073 390.277 185.396 387.774 193.048L338.116 344.821C335.612 352.473 325.553 354.18 320.665 347.782L235.097 235.776Z" fill="#0F7453"/>
<path d="M237.789 217.521C231.191 219.901 224.256 214.925 224.398 207.912L227.239 66.9896C227.401 58.9398 236.525 54.3725 243.067 59.0662L372.814 152.16C379.356 156.854 377.951 166.96 370.378 169.692L237.789 217.521Z" fill="#FCC33D"/>
<path d="M203.737 218.321C210.465 220.306 213.111 228.42 208.848 233.99L123.18 345.92C118.287 352.314 108.229 350.598 105.732 342.943L56.2101 191.126C53.7132 183.472 60.8246 176.155 68.5469 178.434L203.737 218.321Z" fill="#9A46AB"/>
<path d="M220.133 207.544C220.36 214.555 213.487 219.616 206.86 217.317L73.6935 171.123C66.0867 168.484 64.5581 158.396 71.0417 153.622L199.634 58.9392C206.118 54.1653 215.297 58.62 215.558 66.6673L220.133 207.544Z" fill="#BC4232"/>
<circle cx="221.607" cy="209.346" r="73.0961" fill="white"/>
<g filter="url(#filter1_d_321_842)">
<circle cx="221.872" cy="209.611" r="64.886" fill="white"/>
</g>
<path d="M174.309 215.245C173.416 215.245 172.543 215.145 171.689 214.945C170.849 214.745 170.116 214.445 169.489 214.045C169.183 213.845 168.996 213.598 168.929 213.305C168.863 213.011 168.883 212.738 168.989 212.485C169.109 212.218 169.289 212.038 169.529 211.945C169.783 211.838 170.069 211.885 170.389 212.085C170.976 212.431 171.596 212.685 172.249 212.845C172.903 213.005 173.589 213.085 174.309 213.085C175.363 213.085 176.129 212.911 176.609 212.565C177.089 212.205 177.329 211.745 177.329 211.185C177.329 210.718 177.156 210.351 176.809 210.085C176.476 209.818 175.896 209.598 175.069 209.425L172.869 208.965C170.363 208.431 169.109 207.145 169.109 205.105C169.109 204.225 169.343 203.458 169.809 202.805C170.276 202.151 170.923 201.645 171.749 201.285C172.576 200.925 173.529 200.745 174.609 200.745C175.409 200.745 176.169 200.845 176.889 201.045C177.609 201.245 178.256 201.538 178.829 201.925C179.096 202.111 179.256 202.345 179.309 202.625C179.363 202.891 179.329 203.145 179.209 203.385C179.089 203.611 178.896 203.771 178.629 203.865C178.376 203.945 178.076 203.885 177.729 203.685C177.236 203.405 176.736 203.205 176.229 203.085C175.723 202.965 175.176 202.905 174.589 202.905C173.669 202.905 172.949 203.098 172.429 203.485C171.909 203.871 171.649 204.378 171.649 205.005C171.649 205.485 171.809 205.871 172.129 206.165C172.449 206.445 172.996 206.665 173.769 206.825L175.949 207.285C177.269 207.565 178.249 208.005 178.889 208.605C179.543 209.205 179.869 210.005 179.869 211.005C179.869 211.845 179.643 212.585 179.189 213.225C178.736 213.865 178.089 214.365 177.249 214.725C176.423 215.071 175.443 215.245 174.309 215.245Z" fill="#BC4232"/>
<path d="M183.626 215.145C183.173 215.145 182.806 215.005 182.526 214.725C182.26 214.445 182.126 214.085 182.126 213.645C182.126 213.218 182.26 212.871 182.526 212.605C182.806 212.325 183.173 212.185 183.626 212.185C184.093 212.185 184.453 212.325 184.706 212.605C184.973 212.871 185.106 213.218 185.106 213.645C185.106 214.085 184.973 214.445 184.706 214.725C184.453 215.005 184.093 215.145 183.626 215.145ZM207.151 215.145C206.697 215.145 206.331 215.005 206.051 214.725C205.784 214.445 205.651 214.085 205.651 213.645C205.651 213.218 205.784 212.871 206.051 212.605C206.331 212.325 206.697 212.185 207.151 212.185C207.617 212.185 207.977 212.325 208.231 212.605C208.497 212.871 208.631 213.218 208.631 213.645C208.631 214.085 208.497 214.445 208.231 214.725C207.977 215.005 207.617 215.145 207.151 215.145ZM228.194 215.145C227.741 215.145 227.374 215.005 227.094 214.725C226.828 214.445 226.694 214.085 226.694 213.645C226.694 213.218 226.828 212.871 227.094 212.605C227.374 212.325 227.741 212.185 228.194 212.185C228.661 212.185 229.021 212.325 229.274 212.605C229.541 212.871 229.674 213.218 229.674 213.645C229.674 214.085 229.541 214.445 229.274 214.725C229.021 215.005 228.661 215.145 228.194 215.145ZM248.066 215.145C247.613 215.145 247.246 215.005 246.966 214.725C246.7 214.445 246.566 214.085 246.566 213.645C246.566 213.218 246.7 212.871 246.966 212.605C247.246 212.325 247.613 212.185 248.066 212.185C248.533 212.185 248.893 212.325 249.146 212.605C249.413 212.871 249.546 213.218 249.546 213.645C249.546 214.085 249.413 214.445 249.146 214.725C248.893 215.005 248.533 215.145 248.066 215.145Z" fill="#909090"/>
<path d="M189.427 215.205C188.654 215.205 188.267 214.805 188.267 214.005V201.985C188.267 201.185 188.667 200.785 189.467 200.785C189.801 200.785 190.061 200.851 190.247 200.985C190.447 201.105 190.627 201.318 190.787 201.625L195.407 210.165L200.027 201.625C200.187 201.318 200.361 201.105 200.547 200.985C200.734 200.851 200.994 200.785 201.327 200.785C202.101 200.785 202.487 201.185 202.487 201.985V214.005C202.487 214.805 202.101 215.205 201.327 215.205C200.554 215.205 200.167 214.805 200.167 214.005V205.545L196.407 212.405C196.274 212.631 196.134 212.798 195.987 212.905C195.841 213.011 195.641 213.065 195.387 213.065C195.134 213.065 194.927 213.011 194.767 212.905C194.607 212.785 194.467 212.618 194.347 212.405L190.587 205.585V214.005C190.587 214.805 190.201 215.205 189.427 215.205Z" fill="#FCC33D"/>
<path d="M211.892 215.205C211.425 215.205 211.092 215.045 210.892 214.725C210.692 214.405 210.698 214.018 210.912 213.565L216.192 201.865C216.365 201.478 216.572 201.205 216.812 201.045C217.065 200.871 217.352 200.785 217.672 200.785C217.978 200.785 218.252 200.871 218.492 201.045C218.745 201.205 218.958 201.478 219.132 201.865L224.432 213.565C224.645 214.031 224.658 214.425 224.472 214.745C224.285 215.051 223.965 215.205 223.512 215.205C223.138 215.205 222.845 215.118 222.632 214.945C222.432 214.758 222.252 214.478 222.092 214.105L221.092 211.785H214.212L213.232 214.105C213.058 214.491 212.878 214.771 212.692 214.945C212.505 215.118 212.238 215.205 211.892 215.205ZM217.632 203.725L215.092 209.745H220.212L217.672 203.725H217.632Z" fill="#0F7453"/>
<path d="M234.075 215.205C233.222 215.205 232.795 214.765 232.795 213.885V202.245C232.795 201.378 233.229 200.945 234.095 200.945H238.915C240.462 200.945 241.655 201.318 242.495 202.065C243.335 202.798 243.755 203.831 243.755 205.165C243.755 206.218 243.482 207.091 242.935 207.785C242.389 208.465 241.602 208.925 240.575 209.165C241.255 209.378 241.815 209.891 242.255 210.705L243.755 213.485C243.982 213.911 244.022 214.305 243.875 214.665C243.742 215.025 243.402 215.205 242.855 215.205C242.495 215.205 242.202 215.131 241.975 214.985C241.749 214.825 241.549 214.585 241.375 214.265L239.355 210.545C239.115 210.091 238.829 209.791 238.495 209.645C238.175 209.485 237.762 209.405 237.255 209.405H235.355V213.885C235.355 214.765 234.929 215.205 234.075 215.205ZM235.355 207.505H238.475C240.342 207.505 241.275 206.745 241.275 205.225C241.275 203.718 240.342 202.965 238.475 202.965H235.355V207.505Z" fill="#3466BB"/>
<path d="M257.347 215.205C256.494 215.205 256.067 214.765 256.067 213.885V203.085H252.167C251.434 203.085 251.067 202.725 251.067 202.005C251.067 201.298 251.434 200.945 252.167 200.945H262.527C263.26 200.945 263.627 201.298 263.627 202.005C263.627 202.725 263.26 203.085 262.527 203.085H258.627V213.885C258.627 214.765 258.2 215.205 257.347 215.205Z" fill="#9A46AB"/>
<path d="M266.649 215.145C266.196 215.145 265.829 215.005 265.549 214.725C265.282 214.445 265.149 214.085 265.149 213.645C265.149 213.218 265.282 212.871 265.549 212.605C265.829 212.325 266.196 212.185 266.649 212.185C267.116 212.185 267.476 212.325 267.729 212.605C267.996 212.871 268.129 213.218 268.129 213.645C268.129 214.085 267.996 214.445 267.729 214.725C267.476 215.005 267.116 215.145 266.649 215.145Z" fill="#919191"/>
<path d="M228.317 323.682C231.075 323.682 233.284 321.451 233.284 318.687C233.284 315.924 231.075 313.693 228.317 313.693C225.559 313.693 223.333 315.924 223.333 318.687C223.333 321.451 225.559 323.682 228.317 323.682ZM215.027 323.682C217.785 323.682 219.994 321.451 219.994 318.687C219.994 315.924 217.785 313.693 215.027 313.693C212.269 313.693 210.043 315.924 210.043 318.687C210.043 321.451 212.269 323.682 215.027 323.682ZM215.027 327.011C211.156 327.011 203.398 328.959 203.398 332.838V336.999H226.656V332.838C226.656 328.959 218.898 327.011 215.027 327.011ZM228.317 327.011C227.835 327.011 227.287 327.044 226.706 327.094C228.633 328.493 229.978 330.374 229.978 332.838V336.999H239.946V332.838C239.946 328.959 232.188 327.011 228.317 327.011Z" fill="white"/>
<path d="M149.635 152.67L147.292 150.536C138.972 142.987 133.479 138.009 133.479 131.899C133.479 126.92 137.389 123.008 142.365 123.008C145.176 123.008 147.874 124.317 149.635 126.386C151.396 124.317 154.094 123.008 156.905 123.008C161.881 123.008 165.79 126.92 165.79 131.899C165.79 138.009 160.297 142.987 151.977 150.553L149.635 152.67Z" fill="white"/>
<path d="M307.945 121.761H304.109V123.681H309.864V125.601H302.191V121.761C302.191 120.705 303.054 119.84 304.109 119.84H307.945V117.92H302.191V116H307.945C309.001 116 309.864 116.864 309.864 117.92V119.84C309.864 120.897 309.001 121.761 307.945 121.761ZM277.023 146.722H282.126L288.648 136.315H288.878L295.4 146.722H300.503L291.583 132.763L299.908 119.84H294.767L288.878 129.422H288.648L282.721 119.84H277.618L285.905 132.763L277.023 146.722Z" fill="white"/>
<path d="M340.585 262.722V254.071H309.864V262.722H340.585ZM309.864 245.419H340.585V236.768H309.864V245.419Z" fill="white"/>
<path d="M131.802 259.478C133.575 259.478 135.009 258.018 135.009 256.234L135.025 240.012C135.025 238.228 133.575 236.768 131.802 236.768H106.025C104.252 236.768 102.802 238.228 102.802 240.012V256.234C102.802 258.018 104.252 259.478 106.025 259.478H99.5801V262.722H138.247V259.478H131.802ZM106.025 240.012H131.802V256.234H106.025V240.012Z" fill="white"/>
<defs>
<filter id="filter0_d_321_842" x="22.0859" y="15.04" width="398.478" height="380.22" filterUnits="userSpaceOnUse" color-interpolation-filters="sRGB">
<feFlood flood-opacity="0" result="BackgroundImageFix"/>
<feColorMatrix in="SourceAlpha" type="matrix" values="0 0 0 0 0 0 0 0 0 0 0 0 0 0 0 0 0 0 127 0" result="hardAlpha"/>
<feOffset/>
<feGaussianBlur stdDeviation="4.5"/>
<feComposite in2="hardAlpha" operator="out"/>
<feColorMatrix type="matrix" values="0 0 0 0 0 0 0 0 0 0 0 0 0 0 0 0 0 0 0.21 0"/>
<feBlend mode="normal" in2="BackgroundImageFix" result="effect1_dropShadow_321_842"/>
<feBlend mode="normal" in="SourceGraphic" in2="effect1_dropShadow_321_842" result="shape"/>
</filter>
<filter id="filter1_d_321_842" x="146.986" y="134.725" width="149.772" height="149.772" filterUnits="userSpaceOnUse" color-interpolation-filters="sRGB">
<feFlood flood-opacity="0" result="BackgroundImageFix"/>
<feColorMatrix in="SourceAlpha" type="matrix" values="0 0 0 0 0 0 0 0 0 0 0 0 0 0 0 0 0 0 127 0" result="hardAlpha"/>
<feOffset/>
<feGaussianBlur stdDeviation="5"/>
<feComposite in2="hardAlpha" operator="out"/>
<feColorMatrix type="matrix" values="0 0 0 0 0 0 0 0 0 0 0 0 0 0 0 0 0 0 0.2 0"/>
<feBlend mode="normal" in2="BackgroundImageFix" result="effect1_dropShadow_321_842"/>
<feBlend mode="normal" in="SourceGraphic" in2="effect1_dropShadow_321_842" result="shape"/>
</filter>
</defs>
</svg>
