<svg width="169" height="135" viewBox="0 0 169 135" fill="none" xmlns="http://www.w3.org/2000/svg">
<g clip-path="url(#clip0_324_1254)">
<path d="M59.0098 46.4062C59.0098 53.3936 53.3408 59.0625 46.3535 59.0625C39.3662 59.0625 33.6973 53.3936 33.6973 46.4062C33.6973 39.4189 39.3662 33.75 46.3535 33.75C53.3408 33.75 59.0098 39.4189 59.0098 46.4062ZM25.3125 81.5537C25.3125 73.8018 31.6143 67.5 39.3662 67.5H57.665C60.0645 67.5 62.3584 68.1064 64.3359 69.1875C55.793 72.3252 49.2539 79.6025 47.1445 88.5938H32.3525C28.4502 88.5938 25.3125 85.4561 25.3125 81.5537ZM104.177 69.1875C106.392 68.1064 108.686 67.5 111.085 67.5H129.384C137.136 67.5 143.438 73.8018 143.438 81.5537C143.438 85.4561 140.3 88.5938 136.397 88.5938H121.605C119.496 79.6025 112.957 72.3252 104.177 69.1875ZM98.0859 75.9639C104.941 77.3613 110.558 82.1865 112.825 88.5938C113.537 90.5713 113.906 92.707 113.906 94.9219C113.906 98.4287 111.085 101.25 107.578 101.25H61.1719C57.665 101.25 54.8438 98.4287 54.8438 94.9219C54.8438 92.707 55.2129 90.5713 55.9248 88.5938C58.1924 82.1865 63.5713 77.3613 70.4268 75.9639C71.6924 76.0166 72.7471 75.9375 73.8281 75.9375H94.9219C96.0029 75.9375 97.0576 76.0166 98.0859 75.9639ZM135 46.4062C135 53.3936 129.331 59.0625 122.344 59.0625C115.356 59.0625 109.688 53.3936 109.688 46.4062C109.688 39.4189 115.356 33.75 122.344 33.75C129.331 33.75 135 39.4189 135 46.4062ZM67.5 50.625C67.5 41.3174 75.0674 33.75 84.375 33.75C93.6826 33.75 101.25 41.3174 101.25 50.625C101.25 59.9326 93.6826 67.5 84.375 67.5C75.0674 67.5 67.5 59.9326 67.5 50.625ZM143.438 0C157.412 0 168.75 11.3326 168.75 25.3125V109.688C168.75 123.662 157.412 135 143.438 135H25.3125C11.3326 135 0 123.662 0 109.688V25.3125C0 11.3326 11.3326 0 25.3125 0H143.438ZM16.875 109.688C16.875 114.354 20.6534 118.125 25.3125 118.125H143.438C148.104 118.125 151.875 114.354 151.875 109.688V25.3125C151.875 20.6534 148.104 16.875 143.438 16.875H25.3125C20.6534 16.875 16.875 20.6534 16.875 25.3125V109.688Z" fill="#3466BB"/>
</g>
<defs>
<clipPath id="clip0_324_1254">
<rect width="168.75" height="135" fill="white"/>
</clipPath>
</defs>
</svg>
