<svg width="1440" height="1715" viewBox="0 0 1440 1715" fill="none" xmlns="http://www.w3.org/2000/svg">
<rect x="1440" y="1715" width="1440" height="1715" transform="rotate(-180 1440 1715)" fill="white"/>
<mask id="mask0_981_13174" style="mask-type:alpha" maskUnits="userSpaceOnUse" x="0" y="0" width="1440" height="1715">
<rect x="1440" y="1715" width="1440" height="1715" transform="rotate(-180 1440 1715)" fill="white"/>
</mask>
<g mask="url(#mask0_981_13174)">
<g opacity="0.9" filter="url(#filter0_f_981_13174)">
<path d="M332.061 882.468C154.184 670.621 154.599 326.657 332.987 114.201C511.375 -98.2546 800.185 -98.7484 978.062 113.098C1155.94 324.944 1155.52 668.909 977.136 881.365C798.748 1093.82 509.938 1094.31 332.061 882.468Z" fill="url(#paint0_diamond_981_13174)" fill-opacity="0.2"/>
</g>
<g opacity="0.9" filter="url(#filter1_f_981_13174)">
<path d="M479.558 628.905C347.07 471.115 337.071 227.195 457.226 84.0941C577.381 -59.0067 782.188 -47.0989 914.676 110.691C1047.16 268.481 1057.16 512.401 937.008 655.501C816.854 798.602 612.046 786.694 479.558 628.905Z" fill="url(#paint1_diamond_981_13174)" fill-opacity="0.2"/>
</g>
<g opacity="0.9" filter="url(#filter2_f_981_13174)">
<path d="M708.258 1949.52C449.463 1641.31 449.463 1141.59 708.258 833.368C967.053 525.15 1386.64 525.15 1645.44 833.368C1904.23 1141.59 1904.23 1641.31 1645.44 1949.52C1386.64 2257.74 967.053 2257.74 708.258 1949.52Z" fill="url(#paint2_diamond_981_13174)" fill-opacity="0.2"/>
</g>
<g opacity="0.9" filter="url(#filter3_f_981_13174)">
<circle r="681.448" transform="matrix(-0.643035 0.765837 -0.643035 -0.765837 413.034 301.52)" fill="url(#paint3_diamond_981_13174)" fill-opacity="0.2"/>
</g>
<g opacity="0.9" filter="url(#filter4_f_981_13174)">
<path d="M701.605 1188.98C410.635 842.447 410.635 280.6 701.605 -65.9373C992.574 -412.474 1464.33 -412.474 1755.3 -65.9373C2046.27 280.6 2046.27 842.447 1755.3 1188.98C1464.33 1535.52 992.574 1535.52 701.605 1188.98Z" fill="url(#paint4_diamond_981_13174)" fill-opacity="0.2"/>
</g>
<g opacity="0.9" filter="url(#filter5_f_981_13174)">
<ellipse rx="744.473" ry="748.411" transform="matrix(-0.643035 0.765837 -0.643035 -0.765837 286.912 1552.53)" fill="url(#paint5_diamond_981_13174)" fill-opacity="0.2"/>
</g>
</g>
<defs>
<filter id="filter0_f_981_13174" x="69.1325" y="-175.256" width="1171.86" height="1346.08" filterUnits="userSpaceOnUse" color-interpolation-filters="sRGB">
<feFlood flood-opacity="0" result="BackgroundImageFix"/>
<feBlend mode="normal" in="SourceGraphic" in2="BackgroundImageFix" result="shape"/>
<feGaussianBlur stdDeviation="64.8956" result="effect1_foregroundBlur_981_13174"/>
</filter>
<filter id="filter1_f_981_13174" x="243.472" y="-145.694" width="907.29" height="1030.98" filterUnits="userSpaceOnUse" color-interpolation-filters="sRGB">
<feFlood flood-opacity="0" result="BackgroundImageFix"/>
<feBlend mode="normal" in="SourceGraphic" in2="BackgroundImageFix" result="shape"/>
<feGaussianBlur stdDeviation="64.8956" result="effect1_foregroundBlur_981_13174"/>
</filter>
<filter id="filter2_f_981_13174" x="309.916" y="397.958" width="1733.86" height="1986.97" filterUnits="userSpaceOnUse" color-interpolation-filters="sRGB">
<feFlood flood-opacity="0" result="BackgroundImageFix"/>
<feBlend mode="normal" in="SourceGraphic" in2="BackgroundImageFix" result="shape"/>
<feGaussianBlur stdDeviation="102.123" result="effect1_foregroundBlur_981_13174"/>
</filter>
<filter id="filter3_f_981_13174" x="-706.667" y="-936.527" width="2239.4" height="2476.1" filterUnits="userSpaceOnUse" color-interpolation-filters="sRGB">
<feFlood flood-opacity="0" result="BackgroundImageFix"/>
<feBlend mode="normal" in="SourceGraphic" in2="BackgroundImageFix" result="shape"/>
<feGaussianBlur stdDeviation="250" result="effect1_foregroundBlur_981_13174"/>
</filter>
<filter id="filter4_f_981_13174" x="-16.623" y="-825.84" width="2490.15" height="2774.73" filterUnits="userSpaceOnUse" color-interpolation-filters="sRGB">
<feFlood flood-opacity="0" result="BackgroundImageFix"/>
<feBlend mode="normal" in="SourceGraphic" in2="BackgroundImageFix" result="shape"/>
<feGaussianBlur stdDeviation="250" result="effect1_foregroundBlur_981_13174"/>
</filter>
<filter id="filter5_f_981_13174" x="-891.896" y="244.086" width="2357.62" height="2616.88" filterUnits="userSpaceOnUse" color-interpolation-filters="sRGB">
<feFlood flood-opacity="0" result="BackgroundImageFix"/>
<feBlend mode="normal" in="SourceGraphic" in2="BackgroundImageFix" result="shape"/>
<feGaussianBlur stdDeviation="250" result="effect1_foregroundBlur_981_13174"/>
</filter>
<radialGradient id="paint0_diamond_981_13174" cx="0" cy="0" r="1" gradientUnits="userSpaceOnUse" gradientTransform="translate(655.062 497.783) rotate(-130.019) scale(500.866 494.732)">
<stop stop-color="#FFAD32"/>
<stop offset="1" stop-color="#FFAD32" stop-opacity="0"/>
</radialGradient>
<radialGradient id="paint1_diamond_981_13174" cx="0" cy="0" r="1" gradientUnits="userSpaceOnUse" gradientTransform="translate(697.117 369.798) rotate(-130.019) scale(373.061 333.23)">
<stop stop-color="#FFAD32"/>
<stop offset="1" stop-color="#FFAD32" stop-opacity="0"/>
</radialGradient>
<radialGradient id="paint2_diamond_981_13174" cx="0" cy="0" r="1" gradientUnits="userSpaceOnUse" gradientTransform="translate(1176.85 1391.45) rotate(-130.019) scale(728.717 717.727)">
<stop stop-color="#F8C362"/>
<stop offset="1" stop-color="#F8C362" stop-opacity="0"/>
</radialGradient>
<radialGradient id="paint3_diamond_981_13174" cx="0" cy="0" r="1" gradientUnits="userSpaceOnUse" gradientTransform="translate(681.448 681.448) rotate(90) scale(681.448)">
<stop stop-color="#98CCC0"/>
<stop offset="1" stop-color="#98CCC0" stop-opacity="0"/>
</radialGradient>
<radialGradient id="paint4_diamond_981_13174" cx="0" cy="0" r="1" gradientUnits="userSpaceOnUse" gradientTransform="translate(1228.45 561.523) rotate(-130.019) scale(819.314 806.958)">
<stop stop-color="#F1949E"/>
<stop offset="1" stop-color="#F1949E" stop-opacity="0"/>
</radialGradient>
<radialGradient id="paint5_diamond_981_13174" cx="0" cy="0" r="1" gradientUnits="userSpaceOnUse" gradientTransform="translate(744.473 748.411) rotate(90) scale(748.411 744.473)">
<stop stop-color="#6CB8F8"/>
<stop offset="1" stop-color="#6CB8F8" stop-opacity="0"/>
</radialGradient>
</defs>
</svg>
