<svg width="400" height="400" viewBox="0 0 400 400" fill="none" xmlns="http://www.w3.org/2000/svg">
<path fill-rule="evenodd" clip-rule="evenodd" d="M232.115 85.3516H348.788C350.568 85.3516 352.116 86.5719 352.531 88.3025L371.705 168.26C372.286 170.679 370.451 173.005 367.963 173.005H326.231H320.538L320.779 172.791C319.582 165.522 315.576 160.213 313.723 158.467C312.832 157.684 310.388 156.458 307.736 157.826C305.58 158.939 303.89 166.962 302.99 173.005H251.29C249.51 173.005 247.962 171.785 247.547 170.054L228.373 90.0971C227.792 87.6774 229.627 85.3516 232.115 85.3516Z" fill="#B075DE"/>
<path d="M151.986 211.751H93.6593C89.8468 211.751 88.3475 216.766 91.5176 218.915L92.1588 219.349C92.7928 219.779 93.5381 220.008 94.3005 220.008H129.153H138.324H152.627C156.44 220.008 157.939 214.993 154.769 212.845L154.128 212.41C153.494 211.98 152.749 211.751 151.986 211.751Z" fill="#B075DE"/>
<path d="M145.774 233.981H101.924C98.3507 233.981 96.6934 238.472 99.3907 240.845L99.8847 241.28C100.587 241.898 101.487 242.239 102.418 242.239H128.726H135.791H146.268C149.841 242.239 151.498 237.748 148.801 235.375L148.307 234.94C147.604 234.322 146.705 233.981 145.774 233.981Z" fill="#B075DE"/>
<path fill-rule="evenodd" clip-rule="evenodd" d="M111.76 157.547L113.016 158.7C115.408 160.895 117.847 161.256 119.946 160.869C122.102 160.47 123.938 159.267 124.945 158.295L125.675 157.589L126.418 158.281C127.226 159.033 128.233 159.207 129.28 159.06C130.346 158.91 131.342 158.435 131.908 158.054L132.322 157.775L132.802 157.914C133.365 158.076 133.815 158.476 134.137 158.832C134.481 159.21 134.797 159.668 135.072 160.123C135.257 160.43 135.432 160.75 135.593 161.065C135.659 161.005 135.726 160.946 135.793 160.889C136.433 160.346 137.252 159.841 138.14 159.563C139.03 159.285 140.075 159.211 141.064 159.672C142.069 160.139 142.825 161.068 143.298 162.408C144.142 164.798 142.998 167.016 141.599 168.635C140.36 170.069 138.755 171.239 137.487 171.982C137.445 172.335 137.368 172.708 137.273 173.083C137.108 173.732 136.868 174.457 136.577 175.21C135.995 176.716 135.189 178.389 134.312 179.867C131.98 183.801 126.442 186.867 120.787 186.138C117.7 185.74 114.989 184.148 112.935 182.253C111.182 180.636 109.834 178.733 109.116 177.02C106.869 177.175 104.377 176.708 102.584 175.571C101.553 174.918 100.685 173.996 100.308 172.777C99.9266 171.542 100.1 170.169 100.835 168.73C101.417 167.591 102.144 166.778 102.99 166.271C103.842 165.762 104.741 165.607 105.587 165.668C106.209 165.713 106.806 165.874 107.353 166.099C107.34 165.849 107.338 165.585 107.351 165.31L107.392 164.417L108.278 164.298C108.389 164.283 108.64 164.174 109.008 163.761C109.357 163.37 109.704 162.824 110.027 162.208C110.671 160.979 111.127 159.646 111.267 159.179L111.76 157.547ZM112.797 161.272C112.565 161.862 112.27 162.541 111.924 163.201C111.561 163.893 111.12 164.609 110.607 165.185C110.305 165.524 109.931 165.867 109.488 166.109C109.513 166.63 109.603 166.96 109.694 167.298C109.76 167.545 109.828 167.797 109.873 168.13L110.264 171.04L108.092 169.064C107.448 168.478 106.42 167.875 105.432 167.803C104.964 167.769 104.515 167.854 104.09 168.108C103.66 168.365 103.183 168.84 102.742 169.704C102.198 170.767 102.173 171.559 102.353 172.144C102.539 172.745 102.995 173.297 103.73 173.763C105.233 174.716 107.611 175.112 109.679 174.809L110.587 174.676L110.857 175.554C111.307 177.019 112.55 178.986 114.386 180.679C116.213 182.364 118.529 183.689 121.06 184.015C125.862 184.634 130.572 181.979 132.471 178.776C133.287 177.4 134.041 175.835 134.58 174.439C134.85 173.741 135.06 173.1 135.198 172.556C135.341 171.994 135.389 171.603 135.38 171.38L135.352 170.707L135.947 170.391C137.111 169.772 138.778 168.625 139.98 167.235C141.204 165.819 141.735 164.413 141.279 163.121C140.94 162.161 140.506 161.773 140.161 161.612C139.801 161.445 139.339 161.432 138.779 161.606C138.219 161.781 137.648 162.122 137.177 162.522C136.687 162.938 136.415 163.322 136.337 163.515L135.326 166.034L134.346 163.502C134.119 162.915 133.71 162.01 133.239 161.23C133.003 160.839 132.769 160.509 132.553 160.271C132.53 160.246 132.508 160.223 132.487 160.201C131.719 160.619 130.693 161.023 129.578 161.18C128.368 161.35 126.981 161.233 125.736 160.447C124.445 161.49 122.546 162.565 120.335 162.974C118.003 163.405 115.355 163.084 112.797 161.272Z" fill="#643131"/>
<path fill-rule="evenodd" clip-rule="evenodd" d="M117.459 144.96C116.835 146.004 116.592 147.397 116.581 148.369L116.556 150.5L114.861 149.207C114.59 149.001 112.821 148.256 109.584 149.564C108.943 149.823 108.563 150.2 108.329 150.627C108.084 151.074 107.964 151.638 107.964 152.294C107.964 153.628 108.458 155.098 108.931 156.04L109.592 157.357L108.135 157.579C107.244 157.714 105.943 158.114 104.952 158.826C103.993 159.514 103.431 160.397 103.595 161.612C103.77 162.913 104.521 163.697 105.481 164.185C106.479 164.693 107.65 164.843 108.402 164.816L108.477 166.956C107.454 166.992 105.904 166.803 104.51 166.093C103.076 165.363 101.763 164.05 101.473 161.897C101.172 159.657 102.327 158.076 103.703 157.087C104.579 156.458 105.585 156.031 106.489 155.763C106.12 154.745 105.823 153.513 105.823 152.295C105.823 151.397 105.984 150.449 106.452 149.597C106.93 148.726 107.696 148.018 108.782 147.579C111.227 146.591 113.211 146.525 114.58 146.831C114.742 145.867 115.062 144.799 115.621 143.862C116.069 143.112 116.694 142.41 117.55 141.942C118.419 141.468 119.453 141.274 120.639 141.435C123.187 141.779 124.846 142.466 125.87 143.755C126.837 144.972 127.076 146.562 127.312 148.135L127.32 148.19L127.515 149.635C128.01 149.546 128.627 149.466 129.294 149.452C130.863 149.419 133.07 149.752 134.308 151.674C134.968 152.699 135.151 154.038 135.202 154.984C135.229 155.481 135.222 155.922 135.208 156.24C135.207 156.246 135.207 156.252 135.207 156.258C135.221 156.274 135.235 156.29 135.249 156.307C135.478 156.581 135.768 156.991 135.97 157.515C136.176 158.046 136.295 158.704 136.158 159.44C136.021 160.178 135.641 160.913 134.978 161.619L133.418 160.154C133.848 159.696 134.003 159.321 134.054 159.049C134.105 158.774 134.065 158.522 133.974 158.287C133.88 158.046 133.737 157.836 133.608 157.681C133.545 157.606 133.49 157.55 133.454 157.515C133.436 157.498 133.423 157.486 133.417 157.481C133.417 157.48 133.416 157.479 133.415 157.479L132.981 157.117L133.042 156.549L133.042 156.548L133.042 156.548L133.042 156.547L133.042 156.546C133.042 156.543 133.043 156.537 133.044 156.529C133.045 156.513 133.048 156.487 133.05 156.452C133.056 156.382 133.063 156.277 133.069 156.144C133.081 155.879 133.087 155.51 133.065 155.1C133.018 154.232 132.852 153.367 132.508 152.833C131.899 151.887 130.707 151.564 129.339 151.592C128.688 151.606 128.079 151.7 127.628 151.792C127.404 151.838 127.224 151.883 127.102 151.916C127.041 151.932 126.995 151.945 126.966 151.953C126.952 151.957 126.941 151.961 126.935 151.962L126.932 151.963L126.931 151.964L126.93 151.964L125.719 152.345L125.201 148.492C124.941 146.763 124.747 145.783 124.194 145.087C123.688 144.45 122.714 143.875 120.352 143.556C119.575 143.451 119.007 143.585 118.576 143.821C118.134 144.062 117.763 144.451 117.459 144.96Z" fill="#643131"/>
<path fill-rule="evenodd" clip-rule="evenodd" d="M117.502 186.048C117.308 185.707 117.111 185.361 116.929 185.003L118.838 184.034C118.945 184.245 119.088 184.487 119.248 184.758C120.168 186.318 121.662 188.853 120.247 192.073L118.287 191.211C119.226 189.076 118.392 187.612 117.502 186.048Z" fill="#643131"/>
<path fill-rule="evenodd" clip-rule="evenodd" d="M130.857 190.55C129.024 187.753 129.342 184.3 129.51 182.7L131.639 182.924C131.466 184.569 131.278 187.288 132.647 189.376L130.857 190.55Z" fill="#643131"/>
<path fill-rule="evenodd" clip-rule="evenodd" d="M118.501 192.089C118.501 192.089 118.501 192.089 119.1 191.202C119.699 190.314 119.699 190.314 119.698 190.314L119.699 190.315L119.706 190.319C119.712 190.323 119.723 190.33 119.737 190.34C119.766 190.359 119.81 190.387 119.868 190.424C119.985 190.499 120.158 190.606 120.375 190.733C120.811 190.99 121.42 191.324 122.113 191.641C123.566 192.304 125.136 192.766 126.266 192.55C127.218 192.368 128.369 191.61 129.375 190.763C129.856 190.357 130.265 189.965 130.555 189.673C130.699 189.527 130.812 189.408 130.888 189.327C130.926 189.286 130.955 189.255 130.973 189.234C130.983 189.224 130.989 189.217 130.993 189.212L130.998 189.207C130.998 189.207 130.998 189.207 131.798 189.918C132.599 190.628 132.599 190.628 132.599 190.628L132.597 190.63L132.595 190.633L132.587 190.642C132.58 190.65 132.57 190.66 132.558 190.674C132.534 190.701 132.499 190.739 132.454 190.787C132.365 190.882 132.236 191.017 132.075 191.18C131.753 191.505 131.296 191.943 130.754 192.4C129.716 193.275 128.202 194.359 126.668 194.652C124.826 195.004 122.712 194.267 121.225 193.588C120.447 193.234 119.772 192.862 119.291 192.579C119.05 192.438 118.856 192.317 118.72 192.231C118.653 192.188 118.6 192.154 118.563 192.13C118.544 192.118 118.53 192.108 118.519 192.101L118.507 192.093L118.503 192.09L118.501 192.089Z" fill="#643131"/>
<path d="M115.937 167.686C116.022 168.318 115.695 168.884 115.207 168.95C114.718 169.015 114.254 168.556 114.169 167.924C114.084 167.292 114.411 166.726 114.899 166.66C115.388 166.595 115.852 167.054 115.937 167.686Z" fill="#643131"/>
<path d="M129.683 166.379C129.53 166.998 129.019 167.404 128.54 167.286C128.062 167.168 127.797 166.571 127.95 165.951C128.103 165.332 128.614 164.926 129.093 165.044C129.572 165.162 129.836 165.759 129.683 166.379Z" fill="#643131"/>
<path fill-rule="evenodd" clip-rule="evenodd" d="M114.636 168.022C114.981 167.898 115.277 167.639 115.421 167.456L117.102 168.782C116.764 169.211 116.155 169.752 115.356 170.037C114.507 170.341 113.458 170.344 112.423 169.662L113.601 167.874C114.007 168.142 114.341 168.127 114.636 168.022Z" fill="#643131"/>
<path fill-rule="evenodd" clip-rule="evenodd" d="M129.342 166.308C129.687 166.185 129.983 165.926 130.127 165.743L131.808 167.068C131.47 167.498 130.861 168.038 130.062 168.324C129.213 168.628 128.164 168.631 127.129 167.948L128.307 166.161C128.713 166.429 129.047 166.414 129.342 166.308Z" fill="#643131"/>
<path fill-rule="evenodd" clip-rule="evenodd" d="M118.905 172.64C118.682 171.864 118.733 170.982 118.822 170.428L120.935 170.768C120.871 171.17 120.862 171.7 120.963 172.05C120.978 172.106 120.994 172.146 121.007 172.173C121.674 172.081 122.286 171.81 122.734 171.529C122.959 171.387 123.121 171.257 123.214 171.168C123.253 171.13 123.269 171.111 123.269 171.111C123.269 171.111 123.268 171.112 123.266 171.114C123.262 171.12 123.241 171.15 123.216 171.201C123.197 171.242 123.142 171.363 123.131 171.538L125.267 171.674C125.244 172.034 125.054 172.296 124.999 172.372L124.999 172.372C124.908 172.498 124.8 172.613 124.694 172.714C124.479 172.92 124.198 173.137 123.873 173.341C123.226 173.748 122.32 174.157 121.277 174.297C120.671 174.379 120.098 174.236 119.646 173.854C119.23 173.503 119.017 173.034 118.905 172.64Z" fill="#643131"/>
<path fill-rule="evenodd" clip-rule="evenodd" d="M120.585 179.716C119.628 179.615 118.705 179.41 118.078 179.093L119.045 177.183C119.327 177.326 119.947 177.496 120.81 177.588C121.644 177.676 122.605 177.68 123.515 177.557C124.057 177.484 124.89 177.257 125.636 176.96C126.005 176.813 126.321 176.662 126.552 176.523C126.745 176.407 126.806 176.342 126.808 176.343C126.809 176.344 126.799 176.357 126.784 176.384L128.652 177.429C128.41 177.862 127.975 178.165 127.657 178.356C127.293 178.575 126.862 178.776 126.427 178.949C125.564 179.292 124.559 179.577 123.8 179.679C122.702 179.827 121.569 179.821 120.585 179.716Z" fill="#643131"/>
<path fill-rule="evenodd" clip-rule="evenodd" d="M220.145 85.0909C219.402 81.9852 221.752 79 224.94 79H341.935C344.216 79 346.199 80.5663 346.731 82.7875L365.958 163.103C366.701 166.209 364.351 169.194 361.162 169.194H319.316V167.047H361.162C362.965 167.047 364.293 165.359 363.873 163.604L344.646 83.2883C344.345 82.0328 343.224 81.1475 341.935 81.1475H224.94C223.138 81.1475 221.81 82.8348 222.23 84.5902L241.457 164.906C241.758 166.161 242.879 167.047 244.168 167.047H303.45V169.194H244.168C241.887 169.194 239.904 167.628 239.372 165.407L220.145 85.0909Z" fill="#643131"/>
<path fill-rule="evenodd" clip-rule="evenodd" d="M276.537 205.399H213.655V203.493H276.537V205.399Z" fill="#643131"/>
<path fill-rule="evenodd" clip-rule="evenodd" d="M279.078 213.021H216.831V211.115H279.078V213.021Z" fill="#643131"/>
<path fill-rule="evenodd" clip-rule="evenodd" d="M281.619 220.643H219.372V218.103H281.619V220.643Z" fill="#643131"/>
<path fill-rule="evenodd" clip-rule="evenodd" d="M284.795 228.265H222.548V225.724H284.795V228.265Z" fill="#643131"/>
<path fill-rule="evenodd" clip-rule="evenodd" d="M287.336 235.252H225.089V233.346H287.336V235.252Z" fill="#643131"/>
<path fill-rule="evenodd" clip-rule="evenodd" d="M120.285 192.461C141.015 192.461 156.896 179.316 156.896 164.113C156.896 148.909 141.015 135.764 120.285 135.764C99.556 135.764 83.6748 148.909 83.6748 164.113C83.6748 179.316 99.556 192.461 120.285 192.461ZM120.285 194.601C141.684 194.601 159.031 180.951 159.031 164.113C159.031 147.275 141.684 133.625 120.285 133.625C98.887 133.625 81.54 147.275 81.54 164.113C81.54 180.951 98.887 194.601 120.285 194.601Z" fill="#643131"/>
<path fill-rule="evenodd" clip-rule="evenodd" d="M185.711 207.927L190.162 220.708L79.9343 222.683L76.9965 208.75L185.711 207.927ZM79.6315 210.871L81.6641 220.511L187.168 218.621L184.193 210.079L79.6315 210.871Z" fill="#643131"/>
<path fill-rule="evenodd" clip-rule="evenodd" d="M191.89 230.803L196.342 243.585L86.114 245.56L83.1762 231.627L191.89 230.803ZM85.8112 233.748L87.8438 243.388L193.348 241.497L190.373 232.955L85.8112 233.748Z" fill="#643131"/>
<path fill-rule="evenodd" clip-rule="evenodd" d="M162.45 220.387L159.156 209.958L161.197 209.313L164.491 219.742L162.45 220.387Z" fill="#643131"/>
<path fill-rule="evenodd" clip-rule="evenodd" d="M151.093 242.497L147.798 232.068L149.839 231.423L153.134 241.852L151.093 242.497Z" fill="#643131"/>
<path fill-rule="evenodd" clip-rule="evenodd" d="M103.771 271.457H119.525L126.002 296.864H110.018L103.771 271.457ZM106.474 273.565L111.683 294.755H123.276L117.874 273.565H106.474Z" fill="#643131"/>
<path fill-rule="evenodd" clip-rule="evenodd" d="M268.28 270.822H284.034L290.511 296.864H274.526L268.28 270.822ZM270.982 272.983L276.192 294.703H287.785L282.383 272.983H270.982Z" fill="#643131"/>
<path fill-rule="evenodd" clip-rule="evenodd" d="M122.19 254.942H138.13L148.868 296.863H132.702L122.19 254.942ZM124.935 257.07L134.379 294.735H146.109L136.461 257.07H124.935Z" fill="#643131"/>
<path fill-rule="evenodd" clip-rule="evenodd" d="M148.867 270.822H165.071L171.733 296.864H155.292L148.867 270.822ZM151.647 272.983L157.005 294.703H168.929L163.373 272.983H151.647Z" fill="#643131"/>
<path fill-rule="evenodd" clip-rule="evenodd" d="M245.413 270.822H261.167L267.644 296.864H251.659L245.413 270.822ZM248.115 272.983L253.325 294.703H264.918L259.516 272.983H248.115Z" fill="#643131"/>
<path fill-rule="evenodd" clip-rule="evenodd" d="M199.047 270.822H214.8L221.278 296.864H205.293L199.047 270.822ZM201.749 272.983L206.958 294.703H218.552L213.149 272.983H201.749Z" fill="#643131"/>
<path fill-rule="evenodd" clip-rule="evenodd" d="M175.545 283.525H191.41L195.235 296.864H179.115L175.545 283.525ZM178.338 285.694L180.748 294.695H192.389L189.808 285.694H178.338Z" fill="#643131"/>
<path fill-rule="evenodd" clip-rule="evenodd" d="M225.089 283.525H240.954L244.779 296.864H228.659L225.089 283.525ZM227.882 285.694L230.292 294.695H241.933L239.352 285.694H227.882Z" fill="#643131"/>
<path fill-rule="evenodd" clip-rule="evenodd" d="M300.039 296.864H100.596V294.958H300.039V296.864Z" fill="#643131"/>
<path fill-rule="evenodd" clip-rule="evenodd" d="M242.237 102.455L244.291 101.866L258.816 151.808L344.473 150.757L344.5 152.879L257.214 153.95L242.237 102.455Z" fill="#643131"/>
<path fill-rule="evenodd" clip-rule="evenodd" d="M242.114 99.3257L249.224 108.701L247.466 109.918L243.718 104.977L243.128 110.759L240.967 110.557L242.114 99.3257Z" fill="#643131"/>
<path fill-rule="evenodd" clip-rule="evenodd" d="M347.295 152.092L336.137 156.359L335.373 154.36L341.253 152.111L335.642 150.005L336.394 148.001L347.295 152.092Z" fill="#643131"/>
<path fill-rule="evenodd" clip-rule="evenodd" d="M316.718 123.462L338.784 128.063L338.35 130.157L317.347 125.777L302.336 139.445L274.708 134.862L259.748 152.68L258.117 151.302L273.859 132.554L301.666 137.166L316.718 123.462Z" fill="#643131"/>
<path fill-rule="evenodd" clip-rule="evenodd" d="M314.659 160.598C312.959 158.172 311.33 157.19 309.792 157.388C308.302 157.58 306.909 159.098 305.778 162.31C304.682 165.421 303.992 169.686 303.608 174.464C302.842 184.001 303.313 195.298 303.987 202.792L304.256 205.789L302.158 203.636C299.316 200.719 294.763 196.845 290.344 194.647C288.129 193.545 286.047 192.914 284.282 192.956C282.583 192.996 281.155 193.652 280.083 195.244C279.081 196.733 279.05 198.886 280 201.673C280.94 204.432 282.765 207.574 285.075 210.794C289.687 217.225 296.067 223.746 300.539 227.782L300.892 228.101V228.577C300.892 230.449 301.249 233.675 302.339 237.137C303.428 240.6 305.225 244.222 308.049 246.969C309.688 248.565 312.491 249.673 316.04 250.295C319.555 250.912 323.651 251.027 327.714 250.763C331.774 250.5 335.763 249.86 339.057 248.99C342.405 248.106 344.864 247.026 346.023 245.979C347.118 244.99 348.025 242.913 348.704 239.891C349.368 236.93 349.768 233.285 350.014 229.406C350.321 224.554 350.384 219.478 350.439 214.979C350.473 212.228 350.504 209.693 350.587 207.556C350.796 202.17 349.984 197.987 348.792 194.989C347.597 191.984 346.062 190.265 344.878 189.613C344.805 189.825 344.73 190.202 344.705 190.785C344.64 192.289 344.925 194.357 345.222 195.825L343.145 196.327C342.679 194.669 341.769 192.092 340.568 189.79C339.968 188.639 339.311 187.587 338.62 186.759C337.919 185.92 337.247 185.387 336.639 185.158C336.501 185.107 336.407 185.09 336.348 185.086C336.293 185.082 336.271 185.089 336.269 185.09L336.269 185.09C336.267 185.09 336.261 185.092 336.246 185.105C336.228 185.121 336.194 185.158 336.151 185.231C335.946 185.579 335.793 186.304 335.785 187.416C335.782 187.711 335.79 188.018 335.806 188.335C336.276 190.643 336.604 192.843 336.793 194.526L334.694 194.903C334.269 193.185 333.808 190.768 333.681 188.612C333.36 187.054 332.974 185.455 332.522 183.951C331.964 182.09 331.32 180.422 330.602 179.166C329.858 177.865 329.155 177.221 328.581 177.045C328.39 176.987 328.298 177.018 328.199 177.086C328.047 177.189 327.83 177.436 327.596 177.936C327.13 178.934 326.793 180.525 326.583 182.483C326.167 186.36 326.291 191.244 326.538 194.566L324.412 194.781C323.579 188.201 321.795 178.416 319.159 170.441C317.838 166.444 316.327 162.977 314.659 160.598ZM334.666 183.662C334.911 183.4 335.219 183.182 335.603 183.056C336.195 182.861 336.811 182.937 337.389 183.154C338.49 183.568 339.448 184.413 340.26 185.386C341.082 186.372 341.821 187.567 342.463 188.798C342.556 188.977 342.648 189.157 342.737 189.338C342.831 188.937 342.973 188.557 343.187 188.241C343.441 187.866 343.837 187.525 344.398 187.424C344.93 187.328 345.433 187.482 345.854 187.708C347.658 188.676 349.472 190.914 350.778 194.196C352.097 197.513 352.941 202.001 352.723 207.639C352.645 209.656 352.613 212.14 352.579 214.867C352.522 219.428 352.456 224.67 352.147 229.541C351.899 233.463 351.49 237.237 350.789 240.36C350.102 243.423 349.085 246.096 347.455 247.569C345.888 248.984 342.991 250.165 339.602 251.06C336.16 251.969 332.034 252.628 327.852 252.899C323.673 253.171 319.399 253.058 315.671 252.404C311.976 251.756 308.66 250.549 306.559 248.505C303.399 245.429 301.455 241.451 300.3 237.78C299.23 234.378 298.816 231.172 298.761 229.058C294.241 224.94 287.95 218.473 283.339 212.043C280.977 208.751 279.015 205.411 277.977 202.365C276.949 199.347 276.748 196.369 278.311 194.048C279.804 191.829 281.903 190.87 284.232 190.816C286.495 190.763 288.941 191.558 291.295 192.729C295.025 194.585 298.773 197.511 301.626 200.14C301.082 192.735 300.791 182.843 301.478 174.292C301.867 169.451 302.574 164.969 303.762 161.598C304.914 158.328 306.691 155.629 309.519 155.265C312.298 154.906 314.595 156.781 316.409 159.368C318.255 162.001 319.844 165.701 321.188 169.768C322.488 173.701 323.581 178.046 324.459 182.239C324.675 180.235 325.04 178.359 325.66 177.029C325.971 176.363 326.393 175.729 326.992 175.319C327.642 174.873 328.41 174.756 329.203 174.997C330.595 175.422 331.65 176.692 332.457 178.102C333.29 179.559 333.989 181.402 334.569 183.334C334.602 183.443 334.634 183.552 334.666 183.662Z" fill="#643131"/>
<path fill-rule="evenodd" clip-rule="evenodd" d="M51.4136 113.321L228.226 111.394L228.249 113.535L51.3988 115.463L51.3797 115.462C50.5954 115.443 49.7379 115.469 48.8315 115.55C45.2171 116.689 37.8649 122.205 39.0922 135.712C39.4054 139.159 41.1712 147.848 43.867 159.78C46.5544 171.675 50.1452 186.707 54.0783 202.776C61.9436 234.91 71.1737 271.176 77.2743 294.768C78.4693 299.149 84.8936 308.464 101.271 308.214C118.146 307.957 266.704 308.107 338.943 308.214C342.717 307.615 350.714 304.155 353.122 295.032L342.264 249.028L344.348 248.536L355.298 294.935L355.294 295.077C355.07 301.966 351.975 308.408 347.8 313.122C343.65 317.807 338.27 320.957 333.351 320.957C331.985 320.957 325.839 320.939 316.335 320.912C263.041 320.759 104.161 320.303 90.5273 320.956C82.2391 321.353 76.5083 319.026 72.7264 315.856C68.9879 312.723 67.2145 308.814 66.7352 306.078C55.3941 260.052 31.8813 162.54 28.6187 140.894C27.113 130.905 29.687 124.196 33.9567 119.889C38.1802 115.629 43.9191 113.864 48.5224 113.428C49.5432 113.332 50.516 113.299 51.4136 113.321ZM351.504 302.984C347.635 307.826 342.202 309.889 339.184 310.344L339.104 310.356L339.023 310.356C266.797 310.249 118.161 310.099 101.303 310.356C83.9495 310.62 76.6565 300.655 75.2068 295.324L75.2051 295.317L75.2034 295.311C69.1013 271.714 59.8679 235.434 51.999 203.285C48.0646 187.211 44.4703 172.166 41.7789 160.252C39.0959 148.377 37.2892 139.526 36.9602 135.906C36.0926 126.358 39.2482 120.3 42.8126 116.863C40.1898 117.797 37.6028 119.253 35.4767 121.397C31.7645 125.142 29.3123 131.132 30.7355 140.575C33.9801 162.1 57.4679 259.521 68.8228 305.602L68.832 305.639L68.8385 305.677C69.2256 307.936 70.75 311.405 74.1013 314.214C77.4268 317.002 82.6141 319.191 90.4249 318.817C104.129 318.16 263.37 318.618 316.501 318.771C325.919 318.798 332.003 318.815 333.351 318.815C337.423 318.815 342.266 316.14 346.198 311.701C348.396 309.219 350.259 306.239 351.504 302.984Z" fill="#643131"/>
<path fill-rule="evenodd" clip-rule="evenodd" d="M304.559 163.238C303.393 166.748 302.571 170.894 302.171 173.64L301.944 173.612C302.345 170.858 303.169 166.7 304.34 163.176C304.926 161.414 305.6 159.805 306.354 158.608C306.731 158.01 307.131 157.51 307.553 157.146C307.975 156.782 308.425 156.547 308.902 156.491L308.931 156.701C308.517 156.75 308.109 156.955 307.709 157.301C307.309 157.646 306.922 158.127 306.552 158.715C305.81 159.891 305.142 161.482 304.559 163.238Z" fill="#643131"/>
</svg>
