<svg width="161" height="160" viewBox="0 0 161 160" fill="none" xmlns="http://www.w3.org/2000/svg">
<circle cx="80.5" cy="80" r="80" fill="url(#paint0_radial_478_3018)"/>
<path d="M108.389 87.5625H109.389C110.811 87.5625 112 86.3787 112 84.875V73.8125C112 70.2772 109.189 67.4375 105.778 67.4375H98.5556C96.3074 67.4375 94.2011 68.7661 93.1241 70.734C93.1438 70.7516 93.1635 70.7698 93.1831 70.7887C93.1831 70.7887 93.1832 70.7887 93.1832 70.7887L101.321 78.6307L108.389 87.5625ZM108.389 87.5625V88.5625V103.312C108.389 104.816 107.2 106 105.778 106H98.5556C97.1335 106 95.9444 104.816 95.9444 103.312V92.6292L101.321 87.4517L101.321 87.4516M108.389 87.5625L101.321 87.4516M101.321 87.4516C102.502 86.3139 103.167 84.706 103.167 83.0428L101.321 87.4516ZM67.8188 70.7884L67.8183 70.789L59.6787 78.634C58.4979 79.7718 57.8333 81.3796 57.8333 83.0428C57.8333 84.645 58.366 86.2891 59.6949 87.4637L65.0556 92.6301V103.312C65.0556 104.816 63.8665 106 62.4444 106H55.2222C53.8001 106 52.6111 104.816 52.6111 103.312L52.6111 103.306L52.5095 88.5556L52.5027 87.5625H51.5095C50.2072 87.5625 49 86.3975 49 84.875V73.8125C49 70.2767 51.8055 67.4375 55.2222 67.4375H62.4444C64.7571 67.4375 66.7339 68.7474 67.8612 70.7488C67.8471 70.7617 67.8329 70.7749 67.8188 70.7884ZM89.3192 74.9129L89.3193 74.913L97.4499 82.7434C97.4505 82.744 97.4511 82.7446 97.4517 82.7452C97.5946 82.8877 97.5838 83.2026 97.4566 83.3245L97.4544 83.3266L89.3159 91.1706C89.2127 91.27 89.0681 91.2939 88.9445 91.2402C88.8177 91.1837 88.7222 91.0475 88.7222 90.8833V86.7188V85.7188H87.7222H73.2778H72.2778V86.7188V90.8787C72.2778 91.0476 72.1745 91.1837 72.0629 91.2316L72.0629 91.2316L72.0552 91.235C71.9322 91.289 71.7869 91.2657 71.6829 91.1655L63.5447 83.3218L63.5442 83.3214C63.4108 83.193 63.4103 82.8783 63.5446 82.7487L71.6807 74.913L71.7238 74.8715L71.7617 74.825C71.7733 74.8108 71.7821 74.8027 71.7871 74.7984C71.7921 74.7942 71.795 74.7925 71.7959 74.792C71.7963 74.7918 71.7999 74.7894 71.813 74.7877C71.8457 74.7834 71.9296 74.7862 72.0588 74.841C72.1833 74.8973 72.2778 75.0319 72.2778 75.1953V79.3438V80.3438H73.2778H87.7222H88.7222V79.3438V75.1953C88.7222 75.0394 88.8146 74.9024 88.948 74.843C89.0708 74.7895 89.2154 74.8129 89.3192 74.9129ZM108.389 55.375C108.389 58.9195 105.587 61.75 102.167 61.75C98.744 61.75 95.9444 58.9198 95.9444 55.375C95.9444 51.8305 98.746 49 102.167 49C105.587 49 108.389 51.8305 108.389 55.375ZM65.0556 55.375C65.0556 58.9195 62.254 61.75 58.8333 61.75C55.4137 61.75 52.6111 58.9194 52.6111 55.375C52.6111 51.8302 55.4107 49 58.8333 49C62.256 49 65.0556 51.8302 65.0556 55.375ZM103.167 83.0426C103.167 81.3756 102.499 79.7642 101.322 78.6315L103.167 83.0426Z" stroke="black" stroke-width="2"/>
<defs>
<radialGradient id="paint0_radial_478_3018" cx="0" cy="0" r="1" gradientUnits="userSpaceOnUse" gradientTransform="translate(80.5 80) rotate(90) scale(80)">
<stop stop-color="#B075DE" stop-opacity="0.6"/>
<stop offset="1" stop-color="white" stop-opacity="0"/>
</radialGradient>
</defs>
</svg>
