<svg width="161" height="160" viewBox="0 0 161 160" fill="none" xmlns="http://www.w3.org/2000/svg">
<circle cx="80.5" cy="80" r="80" fill="url(#paint0_radial_479_3115)"/>
<path d="M66.0295 103.023L65.9057 101.859L64.7752 102.163C64.2554 102.303 63.6986 102.375 63.125 102.375C59.5352 102.375 56.625 99.4599 56.625 95.875C56.625 95.1214 56.7545 94.3897 56.9891 93.7222L57.3131 92.8006L56.3993 92.4552C53.2426 91.262 51 88.2049 51 84.625C51 81.287 52.9572 78.3969 55.7913 77.0563L56.9282 76.5185L56.148 75.532C55.2774 74.4311 54.75 72.927 54.75 71.5C54.75 68.384 56.9413 65.7814 59.871 65.141L60.9113 64.9136L60.619 63.8896C60.4607 63.3349 60.375 62.7359 60.375 62.125C60.375 59.086 62.4666 56.5307 65.2798 55.8208L65.9554 55.6503L66.0295 54.9574C66.3272 52.1721 68.6911 50 71.5625 50C74.6317 50 77.125 52.4905 77.125 55.5625V102.438C77.125 105.506 74.6313 108 71.5625 108C68.6934 108 66.3277 105.826 66.0295 103.023ZM93.9705 54.9574L94.0446 55.6503L94.7202 55.8208C97.5334 56.5307 99.625 59.086 99.625 62.125C99.625 62.7405 99.5428 63.3374 99.3836 63.8847L99.0846 64.9123L100.13 65.141C103.058 65.7814 105.25 68.384 105.25 71.5C105.25 72.9291 104.727 74.431 103.851 75.5285L103.063 76.5166L104.206 77.0566C107.044 78.3971 109 81.287 109 84.625C109 88.2053 106.761 91.262 103.6 92.4551L102.688 92.7993L103.009 93.7197C103.243 94.3915 103.375 95.1241 103.375 95.875C103.375 99.4594 100.459 102.375 96.875 102.375C96.3014 102.375 95.7446 102.303 95.2248 102.163L94.0943 101.859L93.9705 103.023C93.6723 105.826 91.3066 108 88.4375 108C85.3687 108 82.875 105.506 82.875 102.438V55.5625C82.875 52.4905 85.3683 50 88.4375 50C91.3089 50 93.6728 52.1721 93.9705 54.9574Z" stroke="black" stroke-width="2"/>
<defs>
<radialGradient id="paint0_radial_479_3115" cx="0" cy="0" r="1" gradientUnits="userSpaceOnUse" gradientTransform="translate(80.5 80) rotate(90) scale(80)">
<stop stop-color="#B075DE" stop-opacity="0.6"/>
<stop offset="1" stop-color="white" stop-opacity="0"/>
</radialGradient>
</defs>
</svg>
