<svg width="507" height="437" viewBox="0 0 507 437" fill="none" xmlns="http://www.w3.org/2000/svg">
<g clip-path="url(#clip0_295_826)">
<path d="M210.896 379.646L216.434 361.597C209.771 354.258 201.419 348.658 192.103 345.282C201.205 360.374 192.385 380.061 196.061 397.3C197.248 402.669 199.627 407.7 203.022 412.023C206.417 416.346 210.74 419.849 215.671 422.272L224.074 432.692C228.479 424.989 231.164 416.422 231.942 407.581C232.721 398.739 231.575 389.834 228.583 381.479C226.859 376.808 224.553 372.373 221.722 368.279C216.728 374.154 210.896 379.646 210.896 379.646Z" fill="#F2F2F2"/>
<path d="M180.448 381.952L177.362 363.326C168.128 359.731 158.157 358.446 148.315 359.584C163.186 369.029 164.065 390.586 175.037 404.376C178.491 408.65 182.863 412.092 187.828 414.446C192.792 416.8 198.222 418.005 203.716 417.973L215.881 423.549C216.391 414.688 214.976 405.822 211.733 397.561C208.49 389.3 203.496 381.841 197.095 375.698C193.47 372.287 189.431 369.347 185.072 366.947C183.221 374.434 180.448 381.952 180.448 381.952Z" fill="#F2F2F2"/>
<path d="M361.685 428.06L353.155 428.06L349.097 395.133L361.686 395.133L361.685 428.06Z" fill="#FFB6B6"/>
<path d="M363.86 436.335L336.357 436.334V435.986C336.357 433.145 337.485 430.42 339.493 428.41C341.5 426.401 344.223 425.273 347.062 425.272H347.062L352.086 421.458L361.459 425.273L363.86 425.273L363.86 436.335Z" fill="#2F2E41"/>
<path d="M499.469 396.923L493.653 403.167L466.819 383.688L475.402 374.472L499.469 396.923Z" fill="#FFB6B6"/>
<path d="M507 400.972L488.248 421.107L487.993 420.87C485.917 418.933 484.694 416.249 484.594 413.409C484.494 410.57 485.525 407.807 487.461 405.728L487.461 405.727L488.099 399.449L497.278 395.187L498.915 393.429L507 400.972Z" fill="#2F2E41"/>
<path d="M486.848 378.417L477.832 397.289L422.471 360.603L414.417 349.621L388.009 313.611L377.275 330.658L369.806 348.478C367.371 350.067 365.32 352.178 363.8 354.657C362.28 357.136 361.329 359.922 361.016 362.814L360.674 365.969L365.394 408.434L347.455 413.947L337.152 356.901L340.52 344.539L343.987 327.187L361.445 272.355H408.162L434.957 329.438L436.916 341.069L444.513 349.795L486.848 378.417Z" fill="#2F2E41"/>
<path d="M389.761 182.645L397.625 188.638L407.109 191.555C407.109 191.555 411.03 246.754 414.563 250.29C418.096 253.825 414.91 253.921 415.619 258.514C416.329 263.107 418.055 272.523 418.055 272.523C394.207 285.157 373.649 285.496 357.135 270.712C356.923 269.797 357.031 268.838 357.439 267.993C357.847 267.148 358.531 266.468 359.379 266.065C362.452 264.433 356.545 256.815 359.057 255.541C361.569 254.267 358.036 243.218 358.036 243.218L360.354 220.164L358.523 216.479L362.991 193.929L370.744 191.095L373.842 183.627L389.761 182.645Z" fill="#3F3D56"/>
<path d="M394.687 280.751C394.652 279.755 394.835 278.762 395.225 277.844C395.614 276.926 396.2 276.104 396.941 275.437C397.682 274.77 398.56 274.274 399.514 273.983C400.467 273.693 401.473 273.615 402.459 273.755L413.543 252.194L419.717 263.175L408.246 281.966C407.901 283.609 406.965 285.068 405.616 286.067C404.267 287.066 402.599 287.536 400.928 287.386C399.257 287.236 397.698 286.478 396.548 285.255C395.398 284.033 394.736 282.43 394.687 280.751H394.687Z" fill="#FFB6B6"/>
<path d="M413.352 275.477L437.124 238.603L437.046 238.433C436.956 238.239 431.573 226.603 426.357 215.945C425.554 214.304 424.754 212.686 423.979 211.136C423.644 210.468 423.315 209.813 422.99 209.172C420.799 204.849 418.885 201.277 417.743 199.58C415.215 195.743 411.453 192.886 407.08 191.484L406.97 191.456L406.865 191.5C404.726 192.403 402.958 194.009 401.854 196.053C400.749 198.096 400.373 200.456 400.788 202.742C402.85 213.769 407.445 224.166 414.209 233.111L418.063 238.195L404.67 267.336L413.352 275.477Z" fill="#3F3D56"/>
<path d="M331.607 134.132C332.262 134.884 332.744 135.77 333.019 136.729C333.294 137.688 333.356 138.695 333.2 139.681C333.044 140.666 332.674 141.605 332.116 142.431C331.559 143.258 330.826 143.952 329.972 144.465L334.927 168.199L323.222 163.561L320.311 141.734C319.545 140.239 319.354 138.516 319.773 136.89C320.192 135.263 321.193 133.848 322.585 132.911C323.978 131.974 325.665 131.58 327.328 131.805C328.991 132.03 330.514 132.858 331.607 134.132H331.607Z" fill="#FFB6B6"/>
<path d="M320.426 149.992L325.16 193.619L325.327 193.702C325.465 193.77 331.462 196.713 338.824 200.219C340.065 200.811 339.887 203.373 341.185 203.985C342.079 204.407 344.44 202.876 345.344 203.299C353.39 207.065 361.526 210.727 364.768 211.719C369.146 213.107 373.866 212.955 378.145 211.288L378.248 211.241L378.302 211.141C379.395 209.091 379.758 206.729 379.331 204.445C378.903 202.162 377.71 200.092 375.95 198.577C367.41 191.31 357.299 186.13 346.416 183.444L340.224 181.923L332.293 150.845L320.426 149.992Z" fill="#3F3D56"/>
<path d="M381.376 180.173C389.967 180.173 396.931 173.203 396.931 164.604C396.931 156.006 389.967 149.036 381.376 149.036C372.785 149.036 365.82 156.006 365.82 164.604C365.82 173.203 372.785 180.173 381.376 180.173Z" fill="#FFB6B6"/>
<path d="M365.932 154.172C367.211 150.447 373.579 147.863 383.903 147.504C394.227 147.145 396.845 159.321 396.845 159.321C403.737 164.917 389.486 179.897 388.797 179.358L389.106 176.543C389.62 171.881 391.801 168.244 389.027 163.385L386.363 163.416C382.923 164.078 379.483 164.74 376.043 165.402L380.116 161.813L380.001 161.635C378.268 162.538 376.383 163.111 374.441 163.325C372.252 163.454 369.859 162.582 368.81 160.654C368.531 160.124 368.359 159.544 368.307 158.947C365.355 160.127 364.006 163.769 364.006 163.769C364.006 163.769 364.652 157.897 365.932 154.172Z" fill="#2F2E41"/>
<path d="M62.6737 155.106C62.4627 154.838 62.2354 154.583 61.9932 154.343C62.0524 154.262 62.1116 154.173 62.1708 154.092L62.6737 155.106Z" fill="#2F2E41"/>
<path d="M65.6992 217.722C63.1546 222.246 58.0728 224.77 53.0354 226.007C47.3772 227.49 41.419 227.375 35.8224 225.673C35.1123 225.444 34.4022 225.177 33.7142 224.881C34.045 224.002 34.3071 223.099 34.4983 222.179C34.7558 220.935 34.8847 219.667 34.883 218.396C34.3225 219.491 33.5964 220.492 32.7304 221.365C32.0624 222.067 31.3037 222.677 30.4743 223.179C27.9019 221.616 25.6745 219.545 23.928 217.093C24.0389 216.819 24.1499 216.545 24.2534 216.271C24.7906 214.841 25.2159 213.37 25.5257 211.874C25.946 209.85 26.1567 207.789 26.1545 205.722C25.2424 207.503 24.0596 209.131 22.6482 210.549C22.2251 211.002 21.7756 211.429 21.302 211.829C20.5686 209.6 20.2851 207.247 20.468 204.908C20.6508 202.568 21.2964 200.288 22.3671 198.2C25.2964 192.781 30.9773 189.56 36.0369 186.059C41.1039 182.557 46.1709 177.819 46.5999 171.667C46.8884 167.514 44.9652 163.353 45.7345 159.266C46.058 157.543 46.8479 155.942 48.018 154.637C49.1882 153.332 50.6937 152.373 52.3706 151.865C54.0476 151.358 55.8316 151.32 57.5283 151.757C59.225 152.194 60.7694 153.088 61.9932 154.343C59.1232 158.415 56.2679 162.627 55.1066 167.469C53.923 172.4 54.8921 178.182 58.7755 181.446C60.107 182.572 61.7417 183.371 62.7699 184.778C64.1384 186.644 64.1458 189.131 64.3677 191.426C64.8115 195.89 66.2688 200.184 67.0528 204.604C67.8443 209.016 67.8887 213.806 65.6992 217.722Z" fill="#2F2E41"/>
<path d="M13.5364 401.311L20.2876 406.531L43.6196 382.954L33.6554 375.25L13.5364 401.311Z" fill="#A0616A"/>
<path d="M13.8236 396.21L24.9875 403.826L21.4545 408.402L26.1861 423.261C26.4199 423.995 26.4131 424.784 26.1669 425.514C25.9206 426.244 25.4477 426.876 24.8172 427.317C24.1867 427.759 23.4317 427.988 22.6623 427.97C21.8928 427.951 21.1494 427.688 20.5404 427.216L7.8353 417.391L9.14001 411.171L4.79032 415.036L0 411.332L13.8236 396.21Z" fill="#2F2E41"/>
<path d="M47.7872 168.259C47.7863 170.899 48.4328 173.498 49.6701 175.83C50.9074 178.161 52.6976 180.153 54.8836 181.63C57.0696 183.108 59.5845 184.025 62.2076 184.303C64.8307 184.58 67.4817 184.209 69.928 183.222C72.3743 182.235 74.541 180.661 76.238 178.64C77.9349 176.619 79.1102 174.212 79.6607 171.63C80.2112 169.049 80.12 166.371 79.3952 163.833C78.6704 161.295 77.3341 158.973 75.5036 157.073L75.4263 156.995C75.2973 156.86 75.1684 156.724 75.033 156.595C75.0322 156.595 75.0313 156.595 75.0306 156.595C75.0298 156.594 75.0291 156.594 75.0285 156.593C75.0279 156.593 75.0274 156.592 75.0271 156.591C75.0268 156.59 75.0266 156.59 75.0266 156.589C74.859 156.434 74.6914 156.279 74.5174 156.131C71.6813 153.641 67.6952 150.938 63.628 150.938C54.7265 150.938 47.7872 159.35 47.7872 168.259Z" fill="#2F2E41"/>
<path d="M139.636 159.976C139.713 160.837 139.6 161.703 139.307 162.515C139.013 163.327 138.545 164.065 137.936 164.677C137.326 165.288 136.59 165.758 135.779 166.054C134.969 166.35 134.103 166.465 133.244 166.39L93.3408 202.448L86.474 191.594L127.856 159.563C128.078 158.126 128.819 156.82 129.938 155.893C131.057 154.966 132.478 154.482 133.93 154.533C135.381 154.584 136.764 155.167 137.816 156.17C138.868 157.173 139.515 158.527 139.636 159.976V159.976Z" fill="#A0616A"/>
<path d="M76.287 213.332C76.287 213.332 77.7717 216.076 82.8431 211.838C86.9032 208.446 106.355 193.718 110.545 187.683C111.502 188.062 112.558 188.112 113.546 187.825C114.535 187.538 115.4 186.929 116.005 186.096L104.523 176.032C101.088 176.428 101.161 178.738 101.519 180.049L92.858 183.976L70.493 198.281L75.1786 211.367L76.287 213.332Z" fill="#3466BB"/>
<path d="M54.6206 238.616L53.7842 242.602L53.0741 257.305L84.3397 259.025L83.3688 236.411L80.3383 231.427L54.6206 238.616Z" fill="#A0616A"/>
<path d="M67.8714 185.514C75.3341 185.514 81.3839 179.459 81.3839 171.99C81.3839 164.521 75.3341 158.466 67.8714 158.466C60.4087 158.466 54.359 164.521 54.359 171.99C54.359 179.459 60.4087 185.514 67.8714 185.514Z" fill="#A0616A"/>
<path d="M43.8817 221.872L43.7986 210.63C43.7967 206.585 45.1643 202.659 47.6784 199.492C50.1925 196.325 53.7047 194.105 57.642 193.192L57.693 193.18L60.3649 189.577L71.2204 190.664L73.2101 194.734L81.0761 199.422L84.1047 209.165C85.4183 210.042 86.5378 211.179 87.3937 212.507C88.2496 213.834 88.8236 215.324 89.0799 216.883C90.1082 223.456 85.5096 230.033 84.9626 230.787L83.5533 238.731L52.8936 244.145L52.6447 244.177L43.8817 221.872Z" fill="#3466BB"/>
<path d="M84.4063 169.579C82.8302 170.578 81.1949 171.481 79.5094 172.281C77.7988 173.104 76.0095 173.751 74.1688 174.214C73.6421 173.057 72.9976 171.958 72.2455 170.934C72.4391 172.147 72.444 173.384 72.2603 174.599C69.2093 175.091 66.0845 174.835 63.1545 173.851L60.6099 169.579L60.4176 174.347C58.3095 174.732 56.2087 175.095 54.1005 175.472C53.9748 175.487 53.8491 175.517 53.7307 175.539C52.4214 169.631 54.2781 163.124 58.4056 159.185C60.455 157.25 63.0114 155.937 65.7771 155.4C68.5429 154.863 71.4043 155.123 74.0282 156.15C74.3611 156.283 74.7013 156.431 75.0268 156.587C75.0268 156.587 75.027 156.588 75.0273 156.589C75.0277 156.59 75.0282 156.591 75.0289 156.592C75.0296 156.592 75.0305 156.593 75.0314 156.593C75.0323 156.594 75.0332 156.594 75.0342 156.594C75.2266 156.69 75.3893 156.92 75.6038 156.897C84.8353 155.868 85.1312 163.035 84.4063 169.579Z" fill="#2F2E41"/>
<path d="M61.9272 383.873L68.6888 389.08L91.9737 365.455L81.9943 357.771L61.9272 383.873Z" fill="#A0616A"/>
<path d="M62.8172 379.244L73.9965 386.836L70.4728 391.42L75.2343 406.269C75.4695 407.003 75.4644 407.792 75.2196 408.522C74.9748 409.253 74.5032 409.885 73.8736 410.328C73.244 410.771 72.4894 411.001 71.7199 410.985C70.9505 410.968 70.2065 410.706 69.5966 410.236L56.8717 400.436L58.1638 394.214L53.822 398.088L49.0242 394.393L62.8172 379.244Z" fill="#2F2E41"/>
<path d="M39.9861 355.04L39.9858 354.952L43.1903 349.425L39.9181 342.231L39.8199 323.747L40.3504 320.972C41.0638 317.24 40.8562 313.391 39.7456 309.757L39.6859 298.506C39.5709 295.688 43.9335 293.209 42.9162 290.859C33.3 268.649 52.7358 251.706 52.8671 251.57L53.2643 251.157L55.4192 252.791L57.4703 252.793L85.1491 257.841L85.3489 258.214C86.4376 260.257 88.5386 267.302 88.6632 270.489C90.0427 272.088 105.756 290.285 107.153 291.55C116.592 300.097 121.996 314.245 124.377 321.918C124.969 323.814 125.088 325.826 124.724 327.779C124.361 329.732 123.526 331.566 122.292 333.122L86.5588 372.295L76.9426 363.411L96.2777 328.148L94.8835 324.57C92.3818 324.109 90.1178 322.792 88.4778 320.846L84.5626 316.195C83.4786 314.911 82.7897 313.339 82.5794 311.671L80.2051 311.385L71.7002 302.449L65.7996 355.929L64.1954 360.153L36.2588 393.024L24.4235 385.62L39.9861 355.04Z" fill="#2F2E41"/>
<path d="M35.7197 125.403C35.183 126.08 34.8009 126.865 34.6005 127.705C34.4 128.545 34.386 129.419 34.5595 130.265C34.7329 131.111 35.0896 131.909 35.6044 132.602C36.1192 133.295 36.7796 133.867 37.539 134.277L28.6558 160.598L35.9094 188.491L47.6061 183.198L40.3883 162.159L45.7883 131.536C46.3921 130.213 46.4901 128.715 46.0638 127.325C45.6376 125.935 44.7166 124.749 43.4755 123.994C42.2345 123.238 40.7594 122.964 39.33 123.223C37.9005 123.483 36.616 124.259 35.7197 125.403Z" fill="#A0616A"/>
<path d="M46.4263 211.473C46.4263 211.473 43.6791 212.949 41.7685 206.62C40.2389 201.553 29.8296 174.04 29.642 166.693C28.6342 166.484 27.7246 165.945 27.0565 165.161C26.3884 164.378 25.9997 163.394 25.9518 162.365L41.0702 160.271C43.7231 162.491 42.3934 164.38 41.3746 165.279L46.5238 174.008L57.2864 197.575L48.431 210.441L46.4263 211.473Z" fill="#3466BB"/>
<path d="M54.0975 175.471C55.6501 170.785 58.434 166.604 62.1573 163.365C65.8805 160.127 70.4059 157.951 75.2587 157.066C75.278 157.06 75.3425 157.034 75.4263 156.995C75.4778 156.963 75.5423 156.931 75.6067 156.898C75.4134 156.789 75.2265 156.692 75.0331 156.595C75.0322 156.595 75.0314 156.595 75.0306 156.595C75.0298 156.594 75.0291 156.594 75.0285 156.593C75.0279 156.593 75.0274 156.592 75.0271 156.591C75.0268 156.59 75.0266 156.589 75.0266 156.589C74.8591 156.434 74.6915 156.279 74.5174 156.131L74.0275 156.15C74.0275 156.15 56.8112 153.421 54.0975 175.471Z" fill="#FD6584"/>
<path d="M276.251 326.172C278.13 323.345 277.018 319.299 273.767 317.134C270.516 314.97 266.357 315.506 264.478 318.333C262.599 321.159 263.712 325.206 266.962 327.37C270.213 329.535 274.372 328.998 276.251 326.172Z" fill="#F2F2F2"/>
<path d="M238.109 220.672C239.988 217.846 238.875 213.799 235.625 211.635C232.374 209.47 228.215 210.007 226.336 212.833C224.457 215.66 225.569 219.706 228.82 221.871C232.071 224.035 236.23 223.499 238.109 220.672Z" fill="#F2F2F2"/>
<path d="M397.613 383.086C399.492 380.259 398.38 376.213 395.129 374.049C391.878 371.884 387.72 372.421 385.841 375.247C383.962 378.074 385.074 382.12 388.325 384.285C391.576 386.449 395.734 385.913 397.613 383.086Z" fill="#F2F2F2"/>
<path d="M75.1368 43.6828C77.0158 40.8562 75.9036 36.81 72.6527 34.6453C69.4018 32.4807 65.2432 33.0173 63.3642 35.8439C61.4852 38.6705 62.5974 42.7167 65.8483 44.8814C69.0992 47.046 73.2578 46.5094 75.1368 43.6828Z" fill="#F2F2F2"/>
<path d="M225.626 10.3672C227.505 7.54055 226.393 3.49436 223.142 1.32972C219.891 -0.834924 215.732 -0.29831 213.853 2.52829C211.974 5.35489 213.086 9.40113 216.337 11.5658C219.588 13.7304 223.747 13.1938 225.626 10.3672Z" fill="#F2F2F2"/>
<path d="M154.403 289.882C156.282 287.055 155.17 283.009 151.919 280.844C148.668 278.68 144.51 279.216 142.631 282.043C140.752 284.869 141.864 288.916 145.115 291.08C148.366 293.245 152.524 292.708 154.403 289.882Z" fill="#E6E6E6"/>
<path d="M464.829 437H13.8514C13.6328 436.999 13.4234 436.912 13.2691 436.757C13.1147 436.602 13.0281 436.392 13.0281 436.174C13.0281 435.955 13.1147 435.745 13.2691 435.59C13.4234 435.435 13.6328 435.348 13.8514 435.347H464.829C465.048 435.347 465.258 435.434 465.413 435.589C465.567 435.744 465.654 435.954 465.654 436.174C465.654 436.393 465.567 436.603 465.413 436.758C465.258 436.913 465.048 437 464.829 437Z" fill="#CCCCCC"/>
<path d="M97.7891 162.526C93.9955 162.515 90.3391 161.105 87.5188 158.566C84.6984 156.027 82.912 152.537 82.501 148.762L73.6968 66.926C73.2642 62.8628 74.4597 58.7937 77.0211 55.6116C79.5824 52.4295 83.3003 50.3943 87.3592 49.9523L348.776 21.7812C352.836 21.3481 356.901 22.5445 360.081 25.1079C363.261 27.6713 365.294 31.3923 365.736 35.4546L374.54 117.291C374.973 121.354 373.777 125.423 371.216 128.605C368.655 131.788 364.937 133.823 360.878 134.265L360.84 133.92L360.878 134.265L99.4608 162.436C98.9056 162.496 98.3475 162.526 97.7891 162.526Z" fill="#E6E6E6"/>
<path d="M345.897 25.5804C345.405 25.5805 344.915 25.607 344.426 25.6597L92.4347 52.815C90.6727 53.0049 88.9654 53.5403 87.4101 54.3906C85.8548 55.2408 84.4821 56.3894 83.3704 57.7706C82.2586 59.1518 81.4295 60.7387 80.9305 62.4406C80.4315 64.1425 80.2724 65.9261 80.4621 67.6896L84.9136 109.067C85.6332 115.756 87.6621 122.238 90.8846 128.142C94.1071 134.046 98.46 139.258 103.695 143.478C108.93 147.699 114.944 150.846 121.394 152.741C127.844 154.635 134.604 155.24 141.288 154.519L318.48 135.424C325.143 134.706 331.6 132.682 337.481 129.466C343.363 126.251 348.554 121.908 352.758 116.684C356.962 111.461 360.097 105.46 361.984 99.0243C363.872 92.5884 364.474 85.8434 363.756 79.1747L359.288 37.6423C358.932 34.3341 357.368 31.2738 354.897 29.048C352.426 26.8222 349.221 25.5874 345.897 25.5803V25.5804Z" fill="white"/>
<path d="M292.831 68.6421L151.99 83.8197C151.587 83.8636 151.179 83.8277 150.791 83.7139C150.402 83.6002 150.039 83.4108 149.724 83.1567C149.408 82.9025 149.145 82.5886 148.951 82.2329C148.757 81.8771 148.634 81.4865 148.591 81.0834C148.548 80.6803 148.584 80.2726 148.698 79.8836C148.813 79.4946 149.002 79.132 149.257 78.8164C149.511 78.5009 149.825 78.2386 150.181 78.0446C150.536 77.8506 150.927 77.7287 151.33 77.6858L292.171 62.5082C292.574 62.4643 292.981 62.5002 293.37 62.614C293.759 62.7278 294.121 62.9171 294.437 63.1713C294.753 63.4254 295.015 63.7393 295.209 64.0951C295.404 64.4508 295.526 64.8414 295.569 65.2445C295.613 65.6476 295.576 66.0553 295.462 66.4443C295.348 66.8333 295.158 67.1959 294.904 67.5115C294.65 67.8271 294.336 68.0893 293.98 68.2833C293.624 68.4773 293.234 68.5993 292.831 68.6421Z" fill="#3466BB"/>
<path d="M294.856 87.4675L154.015 102.645C153.202 102.733 152.388 102.493 151.751 101.98C151.115 101.467 150.708 100.722 150.621 99.9083C150.533 99.0949 150.772 98.28 151.285 97.6429C151.798 97.0058 152.542 96.5987 153.355 96.5111L294.196 81.3335C295.009 81.246 295.823 81.4851 296.46 81.9983C297.096 82.5116 297.503 83.2569 297.591 84.0703C297.678 84.8837 297.439 85.6985 296.926 86.3356C296.414 86.9727 295.669 87.3799 294.856 87.4675Z" fill="#3466BB"/>
<path d="M172.453 119.701L156.04 121.47C155.227 121.557 154.413 121.318 153.777 120.805C153.14 120.292 152.733 119.547 152.646 118.733C152.558 117.92 152.797 117.105 153.31 116.468C153.823 115.831 154.567 115.424 155.38 115.336L171.793 113.567C172.196 113.523 172.603 113.559 172.992 113.673C173.381 113.787 173.744 113.976 174.059 114.23C174.375 114.484 174.637 114.798 174.832 115.154C175.026 115.51 175.148 115.9 175.192 116.304C175.235 116.707 175.199 117.114 175.084 117.503C174.97 117.892 174.78 118.255 174.526 118.571C174.272 118.886 173.958 119.148 173.602 119.342C173.246 119.536 172.856 119.658 172.453 119.701Z" fill="#3466BB"/>
<path d="M92.2476 70.3791C95.3116 70.3791 97.7955 67.8931 97.7955 64.8265C97.7955 61.7599 95.3116 59.2739 92.2476 59.2739C89.1835 59.2739 86.6996 61.7599 86.6996 64.8265C86.6996 67.8931 89.1835 70.3791 92.2476 70.3791Z" fill="#3F3D56"/>
<path d="M340.52 42.6161C343.584 42.6161 346.068 40.1301 346.068 37.0634C346.068 33.9968 343.584 31.5108 340.52 31.5108C337.456 31.5108 334.972 33.9968 334.972 37.0634C334.972 40.1301 337.456 42.6161 340.52 42.6161Z" fill="#3F3D56"/>
<path d="M265.513 156.609C265.003 156.161 264.6 155.605 264.331 154.981C264.063 154.357 263.937 153.681 263.962 153.003C264.241 144.938 262.914 136.898 260.058 129.351C259.816 128.716 259.718 128.036 259.772 127.359C259.825 126.682 260.029 126.025 260.368 125.437C260.692 124.872 261.137 124.384 261.67 124.009C262.203 123.634 262.811 123.38 263.453 123.265C269.901 119.37 276.512 118.277 283.105 120.016C284.168 119.859 285.253 120.087 286.163 120.658C287.073 121.229 287.751 122.107 288.073 123.133C290.742 131.806 292.227 140.801 292.487 149.872C292.512 150.96 292.144 152.021 291.45 152.86C290.756 153.698 289.783 154.258 288.71 154.436L269.2 157.662C268.546 157.771 267.876 157.734 267.238 157.552C266.6 157.369 266.011 157.047 265.513 156.609Z" fill="#3466BB"/>
<path d="M267.246 133.11L283.667 130.395C283.802 130.373 283.932 130.325 284.048 130.253C284.164 130.181 284.265 130.086 284.345 129.975C284.425 129.864 284.482 129.738 284.513 129.605C284.544 129.471 284.549 129.333 284.526 129.198C284.504 129.063 284.455 128.933 284.383 128.817C284.311 128.701 284.216 128.6 284.105 128.521C283.994 128.441 283.868 128.384 283.735 128.353C283.601 128.322 283.463 128.318 283.328 128.341L266.907 131.056C266.635 131.102 266.393 131.253 266.233 131.478C266.072 131.702 266.008 131.981 266.052 132.253C266.097 132.525 266.248 132.768 266.472 132.929C266.696 133.089 266.974 133.155 267.246 133.11Z" fill="white"/>
<path d="M268.603 141.328L285.024 138.613C285.296 138.568 285.539 138.416 285.7 138.192C285.861 137.967 285.926 137.688 285.881 137.416C285.836 137.143 285.684 136.9 285.46 136.739C285.236 136.578 284.957 136.513 284.685 136.558L268.263 139.274C268.128 139.296 267.999 139.344 267.883 139.416C267.766 139.488 267.665 139.583 267.586 139.694C267.506 139.805 267.449 139.931 267.418 140.064C267.387 140.198 267.382 140.336 267.404 140.471C267.427 140.606 267.475 140.735 267.548 140.852C267.62 140.968 267.714 141.069 267.826 141.148C267.937 141.228 268.063 141.285 268.196 141.316C268.33 141.346 268.468 141.351 268.603 141.328Z" fill="white"/>
<path d="M269.959 149.545L286.38 146.83C286.653 146.785 286.896 146.634 287.056 146.409C287.217 146.185 287.282 145.906 287.237 145.633C287.192 145.361 287.041 145.118 286.817 144.957C286.592 144.796 286.313 144.731 286.041 144.776L269.62 147.491C269.485 147.513 269.356 147.562 269.24 147.634C269.124 147.706 269.023 147.801 268.944 147.912C268.864 148.023 268.807 148.149 268.776 148.282C268.745 148.415 268.741 148.553 268.763 148.688C268.785 148.823 268.834 148.952 268.906 149.068C268.978 149.184 269.073 149.285 269.184 149.365C269.295 149.444 269.42 149.501 269.553 149.532C269.686 149.563 269.824 149.568 269.959 149.545Z" fill="white"/>
</g>
<defs>
<clipPath id="clip0_295_826">
<rect width="507" height="437" fill="white"/>
</clipPath>
</defs>
</svg>
