<svg width="399" height="270" viewBox="0 0 399 270" fill="none" xmlns="http://www.w3.org/2000/svg">
<path d="M112.441 63.8831L134.353 78.0013L117.389 55.4121L112.441 63.8831Z" fill="#FDC247"/>
<path fill-rule="evenodd" clip-rule="evenodd" d="M117.331 54.3931L134.805 77.662L134.048 78.4758L111.682 64.0648L117.331 54.3931ZM117.449 56.4308L113.202 63.7009L132.008 75.8178L117.449 56.4308Z" fill="#643131"/>
<path d="M86.35 86.8119L1.52832 0.74707L171.173 20.4996L160.57 34.6086L139.365 37.4304L134.417 77.641L117.452 55.7721L105.436 76.2301L86.35 86.8119Z" fill="#FFFBF3"/>
<path fill-rule="evenodd" clip-rule="evenodd" d="M0 0L172.216 20.0519L160.88 35.1367L139.872 37.9321L134.81 79.0688L117.517 56.7764L105.845 76.6487L86.2491 87.5132L0 0ZM116.653 56.0173L4.17618 2.62834L86.4516 86.1095L105.027 75.8105L116.653 56.0173ZM7.32886 2.87457L117.816 55.3191L134.024 76.2122L138.744 37.8491L7.32886 2.87457ZM139.402 36.8553L160.261 34.0795L170.131 20.9463L9.23016 2.2118L139.402 36.8553Z" fill="#643131"/>
<path fill-rule="evenodd" clip-rule="evenodd" d="M223.147 109.914C223.438 108.843 224.542 108.21 225.613 108.502C226.475 108.736 227.333 108.971 228.187 109.207C229.257 109.503 229.884 110.61 229.588 111.68C229.292 112.75 228.185 113.377 227.115 113.082C226.267 112.847 225.415 112.613 224.559 112.381C223.488 112.089 222.855 110.985 223.147 109.914ZM214.145 107.562C213.874 108.638 212.782 109.291 211.705 109.02C210.847 108.804 209.986 108.589 209.125 108.375C208.048 108.107 207.392 107.017 207.659 105.939C207.927 104.862 209.017 104.206 210.095 104.473C210.96 104.688 211.824 104.905 212.687 105.122C213.764 105.393 214.416 106.486 214.145 107.562ZM238.531 114.27C238.855 113.208 239.978 112.61 241.04 112.934C241.897 113.195 242.746 113.458 243.587 113.72C244.647 114.051 245.238 115.178 244.907 116.238C244.576 117.297 243.449 117.888 242.389 117.557C241.556 117.297 240.715 117.038 239.867 116.779C238.805 116.455 238.207 115.332 238.531 114.27ZM198.614 103.765C198.362 104.846 197.282 105.518 196.2 105.267C195.337 105.066 194.475 104.866 193.615 104.668C192.533 104.419 191.858 103.34 192.107 102.258C192.355 101.177 193.434 100.502 194.516 100.75C195.38 100.949 196.246 101.15 197.112 101.352C198.194 101.603 198.866 102.684 198.614 103.765ZM183.022 100.229C182.787 101.314 181.717 102.003 180.632 101.768C179.763 101.579 178.897 101.392 178.036 101.208C176.95 100.975 176.259 99.9067 176.492 98.8214C176.724 97.736 177.793 97.0447 178.878 97.2774C179.743 97.4626 180.611 97.6499 181.484 97.8392C182.569 98.0744 183.257 99.1446 183.022 100.229ZM253.735 119.181C254.112 118.137 255.264 117.596 256.308 117.973C257.167 118.283 258.012 118.593 258.843 118.904C259.883 119.293 260.41 120.452 260.02 121.491C259.631 122.531 258.473 123.058 257.433 122.669C256.619 122.364 255.789 122.059 254.944 121.754C253.899 121.377 253.358 120.225 253.735 119.181ZM167.379 96.9251C167.159 98.0132 166.099 98.7174 165.011 98.4978C164.137 98.3214 163.27 98.1477 162.412 97.9768C161.324 97.7599 160.617 96.7016 160.834 95.613C161.05 94.5243 162.109 93.8176 163.197 94.0344C164.059 94.206 164.928 94.3803 165.806 94.5574C166.894 94.777 167.598 95.837 167.379 96.9251ZM151.689 93.8531C151.487 94.9446 150.438 95.6658 149.347 95.4639C148.916 95.3843 148.49 95.3058 148.067 95.2283L148.792 91.2744C149.217 91.3523 149.645 91.4312 150.078 91.5112C151.169 91.7131 151.891 92.7616 151.689 93.8531ZM268.596 125.088C269.085 124.092 270.29 123.681 271.286 124.171C272.133 124.587 272.948 125.004 273.728 125.422C274.706 125.946 275.074 127.164 274.55 128.143C274.026 129.121 272.807 129.489 271.829 128.965C271.095 128.572 270.323 128.176 269.513 127.778C268.517 127.289 268.106 126.085 268.596 125.088ZM282.021 133.796C283.073 133.441 284.213 134.007 284.568 135.058C284.774 135.67 284.896 136.306 284.911 136.958C284.927 137.636 284.84 138.3 284.664 138.946C284.372 140.017 283.268 140.649 282.197 140.357C281.126 140.066 280.494 138.961 280.786 137.89C280.865 137.597 280.899 137.32 280.893 137.052C280.888 136.842 280.848 136.608 280.759 136.343C280.404 135.291 280.969 134.151 282.021 133.796ZM274.011 146.741C274.531 147.722 274.157 148.939 273.176 149.458C272.343 149.9 271.474 150.339 270.575 150.777C269.576 151.262 268.373 150.846 267.888 149.848C267.403 148.849 267.819 147.647 268.817 147.161C269.68 146.742 270.507 146.324 271.294 145.906C272.275 145.387 273.491 145.76 274.011 146.741ZM258.383 153.839C258.78 154.876 258.262 156.038 257.225 156.435C256.344 156.772 255.451 157.11 254.548 157.447C253.508 157.835 252.35 157.307 251.962 156.267C251.573 155.227 252.102 154.069 253.141 153.681C254.035 153.347 254.918 153.014 255.788 152.681C256.824 152.284 257.986 152.803 258.383 153.839ZM242.261 159.737C242.628 160.785 242.077 161.932 241.029 162.299C240.128 162.614 239.225 162.93 238.321 163.246C237.273 163.612 236.127 163.06 235.76 162.012C235.394 160.964 235.947 159.818 236.995 159.451C237.899 159.135 238.801 158.82 239.7 158.505C240.748 158.138 241.894 158.69 242.261 159.737ZM226.049 165.435C226.427 166.478 225.887 167.631 224.843 168.009C223.944 168.334 223.05 168.66 222.163 168.987C221.121 169.371 219.966 168.837 219.582 167.795C219.199 166.754 219.732 165.598 220.774 165.215C221.668 164.885 222.569 164.557 223.475 164.229C224.519 163.851 225.671 164.391 226.049 165.435ZM209.995 171.547C210.433 172.567 209.96 173.749 208.939 174.186C208.057 174.563 207.194 174.942 206.351 175.321C205.339 175.776 204.149 175.325 203.694 174.313C203.238 173.3 203.69 172.11 204.702 171.655C205.569 171.265 206.454 170.877 207.357 170.491C208.377 170.054 209.558 170.526 209.995 171.547ZM194.599 179.179C195.245 180.081 195.038 181.337 194.136 181.984C193.362 182.538 192.663 183.088 192.039 183.632C191.203 184.363 189.933 184.277 189.203 183.441C188.473 182.605 188.559 181.335 189.395 180.605C190.129 179.963 190.932 179.334 191.794 178.716C192.696 178.07 193.952 178.277 194.599 179.179ZM187.19 192.867C188.044 192.158 189.311 192.275 190.021 193.129C190.277 193.438 190.57 193.756 190.901 194.081C191.134 194.31 191.4 194.549 191.699 194.798C192.553 195.507 192.671 196.774 191.962 197.628C191.253 198.482 189.986 198.6 189.132 197.891C188.758 197.58 188.407 197.266 188.084 196.949C187.664 196.537 187.279 196.12 186.928 195.697C186.219 194.843 186.336 193.576 187.19 192.867ZM433.089 262.464L431.825 262.222C430.735 262.013 430.02 260.961 430.229 259.87C430.437 258.78 431.49 258.065 432.581 258.274L433.843 258.515L433.089 262.464ZM421.197 258.118C420.983 259.207 419.926 259.916 418.837 259.702C417.989 259.536 417.134 259.367 416.273 259.197C415.184 258.982 414.475 257.925 414.69 256.836C414.905 255.747 415.962 255.038 417.051 255.254C417.912 255.423 418.766 255.592 419.612 255.758C420.702 255.972 421.411 257.029 421.197 258.118ZM405.672 255.035C405.453 256.123 404.392 256.827 403.304 256.607C402.447 256.434 401.586 256.26 400.719 256.084C399.631 255.863 398.928 254.803 399.149 253.715C399.37 252.627 400.43 251.924 401.518 252.144C402.384 252.32 403.244 252.494 404.1 252.667C405.188 252.886 405.892 253.947 405.672 255.035ZM390.165 251.874C389.94 252.961 388.876 253.66 387.789 253.435C386.923 253.255 386.054 253.075 385.181 252.893C384.094 252.668 383.396 251.603 383.622 250.517C383.848 249.43 384.912 248.732 385.999 248.958C386.87 249.139 387.739 249.319 388.604 249.498C389.691 249.723 390.39 250.787 390.165 251.874ZM374.657 248.635C374.426 249.721 373.36 250.414 372.274 250.184C371.414 250.002 370.553 249.819 369.689 249.635C368.603 249.404 367.911 248.336 368.142 247.251C368.373 246.165 369.44 245.472 370.526 245.703C371.389 245.887 372.249 246.07 373.107 246.252C374.193 246.482 374.887 247.549 374.657 248.635ZM200.102 202.009C200.552 200.994 201.74 200.537 202.755 200.987C203.508 201.321 204.289 201.658 205.098 201.998C206.121 202.429 206.601 203.607 206.171 204.63C205.741 205.653 204.562 206.134 203.539 205.703C202.708 205.354 201.903 205.007 201.125 204.661C200.11 204.211 199.652 203.024 200.102 202.009ZM359.152 245.318C358.917 246.403 357.846 247.091 356.762 246.855C355.906 246.669 355.048 246.483 354.19 246.295C353.105 246.059 352.418 244.988 352.654 243.903C352.891 242.819 353.962 242.131 355.047 242.368C355.904 242.555 356.76 242.741 357.615 242.927C358.7 243.163 359.388 244.233 359.152 245.318ZM343.689 241.927C343.447 243.011 342.373 243.693 341.29 243.452C340.429 243.26 339.569 243.068 338.707 242.875C337.624 242.633 336.942 241.558 337.185 240.475C337.427 239.392 338.502 238.71 339.585 238.953C340.445 239.145 341.305 239.337 342.164 239.528C343.247 239.77 343.93 240.844 343.689 241.927ZM214.766 207.892C215.134 206.845 216.281 206.294 217.329 206.662C218.151 206.951 218.989 207.242 219.841 207.534C220.891 207.893 221.45 209.036 221.091 210.086C220.731 211.136 219.588 211.696 218.538 211.336C217.677 211.041 216.829 210.747 215.996 210.455C214.948 210.086 214.398 208.939 214.766 207.892ZM328.231 238.449C327.983 239.531 326.905 240.207 325.823 239.96C324.965 239.763 324.106 239.566 323.248 239.369C322.166 239.12 321.491 238.041 321.74 236.96C321.989 235.878 323.067 235.203 324.149 235.451C325.006 235.648 325.863 235.845 326.72 236.041C327.802 236.289 328.479 237.367 328.231 238.449ZM312.801 234.878C312.546 235.959 311.464 236.628 310.384 236.373C309.525 236.17 308.667 235.968 307.81 235.764C306.73 235.508 306.062 234.425 306.318 233.345C306.575 232.265 307.658 231.597 308.738 231.853C309.593 232.056 310.449 232.258 311.306 232.46C312.387 232.715 313.056 233.798 312.801 234.878ZM229.829 212.921C230.158 211.861 231.284 211.268 232.344 211.597C233.163 211.851 233.991 212.106 234.828 212.361C235.889 212.685 236.487 213.808 236.163 214.87C235.839 215.932 234.716 216.53 233.654 216.206C232.812 215.949 231.978 215.692 231.153 215.436C230.093 215.107 229.5 213.981 229.829 212.921ZM297.385 231.197C297.122 232.276 296.035 232.937 294.956 232.673C294.101 232.465 293.247 232.256 292.395 232.047C291.317 231.782 290.657 230.694 290.922 229.616C291.187 228.538 292.275 227.878 293.353 228.143C294.203 228.351 295.055 228.56 295.909 228.768C296.987 229.031 297.648 230.119 297.385 231.197ZM244.999 217.472C245.303 216.404 246.415 215.786 247.483 216.09C248.314 216.328 249.151 216.565 249.993 216.803C251.062 217.104 251.683 218.215 251.382 219.283C251.081 220.351 249.97 220.973 248.902 220.672C248.056 220.433 247.215 220.194 246.38 219.956C245.312 219.651 244.694 218.539 244.999 217.472ZM282.014 227.394C281.741 228.47 280.648 229.121 279.572 228.848C278.712 228.63 277.855 228.411 277 228.193C275.925 227.918 275.276 226.823 275.551 225.748C275.825 224.672 276.92 224.023 277.996 224.298C278.848 224.516 279.703 224.734 280.56 224.951C281.636 225.224 282.287 226.318 282.014 227.394ZM260.239 221.717C260.527 220.645 261.629 220.009 262.701 220.296C263.55 220.524 264.403 220.752 265.259 220.98C266.332 221.265 266.97 222.366 266.685 223.439C266.4 224.511 265.299 225.15 264.226 224.864C263.367 224.636 262.511 224.407 261.66 224.179C260.588 223.891 259.952 222.789 260.239 221.717Z" fill="#643131"/>
</svg>
