<svg width="73" height="73" viewBox="0 0 73 73" fill="none" xmlns="http://www.w3.org/2000/svg">
<path d="M71 2H2V71H71V2Z" stroke="#3466BB" stroke-width="3"/>
<path d="M14.6642 55.8458V50.2798H18.671C20.4329 50.2798 21.9627 49.9866 23.2604 49.4002C24.5582 48.8138 25.5575 47.9678 26.2585 46.8623C26.9594 45.7568 27.3099 44.4638 27.3099 42.9834C27.3099 41.4837 26.9594 40.186 26.2585 39.0901C25.5575 37.9942 24.5582 37.1482 23.2604 36.5522C21.9627 35.9562 20.4329 35.6582 18.671 35.6582H10.0605V55.8458H14.6642ZM18.4153 46.473H14.6642V39.465H18.4153C19.7983 39.465 20.8497 39.7678 21.5696 40.3734C22.2895 40.9791 22.6495 41.849 22.6495 42.9834C22.6495 44.0985 22.2895 44.9589 21.5696 45.5645C20.8497 46.1702 19.7983 46.473 18.4153 46.473ZM45.4402 55.8458V52.039H35.4657V35.6582H30.8621V55.8458H45.4402ZM48.3199 40.1336C48.5093 40.1336 48.9303 40.0375 49.5829 39.8452C52.8877 38.8198 56.2031 38.3071 59.529 38.3071C59.8026 38.3071 60.1973 38.3712 60.713 38.4994C61.2287 38.6276 61.6129 38.6917 61.8655 38.6917C62.1602 38.6917 62.4128 38.5475 62.6233 38.2591C62.8338 37.9707 62.9391 37.6769 62.9391 37.3779C62.9391 36.8652 62.7917 36.4005 62.497 35.984C62.2023 35.5674 61.8129 35.3591 61.3287 35.3591C61.2024 35.3591 61.0867 35.3698 60.9814 35.3911L50.6248 36.9613C50.8564 36.7049 51.13 36.4379 51.4458 36.1602C54.6664 33.2335 56.6556 31.3323 57.4134 30.4564C59.6447 27.8929 60.7604 25.4896 60.7604 23.2465C60.7604 21.7511 60.1868 20.4694 59.0396 19.4013C57.8923 18.3331 56.582 17.7991 55.1085 17.7991C53.9086 17.7991 52.7719 18.0554 51.6984 18.5681C50.4775 19.1663 49.3408 20.1276 48.2883 21.4521C47.1306 22.8834 46.5517 24.2292 46.5517 25.4896C46.5517 25.7887 46.778 26.1198 47.2305 26.483C47.6831 26.8461 48.0673 27.0277 48.383 27.0277C49.0145 27.0277 49.4566 26.5577 49.7092 25.6178C49.8355 24.8914 49.9723 24.1651 50.1196 23.4388C50.3722 22.6056 51.009 21.8366 52.0299 21.1316C53.0508 20.4267 53.9928 20.0742 54.8559 20.0742C55.6347 20.0742 56.3031 20.3145 56.8609 20.7952C57.4187 21.2758 57.6976 21.9114 57.6976 22.7018C57.6976 24.6885 56.603 27.0704 54.4138 29.8476C52.7298 31.9411 50.8143 33.853 48.6672 35.5834C47.9094 36.1816 47.4358 36.5875 47.2463 36.8011C46.7201 37.3565 46.457 37.9012 46.457 38.4353C46.457 38.948 46.6411 39.3592 47.0095 39.669C47.3779 39.9788 47.8147 40.1336 48.3199 40.1336Z" fill="#3466BB"/>
</svg>
