<svg width="67" height="60" viewBox="0 0 67 60" fill="none" xmlns="http://www.w3.org/2000/svg">
<path fill-rule="evenodd" clip-rule="evenodd" d="M4.22622 33.7649C4.22623 33.7649 4.22626 33.7649 4.22627 33.7649L28.2195 56.8887C29.2388 57.8711 30.8615 57.8411 31.8438 56.8218V56.8218C32.8262 55.8025 32.7963 54.1798 31.777 53.1974L20.7031 42.5248C13.5679 35.6482 13.3584 24.2894 20.235 17.1542L30.9075 6.0805C31.8898 5.06119 31.8599 3.4385 30.8406 2.45612V2.45612C29.8213 1.47375 28.1986 1.50369 27.2162 2.523L2.31369 28.3618C1.33131 29.3811 1.36125 31.0038 2.38056 31.9862L4.22616 33.7649C4.22618 33.7649 4.2262 33.7649 4.22622 33.7649V33.7649Z" fill="#3A3026"/>
<path opacity="0.3" fill-rule="evenodd" clip-rule="evenodd" d="M25.9577 32.4278C25.9578 32.4278 25.9579 32.4278 25.9579 32.4278L43.7566 49.5816C44.5128 50.3103 45.7165 50.2881 46.4453 49.532V49.532C47.174 48.7758 47.1518 47.5721 46.3957 46.8433L38.1806 38.926C32.8876 33.8248 32.7322 25.3987 37.8333 20.1057L45.7503 11.8911C46.4791 11.1349 46.4569 9.93116 45.7007 9.20241V9.20241C44.9446 8.47367 43.7408 8.49588 43.0121 9.25203L24.5389 28.4198C23.8101 29.1759 23.8324 30.3797 24.5885 31.1084L25.9575 32.4278C25.9576 32.4279 25.9577 32.4279 25.9577 32.4278V32.4278Z" fill="#3A3026"/>
</svg>
