<svg width="66" height="59" viewBox="0 0 66 59" fill="none" xmlns="http://www.w3.org/2000/svg">
<path fill-rule="evenodd" clip-rule="evenodd" d="M62.1388 25.3822C62.1388 25.3822 62.1388 25.3822 62.1388 25.3822L38.5301 1.86593C37.5272 0.866883 35.9042 0.870065 34.9051 1.87304V1.87304C33.9061 2.87602 33.9093 4.49898 34.9122 5.49803L45.8086 16.3518C52.8294 23.3451 52.8517 34.7058 45.8584 41.7266L35.0048 52.6229C34.0057 53.6259 34.0089 55.2488 35.0119 56.2479V56.2479C36.0148 57.2469 37.6378 57.2437 38.6369 56.2408L63.962 30.8161C64.9611 29.8131 64.9579 28.1902 63.9549 27.1911L62.1389 25.3822C62.1389 25.3822 62.1389 25.3822 62.1388 25.3822V25.3822Z" fill="#3A3026"/>
<path opacity="0.3" fill-rule="evenodd" clip-rule="evenodd" d="M40.3882 26.3608C40.3882 26.3609 40.3881 26.3609 40.388 26.3608L22.8746 8.91591C22.1305 8.17479 20.9266 8.17715 20.1855 8.92118V8.92118C19.4444 9.66521 19.4467 10.8692 20.1908 11.6103L28.2741 19.662C33.4823 24.8498 33.4988 33.2773 28.3111 38.4855L20.2597 46.5684C19.5186 47.3125 19.5209 48.5164 20.265 49.2575V49.2575C21.009 49.9987 22.2129 49.9963 22.9541 49.2523L41.7408 30.3917C42.4819 29.6477 42.4795 28.4437 41.7355 27.7026L40.3884 26.3608C40.3884 26.3608 40.3883 26.3608 40.3882 26.3608V26.3608Z" fill="#3A3026"/>
</svg>
