<svg width="58" height="66" viewBox="0 0 58 66" fill="none" xmlns="http://www.w3.org/2000/svg">
<path fill-rule="evenodd" clip-rule="evenodd" d="M32.625 62.0889C32.625 62.0889 32.625 62.0889 32.625 62.0889L56.1875 38.5264C57.1885 37.5254 57.1885 35.9024 56.1875 34.9014V34.9014C55.1865 33.9004 53.5635 33.9004 52.5625 34.9014L41.6874 45.7764C34.6803 52.7835 23.3196 52.7835 16.3125 45.7764L5.43756 34.9015C4.43655 33.9005 2.81358 33.9005 1.81257 34.9015V34.9015C0.811553 35.9025 0.811557 37.5255 1.81257 38.5265L27.1875 63.9015C28.1886 64.9025 29.8115 64.9025 30.8125 63.9014L32.625 62.089C32.625 62.089 32.625 62.0889 32.625 62.0889V62.0889Z" fill="#3A3026"/>
<path opacity="0.3" fill-rule="evenodd" clip-rule="evenodd" d="M31.689 40.3367C31.689 40.3366 31.689 40.3365 31.689 40.3365L49.1683 22.8573C49.9108 22.1147 49.9108 20.9107 49.1683 20.1682V20.1682C48.4257 19.4256 47.2217 19.4256 46.4792 20.1682L38.4116 28.2357C33.2136 33.4337 24.7861 33.4337 19.5881 28.2357L11.5209 20.1685C10.7783 19.426 9.57439 19.426 8.83182 20.1685V20.1685C8.08925 20.9111 8.08925 22.1151 8.83182 22.8576L27.6555 41.6813C28.3981 42.4239 29.602 42.4239 30.3446 41.6813L31.689 40.3369C31.6891 40.3368 31.6891 40.3367 31.689 40.3367V40.3367Z" fill="#3A3026"/>
</svg>
