<svg width="11" height="18" viewBox="0 0 11 18" fill="none" xmlns="http://www.w3.org/2000/svg">
<path fill-rule="evenodd" clip-rule="evenodd" d="M9.21449 7.20402C9.21448 7.20403 9.21446 7.20403 9.21445 7.20402L2.87056 0.884959C2.37994 0.396252 1.58603 0.397809 1.09733 0.888435V0.888435C0.608619 1.37906 0.610176 2.17297 1.1008 2.66167L3.82858 5.37877C5.82571 7.36809 5.83205 10.5998 3.84273 12.5969L1.12143 15.3289C0.630385 15.8219 0.63195 16.6196 1.12493 17.1106V17.1106C1.6179 17.6017 2.41561 17.6001 2.90665 17.1071L9.22993 10.759C9.22993 10.759 9.22994 10.759 9.22994 10.759V10.759C9.22994 10.759 9.22994 10.759 9.22994 10.759L10.9997 8.98228C10.9997 8.98228 10.9997 8.98228 10.9997 8.98228V8.98228C10.9997 8.98228 10.9997 8.98227 10.9997 8.98227L10.9997 8.98225C10.9997 8.98224 10.9997 8.98222 10.9997 8.98221L9.21454 7.20402C9.21453 7.204 9.21451 7.204 9.21449 7.20402V7.20402Z" fill="white"/>
</svg>
