<svg id="Layer_1" data-name="Layer 1" xmlns="http://www.w3.org/2000/svg" viewBox="0 0 55 55"><defs><style>.cls-1{fill:#fff;}.cls-2{fill:none;stroke:#d8d8d8;}.cls-3{isolation:isolate;}.cls-4{fill:#4568cc;}</style></defs><title>pl2-logo2</title><g id="Group_1" data-name="Group 1"><g id="Ellipse_9" data-name="Ellipse 9"><circle class="cls-1" cx="27.5" cy="27.5" r="27.5"/><circle class="cls-2" cx="27.5" cy="27.5" r="27"/></g><g id="PL" class="cls-3"><g class="cls-3"><path class="cls-4" d="M26.65,24.08c0,4.41-3.18,7.05-8.46,7.05h-6V38H10.66V17h7.53C23.47,17,26.65,19.64,26.65,24.08Zm-1.56,0c0-3.63-2.4-5.7-6.9-5.7h-6V29.75h6C22.69,29.75,25.09,27.68,25.09,24.08Z"/><path class="cls-4" d="M31.81,17h1.53V36.62H45.43V38H31.81Z"/></g></g><g id="_2" data-name=" 2" class="cls-3"><g class="cls-3"><path class="cls-4" d="M45.56,24.78V26h-7v-.95l4-3.85c1-1,1.23-1.63,1.23-2.25,0-1-.71-1.62-2.08-1.62a3.11,3.11,0,0,0-2.51,1.06l-.95-.82a4.51,4.51,0,0,1,3.58-1.49c2,0,3.36,1.05,3.36,2.73,0,1-.28,1.81-1.61,3.09l-3,2.88Z"/></g></g></g></svg>