<?xml version="1.0" encoding="UTF-8"?>
<svg width="772px" height="112px" viewBox="0 0 772 112" version="1.1" xmlns="http://www.w3.org/2000/svg" xmlns:xlink="http://www.w3.org/1999/xlink">
    <title>white final</title>
    <g id="Page-1" stroke="none" stroke-width="1" fill="none" fill-rule="evenodd">
        <g id="Desktop" transform="translate(-77.000000, -1309.000000)">
            <g id="white-final" transform="translate(77.000000, 1309.000000)">
                <g id="Group-7">
                    <rect id="Rectangle" stroke="#3466BB" stroke-width="5" fill="#FFFFFF" x="2.5" y="2.5" width="107" height="107"></rect>
                    <path d="M22.1389503,86 L22.1389503,77.3686412 L28.352481,77.3686412 C31.0846719,77.3686412 33.4569774,76.9139669 35.4693975,76.0046182 C37.4818176,75.0952695 39.031528,73.7834222 40.1185287,72.0690764 C41.2055293,70.3547305 41.7490297,68.3496912 41.7490297,66.0539585 C41.7490297,63.728411 41.2055293,61.715918 40.1185287,60.0164795 C39.031528,58.317041 37.4818176,57.0051937 35.4693975,56.0809377 C33.4569774,55.1566816 31.0846719,54.6945536 28.352481,54.6945536 L28.352481,54.6945536 L15,54.6945536 L15,86 L22.1389503,86 Z M27.9558727,71.4653285 L22.1389503,71.4653285 L22.1389503,60.5978664 L27.9558727,60.5978664 C30.1004956,60.5978664 31.7309966,61.0674481 32.8473756,62.0066115 C33.9637547,62.9457748 34.5219442,64.2948905 34.5219442,66.0539585 C34.5219442,67.7832117 33.9637547,69.11742 32.8473756,70.0565834 C31.7309966,70.9957468 30.1004956,71.4653285 27.9558727,71.4653285 L27.9558727,71.4653285 Z M69.8641548,86 L69.8641548,80.0966873 L54.3964292,80.0966873 L54.3964292,54.6945536 L47.257479,54.6945536 L47.257479,86 L69.8641548,86 Z M74.329671,61.6347558 C74.6234549,61.6347558 75.2763082,61.4856822 76.2882307,61.1875351 C81.4131287,59.5974172 86.554348,58.8023582 91.7118887,58.8023582 C92.1362433,58.8023582 92.7482932,58.9017406 93.5480385,59.1005053 C94.3477837,59.2992701 94.9435123,59.3986524 95.3352242,59.3986524 C95.7922215,59.3986524 96.1839334,59.1750421 96.5103601,58.7278214 C96.8367867,58.2806008 97,57.8250983 97,57.3613139 C97,56.5662549 96.7715014,55.8457327 96.3145041,55.1997473 C95.8575068,54.5537619 95.2536176,54.2307692 94.5028363,54.2307692 C94.3069804,54.2307692 94.1274457,54.247333 93.9642324,54.2804604 L93.9642324,54.2804604 L77.9040425,56.7153285 C78.2631118,56.317799 78.6874664,55.9037058 79.1771063,55.4730488 C84.1714337,50.9345873 87.2561653,47.9862437 88.4313011,46.628018 C91.8914233,42.6527232 93.6214844,38.9258843 93.6214844,35.4475014 C93.6214844,33.1285794 92.7319719,31.1409321 90.9529468,29.4845592 C89.1739217,27.8281864 87.141916,27 84.8569296,27 C82.9962978,27 81.2335941,27.3975295 79.5688183,28.1925884 C77.6755439,29.1201572 75.9128401,30.6108928 74.280707,32.6647951 C72.4853606,34.8843346 71.5876873,36.9713644 71.5876873,38.9258843 C71.5876873,39.3896687 71.938596,39.9031443 72.6404132,40.4663111 C73.3422304,41.0294778 73.937959,41.3110612 74.427599,41.3110612 C75.4068788,41.3110612 76.0923748,40.5822572 76.4840867,39.1246491 C76.6799427,37.9983156 76.89212,36.871982 77.1206186,35.7456485 C77.5123306,34.4536777 78.4997711,33.2610893 80.0829402,32.1678832 C81.6661094,31.0746771 83.1268685,30.5280741 84.4652177,30.5280741 C85.6729962,30.5280741 86.7094007,30.900758 87.5744312,31.6461258 C88.4394618,32.3914935 88.8719771,33.3770354 88.8719771,34.6027513 C88.8719771,37.6836047 87.1745586,41.3773161 83.7797217,45.6838855 C81.1683088,48.9303762 78.1978265,51.8952835 74.8682749,54.5786075 C73.6931391,55.5061763 72.9586792,56.135598 72.6648952,56.4668725 C71.8488286,57.3281864 71.4407954,58.1729366 71.4407954,59.001123 C71.4407954,59.7961819 71.7264187,60.4338855 72.2976653,60.9142336 C72.8689118,61.3945817 73.5462471,61.6347558 74.329671,61.6347558 Z" id="PL2" fill="#3466BB" fill-rule="nonzero"></path>
                </g>
                <g id="Group-8" transform="translate(145.000000, 9.000000)" fill="#000000" fill-rule="nonzero">
                    <path d="M5.13050498,80.7596656 L5.13050498,69.9049112 L14.0062786,69.9049112 C18.6579364,69.9049112 22.3176967,68.7955416 24.9855592,66.5768025 C27.6534218,64.3580634 28.9873531,61.3030303 28.9873531,57.4117032 C28.9873531,53.5203762 27.6534218,50.4653431 24.9855592,48.246604 C22.3176967,46.0278649 18.6579364,44.9184953 14.0062786,44.9184953 L14.0062786,44.9184953 L0,44.9184953 L0,80.7596656 L5.13050498,80.7596656 Z M13.8523634,65.4503657 L5.13050498,65.4503657 L5.13050498,49.3730408 L13.8523634,49.3730408 C17.1016833,49.3730408 19.5814273,50.0642633 21.2915957,51.4467085 C23.001764,52.8291536 23.8568481,54.8174852 23.8568481,57.4117032 C23.8568481,60.0059213 23.001764,61.9942529 21.2915957,63.376698 C19.5814273,64.7591432 17.1016833,65.4503657 13.8523634,65.4503657 L13.8523634,65.4503657 Z M48.431967,81.0668757 C50.6893892,81.0668757 52.7330403,80.6913967 54.5629204,79.9404389 C56.3928006,79.189481 57.9234012,78.0971787 59.1547224,76.6635319 L59.1547224,76.6635319 L56.4355548,73.4890282 C54.4517595,75.6736329 51.835202,76.7659352 48.5858821,76.7659352 C45.9180196,76.7659352 43.6862499,76.0405782 41.8905731,74.5898642 C40.0948964,73.1391501 39.0431429,71.2190874 38.7353126,68.8296761 L38.7353126,68.8296761 L60.796484,68.8296761 C60.8648907,68.215256 60.8990941,67.7203065 60.8990941,67.3448276 C60.8990941,64.6140718 60.3261877,62.1905259 59.1803749,60.0741902 C58.0345621,57.9578544 56.4441056,56.3108673 54.4090053,55.1332288 C52.373905,53.9555904 50.0566269,53.3667712 47.457171,53.3667712 C44.8577152,53.3667712 42.5233354,53.9555904 40.4540318,55.1332288 C38.3847281,56.3108673 36.7600682,57.9578544 35.580052,60.0741902 C34.4000359,62.1905259 33.8100278,64.5628701 33.8100278,67.1912226 C33.8100278,69.8537095 34.4171376,72.2431209 35.6313571,74.3594566 C36.8455766,76.4757924 38.5642958,78.1227795 40.7875146,79.300418 C43.0107334,80.4780564 45.5588842,81.0668757 48.431967,81.0668757 Z M56.1790295,65.2967607 L38.7353126,65.2967607 C39.0089395,62.9756183 39.9409813,61.0982236 41.5314378,59.6645768 C43.1218943,58.23093 45.0971388,57.5141066 47.457171,57.5141066 C49.8172033,57.5141066 51.7924478,58.2394636 53.3829043,59.6901776 C54.9733608,61.1408917 55.9054026,63.0097527 56.1790295,65.2967607 L56.1790295,65.2967607 Z M72.6479505,80.7596656 L72.6479505,67.2424242 C72.6479505,64.3068617 73.4089754,62.0454545 74.9310252,60.4582027 C76.453075,58.8709509 78.5480312,58.077325 81.2158938,58.077325 C81.6947409,58.077325 82.070978,58.0943922 82.3446049,58.1285266 L82.3446049,58.1285266 L82.3446049,53.3667712 C79.9503692,53.3667712 77.9152689,53.7763845 76.239304,54.5956113 C74.563339,55.414838 73.2978145,56.6095437 72.4427303,58.1797283 L72.4427303,58.1797283 L72.4427303,53.6227795 L67.7226657,53.6227795 L67.7226657,80.7596656 L72.6479505,80.7596656 Z M96.5561037,81.0668757 C100.181661,81.0668757 103.046192,80.3415186 105.1497,78.8908046 C107.253207,77.4400906 108.30496,75.4858934 108.30496,73.0282132 C108.30496,71.184953 107.826113,69.7513062 106.868419,68.7272727 C105.910724,67.7032393 104.756361,66.9778823 103.405328,66.5512017 C102.054295,66.1245211 100.284271,65.7234413 98.0952552,65.3479624 C96.4534936,65.0407524 95.1794182,64.7676768 94.273029,64.5287356 C93.3666398,64.2897945 92.6056149,63.9143156 91.9899543,63.4022989 C91.3742937,62.8902821 91.0664634,62.1905259 91.0664634,61.3030303 C91.0664634,60.1765935 91.6137172,59.2720307 92.708225,58.5893417 C93.8027327,57.9066527 95.3931892,57.5653083 97.4795946,57.5653083 C100.489491,57.5653083 103.106048,58.2821317 105.329267,59.7157785 L105.329267,59.7157785 L107.432774,55.8244514 C106.26986,55.0734936 104.782013,54.4761407 102.969235,54.0323929 C101.156456,53.5886451 99.3436781,53.3667712 97.5308996,53.3667712 C94.0763596,53.3667712 91.3229886,54.1091954 89.2707866,55.5940439 C87.2185846,57.0788924 86.1924836,59.0501567 86.1924836,61.507837 C86.1924836,63.4193661 86.6884324,64.9042146 87.6803301,65.9623824 C88.6722277,67.0205503 89.8607947,67.7715082 91.246031,68.215256 C92.6312674,68.6590038 94.4183933,69.05155 96.6074087,69.3928945 C98.214967,69.66597 99.454839,69.9134448 100.327025,70.1353187 C101.199211,70.3571926 101.926032,70.7070707 102.507489,71.184953 C103.088947,71.6628352 103.379675,72.3113898 103.379675,73.1306165 C103.379675,75.5882968 101.224863,76.8171369 96.915239,76.8171369 C95.1708673,76.8171369 93.4435973,76.5611285 91.733429,76.0491118 C90.0232607,75.5370951 88.5696176,74.8544061 87.3724998,74.0010449 L87.3724998,74.0010449 L85.3202978,77.892372 C86.4832122,78.8140021 88.0907705,79.5734936 90.1429725,80.1708464 C92.1951745,80.7681992 94.3328849,81.0668757 96.5561037,81.0668757 Z M126.107812,81.0668757 C128.809878,81.0668757 131.229766,80.4695228 133.367477,79.2748171 C135.505187,78.0801115 137.181152,76.4331243 138.395372,74.3338558 C139.609591,72.2345873 140.216701,69.8537095 140.216701,67.1912226 C140.216701,64.5287356 139.609591,62.1478579 138.395372,60.0485893 C137.181152,57.9493208 135.505187,56.3108673 133.367477,55.1332288 C131.229766,53.9555904 128.809878,53.3667712 126.107812,53.3667712 C123.405746,53.3667712 120.977307,53.9555904 118.822495,55.1332288 C116.667683,56.3108673 114.983167,57.9493208 113.768948,60.0485893 C112.554728,62.1478579 111.947619,64.5287356 111.947619,67.1912226 C111.947619,69.8537095 112.554728,72.2345873 113.768948,74.3338558 C114.983167,76.4331243 116.667683,78.0801115 118.822495,79.2748171 C120.977307,80.4695228 123.405746,81.0668757 126.107812,81.0668757 Z M126.107812,76.7659352 C124.363441,76.7659352 122.798637,76.3648555 121.4134,75.5626959 C120.028164,74.7605364 118.933656,73.6340996 118.129877,72.1833856 C117.326098,70.7326715 116.924208,69.0686172 116.924208,67.1912226 C116.924208,65.3138279 117.326098,63.6497736 118.129877,62.1990596 C118.933656,60.7483455 120.028164,59.6304424 121.4134,58.8453501 C122.798637,58.0602577 124.363441,57.6677116 126.107812,57.6677116 C127.852184,57.6677116 129.416988,58.0602577 130.802224,58.8453501 C132.187461,59.6304424 133.273418,60.7483455 134.060095,62.1990596 C134.846773,63.6497736 135.240111,65.3138279 135.240111,67.1912226 C135.240111,69.0686172 134.846773,70.7326715 134.060095,72.1833856 C133.273418,73.6340996 132.187461,74.7605364 130.802224,75.5626959 C129.416988,76.3648555 127.852184,76.7659352 126.107812,76.7659352 Z M151.965557,80.7596656 L151.965557,66.7816092 C151.965557,63.8801811 152.735133,61.6529084 154.274285,60.099791 C155.813436,58.5466736 157.916943,57.7701149 160.584806,57.7701149 C162.944838,57.7701149 164.757617,58.4357367 166.023141,59.7669801 C167.288666,61.0982236 167.921428,63.0780216 167.921428,65.7063741 L167.921428,65.7063741 L167.921428,80.7596656 L172.846713,80.7596656 L172.846713,65.1431557 C172.846713,61.2859631 171.829163,58.3589342 169.794062,56.362069 C167.758962,54.3652038 165.014142,53.3667712 161.559602,53.3667712 C159.40479,53.3667712 157.48085,53.7422501 155.787784,54.4932079 C154.094717,55.2441658 152.752235,56.3194009 151.760337,57.7189133 L151.760337,57.7189133 L151.760337,53.6227795 L147.040273,53.6227795 L147.040273,80.7596656 L151.965557,80.7596656 Z M189.931294,81.0668757 C192.0177,81.0668757 193.821927,80.7340648 195.343977,80.0684431 C196.866027,79.4028213 198.037492,78.4385232 198.858373,77.1755486 L198.858373,77.1755486 L198.858373,80.7596656 L203.527132,80.7596656 L203.527132,64.3751306 C203.527132,60.7227447 202.526684,57.9749216 200.525787,56.1316614 C198.52489,54.2884013 195.643256,53.3667712 191.880886,53.3667712 C189.691871,53.3667712 187.622567,53.6654476 185.672975,54.2628004 C183.723383,54.8601533 182.047418,55.7220481 180.64508,56.8484848 L180.64508,56.8484848 L182.697282,60.5350052 C183.757587,59.6475096 185.057315,58.9392198 186.596466,58.4101358 C188.135618,57.8810519 189.708972,57.6165099 191.316531,57.6165099 C193.710766,57.6165099 195.523545,58.1797283 196.754866,59.3061651 C197.986187,60.4326019 198.601848,62.0539882 198.601848,64.1703239 L198.601848,64.1703239 L198.601848,65.1431557 L190.80348,65.1431557 C187.006906,65.1431557 184.236434,65.8685127 182.492062,67.3192268 C180.74769,68.7699408 179.875505,70.6900035 179.875505,73.0794148 C179.875505,75.4688262 180.790445,77.3974225 182.620325,78.8652038 C184.450205,80.332985 186.887195,81.0668757 189.931294,81.0668757 Z M190.752175,77.2779519 C188.87099,77.2779519 187.400245,76.8854058 186.339941,76.1003135 C185.279636,75.3152212 184.749484,74.2399861 184.749484,72.8746082 C184.749484,70.0755834 186.83589,68.6760711 191.0087,68.6760711 L191.0087,68.6760711 L198.601848,68.6760711 L198.601848,72.4649948 C197.986187,74.0010449 196.994289,75.187217 195.626155,76.023511 C194.25802,76.8598049 192.63336,77.2779519 190.752175,77.2779519 Z M217.584716,80.7596656 L217.584716,42.7680251 L212.659431,42.7680251 L212.659431,80.7596656 L217.584716,80.7596656 Z M229.436183,48.400209 C230.393877,48.400209 231.189105,48.0844653 231.821867,47.4529781 C232.45463,46.8214908 232.771011,46.0449321 232.771011,45.123302 C232.771011,44.2358063 232.45463,43.4933821 231.821867,42.8960293 C231.189105,42.2986764 230.393877,42 229.436183,42 C228.478488,42 227.68326,42.3157436 227.050498,42.9472309 C226.417736,43.5787182 226.101354,44.3382097 226.101354,45.2257053 C226.101354,46.113201 226.417736,46.8641588 227.050498,47.4785789 C227.68326,48.092999 228.478488,48.400209 229.436183,48.400209 Z M231.898825,80.7596656 L231.898825,53.6227795 L226.97354,53.6227795 L226.97354,80.7596656 L231.898825,80.7596656 Z M261.450534,80.7596656 L261.450534,76.7147335 L244.981613,76.7147335 L261.040093,56.8484848 L261.040093,53.6227795 L238.978922,53.6227795 L238.978922,57.6677116 L254.729572,57.6677116 L238.671092,77.585162 L238.671092,80.7596656 L261.450534,80.7596656 Z M280.125572,81.0668757 C282.382994,81.0668757 284.426645,80.6913967 286.256525,79.9404389 C288.086405,79.189481 289.617006,78.0971787 290.848327,76.6635319 L290.848327,76.6635319 L288.12916,73.4890282 C286.145364,75.6736329 283.528807,76.7659352 280.279487,76.7659352 C277.611624,76.7659352 275.379855,76.0405782 273.584178,74.5898642 C271.788501,73.1391501 270.736748,71.2190874 270.428917,68.8296761 L270.428917,68.8296761 L292.490089,68.8296761 C292.558496,68.215256 292.592699,67.7203065 292.592699,67.3448276 C292.592699,64.6140718 292.019793,62.1905259 290.87398,60.0741902 C289.728167,57.9578544 288.13771,56.3108673 286.10261,55.1332288 C284.06751,53.9555904 281.750232,53.3667712 279.150776,53.3667712 C276.55132,53.3667712 274.21694,53.9555904 272.147637,55.1332288 C270.078333,56.3108673 268.453673,57.9578544 267.273657,60.0741902 C266.093641,62.1905259 265.503633,64.5628701 265.503633,67.1912226 C265.503633,69.8537095 266.110742,72.2431209 267.324962,74.3594566 C268.539181,76.4757924 270.257901,78.1227795 272.481119,79.300418 C274.704338,80.4780564 277.252489,81.0668757 280.125572,81.0668757 Z M287.872634,65.2967607 L270.428917,65.2967607 C270.702544,62.9756183 271.634586,61.0982236 273.225043,59.6645768 C274.815499,58.23093 276.790744,57.5141066 279.150776,57.5141066 C281.510808,57.5141066 283.486053,58.2394636 285.076509,59.6901776 C286.666966,61.1408917 287.599007,63.0097527 287.872634,65.2967607 L287.872634,65.2967607 Z M310.652076,81.0668757 C312.670075,81.0668757 314.517057,80.6743295 316.193022,79.8892372 C317.868987,79.1041449 319.254223,77.9606409 320.348731,76.4587252 L320.348731,76.4587252 L320.348731,80.7596656 L325.068795,80.7596656 L325.068795,42.7680251 L320.143511,42.7680251 L320.143511,57.7189133 C319.049003,56.2852665 317.680868,55.2014977 316.039107,54.4676071 C314.397345,53.7337165 312.601668,53.3667712 310.652076,53.3667712 C308.018417,53.3667712 305.658385,53.9470568 303.57198,55.107628 C301.485574,56.2681992 299.852363,57.8895855 298.672347,59.9717868 C297.492331,62.0539882 296.902323,64.4604667 296.902323,67.1912226 C296.902323,69.9219784 297.492331,72.3369906 298.672347,74.4362591 C299.852363,76.5355277 301.485574,78.1654476 303.57198,79.3260188 C305.658385,80.48659 308.018417,81.0668757 310.652076,81.0668757 Z M311.062517,76.7659352 C309.318145,76.7659352 307.753341,76.3648555 306.368105,75.5626959 C304.982868,74.7605364 303.888361,73.6340996 303.084582,72.1833856 C302.280802,70.7326715 301.878913,69.0686172 301.878913,67.1912226 C301.878913,65.3138279 302.280802,63.6497736 303.084582,62.1990596 C303.888361,60.7483455 304.982868,59.6304424 306.368105,58.8453501 C307.753341,58.0602577 309.318145,57.6677116 311.062517,57.6677116 C312.772685,57.6677116 314.328938,58.0602577 315.731276,58.8453501 C317.133614,59.6304424 318.228122,60.7483455 319.0148,62.1990596 C319.801477,63.6497736 320.194816,65.3138279 320.194816,67.1912226 C320.194816,69.0686172 319.801477,70.7326715 319.0148,72.1833856 C318.228122,73.6340996 317.133614,74.7605364 315.731276,75.5626959 C314.328938,76.3648555 312.772685,76.7659352 311.062517,76.7659352 Z M373.500762,80.7596656 L373.500762,76.3051202 L354.056149,76.3051202 L354.056149,44.9184953 L348.925644,44.9184953 L348.925644,80.7596656 L373.500762,80.7596656 Z M390.790564,81.0668757 C393.047986,81.0668757 395.091638,80.6913967 396.921518,79.9404389 C398.751398,79.189481 400.281998,78.0971787 401.51332,76.6635319 L401.51332,76.6635319 L398.794152,73.4890282 C396.810357,75.6736329 394.193799,76.7659352 390.944479,76.7659352 C388.276617,76.7659352 386.044847,76.0405782 384.24917,74.5898642 C382.453494,73.1391501 381.40174,71.2190874 381.09391,68.8296761 L381.09391,68.8296761 L403.155081,68.8296761 C403.223488,68.215256 403.257691,67.7203065 403.257691,67.3448276 C403.257691,64.6140718 402.684785,62.1905259 401.538972,60.0741902 C400.393159,57.9578544 398.802703,56.3108673 396.767602,55.1332288 C394.732502,53.9555904 392.415224,53.3667712 389.815768,53.3667712 C387.216312,53.3667712 384.881933,53.9555904 382.812629,55.1332288 C380.743325,56.3108673 379.118665,57.9578544 377.938649,60.0741902 C376.758633,62.1905259 376.168625,64.5628701 376.168625,67.1912226 C376.168625,69.8537095 376.775735,72.2431209 377.989954,74.3594566 C379.204174,76.4757924 380.922893,78.1227795 383.146112,79.300418 C385.369331,80.4780564 387.917481,81.0668757 390.790564,81.0668757 Z M398.537627,65.2967607 L381.09391,65.2967607 C381.367537,62.9756183 382.299578,61.0982236 383.890035,59.6645768 C385.480492,58.23093 387.455736,57.5141066 389.815768,57.5141066 C392.175801,57.5141066 394.151045,58.2394636 395.741501,59.6901776 C397.331958,61.1408917 398.264,63.0097527 398.537627,65.2967607 L398.537627,65.2967607 Z M418.033546,81.0668757 C420.119951,81.0668757 421.924179,80.7340648 423.446228,80.0684431 C424.968278,79.4028213 426.139743,78.4385232 426.960624,77.1755486 L426.960624,77.1755486 L426.960624,80.7596656 L431.629384,80.7596656 L431.629384,64.3751306 C431.629384,60.7227447 430.628935,57.9749216 428.628038,56.1316614 C426.627141,54.2884013 423.745508,53.3667712 419.983138,53.3667712 C417.794122,53.3667712 415.724818,53.6654476 413.775226,54.2628004 C411.825635,54.8601533 410.14967,55.7220481 408.747332,56.8484848 L408.747332,56.8484848 L410.799534,60.5350052 C411.859838,59.6475096 413.159566,58.9392198 414.698717,58.4101358 C416.237869,57.8810519 417.811224,57.6165099 419.418782,57.6165099 C421.813018,57.6165099 423.625796,58.1797283 424.857117,59.3061651 C426.088438,60.4326019 426.704099,62.0539882 426.704099,64.1703239 L426.704099,64.1703239 L426.704099,65.1431557 L418.905731,65.1431557 C415.109158,65.1431557 412.338685,65.8685127 410.594313,67.3192268 C408.849942,68.7699408 407.977756,70.6900035 407.977756,73.0794148 C407.977756,75.4688262 408.892696,77.3974225 410.722576,78.8652038 C412.552456,80.332985 414.989446,81.0668757 418.033546,81.0668757 Z M418.854426,77.2779519 C416.973241,77.2779519 415.502496,76.8854058 414.442192,76.1003135 C413.381888,75.3152212 412.851736,74.2399861 412.851736,72.8746082 C412.851736,70.0755834 414.938141,68.6760711 419.110952,68.6760711 L419.110952,68.6760711 L426.704099,68.6760711 L426.704099,72.4649948 C426.088438,74.0010449 425.096541,75.187217 423.728406,76.023511 C422.360271,76.8598049 420.735612,77.2779519 418.854426,77.2779519 Z M445.686967,80.7596656 L445.686967,67.2424242 C445.686967,64.3068617 446.447992,62.0454545 447.970042,60.4582027 C449.492092,58.8709509 451.587048,58.077325 454.254911,58.077325 C454.733758,58.077325 455.109995,58.0943922 455.383622,58.1285266 L455.383622,58.1285266 L455.383622,53.3667712 C452.989386,53.3667712 450.954286,53.7763845 449.278321,54.5956113 C447.602356,55.414838 446.336831,56.6095437 445.481747,58.1797283 L445.481747,58.1797283 L445.481747,53.6227795 L440.761683,53.6227795 L440.761683,80.7596656 L445.686967,80.7596656 Z M466.722038,80.7596656 L466.722038,66.7816092 C466.722038,63.8801811 467.491614,61.6529084 469.030765,60.099791 C470.569917,58.5466736 472.673424,57.7701149 475.341286,57.7701149 C477.701319,57.7701149 479.514097,58.4357367 480.779621,59.7669801 C482.045146,61.0982236 482.677908,63.0780216 482.677908,65.7063741 L482.677908,65.7063741 L482.677908,80.7596656 L487.603193,80.7596656 L487.603193,65.1431557 C487.603193,61.2859631 486.585643,58.3589342 484.550543,56.362069 C482.515442,54.3652038 479.770622,53.3667712 476.316082,53.3667712 C474.16127,53.3667712 472.237331,53.7422501 470.544264,54.4932079 C468.851197,55.2441658 467.508715,56.3194009 466.516818,57.7189133 L466.516818,57.7189133 L466.516818,53.6227795 L461.796753,53.6227795 L461.796753,80.7596656 L466.722038,80.7596656 Z M499.198134,48.400209 C500.155829,48.400209 500.951057,48.0844653 501.583819,47.4529781 C502.216581,46.8214908 502.532963,46.0449321 502.532963,45.123302 C502.532963,44.2358063 502.216581,43.4933821 501.583819,42.8960293 C500.951057,42.2986764 500.155829,42 499.198134,42 C498.24044,42 497.445212,42.3157436 496.81245,42.9472309 C496.179687,43.5787182 495.863306,44.3382097 495.863306,45.2257053 C495.863306,46.113201 496.179687,46.8641588 496.81245,47.4785789 C497.445212,48.092999 498.24044,48.400209 499.198134,48.400209 Z M501.660777,80.7596656 L501.660777,53.6227795 L496.735492,53.6227795 L496.735492,80.7596656 L501.660777,80.7596656 Z M515.974886,80.7596656 L515.974886,66.7816092 C515.974886,63.8801811 516.744461,61.6529084 518.283613,60.099791 C519.822764,58.5466736 521.926271,57.7701149 524.594134,57.7701149 C526.954166,57.7701149 528.766945,58.4357367 530.032469,59.7669801 C531.297994,61.0982236 531.930756,63.0780216 531.930756,65.7063741 L531.930756,65.7063741 L531.930756,80.7596656 L536.856041,80.7596656 L536.856041,65.1431557 C536.856041,61.2859631 535.838491,58.3589342 533.80339,56.362069 C531.76829,54.3652038 529.02347,53.3667712 525.56893,53.3667712 C523.414118,53.3667712 521.490178,53.7422501 519.797112,54.4932079 C518.104045,55.2441658 516.761563,56.3194009 515.769665,57.7189133 L515.769665,57.7189133 L515.769665,53.6227795 L511.049601,53.6227795 L511.049601,80.7596656 L515.974886,80.7596656 Z M557.891111,91 C562.576973,91 566.099919,89.8650296 568.459952,87.5950888 C570.819984,85.325148 572,81.8178335 572,77.0731452 L572,77.0731452 L572,53.6227795 L567.33124,53.6227795 L567.33124,57.8213166 C566.202529,56.3535354 564.757437,55.2441658 562.995964,54.4932079 C561.23449,53.7422501 559.327653,53.3667712 557.275451,53.3667712 C554.675995,53.3667712 552.324513,53.9129223 550.221006,55.0052247 C548.117499,56.097527 546.467187,57.6421108 545.270069,59.638976 C544.072951,61.6358412 543.474392,63.9143156 543.474392,66.4743992 C543.474392,69.0344828 544.072951,71.3129572 545.270069,73.3098224 C546.467187,75.3066876 548.117499,76.8598049 550.221006,77.9691745 C552.324513,79.0785441 554.675995,79.6332288 557.275451,79.6332288 C559.259246,79.6332288 561.097677,79.2833507 562.790744,78.5835946 C564.48381,77.8838384 565.911801,76.8342041 567.074715,75.4346917 L567.074715,75.4346917 L567.074715,77.585162 C567.074715,80.6572623 566.31369,82.9442703 564.791641,84.446186 C563.269591,85.9481017 560.918109,86.6990596 557.737196,86.6990596 C555.753401,86.6990596 553.829462,86.3833159 551.965378,85.7518286 C550.101295,85.1203413 548.536491,84.2584465 547.270966,83.1661442 L547.270966,83.1661442 L544.910934,86.9550679 C546.347475,88.2521769 548.22866,89.2506095 550.554489,89.9503657 C552.880318,90.6501219 555.325859,91 557.891111,91 Z M557.839806,75.3322884 C556.027028,75.3322884 554.410919,74.9568095 552.991479,74.2058516 C551.572039,73.4548938 550.46043,72.4052595 549.656651,71.0569488 C548.852872,69.7086381 548.450982,68.1811216 548.450982,66.4743992 C548.450982,63.8460467 549.323168,61.7211773 551.06754,60.099791 C552.811911,58.4784047 555.069334,57.6677116 557.839806,57.6677116 C560.576076,57.6677116 562.816396,58.4784047 564.560768,60.099791 C566.305139,61.7211773 567.177325,63.8460467 567.177325,66.4743992 C567.177325,68.1811216 566.775436,69.7086381 565.971657,71.0569488 C565.167878,72.4052595 564.056268,73.4548938 562.636828,74.2058516 C561.217389,74.9568095 559.618381,75.3322884 557.839806,75.3322884 Z" id="PersonalizedLearning"></path>
                    <path d="M591.521073,54 C591.980843,54 593.002554,53.7675753 594.586207,53.302726 C602.606641,50.8235294 610.652618,49.5839311 618.724138,49.5839311 C619.38825,49.5839311 620.346105,49.7388809 621.597701,50.0487805 C622.849298,50.3586801 623.781609,50.5136298 624.394636,50.5136298 C625.109834,50.5136298 625.722861,50.1649928 626.233716,49.4677188 C626.744572,48.7704448 627,48.0602582 627,47.3371593 C627,46.097561 626.642401,44.974175 625.927203,43.9670014 C625.212005,42.9598278 624.266922,42.456241 623.091954,42.456241 C622.785441,42.456241 622.50447,42.482066 622.249042,42.5337159 L622.249042,42.5337159 L597.114943,46.3299857 C597.676884,45.7101865 598.340996,45.0645624 599.10728,44.3931133 C604.910136,39.1396896 609.065746,35.2527835 611.574111,32.732395 L611.873025,32.4306058 C612.599728,31.693207 613.172065,31.0838659 613.590038,30.6025825 C619.005109,24.4045911 621.712644,18.5939742 621.712644,13.1707317 C621.712644,9.55523673 620.320562,6.45624103 617.536398,3.87374462 C614.752235,1.29124821 611.572158,0 607.996169,0 C605.084291,0 602.32567,0.619799139 599.720307,1.85939742 C596.757344,3.30559541 593.998723,5.62984218 591.444444,8.83213773 C588.634738,12.2926829 587.229885,15.5466284 587.229885,18.5939742 C587.229885,19.3170732 587.779055,20.1176471 588.877395,20.9956958 C589.975734,21.8737446 590.908046,22.312769 591.67433,22.312769 C593.206897,22.312769 594.279693,21.1764706 594.89272,18.9038737 C595.199234,17.1477762 595.53129,15.3916786 595.888889,13.6355811 C596.501916,11.6212339 598.047254,9.76183644 600.524904,8.05738881 C603.002554,6.35294118 605.288633,5.50071736 607.383142,5.50071736 C609.273308,5.50071736 610.895275,6.08177905 612.249042,7.24390244 C613.60281,8.40602582 614.279693,9.94261119 614.279693,11.8536585 C614.279693,16.6571019 611.623244,22.4160689 606.310345,29.1305595 C602.223499,34.1922525 597.574713,38.8149211 592.363985,42.9985653 C590.524904,44.4447633 589.375479,45.4261119 588.915709,45.9426112 C587.63857,47.2855093 587,48.6025825 587,49.8938307 C587,51.133429 587.446999,52.1276901 588.340996,52.8766141 C589.234994,53.625538 590.295019,54 591.521073,54 Z" id="2"></path>
                </g>
            </g>
        </g>
    </g>
</svg>