<svg width="200" height="64" viewBox="0 0 200 64" fill="none" xmlns="http://www.w3.org/2000/svg">
<rect y="2" width="60" height="60" rx="6.2461" fill="white"/>
<mask id="mask0_395_4565" style="mask-type:alpha" maskUnits="userSpaceOnUse" x="0" y="2" width="60" height="60">
<rect y="2" width="60" height="60" rx="6.2461" fill="white"/>
</mask>
<g mask="url(#mask0_395_4565)">
<g opacity="0.9" filter="url(#filter0_f_395_4565)">
<path d="M46.4567 36.6852C55.4272 45.6557 55.4272 60.1998 46.4567 69.1703C37.4862 78.1408 22.9421 78.1408 13.9716 69.1703C5.00105 60.1998 5.00105 45.6557 13.9716 36.6852C22.9421 27.7147 37.4862 27.7147 46.4567 36.6852Z" fill="#FFAD32"/>
</g>
<g opacity="0.9" filter="url(#filter1_f_395_4565)">
<path d="M46.4567 36.6852C55.4272 45.6557 55.4272 60.1998 46.4567 69.1703C37.4862 78.1408 22.9421 78.1408 13.9716 69.1703C5.00105 60.1998 5.00105 45.6557 13.9716 36.6852C22.9421 27.7147 37.4862 27.7147 46.4567 36.6852Z" fill="#FFAD32"/>
</g>
<g opacity="0.9" filter="url(#filter2_f_395_4565)">
<path d="M29.1986 -10.3332C39.9817 0.449945 39.9817 17.9329 29.1986 28.716C18.4155 39.4991 0.932557 39.4991 -9.85058 28.716C-20.6337 17.9329 -20.6337 0.449941 -9.85058 -10.3332C0.932557 -21.1163 18.4155 -21.1163 29.1986 -10.3332Z" fill="#F8C362"/>
</g>
<g opacity="0.9" filter="url(#filter3_f_395_4565)">
<circle cx="56.0073" cy="55.0225" r="25.8209" transform="rotate(-45 56.0073 55.0225)" fill="#98CCC0"/>
</g>
<g opacity="0.9" filter="url(#filter4_f_395_4565)">
<path d="M19.2885 23.9513C31.4123 36.0751 31.4123 55.7316 19.2885 67.8553C7.1648 79.979 -12.4917 79.979 -24.6154 67.8553C-36.7391 55.7316 -36.7391 36.0751 -24.6154 23.9513C-12.4917 11.8276 7.1648 11.8276 19.2885 23.9513Z" fill="#F1949E"/>
</g>
<g opacity="0.9" filter="url(#filter5_f_395_4565)">
<ellipse cx="54.9244" cy="3.19245" rx="28.209" ry="28.3582" transform="rotate(-45 54.9244 3.19245)" fill="#6CB8F8"/>
</g>
</g>
<rect x="43.8095" y="9.61914" width="3.80952" height="15.2381" rx="0.965668" fill="white"/>
<rect x="53.3333" y="15.334" width="3.80952" height="15.2381" rx="0.965668" transform="rotate(90 53.3333 15.334)" fill="white"/>
<path d="M88.3005 4.45117C93.2752 4.45117 96.905 5.4707 99.1902 7.50977C101.475 9.54883 102.618 12.4053 102.618 16.0791C102.618 17.749 102.354 19.3398 101.827 20.8516C101.317 22.3457 100.473 23.6729 99.2957 24.833C98.1179 25.9756 96.5623 26.8809 94.6287 27.5488C92.7127 28.2168 90.3484 28.5508 87.5359 28.5508H83.4226V43H77.0945V4.45117H88.3005ZM87.8787 9.69824H83.4226V23.2773H86.8767C88.863 23.2773 90.5505 23.0488 91.9392 22.5918C93.3279 22.1172 94.3826 21.3701 95.1033 20.3506C95.824 19.3311 96.1843 17.9863 96.1843 16.3164C96.1843 14.084 95.5076 12.4229 94.1541 11.333C92.8181 10.2432 90.7263 9.69824 87.8787 9.69824ZM108.157 43V4.45117H114.485V37.6211H130.859V43H108.157ZM165.64 4.45117V29.3945C165.64 32.084 165.068 34.4922 163.926 36.6191C162.801 38.7461 161.096 40.4336 158.811 41.6816C156.525 42.9121 153.651 43.5273 150.189 43.5273C145.249 43.5273 141.487 42.2354 138.903 39.6514C136.337 37.0498 135.054 33.5957 135.054 29.2891V4.45117H141.382V28.7354C141.382 31.9521 142.138 34.3252 143.649 35.8545C145.161 37.3838 147.42 38.1484 150.426 38.1484C152.5 38.1484 154.188 37.7881 155.488 37.0674C156.807 36.3291 157.774 35.2568 158.389 33.8506C159.022 32.4268 159.338 30.7129 159.338 28.709V4.45117H165.64ZM195.595 32.5059C195.595 34.791 195.032 36.7598 193.907 38.4121C192.8 40.0645 191.2 41.3301 189.109 42.209C187.034 43.0879 184.556 43.5273 181.673 43.5273C180.267 43.5273 178.922 43.4482 177.639 43.29C176.356 43.1318 175.143 42.9033 174 42.6045C172.875 42.2881 171.847 41.9102 170.915 41.4707V35.5117C172.48 36.1973 174.229 36.8213 176.162 37.3838C178.096 37.9287 180.065 38.2012 182.069 38.2012C183.703 38.2012 185.057 37.9902 186.129 37.5684C187.219 37.1289 188.028 36.5137 188.555 35.7227C189.082 34.9141 189.346 33.9736 189.346 32.9014C189.346 31.7588 189.038 30.792 188.423 30.001C187.808 29.21 186.876 28.4893 185.628 27.8389C184.398 27.1709 182.851 26.459 180.988 25.7031C179.722 25.1934 178.509 24.6133 177.349 23.9629C176.206 23.3125 175.187 22.5479 174.29 21.6689C173.394 20.79 172.682 19.7529 172.155 18.5576C171.645 17.3447 171.39 15.9209 171.39 14.2861C171.39 12.1064 171.908 10.2432 172.946 8.69629C174 7.14941 175.477 5.96289 177.375 5.13672C179.291 4.31055 181.524 3.89746 184.072 3.89746C186.094 3.89746 187.992 4.1084 189.768 4.53027C191.561 4.95215 193.319 5.5498 195.041 6.32324L193.037 11.4121C191.455 10.7617 189.917 10.2432 188.423 9.85645C186.947 9.46973 185.435 9.27637 183.888 9.27637C182.552 9.27637 181.418 9.47852 180.487 9.88281C179.555 10.2871 178.843 10.8584 178.351 11.5967C177.876 12.3174 177.639 13.1787 177.639 14.1807C177.639 15.3057 177.911 16.2549 178.456 17.0283C179.019 17.7842 179.88 18.4785 181.04 19.1113C182.218 19.7441 183.73 20.4473 185.575 21.2207C187.702 22.0996 189.504 23.0225 190.981 23.9893C192.475 24.9561 193.617 26.1162 194.408 27.4697C195.199 28.8057 195.595 30.4844 195.595 32.5059Z" fill="#424242"/>
<path d="M76.956 52.4336C78.0615 52.4336 78.8681 52.6602 79.3759 53.1133C79.8838 53.5664 80.1377 54.2012 80.1377 55.0176C80.1377 55.3887 80.0791 55.7422 79.9619 56.0781C79.8486 56.4102 79.6611 56.7051 79.3994 56.9629C79.1377 57.2168 78.792 57.418 78.3623 57.5664C77.9365 57.7148 77.4111 57.7891 76.7861 57.7891H75.872V61H74.4658V52.4336H76.956ZM76.8623 53.5996H75.872V56.6172H76.6396C77.081 56.6172 77.456 56.5664 77.7646 56.4648C78.0732 56.3594 78.3076 56.1934 78.4677 55.9668C78.6279 55.7402 78.708 55.4414 78.708 55.0703C78.708 54.5742 78.5576 54.2051 78.2568 53.9629C77.9599 53.7207 77.4951 53.5996 76.8623 53.5996ZM83.812 54.3906C84.3901 54.3906 84.8862 54.5098 85.3002 54.748C85.7143 54.9863 86.0327 55.3242 86.2553 55.7617C86.478 56.1992 86.5893 56.7227 86.5893 57.332V58.0703H82.2592C82.2748 58.6992 82.4428 59.1836 82.7631 59.5234C83.0873 59.8633 83.5405 60.0332 84.1225 60.0332C84.5366 60.0332 84.9077 59.9941 85.2358 59.916C85.5678 59.834 85.9096 59.7148 86.2612 59.5586V60.6777C85.937 60.8301 85.6069 60.9414 85.2709 61.0117C84.935 61.082 84.5327 61.1172 84.0639 61.1172C83.4272 61.1172 82.8666 60.9941 82.3823 60.748C81.9018 60.498 81.5248 60.127 81.2514 59.6348C80.9819 59.1426 80.8471 58.5312 80.8471 57.8008C80.8471 57.0742 80.9702 56.457 81.2163 55.9492C81.4623 55.4414 81.808 55.0547 82.2534 54.7891C82.6987 54.5234 83.2182 54.3906 83.812 54.3906ZM83.812 55.4277C83.3784 55.4277 83.0268 55.5684 82.7573 55.8496C82.4916 56.1309 82.3354 56.543 82.2885 57.0859H85.2416C85.2377 56.7617 85.183 56.4746 85.0776 56.2246C84.976 55.9746 84.8198 55.7793 84.6088 55.6387C84.4018 55.498 84.1362 55.4277 83.812 55.4277ZM90.9491 54.3906C91.0585 54.3906 91.1777 54.3965 91.3066 54.4082C91.4355 54.4199 91.5468 54.4355 91.6405 54.4551L91.5116 55.7441C91.4296 55.7207 91.328 55.7031 91.207 55.6914C91.0898 55.6797 90.9843 55.6738 90.8905 55.6738C90.6445 55.6738 90.4101 55.7148 90.1874 55.7969C89.9648 55.875 89.7675 55.9961 89.5956 56.1602C89.4238 56.3203 89.289 56.5215 89.1913 56.7637C89.0937 57.0059 89.0448 57.2871 89.0448 57.6074V61H87.662V54.5137H88.7402L88.9277 55.6562H88.9921C89.121 55.4258 89.2812 55.2148 89.4726 55.0234C89.664 54.832 89.8827 54.6797 90.1288 54.5664C90.3788 54.4492 90.6523 54.3906 90.9491 54.3906ZM96.7211 59.1484C96.7211 59.5742 96.6176 59.9336 96.4105 60.2266C96.2035 60.5195 95.9008 60.7422 95.5023 60.8945C95.1078 61.043 94.6234 61.1172 94.0492 61.1172C93.5961 61.1172 93.2055 61.084 92.8773 61.0176C92.5531 60.9551 92.2465 60.8574 91.9574 60.7246V59.5352C92.266 59.6797 92.6117 59.8047 92.9945 59.9102C93.3813 60.0156 93.7465 60.0684 94.0902 60.0684C94.5434 60.0684 94.8695 59.998 95.0688 59.8574C95.268 59.7129 95.3676 59.5215 95.3676 59.2832C95.3676 59.1426 95.3266 59.0176 95.2445 58.9082C95.1664 58.7949 95.018 58.6797 94.7992 58.5625C94.5844 58.4414 94.268 58.2969 93.85 58.1289C93.4398 57.9648 93.0941 57.8008 92.8129 57.6367C92.5316 57.4727 92.3188 57.2754 92.1742 57.0449C92.0297 56.8105 91.9574 56.5117 91.9574 56.1484C91.9574 55.5742 92.184 55.1387 92.6371 54.8418C93.0941 54.541 93.6977 54.3906 94.4477 54.3906C94.8461 54.3906 95.2211 54.4316 95.5727 54.5137C95.9281 54.5918 96.2758 54.707 96.6156 54.8594L96.182 55.8965C95.8891 55.7676 95.5941 55.6621 95.2973 55.5801C95.0043 55.4941 94.7055 55.4512 94.4008 55.4512C94.0453 55.4512 93.7738 55.5059 93.5863 55.6152C93.4027 55.7246 93.3109 55.8809 93.3109 56.084C93.3109 56.2363 93.3559 56.3652 93.4457 56.4707C93.5355 56.5762 93.6898 56.6816 93.9086 56.7871C94.1313 56.8926 94.4398 57.0234 94.8344 57.1797C95.2211 57.3281 95.5551 57.4844 95.8363 57.6484C96.1215 57.8086 96.3402 58.0059 96.4926 58.2402C96.6449 58.4746 96.7211 58.7773 96.7211 59.1484ZM103.472 57.7422C103.472 58.2812 103.401 58.7598 103.261 59.1777C103.12 59.5957 102.915 59.9492 102.645 60.2383C102.376 60.5234 102.052 60.7422 101.673 60.8945C101.294 61.043 100.866 61.1172 100.39 61.1172C99.9442 61.1172 99.536 61.043 99.1649 60.8945C98.7938 60.7422 98.4716 60.5234 98.1981 60.2383C97.9286 59.9492 97.7196 59.5957 97.5712 59.1777C97.4227 58.7598 97.3485 58.2812 97.3485 57.7422C97.3485 57.0273 97.4716 56.4219 97.7177 55.9258C97.9677 55.4258 98.3231 55.0449 98.7841 54.7832C99.245 54.5215 99.7938 54.3906 100.431 54.3906C101.028 54.3906 101.556 54.5215 102.013 54.7832C102.47 55.0449 102.827 55.4258 103.085 55.9258C103.343 56.4258 103.472 57.0312 103.472 57.7422ZM98.7665 57.7422C98.7665 58.2148 98.8231 58.6191 98.9364 58.9551C99.0536 59.291 99.2333 59.5488 99.4755 59.7285C99.7177 59.9043 100.03 59.9922 100.413 59.9922C100.796 59.9922 101.108 59.9043 101.35 59.7285C101.593 59.5488 101.77 59.291 101.884 58.9551C101.997 58.6191 102.054 58.2148 102.054 57.7422C102.054 57.2695 101.997 56.8691 101.884 56.541C101.77 56.209 101.593 55.957 101.35 55.7852C101.108 55.6094 100.794 55.5215 100.407 55.5215C99.8368 55.5215 99.4208 55.7129 99.1591 56.0957C98.8973 56.4785 98.7665 57.0273 98.7665 57.7422ZM107.954 54.3906C108.685 54.3906 109.253 54.5801 109.66 54.959C110.07 55.334 110.275 55.9375 110.275 56.7695V61H108.898V57.0273C108.898 56.5234 108.794 56.1465 108.587 55.8965C108.38 55.6426 108.06 55.5156 107.626 55.5156C106.997 55.5156 106.56 55.709 106.314 56.0957C106.072 56.4824 105.951 57.043 105.951 57.7773V61H104.574V54.5137H105.646L105.839 55.3926H105.915C106.056 55.166 106.23 54.9805 106.437 54.8359C106.648 54.6875 106.882 54.5762 107.14 54.502C107.402 54.4277 107.673 54.3906 107.954 54.3906ZM114.265 54.3906C115.086 54.3906 115.705 54.5723 116.123 54.9355C116.545 55.2988 116.756 55.8652 116.756 56.6348V61H115.777L115.514 60.0801H115.467C115.283 60.3145 115.094 60.5078 114.898 60.6602C114.703 60.8125 114.476 60.9258 114.219 61C113.965 61.0781 113.654 61.1172 113.287 61.1172C112.9 61.1172 112.555 61.0469 112.25 60.9062C111.945 60.7617 111.705 60.543 111.529 60.25C111.353 59.957 111.265 59.5859 111.265 59.1367C111.265 58.4688 111.514 57.9668 112.01 57.6309C112.51 57.2949 113.264 57.1094 114.271 57.0742L115.396 57.0332V56.6934C115.396 56.2441 115.291 55.9238 115.08 55.7324C114.873 55.541 114.58 55.4453 114.201 55.4453C113.877 55.4453 113.562 55.4922 113.258 55.5859C112.953 55.6797 112.656 55.7949 112.367 55.9316L111.922 54.959C112.238 54.791 112.597 54.6543 113 54.5488C113.406 54.4434 113.828 54.3906 114.265 54.3906ZM115.39 57.9004L114.553 57.9297C113.865 57.9531 113.383 58.0703 113.105 58.2812C112.828 58.4922 112.689 58.7812 112.689 59.1484C112.689 59.4688 112.785 59.7031 112.976 59.8516C113.168 59.9961 113.42 60.0684 113.732 60.0684C114.209 60.0684 114.603 59.9336 114.916 59.6641C115.232 59.3906 115.39 58.9902 115.39 58.4629V57.9004ZM119.586 61H118.203V51.8828H119.586V61ZM122.452 54.5137V61H121.075V54.5137H122.452ZM121.772 52.0293C121.983 52.0293 122.165 52.0859 122.317 52.1992C122.473 52.3125 122.552 52.5078 122.552 52.7852C122.552 53.0586 122.473 53.2539 122.317 53.3711C122.165 53.4844 121.983 53.541 121.772 53.541C121.554 53.541 121.368 53.4844 121.216 53.3711C121.067 53.2539 120.993 53.0586 120.993 52.7852C120.993 52.5078 121.067 52.3125 121.216 52.1992C121.368 52.0859 121.554 52.0293 121.772 52.0293ZM128.288 61H123.361V60.1504L126.636 55.5742H123.56V54.5137H128.195V55.4512L124.984 59.9395H128.288V61ZM131.793 54.3906C132.371 54.3906 132.867 54.5098 133.281 54.748C133.695 54.9863 134.013 55.3242 134.236 55.7617C134.459 56.1992 134.57 56.7227 134.57 57.332V58.0703H130.24C130.256 58.6992 130.424 59.1836 130.744 59.5234C131.068 59.8633 131.521 60.0332 132.103 60.0332C132.517 60.0332 132.888 59.9941 133.217 59.916C133.549 59.834 133.89 59.7148 134.242 59.5586V60.6777C133.918 60.8301 133.588 60.9414 133.252 61.0117C132.916 61.082 132.513 61.1172 132.045 61.1172C131.408 61.1172 130.847 60.9941 130.363 60.748C129.883 60.498 129.506 60.127 129.232 59.6348C128.963 59.1426 128.828 58.5312 128.828 57.8008C128.828 57.0742 128.951 56.457 129.197 55.9492C129.443 55.4414 129.789 55.0547 130.234 54.7891C130.679 54.5234 131.199 54.3906 131.793 54.3906ZM131.793 55.4277C131.359 55.4277 131.008 55.5684 130.738 55.8496C130.472 56.1309 130.316 56.543 130.269 57.0859H133.222C133.219 56.7617 133.164 56.4746 133.058 56.2246C132.957 55.9746 132.801 55.7793 132.59 55.6387C132.383 55.498 132.117 55.4277 131.793 55.4277ZM137.823 61.1172C137.049 61.1172 136.428 60.8359 135.959 60.2734C135.494 59.707 135.262 58.873 135.262 57.7715C135.262 56.6582 135.498 55.8164 135.971 55.2461C136.448 54.6758 137.074 54.3906 137.852 54.3906C138.18 54.3906 138.467 54.4355 138.713 54.5254C138.959 54.6113 139.17 54.7285 139.346 54.877C139.526 55.0254 139.678 55.1914 139.803 55.375H139.867C139.848 55.2539 139.824 55.0801 139.797 54.8535C139.774 54.623 139.762 54.4102 139.762 54.2148V51.8828H141.145V61H140.067L139.821 60.1152H139.762C139.645 60.3027 139.496 60.4727 139.317 60.625C139.141 60.7734 138.93 60.8926 138.684 60.9824C138.442 61.0723 138.155 61.1172 137.823 61.1172ZM138.209 59.998C138.799 59.998 139.215 59.8281 139.457 59.4883C139.699 59.1484 139.824 58.6387 139.832 57.959V57.7773C139.832 57.0508 139.715 56.4941 139.481 56.1074C139.246 55.7168 138.819 55.5215 138.198 55.5215C137.701 55.5215 137.323 55.7227 137.061 56.125C136.803 56.5234 136.674 57.0801 136.674 57.7949C136.674 58.5098 136.803 59.0566 137.061 59.4355C137.323 59.8105 137.705 59.998 138.209 59.998ZM145.417 61V52.4336H146.823V59.8047H150.462V61H145.417ZM153.908 54.3906C154.486 54.3906 154.982 54.5098 155.396 54.748C155.81 54.9863 156.129 55.3242 156.351 55.7617C156.574 56.1992 156.685 56.7227 156.685 57.332V58.0703H152.355C152.371 58.6992 152.539 59.1836 152.859 59.5234C153.183 59.8633 153.636 60.0332 154.218 60.0332C154.632 60.0332 155.004 59.9941 155.332 59.916C155.664 59.834 156.006 59.7148 156.357 59.5586V60.6777C156.033 60.8301 155.703 60.9414 155.367 61.0117C155.031 61.082 154.629 61.1172 154.16 61.1172C153.523 61.1172 152.963 60.9941 152.478 60.748C151.998 60.498 151.621 60.127 151.347 59.6348C151.078 59.1426 150.943 58.5312 150.943 57.8008C150.943 57.0742 151.066 56.457 151.312 55.9492C151.558 55.4414 151.904 55.0547 152.349 54.7891C152.795 54.5234 153.314 54.3906 153.908 54.3906ZM153.908 55.4277C153.474 55.4277 153.123 55.5684 152.853 55.8496C152.588 56.1309 152.431 56.543 152.384 57.0859H155.338C155.334 56.7617 155.279 56.4746 155.174 56.2246C155.072 55.9746 154.916 55.7793 154.705 55.6387C154.498 55.498 154.232 55.4277 153.908 55.4277ZM160.301 54.3906C161.121 54.3906 161.74 54.5723 162.158 54.9355C162.58 55.2988 162.791 55.8652 162.791 56.6348V61H161.813L161.549 60.0801H161.502C161.319 60.3145 161.129 60.5078 160.934 60.6602C160.738 60.8125 160.512 60.9258 160.254 61C160 61.0781 159.69 61.1172 159.322 61.1172C158.936 61.1172 158.59 61.0469 158.285 60.9062C157.981 60.7617 157.74 60.543 157.565 60.25C157.389 59.957 157.301 59.5859 157.301 59.1367C157.301 58.4688 157.549 57.9668 158.045 57.6309C158.545 57.2949 159.299 57.1094 160.307 57.0742L161.432 57.0332V56.6934C161.432 56.2441 161.326 55.9238 161.115 55.7324C160.908 55.541 160.615 55.4453 160.236 55.4453C159.912 55.4453 159.598 55.4922 159.293 55.5859C158.988 55.6797 158.692 55.7949 158.403 55.9316L157.957 54.959C158.274 54.791 158.633 54.6543 159.035 54.5488C159.442 54.4434 159.863 54.3906 160.301 54.3906ZM161.426 57.9004L160.588 57.9297C159.901 57.9531 159.418 58.0703 159.141 58.2812C158.863 58.4922 158.725 58.7812 158.725 59.1484C158.725 59.4688 158.82 59.7031 159.012 59.8516C159.203 59.9961 159.455 60.0684 159.768 60.0684C160.244 60.0684 160.639 59.9336 160.951 59.6641C161.268 59.3906 161.426 58.9902 161.426 58.4629V57.9004ZM167.526 54.3906C167.635 54.3906 167.755 54.3965 167.883 54.4082C168.012 54.4199 168.124 54.4355 168.217 54.4551L168.089 55.7441C168.006 55.7207 167.905 55.7031 167.784 55.6914C167.667 55.6797 167.561 55.6738 167.467 55.6738C167.221 55.6738 166.987 55.7148 166.764 55.7969C166.542 55.875 166.344 55.9961 166.173 56.1602C166.001 56.3203 165.866 56.5215 165.768 56.7637C165.671 57.0059 165.622 57.2871 165.622 57.6074V61H164.239V54.5137H165.317L165.505 55.6562H165.569C165.698 55.4258 165.858 55.2148 166.049 55.0234C166.241 54.832 166.46 54.6797 166.706 54.5664C166.956 54.4492 167.229 54.3906 167.526 54.3906ZM172.319 54.3906C173.05 54.3906 173.618 54.5801 174.025 54.959C174.435 55.334 174.64 55.9375 174.64 56.7695V61H173.263V57.0273C173.263 56.5234 173.159 56.1465 172.952 55.8965C172.745 55.6426 172.425 55.5156 171.991 55.5156C171.362 55.5156 170.925 55.709 170.679 56.0957C170.437 56.4824 170.316 57.043 170.316 57.7773V61H168.939V54.5137H170.011L170.204 55.3926H170.28C170.421 55.166 170.595 54.9805 170.802 54.8359C171.013 54.6875 171.247 54.5762 171.505 54.502C171.767 54.4277 172.038 54.3906 172.319 54.3906ZM177.464 54.5137V61H176.088V54.5137H177.464ZM176.785 52.0293C176.996 52.0293 177.177 52.0859 177.33 52.1992C177.486 52.3125 177.564 52.5078 177.564 52.7852C177.564 53.0586 177.486 53.2539 177.33 53.3711C177.177 53.4844 176.996 53.541 176.785 53.541C176.566 53.541 176.38 53.4844 176.228 53.3711C176.08 53.2539 176.005 53.0586 176.005 52.7852C176.005 52.5078 176.08 52.3125 176.228 52.1992C176.38 52.0859 176.566 52.0293 176.785 52.0293ZM182.34 54.3906C183.07 54.3906 183.639 54.5801 184.045 54.959C184.455 55.334 184.66 55.9375 184.66 56.7695V61H183.283V57.0273C183.283 56.5234 183.18 56.1465 182.973 55.8965C182.766 55.6426 182.445 55.5156 182.012 55.5156C181.383 55.5156 180.945 55.709 180.699 56.0957C180.457 56.4824 180.336 57.043 180.336 57.7773V61H178.959V54.5137H180.031L180.225 55.3926H180.301C180.441 55.166 180.615 54.9805 180.822 54.8359C181.033 54.6875 181.268 54.5762 181.525 54.502C181.787 54.4277 182.059 54.3906 182.34 54.3906ZM187.96 63.8828C187.081 63.8828 186.407 63.7246 185.938 63.4082C185.469 63.0918 185.235 62.6484 185.235 62.0781C185.235 61.6797 185.36 61.3418 185.61 61.0645C185.86 60.791 186.217 60.6016 186.682 60.4961C186.506 60.418 186.354 60.2969 186.225 60.1328C186.1 59.9648 186.038 59.7793 186.038 59.5762C186.038 59.334 186.106 59.127 186.243 58.9551C186.379 58.7832 186.585 58.6172 186.858 58.457C186.518 58.3125 186.245 58.0781 186.038 57.7539C185.835 57.4258 185.733 57.041 185.733 56.5996C185.733 56.1309 185.833 55.7324 186.032 55.4043C186.231 55.0723 186.522 54.8203 186.905 54.6484C187.288 54.4727 187.751 54.3848 188.294 54.3848C188.411 54.3848 188.538 54.3926 188.674 54.4082C188.815 54.4199 188.944 54.4355 189.061 54.4551C189.182 54.4707 189.274 54.4883 189.336 54.5078H191.581V55.2754L190.479 55.4805C190.585 55.6289 190.669 55.7988 190.731 55.9902C190.794 56.1777 190.825 56.3828 190.825 56.6055C190.825 57.2773 190.592 57.8066 190.128 58.1934C189.667 58.5762 189.03 58.7676 188.217 58.7676C188.022 58.7598 187.833 58.7441 187.649 58.7207C187.508 58.8066 187.401 58.9023 187.327 59.0078C187.253 59.1094 187.215 59.2246 187.215 59.3535C187.215 59.459 187.253 59.5449 187.327 59.6113C187.401 59.6738 187.51 59.7207 187.655 59.752C187.803 59.7832 187.983 59.7988 188.194 59.7988H189.313C190.024 59.7988 190.567 59.9492 190.942 60.25C191.317 60.5508 191.504 60.9922 191.504 61.5742C191.504 62.3125 191.2 62.8809 190.59 63.2793C189.981 63.6816 189.104 63.8828 187.96 63.8828ZM188.012 62.916C188.493 62.916 188.897 62.8691 189.225 62.7754C189.553 62.6816 189.801 62.5469 189.969 62.3711C190.137 62.1992 190.221 61.9941 190.221 61.7559C190.221 61.5449 190.169 61.3828 190.063 61.2695C189.958 61.1562 189.799 61.0781 189.588 61.0352C189.378 60.9922 189.116 60.9707 188.803 60.9707H187.784C187.53 60.9707 187.305 61.0098 187.11 61.0879C186.915 61.1699 186.762 61.2871 186.653 61.4395C186.547 61.5918 186.495 61.7754 186.495 61.9902C186.495 62.2871 186.626 62.5156 186.887 62.6758C187.153 62.8359 187.528 62.916 188.012 62.916ZM188.282 57.8652C188.684 57.8652 188.983 57.7559 189.178 57.5371C189.374 57.3145 189.471 57.002 189.471 56.5996C189.471 56.1621 189.37 55.834 189.167 55.6152C188.967 55.3965 188.67 55.2871 188.276 55.2871C187.889 55.2871 187.594 55.3984 187.391 55.6211C187.192 55.8438 187.092 56.1738 187.092 56.6113C187.092 57.0059 187.192 57.3145 187.391 57.5371C187.594 57.7559 187.891 57.8652 188.282 57.8652ZM195.196 56.0078H191.61V55.2109L192.958 53.8867C193.239 53.6133 193.456 53.3887 193.608 53.2129C193.761 53.0332 193.866 52.873 193.925 52.7324C193.987 52.5879 194.019 52.4355 194.019 52.2754C194.019 52.0723 193.956 51.918 193.831 51.8125C193.71 51.7031 193.546 51.6484 193.339 51.6484C193.144 51.6484 192.952 51.6914 192.765 51.7773C192.581 51.8633 192.386 51.9922 192.179 52.1641L191.622 51.4551C191.864 51.248 192.132 51.0801 192.425 50.9512C192.722 50.8223 193.062 50.7578 193.444 50.7578C193.956 50.7578 194.362 50.8828 194.663 51.1328C194.968 51.3828 195.12 51.7363 195.12 52.1934C195.12 52.4473 195.071 52.6816 194.974 52.8965C194.876 53.1113 194.728 53.3301 194.528 53.5527C194.329 53.7754 194.075 54.0293 193.767 54.3145L192.964 55.0703H195.196V56.0078Z" fill="#424242"/>
<defs>
<filter id="filter0_f_395_4565" x="-10.7497" y="11.9637" width="81.9276" height="81.9281" filterUnits="userSpaceOnUse" color-interpolation-filters="sRGB">
<feFlood flood-opacity="0" result="BackgroundImageFix"/>
<feBlend mode="normal" in="SourceGraphic" in2="BackgroundImageFix" result="shape"/>
<feGaussianBlur stdDeviation="8.99668" result="effect1_foregroundBlur_395_4565"/>
</filter>
<filter id="filter1_f_395_4565" x="-10.7497" y="11.9637" width="81.9276" height="81.9281" filterUnits="userSpaceOnUse" color-interpolation-filters="sRGB">
<feFlood flood-opacity="0" result="BackgroundImageFix"/>
<feBlend mode="normal" in="SourceGraphic" in2="BackgroundImageFix" result="shape"/>
<feGaussianBlur stdDeviation="8.99668" result="effect1_foregroundBlur_395_4565"/>
</filter>
<filter id="filter2_f_395_4565" x="-46.253" y="-46.736" width="111.854" height="111.855" filterUnits="userSpaceOnUse" color-interpolation-filters="sRGB">
<feFlood flood-opacity="0" result="BackgroundImageFix"/>
<feBlend mode="normal" in="SourceGraphic" in2="BackgroundImageFix" result="shape"/>
<feGaussianBlur stdDeviation="14.1576" result="effect1_foregroundBlur_395_4565"/>
</filter>
<filter id="filter3_f_395_4565" x="3.99113" y="3.0059" width="104.032" height="104.033" filterUnits="userSpaceOnUse" color-interpolation-filters="sRGB">
<feFlood flood-opacity="0" result="BackgroundImageFix"/>
<feBlend mode="normal" in="SourceGraphic" in2="BackgroundImageFix" result="shape"/>
<feGaussianBlur stdDeviation="13.0976" result="effect1_foregroundBlur_395_4565"/>
</filter>
<filter id="filter4_f_395_4565" x="-62.0234" y="-13.4567" width="118.72" height="118.72" filterUnits="userSpaceOnUse" color-interpolation-filters="sRGB">
<feFlood flood-opacity="0" result="BackgroundImageFix"/>
<feBlend mode="normal" in="SourceGraphic" in2="BackgroundImageFix" result="shape"/>
<feGaussianBlur stdDeviation="14.1576" result="effect1_foregroundBlur_395_4565"/>
</filter>
<filter id="filter5_f_395_4565" x="-1.67437" y="-53.4059" width="113.198" height="113.198" filterUnits="userSpaceOnUse" color-interpolation-filters="sRGB">
<feFlood flood-opacity="0" result="BackgroundImageFix"/>
<feBlend mode="normal" in="SourceGraphic" in2="BackgroundImageFix" result="shape"/>
<feGaussianBlur stdDeviation="14.1576" result="effect1_foregroundBlur_395_4565"/>
</filter>
</defs>
</svg>
