<?xml version="1.0" encoding="UTF-8" standalone="no"?>
<svg
   height="445.853"
   width="448.96"
   xml:space="preserve"
   version="1.1"
   id="svg8"
   sodipodi:docname="rkmf.svg"
   inkscape:version="1.1 (c68e22c387, 2021-05-23)"
   xmlns:inkscape="http://www.inkscape.org/namespaces/inkscape"
   xmlns:sodipodi="http://sodipodi.sourceforge.net/DTD/sodipodi-0.dtd"
   xmlns="http://www.w3.org/2000/svg"
   xmlns:svg="http://www.w3.org/2000/svg"><defs
     id="defs12" /><sodipodi:namedview
     id="namedview10"
     pagecolor="#ffffff"
     bordercolor="#666666"
     borderopacity="1.0"
     inkscape:pageshadow="2"
     inkscape:pageopacity="0.0"
     inkscape:pagecheckerboard="0"
     showgrid="false"
     inkscape:zoom="1.9580445"
     inkscape:cx="123.84805"
     inkscape:cy="222.9265"
     inkscape:window-width="2560"
     inkscape:window-height="1377"
     inkscape:window-x="2552"
     inkscape:window-y="-8"
     inkscape:window-maximized="1"
     inkscape:current-layer="layer2" /><g
     inkscape:groupmode="layer"
     id="layer1"
     inkscape:label="bg"><rect
       style="opacity:1;fill:#ffffff;fill-opacity:1;stroke:none;stroke-width:1.00157;stroke-linejoin:round"
       id="rect3401"
       width="360.0531"
       height="290.59604"
       x="18.385691"
       y="137.38197" /></g><g
     inkscape:groupmode="layer"
     id="layer2"
     inkscape:label="icon"><path
       style="fill:#cf692a;fill-opacity:1;fill-rule:nonzero;stroke:none"
       d="m 1750.29,309.98 c -3.36,0 -12.88,-2.23 -22.96,-5.589 -33.03,-11.2 -49.28,-19.602 -49.28,-41.45 0,-9.519 6.72,-33.589 35.28,-33.589 11.2,0 28.57,8.398 34.16,13.988 6.72,6.719 6.72,14.558 7.28,26.32 l 1.13,33.051 c 0,6.148 -2.25,7.269 -5.61,7.269 m 539.26,113.688 c -36.96,0 -64.39,-35.289 -64.39,-96.887 0,-50.961 22.95,-105.832 72.23,-105.832 49.28,0 64.4,51.512 64.4,94.641 0,47.601 -19.04,108.078 -72.24,108.078"
       transform="matrix(0.13333,0,0,-0.13333,0,445.853)"
       id="path6" /><path
       style="opacity:1;fill:#d1702f;fill-opacity:1;fill-rule:nonzero;stroke:none"
       d="m 2708.43,210.309 c -16.8,1.121 -33.04,1.671 -52.64,1.671 -20.16,0 -36.96,-0.55 -52.08,-1.671 -3.93,1.671 -5.04,11.203 -1.12,14 l 10.64,1.679 c 20.71,3.364 21.28,8.403 21.28,48.711 v 83.449 c 0,31.911 -14.56,55.442 -52.63,55.442 -21.29,0 -39.77,-8.969 -47.61,-19.602 -7.28,-9.519 -8.4,-17.367 -8.4,-33.609 v -85.68 c 0,-40.308 1.12,-45.347 21.28,-48.711 l 10.08,-1.679 c 3.92,-2.797 2.8,-12.329 -1.12,-14 -15.12,1.121 -31.36,1.671 -50.96,1.671 -20.16,0 -36.96,-0.55 -52.64,-1.671 -3.92,1.671 -5.04,11.203 -1.12,14 l 11.76,1.679 c 20.72,2.793 21.28,8.403 21.28,48.711 v 98.012 c 0,21.828 0,24.641 -15.12,34.719 l -5.04,3.351 c -2.24,2.239 -2.24,8.399 0.56,10.078 12.88,4.481 44.8,19.051 56,27.442 2.24,0 5.04,-1.121 6.16,-3.91 -1.12,-12.879 -1.12,-21.282 -1.12,-26.332 0,-3.36 2.24,-6.149 6.16,-6.149 23.52,14.559 49.85,28.551 78.4,28.551 46.48,0 65.52,-31.91 65.52,-69.43 v -96.332 c 0,-40.308 1.12,-45.918 21.28,-48.711 l 12.32,-1.679 c 3.92,-2.797 2.8,-12.329 -1.12,-14 z m -416.63,-6.168 c -64.41,0 -114.81,45.371 -114.81,115.371 0,70.547 53.2,120.949 119.28,120.949 62.72,0 113.68,-47.039 113.68,-115.922 0,-21.44739 -4.5211,-41.05464 -12.8058,-57.93596 C 2378.3891,228.38712 2340.3457,204.141 2291.8,204.141 Z m -150.08,6.168 c -16.8,1.121 -33.04,1.671 -52.64,1.671 -20.15,0 -36.96,-0.55 -52.64,-1.671 -3.92,1.671 -5.03,11.203 -1.12,14 l 11.76,1.679 c 20.72,2.793 21.28,8.403 21.28,48.711 v 98.012 c 0,21.828 0,24.641 -15.12,34.719 l -5.04,3.351 c -2.24,2.239 -2.24,8.399 0.56,10.078 12.88,4.481 44.79,19.051 57.68,27.442 2.8,0 5.04,-1.121 5.6,-3.36 -1.12,-19.601 -2.24,-46.48 -2.24,-69.441 V 274.699 c 0,-40.308 1.12,-45.918 21.27,-48.711 l 11.77,-1.679 c 3.92,-2.797 2.81,-12.329 -1.12,-14 z m -168.56,18.472 c 5.6,0 10.65,1.129 15.12,2.809 5.04,1.68 12.33,7.84 14,7.84 4.48,0 6.72,-6.16 5.6,-9.52 -10.08,-11.762 -30.24,-25.769 -58.8,-25.769 -48.16,0 -58.24,26.89 -58.24,60.48 v 128.238 c 0,15.121 -0.56,16.243 -11.76,16.243 h -15.68 c -3.36,2.238 -3.92,8.398 -1.68,11.757 16.25,5.039 30.24,12.332 35.84,17.371 7.28,6.711 17.93,21.829 23.52,33.032 2.81,1.129 9.53,1.129 11.76,-2.801 V 443.27 c 0,-10.079 0.56,-10.649 10.08,-10.649 h 62.16 c 6.72,-5.039 5.6,-20.16 0.57,-23.519 h -63.29 c -9.52,0 -10.08,-1.672 -10.08,-13.43 V 290.941 c 0,-32.472 3.92,-62.16 40.88,-62.16 z m -174.15,-24.64 c -13.44,0 -26.88,5.039 -36.39,17.371 -2.25,3.359 -5.61,7.84 -8.97,7.84 -3.92,0 -10.64,-5.043 -21.83,-11.204 -12.33,-6.718 -24.65,-14.007 -40.33,-14.007 -16.24,0 -29.67,4.488 -39.2,12.879 -10.64,9.531 -17.36,23.531 -17.36,39.199 0,21.851 10.64,34.722 46.48,47.601 l 66.64,24.078 c 8.39,2.813 9.53,7.852 9.53,16.243 l 0.55,25.769 c 0.56,20.719 -6.16,48.719 -40.88,48.719 -15.68,0 -34.72,-7.848 -35.84,-25.207 -0.56,-8.953 -1.12,-15.672 -5.6,-19.031 -8.4,-6.719 -23.52,-10.653 -31.92,-10.653 -5.04,0 -7.84,2.813 -7.84,7.852 0,29.121 63.29,68.871 104.16,68.871 40.32,0 59.93,-23.512 58.25,-65.52 L 1795.1,277.5 c -1.14,-25.762 3.91,-48.719 25.75,-48.719 5.59,0 10.63,1.68 14,3.36 2.81,1.679 5.6,3.929 7.28,3.929 2.25,0 3.92,-3.359 3.92,-7.289 0,-2.793 -19.61,-24.64 -47.04,-24.64 z M 1616.46,933.59 c -21.28,0 -39.76,-8.969 -47.6,-19.61 -7.28,-9.511 -8.41,-17.359 -8.41,-33.601 v -85.668 c 0,-40.32 1.13,-45.371 21.29,-48.731 l 10.08,-1.679 c 3.92,-2.789 2.79,-12.321 -1.13,-13.992 -15.11,1.113 -31.35,1.671 -50.95,1.671 -20.17,0 -36.97,-0.558 -52.65,-1.671 -3.92,1.671 -5.03,11.203 -1.11,13.992 l 11.75,1.679 c 20.73,2.809 21.28,8.411 21.28,48.731 v 97.988 c 0,21.84 0,24.653 -15.11,34.731 l -5.04,3.351 c -2.24,2.25 -2.24,8.399 0.55,10.078 12.88,4.481 44.8,19.039 56.01,27.442 2.24,0 5.03,-1.11 6.16,-3.922 -1.13,-12.867 -1.13,-21.277 -1.13,-26.32 0,-3.348 2.24,-6.161 6.17,-6.161 23.52,14.563 49.84,28.563 78.4,28.563 46.47,0 65.52,-31.922 65.52,-69.441 v -96.309 c 0,-40.32 1.12,-45.922 21.28,-48.731 l 12.32,-1.679 c 3.92,-2.789 2.79,-12.321 -1.13,-13.992 -16.8,1.113 -33.03,1.671 -52.64,1.671 -20.16,0 -36.95,-0.558 -52.07,-1.671 -3.92,1.671 -5.04,11.203 -1.13,13.992 l 10.64,1.679 c 20.73,3.36 21.29,8.411 21.29,48.731 v 83.43 c 0,31.929 -14.57,55.449 -52.64,55.449 z m -8.96,-717.121 c -23.53,-3.36 -58.24,-11.758 -73.92,-17.918 -3.37,0 -6.16,1.679 -6.16,4.469 v 9.519 c 0,8.41 0,15.133 -1.12,17.371 h -2.24 c -24.64,-16.801 -43.68,-25.769 -70.56,-25.769 -62.16,0 -103.6,48.718 -103.6,107.519 0,78.399 59.36,128.801 135.52,128.801 19.04,0 31.36,-2.789 37.52,-5.039 2.8,0 3.36,3.359 3.36,7.848 v 84.558 c 0,33.031 -0.56,36.391 -17.36,46.473 l -5.61,3.359 c -2.79,1.68 -2.79,9.531 0,11.211 14.01,4.469 40.33,12.867 60.49,23.52 2.23,0 4.48,-1.129 5.6,-3.371 -0.56,-16.79 -1.69,-44.801 -1.69,-69.442 v -245.84 c 0,-44.226 0.57,-64.957 16.24,-64.957 6.17,0 15.69,2.809 24.09,5.61 3.91,-1.121 4.48,-15.129 -0.56,-17.922 z m -395.92,623.043 c 0,70.558 53.2,120.949 119.28,120.949 62.72,0 113.68,-47.031 113.68,-115.922 0,-70 -48.16,-120.398 -118.16,-120.398 -64.4,0 -114.8,45.371 -114.8,115.371 z m 103.6,-629.203 c -16.8,1.121 -33.04,1.671 -52.64,1.671 -20.16,0 -36.96,-0.55 -52.08,-1.671 -3.92,1.671 -5.04,11.203 -1.12,14 l 10.64,1.679 c 20.72,3.364 21.28,8.403 21.28,48.711 v 83.449 c 0,31.911 -14.56,55.442 -52.64,55.442 -21.28,0 -39.76,-8.969 -47.6,-19.602 -7.28,-9.519 -8.4,-17.367 -8.4,-33.609 v -85.68 c 0,-40.308 1.12,-45.347 21.28,-48.711 l 10.08,-1.679 c 3.92,-2.797 2.8,-12.329 -1.12,-14 -15.12,1.121 -31.36,1.671 -50.96,1.671 -20.16,0 -36.96,-0.55 -52.64,-1.671 -3.92,1.671 -5.04,11.203 -1.12,14 l 11.76,1.679 c 20.72,2.793 21.28,8.403 21.28,48.711 v 98.012 c 0,21.828 0,24.641 -15.12,34.719 l -5.04,3.351 c -2.24,2.239 -2.24,8.399 0.56,10.078 12.88,4.481 44.8,19.051 56,27.442 2.24,0 5.04,-1.121 6.16,-3.91 -1.12,-12.879 -1.12,-21.282 -1.12,-26.332 0,-3.36 2.24,-6.149 6.16,-6.149 23.52,14.559 49.84,28.551 78.4,28.551 46.48,0 65.51,-31.91 65.51,-69.43 v -96.332 c 0,-40.308 1.13,-45.918 21.29,-48.711 l 12.32,-1.679 c 3.92,-2.797 2.8,-12.329 -1.12,-14 z m -275.51,520 c -18.48,1.113 -34.72,1.671 -54.322,1.671 -20.16,0 -36.957,-0.558 -53.762,-1.671 -3.918,1.671 -5.039,11.203 -1.117,13.992 l 12.875,1.679 c 20.722,2.809 21.285,8.411 21.285,48.731 v 253.119 c 0,33.03 -0.563,36.39 -17.363,46.47 l -5.602,3.36 c -2.797,1.68 -2.797,9.53 0,11.21 14,4.47 40.324,12.87 60.486,23.52 2.23,0 4.48,-1.13 5.59,-3.37 -0.55,-16.79 -1.67,-44.8 -1.67,-69.44 V 794.711 c 0,-40.32 1.12,-45.922 21.27,-48.731 l 13.45,-1.679 c 3.92,-2.789 2.79,-12.321 -1.12,-13.992 z m -12.33,-511.047 c -21.84,-4.473 -54.317,-10.082 -73.356,-20.711 -2.8,0 -5.601,1.679 -6.718,3.91 v 22.961 c 0,5.039 -1.68,7.848 -5.039,7.848 -16.801,-10.641 -44.243,-29.129 -77.282,-29.129 -49.281,0 -67.761,24.64 -67.761,70 v 93.531 c 0,35.269 0,40.308 -16.797,47.598 l -6.719,2.789 c -3.363,2.8 -2.805,10.64 1.117,12.32 25.762,0.562 47.598,5.609 59.922,10.082 3.359,-0.551 5.039,-1.68 5.598,-3.91 -1.121,-9.531 -1.684,-21.281 -1.684,-48.723 v -93.519 c 0,-38.637 9.524,-64.399 52.082,-64.399 15.121,0 33.043,6.16 45.363,16.789 7.278,6.723 11.2,15.129 11.2,32.481 v 91.851 c 0,36.399 -3.922,37.52 -20.723,44.239 l -7.281,2.789 c -3.918,2.25 -3.918,10.089 0.562,12.32 22.403,0.562 53.199,4.492 65.52,10.082 2.801,-0.551 4.48,-1.68 5.043,-3.91 -1.125,-10.653 -1.68,-28 -1.68,-48.723 v -94.09 c 0,-44.226 1.68,-61.027 17.363,-61.027 6.71,0 13.99,1.109 21.83,2.789 3.36,-2.789 3.93,-13.988 -0.56,-16.238 z M 736.711,761.109 c -16.805,21.84 -23.523,48.161 -23.523,72.789 0,68.891 45.363,126.563 112.558,126.563 48.16,0 79.524,-33.031 79.524,-66.633 0,-7.848 -1.122,-12.316 -2.243,-14.558 -1.679,-3.36 -9.519,-3.93 -33.039,-3.93 H 766.387 c -14.563,0 -15.117,-1.11 -15.117,-15.121 0,-56.547 33.039,-104.707 92.96,-104.707 18.481,0 34.161,5.597 51.516,27.437 5.602,1.68 9.524,-1.687 10.082,-6.73 -18.48,-38.071 -58.801,-52.078 -87.918,-52.078 -36.402,0 -64.961,15.687 -81.199,36.968 z M 611.824,204.141 c -64.398,0 -114.797,45.371 -114.797,115.371 0,70.547 53.2,120.949 119.282,120.949 62.714,0 113.675,-47.039 113.675,-115.922 0,-70 -48.16,-120.398 -118.16,-120.398 z M 458.391,507.672 c -4.485,25.187 -11.203,45.918 -39.2,53.187 -12.328,3.36 -30.8,3.36 -54.324,3.36 h -34.16 c -16.801,0 -16.801,-1.117 -16.801,-22.399 V 423.668 c 0,-15.117 1.68,-15.117 18.481,-15.117 h 38.082 c 22.961,0 40.879,1.109 47.597,3.359 6.164,2.231 10.641,5.039 14,19.602 l 5.043,22.386 c 2.797,3.372 12.321,3.372 14.555,0 0,-13.437 -2.234,-35.839 -2.234,-56.546 0,-20.172 2.234,-41.454 2.242,-54.332 -2.242,-3.36 -10.649,-3.36 -14.563,0 l -5.601,21.851 c -2.801,10.07 -7.278,17.918 -17.918,21.277 -7.844,2.231 -21.844,2.801 -43.121,2.801 h -38.082 c -16.801,0 -18.481,-0.57 -18.481,-15.129 v -77.832 c 0,-58.808 1.121,-67.207 34.16,-70 l 19.043,-1.679 c 3.36,-2.25 2.239,-12.329 -1.125,-14 -33.035,1.121 -52.078,1.671 -74.476,1.671 -24.637,0 -43.68,-0.55 -70,-1.671 -3.36,1.671 -4.481,10.64 -1.117,14 l 14,1.679 c 32.48,3.922 33.597,11.192 33.597,70 v 201.594 c 0,58.809 -1.117,66.637 -33.597,70.559 l -8.961,1.129 c -3.36,2.23 -2.242,12.32 1.117,14 23.519,-1.129 42.558,-1.68 64.961,-1.68 h 103.039 c 35.84,0 68.32,0 75.601,1.68 0,-25.77 0.559,-52.641 1.676,-73.918 -1.676,-3.372 -9.515,-5.051 -13.433,-1.68 z m -246.403,236.629 12.321,1.679 c 23.519,3.36 31.359,6.719 34.718,45.93 3.36,36.961 6.164,67.762 9.524,123.199 2.797,46.481 5.039,94.071 6.156,124.871 1.121,35.28 -3.359,43.69 -37.519,48.16 l -8.961,1.13 c -2.797,3.36 -2.243,11.75 2.242,14 16.801,-1.13 30.238,-1.68 44.238,-1.68 12.883,0 28.004,0 46.481,1.68 -2.239,-21.85 11.761,-56.57 29.121,-92.41 l 63.836,-129.348 c 12.882,-26.332 25.203,-52.082 38.644,-76.731 h 1.117 c 15.121,26.328 29.121,55.438 43.121,84 l 52.641,106.969 c 25.199,50.95 41.441,81.75 42.559,107.52 19.039,-1.68 30.8,-1.68 41.996,-1.68 14.004,0 32.48,0.55 49.843,1.68 3.36,-2.25 3.36,-11.77 0.563,-14 l -11.762,-1.13 c -35.277,-3.36 -39.762,-14 -39.199,-53.2 1.117,-59.362 1.68,-162.96 6.156,-243.588 1.684,-28.012 1.121,-43.122 27.442,-45.372 l 17.922,-1.679 c 3.359,-3.36 2.8,-11.75 -1.122,-13.992 -22.961,1.113 -45.921,1.671 -66.082,1.671 -19.601,0 -44.8,-0.558 -67.757,-1.671 -3.918,2.793 -4.481,10.632 -1.122,13.992 l 16.243,1.679 c 27.441,2.809 27.441,11.77 27.441,47.61 l -1.68,233.51 h -1.125 c -3.918,-6.16 -25.199,-50.952 -36.394,-72.799 l -49.844,-97.992 c -25.199,-49.289 -50.394,-101.918 -60.48,-127.68 -1.118,-1.68 -3.36,-2.238 -5.598,-2.238 -1.121,0 -3.922,0.558 -5.039,2.238 -9.524,29.672 -36.402,84.562 -49.277,111.992 l -50.403,108.078 c -11.761,25.77 -23.519,54.881 -35.84,80.641 h -1.125 c -2.234,-34.719 -3.914,-67.192 -5.593,-99.668 -1.684,-34.16 -3.922,-84 -3.922,-131.613 0,-41.438 3.359,-50.399 25.203,-52.079 l 21.277,-1.679 c 3.922,-3.36 3.36,-12.321 -0.562,-13.992 -19.035,1.113 -40.879,1.671 -62.157,1.671 -17.921,0 -38.082,-0.558 -57.121,-1.671 -3.363,2.793 -4.48,11.203 -1.121,13.992 z m 9.52,958.959 c 27.441,-1.12 45.363,-1.67 70.562,-1.67 21.836,0 40.879,0.55 64.957,1.67 3.36,-1.67 4.481,-11.76 1.121,-13.99 l -10.636,-1.13 c -32.485,-3.36 -33.606,-11.75 -33.606,-70.55 v -64.4 c 0,-10.65 1.121,-21.29 7.282,-21.29 5.042,0 11.761,3.37 15.683,6.16 7.836,6.72 22.399,21.28 28.559,26.88 l 60.476,59.93 c 10.641,10.07 38.082,38.63 43.684,46.48 2.797,3.91 3.918,6.71 3.918,8.96 0,2.23 -2.238,3.91 -9.52,5.59 l -15.121,3.37 c -3.922,3.91 -3.359,11.19 1.117,13.99 19.602,-1.12 42.004,-1.67 61.602,-1.67 19.602,0 38.641,0.55 55.441,1.67 3.918,-2.8 4.481,-10.63 1.118,-13.99 -14.555,-1.13 -36.399,-6.73 -52.075,-15.69 -15.683,-8.96 -47.043,-35.28 -78.402,-64.95 l -50.402,-47.61 c -7.836,-7.83 -12.875,-12.88 -12.875,-17.35 0,-3.93 3.359,-8.4 10.636,-17.36 53.2,-61.04 96.321,-111.44 140,-157.37 13.442,-13.43 25.758,-20.71 44.801,-22.96 l 15.117,-1.68 c 3.922,-2.79 2.805,-12.32 -1.117,-13.99 -14.558,1.11 -36.402,1.67 -62.719,1.67 -22.964,0 -42.562,-0.56 -68.32,-1.67 -3.922,1.11 -5.601,10.63 -2.242,13.99 l 12.883,2.25 c 7.84,1.11 13.433,2.79 13.433,5.6 0,3.36 -3.914,7.83 -7.836,12.88 -10.636,13.44 -25.199,28.56 -46.476,52.63 l -44.801,50.4 c -31.922,35.84 -40.879,47.05 -54.32,47.05 -8.403,0 -9.524,-7.28 -9.524,-26.88 v -72.25 c 0,-58.79 1.121,-66.64 32.481,-70 l 15.121,-1.68 c 3.359,-2.24 2.242,-12.32 -1.121,-13.99 -27.438,1.11 -46.481,1.67 -68.317,1.67 -22.965,0 -42.004,-0.56 -64.961,-1.67 -3.359,1.67 -4.48,10.07 -1.125,13.99 l 11.204,1.68 c 29.683,4.49 30.8,11.21 30.8,70 v 201.61 c 0,58.8 -1.117,67.75 -33.597,70.55 l -14,1.13 c -3.364,2.23 -2.243,12.32 1.117,13.99 z m -1.117,161.04 14,1.68 c 32.48,3.92 33.597,11.21 33.597,70 v 201.04 c 0,53.2 -1.679,62.72 -24.636,65.52 l -17.922,2.24 c -3.922,2.81 -3.922,11.77 0.554,14 31.364,2.81 70,4.48 124.883,4.48 34.719,0 67.762,-2.8 93.524,-16.8 26.879,-14 46.476,-39.2 46.476,-78.4 0,-53.19 -42,-82.31 -70,-93.52 -2.801,-3.35 0,-8.96 2.801,-13.43 44.801,-72.24 74.48,-117.04 112.559,-148.96 9.519,-8.41 23.519,-14.56 38.64,-15.68 2.801,-1.13 3.36,-5.6 0.559,-7.84 -5.039,-1.68 -14,-2.81 -24.641,-2.81 -47.597,0 -76.156,14.01 -115.918,70.57 -14.558,20.71 -37.519,59.36 -54.879,84.55 -8.402,12.32 -17.359,17.93 -39.758,17.93 -25.203,0 -26.324,-0.57 -26.324,-12.32 v -70.57 c 0,-58.79 1.121,-65.51 33.606,-70 l 11.758,-1.68 c 3.359,-2.79 2.238,-12.32 -1.122,-13.99 -25.199,1.11 -44.242,1.67 -66.64,1.67 -23.52,0 -43.68,-0.56 -70,-1.67 -3.36,1.67 -4.481,10.07 -1.117,13.99 z m 358.949,0 11.758,1.68 c 20.722,2.81 21.281,8.41 21.281,48.73 v 97.99 c 0,21.84 0,24.65 -15.117,34.73 l -5.039,3.35 c -2.243,2.25 -2.243,8.4 0.554,10.08 12.883,4.48 44.801,19.04 57.684,27.44 2.801,0 5.035,-1.11 5.598,-3.36 -1.118,-19.6 -2.243,-46.47 -2.243,-69.43 v -100.8 c 0,-40.32 1.125,-45.92 21.282,-48.73 l 11.761,-1.68 c 3.922,-2.79 2.797,-12.32 -1.121,-13.99 -16.797,1.11 -33.039,1.67 -52.636,1.67 -20.161,0 -36.965,-0.56 -52.641,-1.67 -3.922,1.67 -5.039,11.2 -1.121,13.99 z m 51.519,337.12 c 16.801,0 27.996,-13.44 27.996,-29.12 0,-20.16 -13.996,-29.11 -29.675,-29.11 -17.36,0 -28.559,12.87 -28.559,28 0,18.48 13.438,30.23 30.238,30.23 z m -13.437,-550.23 c 0,18.48 13.437,30.23 30.238,30.23 16.805,0 28,-13.44 28,-29.12 0,-20.16 -14,-29.11 -29.68,-29.11 -17.359,0 -28.558,12.87 -28.558,28 z M 703.66,1344.3 c 3.922,-2.79 2.801,-12.32 -1.121,-13.99 -16.797,1.11 -33.035,1.67 -52.637,1.67 -20.16,0 -36.961,-0.56 -52.64,-1.67 -3.922,1.67 -5.039,11.2 -1.117,13.99 l 11.753,1.68 c 20.723,2.81 21.282,8.41 21.282,48.73 v 97.99 c 0,21.84 0,24.65 -15.117,34.73 l -5.04,3.35 c -2.242,2.25 -2.242,8.4 0.555,10.08 12.883,4.48 44.801,19.04 57.684,27.44 2.801,0 5.039,-1.11 5.597,-3.36 -1.117,-19.6 -2.238,-46.47 -2.238,-69.43 v -100.8 c 0,-40.32 1.121,-45.92 21.277,-48.73 z m 153.434,736.16 c 12.883,0 34.722,-2.8 49.84,-9.52 4.484,-3.92 8.402,-12.88 8.402,-22.4 0,-10.07 -5.602,-20.71 -12.316,-20.71 -2.805,0 -5.602,1.11 -7.844,3.92 -12.321,15.11 -33.043,29.67 -56,29.67 -39.199,0 -77.281,-30.8 -77.281,-90.16 0,-43.67 30.238,-95.75 90.16,-95.75 32.48,0 49.277,14.56 62.16,33.59 4.48,1.13 9.519,-2.79 10.082,-7.84 -19.043,-41.43 -61.039,-57.12 -93.52,-57.12 -29.683,0 -57.121,9.53 -76.718,28.56 -19.602,19.05 -32.481,46.48 -32.481,82.88 0,60.48 42.559,124.88 135.516,124.88 z m 13.437,-546.87 c -21.277,0 -39.758,-8.97 -47.597,-19.61 -7.282,-9.51 -8.403,-17.36 -8.403,-33.6 v -85.67 c 0,-40.32 1.121,-45.37 21.282,-48.73 l 10.082,-1.68 c 3.921,-2.79 2.796,-12.32 -1.125,-13.99 -15.118,1.11 -31.356,1.67 -50.957,1.67 -20.161,0 -36.961,-0.56 -52.641,-1.67 -3.922,1.67 -5.039,11.2 -1.117,13.99 l 11.758,1.68 c 20.722,2.81 21.277,8.41 21.277,48.73 v 97.99 c 0,21.84 0,24.65 -15.117,34.73 l -5.039,3.35 c -2.243,2.25 -2.243,8.4 0.558,10.08 12.879,4.48 44.801,19.04 56,27.44 2.242,0 5.039,-1.11 6.16,-3.92 -1.121,-12.87 -1.121,-21.28 -1.121,-26.32 0,-3.35 2.242,-6.16 6.16,-6.16 23.524,14.56 49.84,28.56 78.403,28.56 46.476,0 65.515,-31.92 65.515,-69.44 v -96.31 c 0,-40.32 1.121,-45.92 21.286,-48.73 l 12.32,-1.68 c 3.915,-2.79 2.795,-12.32 -1.125,-13.99 -16.797,1.11 -33.035,1.67 -52.637,1.67 -20.16,0 -36.965,-0.56 -52.082,-1.67 -3.918,1.67 -5.035,11.2 -1.121,13.99 l 10.645,1.68 c 20.718,3.36 21.281,8.41 21.281,48.73 v 83.43 c 0,31.93 -14.563,55.45 -52.645,55.45 z m 68.879,330.71 13.996,1.68 c 20.727,2.25 21.282,8.41 21.282,48.73 v 253.12 c 0,33.03 -0.555,36.39 -17.36,46.47 l -5.598,3.36 c -2.8,1.68 -2.8,9.53 0,11.2 14,4.48 40.321,12.88 60.48,23.53 2.24,0 4.48,-1.13 5.6,-3.37 -0.56,-16.79 -1.68,-44.8 -1.68,-69.44 v -117.6 c 0,-5.03 0.56,-9.52 2.24,-10.63 20.16,15.67 47.04,29.11 75.6,29.11 53.2,0 72.24,-33.03 72.24,-72.23 v -93.52 c 0,-40.32 1.12,-46.48 21.28,-48.73 l 15.12,-1.68 c 3.92,-2.79 2.8,-12.32 -1.12,-13.99 -20.16,1.11 -36.4,1.67 -56,1.67 -20.16,0 -36.96,-0.56 -52.08,-1.67 -3.92,1.67 -5.04,11.2 -1.12,13.99 l 11.2,1.68 c 20.72,3.36 21.28,8.41 21.28,48.73 v 80.07 c 0,35.84 -17.36,59.93 -53.2,59.93 -19.04,0 -33.6,-6.72 -43.68,-15.13 -10.08,-8.39 -11.76,-11.19 -11.76,-30.8 v -94.07 c 0,-40.32 1.12,-45.92 21.28,-48.73 l 11.76,-1.68 c 3.92,-2.24 2.8,-12.32 -1.12,-13.99 -16.8,1.11 -33.04,1.67 -52.64,1.67 -20.16,0 -36.957,-0.56 -54.879,-1.67 -3.922,1.67 -5.043,11.2 -1.121,13.99 z m 146.17,-770 -5.6,3.36 c -2.8,1.68 -2.8,9.53 0,11.21 14,4.47 40.32,12.87 60.48,23.52 2.24,0 4.48,-1.13 5.6,-3.37 -0.56,-16.79 -1.68,-44.8 -1.68,-69.44 V 794.711 c 0,-40.32 1.12,-45.922 21.28,-48.731 l 13.44,-1.679 c 3.92,-2.789 2.8,-12.321 -1.12,-13.992 -18.48,1.113 -34.72,1.671 -54.32,1.671 -20.16,0 -36.96,-0.558 -53.76,-1.671 -3.92,1.671 -5.04,11.203 -1.12,13.992 l 12.88,1.679 c 20.72,2.809 21.28,8.411 21.28,48.731 v 253.119 c 0,33.03 -0.56,36.39 -17.36,46.47 z m 121.51,394.48 c 0,-38.64 -22.96,-89.04 -94.08,-89.04 -10.08,0 -17.92,1.13 -24.64,1.68 -6.72,-3.92 -24.64,-14.56 -24.64,-30.8 0,-12.87 12.88,-23.51 39.2,-23.51 19.04,0 42,1.68 66.64,1.68 31.36,0 78.4,-5.6 78.4,-61.6 0,-61.04 -66.64,-105.84 -139.44,-105.84 -68.88,0 -92.96,36.95 -92.96,64.96 0,8.96 2.24,16.24 6.16,20.71 9.52,10.09 25.2,24.64 38.09,37.52 5.03,5.04 9.51,10.09 4.47,13.45 -21.84,5.6 -40.88,24.64 -40.88,44.24 0,2.8 2.24,5.03 8.4,9.52 9.52,6.15 20.16,15.68 29.68,25.75 2.8,3.37 5.6,7.84 5.6,10.65 -19.04,10.08 -42,31.92 -42,67.76 0,48.16 41.44,84.55 91.28,84.55 21.28,0 40.88,-5.59 53.76,-11.19 17.92,-7.85 21.84,-8.96 34.16,-8.96 h 45.36 c 6.16,-2.81 5.04,-21.84 -3.36,-22.96 h -40.32 c 1.12,-9.52 1.12,-19.05 1.12,-28.57 z m 108.64,569.85 c -15.68,0 -34.71,-7.85 -35.84,-25.2 -0.56,-8.96 -1.12,-15.68 -5.6,-19.05 -8.4,-6.72 -23.52,-10.64 -31.92,-10.64 -5.04,0 -7.84,2.81 -7.84,7.85 0,29.12 63.28,68.87 104.16,68.87 40.32,0 59.92,-23.51 58.24,-65.52 l -3.36,-97.44 c -1.12,-25.75 3.92,-48.71 25.76,-48.71 5.6,0 10.64,1.68 14,3.36 2.8,1.68 5.6,3.92 7.28,3.92 2.24,0 3.92,-3.37 3.92,-7.28 0,-2.81 -19.6,-24.65 -47.04,-24.65 -13.44,0 -26.88,5.05 -36.4,17.37 -2.24,3.36 -5.6,7.83 -8.96,7.83 -3.92,0 -10.64,-5.04 -21.84,-11.19 -12.32,-6.73 -24.64,-14.01 -40.32,-14.01 -16.24,0 -29.68,4.49 -39.2,12.88 -10.64,9.53 -17.36,23.53 -17.36,39.2 0,21.84 10.64,34.72 46.48,47.61 l 66.64,24.07 c 8.4,2.81 9.52,7.85 9.52,16.24 l 0.56,25.76 c 0.56,20.72 -6.16,48.73 -40.88,48.73 z m 147.28,-194.33 10.64,1.68 c 20.72,3.36 21.28,8.41 21.28,48.73 v 97.99 c 0,21.84 0,24.65 -15.12,34.73 l -5.04,3.35 c -2.24,2.25 -2.24,8.4 0.56,10.08 12.88,4.48 42.56,19.04 56.56,27.44 2.8,-0.56 4.48,-1.68 4.48,-3.92 v -32.48 c 0,-2.8 0.56,-4.47 1.68,-5.04 19.6,16.24 40.88,33.6 61.6,33.6 14,0 25.19,-8.95 25.19,-22.4 0,-18.48 -15.11,-25.76 -24.08,-25.76 -5.59,0 -8.4,1.68 -12.31,3.92 -8.4,5.6 -16.8,8.96 -24.64,8.96 -8.96,0 -15.68,-5.04 -20.16,-11.2 -5.6,-7.83 -7.28,-24.08 -7.28,-43.12 v -76.15 c 0,-40.32 1.12,-47.05 22.4,-48.73 l 20.16,-1.68 c 3.92,-2.79 2.8,-12.32 -1.12,-13.99 -26.32,1.11 -42.56,1.67 -62.16,1.67 -20.16,0 -36.96,-0.56 -51.52,-1.67 -3.92,1.67 -5.04,11.2 -1.12,13.99 z m 310.23,216.16 c 19.05,0 31.37,-2.8 37.52,-5.04 2.81,0 3.36,3.36 3.36,7.84 v 84.57 c 0,33.03 -0.55,36.39 -17.36,46.47 l -5.6,3.36 c -2.8,1.68 -2.8,9.53 0,11.2 14.01,4.48 40.32,12.88 60.48,23.53 2.25,0 4.48,-1.13 5.61,-3.37 -0.57,-16.79 -1.68,-44.8 -1.68,-69.44 v -245.84 c 0,-44.23 0.55,-64.95 16.23,-64.95 6.17,0 15.68,2.8 24.08,5.6 3.92,-1.13 4.48,-15.12 -0.56,-17.92 -23.52,-3.37 -58.23,-11.76 -73.91,-17.92 -3.36,0 -6.17,1.68 -6.17,4.48 v 9.52 c 0,8.39 0,15.11 -1.12,17.35 h -2.24 c -24.63,-16.8 -43.68,-25.76 -70.55,-25.76 -62.17,0 -103.61,48.72 -103.61,107.52 0,78.41 59.37,128.8 135.52,128.8 z m 313.6,-1519.038 c 16.8,0 28,-13.442 28,-29.113 0,-20.168 -14,-29.118 -29.68,-29.118 -17.36,0 -28.56,12.879 -28.56,28 0,18.469 13.44,30.231 30.24,30.231 z M 0,3343.86 V 0 H 3367.18 V 3343.86 H 0"
       transform="matrix(0.13333,0,0,-0.13333,0,445.853)"
       id="path4"
       sodipodi:nodetypes="cscccssscsscccscccsscccccscssscccsssssscscccsscccccsscccscscsssscccccssccssssscscscsccccsccsssccscsssscsscccscccsscccccscssscccscccsssccssccssscsscccccsssccssssscscccssscsscccscccsscccccscsssccccscccsscccccssccccccscssscccccssscsscccccssscccssscssssccscsssssccssssssccccsccccsssscccscccsscccsscccccccccccsccccccccsccccccccscccccccccsccccccscccscccscccsssccccscccscccccscccccscccscccssscccscccsscccccsscccscscccccsccssscccsccccsscccccsscccsccssssssssssccscccsscccccssccscsscsssccscssscsssccscccsscccccscssscccscccsssccsscccccsscssscccscccssscsscccsccsscccsscccscccssssscsssssscccscccsscscccssccsssccscssscscscsccccsccssccccsscssscscsscccsccscsscscccssscccssccssssssssccccc" /><path
       style="fill:#cf692a;fill-opacity:1;fill-rule:nonzero;stroke:none"
       d="m 609.586,423.668 c -36.957,0 -64.398,-35.289 -64.398,-96.887 0,-50.961 22.957,-105.832 72.238,-105.832 49.277,0 64.398,51.512 64.398,94.641 0,47.601 -19.035,108.078 -72.238,108.078 m 151.762,468.48 h 39.761 c 41.442,0 53.758,2.231 58.239,5.602 1.683,1.121 3.363,3.359 3.363,10.641 0,15.679 -10.641,35.281 -43.121,35.281 -33.043,0 -61.602,-30.242 -62.164,-48.731 0,-1.113 0,-2.793 3.922,-2.793 M 354.23,2035.67 c 20.161,0 41.438,2.23 57.68,14.55 15.117,11.76 27.996,31.37 27.996,69.45 0,44.23 -27.441,86.23 -89.597,86.23 -34.723,0 -36.403,-2.23 -36.403,-17.92 v -131.03 c 0,-10.09 0,-16.24 1.68,-18.48 1.68,-1.68 10.082,-2.8 38.644,-2.8 M 1324.14,943.672 c -36.96,0 -64.4,-35.281 -64.4,-96.883 0,-50.969 22.96,-105.848 72.24,-105.848 49.28,0 64.4,51.52 64.4,94.637 0,47.613 -19.04,108.094 -72.24,108.094 m -191.53,261.758 c 49.84,0 82.88,28 82.88,59.91 0,34.17 -23.52,48.73 -63.84,48.73 h -19.04 c -17.92,0 -40.32,-1.12 -48.16,-6.17 -13.44,-8.39 -26.88,-25.75 -26.88,-47.03 0,-30.24 24.08,-55.44 75.04,-55.44 M 1473.1,423.109 c -50.96,0 -77.29,-44.25 -77.29,-92.961 0,-50.968 28.57,-99.117 83.45,-99.117 15.12,0 34.16,6.719 43.12,15.668 3.36,3.36 3.92,11.77 3.92,20.731 v 110.32 c 0,11.199 -2.24,16.238 -6.16,21.828 -8.4,11.762 -25.2,23.531 -47.04,23.531 m 293.99,1447.911 c 15.12,0 34.16,6.73 43.12,15.69 3.36,3.36 3.91,11.76 3.91,20.72 v 110.32 c 0,11.19 -2.24,16.23 -6.15,21.83 -8.4,11.77 -25.21,23.52 -47.05,23.52 -50.96,0 -77.28,-44.23 -77.28,-92.96 0,-50.96 28.57,-99.12 83.45,-99.12 m -418.32,78.96 c -3.35,0 -12.88,-2.23 -22.96,-5.6 -33.04,-11.19 -49.28,-19.6 -49.28,-41.43 0,-9.52 6.72,-33.61 35.28,-33.61 11.2,0 28.56,8.41 34.16,14 6.72,6.73 6.72,14.56 7.28,26.33 l 1.13,33.03 c 0,6.17 -2.25,7.28 -5.61,7.28 m -231.28,-405.75 c -26.88,0 -47.04,-24.65 -47.04,-62.72 0,-39.76 24.08,-65.53 50.96,-65.53 30.24,0 45.92,24.09 45.92,58.25 0,38.07 -15.68,70 -49.84,70"
       id="path2"
       inkscape:label="path2"
       transform="matrix(0.13333,0,0,-0.13333,0,445.853)" /></g></svg>
