<svg width="316" height="239" viewBox="0 0 316 239" fill="none" xmlns="http://www.w3.org/2000/svg">
<g clip-path="url(#clip0)">
<path d="M161.388 238.493C170.892 238.493 178.597 230.224 178.597 220.024C178.597 209.824 170.892 201.555 161.388 201.555C151.883 201.555 144.179 209.824 144.179 220.024C144.179 230.224 151.883 238.493 161.388 238.493Z" fill="#3466BB"/>
<path d="M264.195 237.456C273.822 234.353 284.058 231.117 291.693 223.74C298.516 217.148 303.122 207.082 300.296 197.196C297.475 187.33 289.026 180.752 280.303 177.48C275.355 175.624 270.179 174.595 265.005 173.786C259.38 172.907 253.731 172.187 248.084 171.493C225.219 168.687 202.268 166.972 179.231 166.35C167.864 166.042 156.499 166.05 145.131 166.227C134.978 166.385 124.284 166.381 114.866 161.75C107.541 158.149 100.893 151.596 98.8526 142.986C96.4967 133.047 100.842 122.926 107.075 115.727C110.361 111.933 114.201 108.74 118.163 105.803C122.46 102.618 126.908 99.6577 131.451 96.8946C140.4 91.4554 149.756 86.8263 159.422 83.0554C164.19 81.1946 169.029 79.5893 173.91 78.1083C178.032 76.8577 182.166 75.6054 186.15 73.9015C193.85 70.6077 201.174 65.0284 203.132 55.8815C204.988 47.2124 201.859 37.8015 196.374 31.3614C190.028 23.9107 180.46 20.6445 171.286 20.1161C160.988 19.5228 150.926 22.289 141.246 25.7997C130.922 29.5441 120.821 33.8495 110.278 36.8825C99.8243 39.8871 89.1679 42.013 78.406 43.2409C73.1377 43.843 67.7102 44.5228 62.4105 44.0619C57.969 43.6756 53.5501 42.2737 50.2767 38.8907C47.4699 35.9899 45.7979 32.0033 46.3728 27.7962C46.4772 27.032 47.5588 27.3569 47.455 28.1164C46.7553 33.2376 49.9989 37.9567 53.996 40.374C58.6155 43.1678 64.2368 43.1716 69.38 42.8521C80.5317 42.1292 91.608 40.4108 102.494 37.7146C113.191 35.0925 123.505 31.3442 133.808 27.3401C143.593 23.5372 153.597 19.8256 164.051 19.002C173.122 18.2872 182.664 19.7055 190.566 24.7929C197.511 29.264 202.618 36.7205 204.245 45.2769C205.835 53.6381 203.633 62.0537 197.735 67.8885C191.629 73.9296 183.257 76.5124 175.455 78.8912C165.559 81.9082 155.875 85.4349 146.502 90.0141C137.001 94.6425 127.889 100.14 119.267 106.447C110.944 112.551 102.731 120.231 100.099 131.12C98.8725 136.192 99.0989 141.572 101.15 146.363C102.975 150.623 105.979 154.206 109.479 156.97C117.829 163.564 128.353 164.918 138.44 165.053C149.769 165.204 161.097 164.794 172.43 164.994C195.524 165.4 218.572 166.909 241.572 169.52C247.335 170.174 253.091 170.898 258.84 171.691C264.01 172.404 269.199 173.112 274.282 174.378C283.322 176.63 292.118 180.96 297.736 189.185C300.229 192.75 301.774 196.975 302.205 201.409C302.599 206.036 301.543 210.672 299.594 214.788C295.28 223.898 287.198 229.693 278.617 233.5C274.02 235.539 269.252 237.084 264.493 238.617C263.8 238.841 263.504 237.679 264.195 237.456L264.195 237.456Z" fill="#F2F2F2"/>
<path d="M47.0975 37.5406C52.0562 37.5406 56.0761 33.2264 56.0761 27.9045C56.0761 22.5827 52.0562 18.2684 47.0975 18.2684C42.1387 18.2684 38.1189 22.5827 38.1189 27.9045C38.1189 33.2264 42.1387 37.5406 47.0975 37.5406Z" fill="#F2F2F2"/>
<path d="M109.387 55.8091C114.345 55.8091 118.365 51.4948 118.365 46.173C118.365 40.8511 114.345 36.5369 109.387 36.5369C104.428 36.5369 100.408 40.8511 100.408 46.173C100.408 51.4948 104.428 55.8091 109.387 55.8091Z" fill="#F2F2F2"/>
<path d="M162.136 19.2722C167.095 19.2722 171.115 14.958 171.115 9.6361C171.115 4.31423 167.095 0 162.136 0C157.177 0 153.157 4.31423 153.157 9.6361C153.157 14.958 157.177 19.2722 162.136 19.2722Z" fill="#F2F2F2"/>
<path d="M195.057 60.2257C200.016 60.2257 204.036 55.9115 204.036 50.5896C204.036 45.2677 200.016 40.9535 195.057 40.9535C190.099 40.9535 186.079 45.2677 186.079 50.5896C186.079 55.9115 190.099 60.2257 195.057 60.2257Z" fill="#F2F2F2"/>
<path d="M150.539 107.603C155.497 107.603 159.517 103.289 159.517 97.967C159.517 92.6452 155.497 88.3309 150.539 88.3309C145.58 88.3309 141.56 92.6452 141.56 97.967C141.56 103.289 145.58 107.603 150.539 107.603Z" fill="#F2F2F2"/>
<path d="M94.0482 130.489C99.0069 130.489 103.027 126.175 103.027 120.853C103.027 115.531 99.0069 111.217 94.0482 111.217C89.0894 111.217 85.0696 115.531 85.0696 120.853C85.0696 126.175 89.0894 130.489 94.0482 130.489Z" fill="#F2F2F2"/>
<path d="M153.906 166.223C158.864 166.223 162.884 161.909 162.884 156.587C162.884 151.265 158.864 146.951 153.906 146.951C148.947 146.951 144.927 151.265 144.927 156.587C144.927 161.909 148.947 166.223 153.906 166.223Z" fill="#F2F2F2"/>
<path d="M218.252 186.298C223.211 186.298 227.231 181.984 227.231 176.662C227.231 171.34 223.211 167.026 218.252 167.026C213.293 167.026 209.273 171.34 209.273 176.662C209.273 181.984 213.293 186.298 218.252 186.298Z" fill="#F2F2F2"/>
<path d="M293.448 181.881C298.407 181.881 302.426 177.567 302.426 172.245C302.426 166.923 298.407 162.609 293.448 162.609C288.489 162.609 284.469 166.923 284.469 172.245C284.469 177.567 288.489 181.881 293.448 181.881Z" fill="#F2F2F2"/>
<path d="M159.544 27.3036C132.649 27.5075 110.627 50.9642 110.245 79.827C110.241 80.0934 110.24 81.9672 110.24 84.4178C110.24 88.0111 111.57 91.4571 113.938 93.998C116.305 96.5389 119.516 97.9666 122.864 97.967H122.864C124.524 97.9666 126.167 97.6152 127.7 96.933C129.233 96.2507 130.626 95.2509 131.799 93.9907C132.972 92.7305 133.902 91.2346 134.536 89.5885C135.17 87.9424 135.496 86.1783 135.494 84.3971C135.493 82.73 135.492 81.5762 135.492 81.5053C135.491 77.0446 136.572 72.6605 138.629 68.7842C140.686 64.908 143.647 61.6731 147.222 59.3978C150.797 57.1225 154.863 55.8851 159.018 55.8074C163.174 55.7298 167.277 56.8145 170.924 58.9548C174.57 61.0951 177.635 64.2174 179.816 68.0144C181.997 71.8115 183.22 76.1525 183.364 80.6105C183.508 85.0686 182.568 89.49 180.637 93.4399C178.705 97.3898 175.849 100.732 172.349 103.138L172.354 103.144C172.354 103.144 154.386 115.558 148.908 132.588L148.913 132.59C147.949 136.078 147.461 139.698 147.464 143.337C147.464 144.833 147.546 157.92 147.704 168.542C147.759 172.208 149.155 175.702 151.59 178.273C154.025 180.844 157.304 182.284 160.719 182.283H160.719C162.435 182.283 164.135 181.919 165.719 181.211C167.304 180.503 168.742 179.467 169.952 178.16C171.162 176.854 172.119 175.304 172.768 173.599C173.418 171.894 173.747 170.068 173.736 168.226C173.681 158.498 173.651 147.17 173.651 146.348C173.651 135.891 183.051 125.472 190.772 118.678C199.663 110.854 206.061 100.191 208.631 88.1637C209.199 85.6874 209.513 83.1516 209.566 80.6019C209.566 73.5701 208.269 66.6078 205.751 60.1161C203.233 53.6245 199.542 47.7317 194.893 42.7775C190.243 37.8232 184.726 33.9054 178.659 31.2497C172.592 28.5939 166.096 27.2528 159.544 27.3036Z" fill="#3466BB"/>
<path d="M315.554 239H0.445133C0.327217 239 0.21425 238.949 0.130992 238.86C0.0477335 238.77 0.000976562 238.649 0.000976562 238.522C0.000976562 238.395 0.0477335 238.274 0.130992 238.184C0.21425 238.095 0.327217 238.044 0.445133 238.044H315.554C315.672 238.044 315.786 238.094 315.869 238.184C315.953 238.274 316 238.395 316 238.522C316 238.649 315.953 238.77 315.869 238.86C315.786 238.95 315.672 239 315.554 239Z" fill="#3F3D56"/>
<path d="M235.108 109.609C241.306 109.609 246.331 104.216 246.331 97.5639C246.331 90.9116 241.306 85.5188 235.108 85.5188C228.909 85.5188 223.884 90.9116 223.884 97.5639C223.884 104.216 228.909 109.609 235.108 109.609Z" fill="#2F2E41"/>
<path d="M214.368 233.727H209.782L207.6 214.741H214.37L214.368 233.727Z" fill="#A0616A"/>
<path d="M206.506 232.321H215.352V238.298H200.937C200.937 237.513 201.081 236.736 201.361 236.01C201.641 235.285 202.051 234.626 202.568 234.071C203.085 233.516 203.699 233.076 204.375 232.776C205.051 232.475 205.775 232.321 206.506 232.321Z" fill="#2F2E41"/>
<path d="M249.909 233.727H245.323L243.141 214.741H249.91L249.909 233.727Z" fill="#A0616A"/>
<path d="M242.047 232.321H250.892V238.298H236.477C236.477 237.513 236.621 236.736 236.901 236.01C237.181 235.285 237.591 234.626 238.108 234.071C238.626 233.516 239.24 233.076 239.915 232.776C240.591 232.475 241.315 232.321 242.047 232.321Z" fill="#2F2E41"/>
<path d="M233.402 109.679C238.477 109.679 242.591 105.264 242.591 99.818C242.591 94.3717 238.477 89.9567 233.402 89.9567C228.327 89.9567 224.214 94.3717 224.214 99.818C224.214 105.264 228.327 109.679 233.402 109.679Z" fill="#A0616A"/>
<path d="M238.879 141.492L242.99 131.354C243.989 128.976 244.275 126.324 243.809 123.764C243.344 121.203 242.149 118.861 240.39 117.061C240.029 116.678 239.645 116.32 239.242 115.989C237.213 114.286 234.713 113.357 232.137 113.351C230.406 113.358 228.696 113.766 227.124 114.547C226.99 114.612 226.859 114.68 226.724 114.748C226.466 114.881 226.212 115.025 225.965 115.174C224.354 116.166 222.983 117.551 221.963 119.216C220.943 120.882 220.302 122.781 220.091 124.762L218.277 141.079C217.82 142.36 201.539 188.613 207.233 223.925C207.294 224.302 207.465 224.649 207.722 224.914C207.979 225.179 208.309 225.349 208.662 225.399L214.435 226.242C214.856 226.304 215.284 226.192 215.632 225.929C215.979 225.666 216.221 225.271 216.309 224.825L225.995 175.275C226.055 174.967 226.21 174.69 226.434 174.487C226.659 174.285 226.94 174.169 227.233 174.159C227.526 174.148 227.814 174.243 228.05 174.429C228.287 174.614 228.459 174.88 228.538 175.183L242.223 227.29C242.321 227.668 242.531 228.002 242.823 228.24C243.114 228.478 243.47 228.607 243.836 228.607C243.945 228.606 244.054 228.595 244.161 228.575L251.213 227.117C251.623 227.035 251.99 226.791 252.241 226.434C252.492 226.077 252.61 225.632 252.571 225.186C251.535 212.783 246.028 150.659 238.879 141.492Z" fill="#2F2E41"/>
<path d="M197.694 108.025C197.63 108.611 197.687 109.205 197.86 109.765C198.033 110.325 198.319 110.838 198.697 111.267C199.075 111.696 199.536 112.03 200.047 112.247C200.558 112.464 201.108 112.558 201.657 112.523L206.793 125.769L210.678 119.589L205.205 107.957C205.088 106.971 204.639 106.066 203.941 105.412C203.244 104.758 202.347 104.402 201.421 104.41C200.496 104.418 199.605 104.791 198.918 105.457C198.23 106.123 197.795 107.037 197.694 108.025L197.694 108.025Z" fill="#A0616A"/>
<path d="M232.893 154.831C233.439 154.761 233.964 154.563 234.432 154.251C234.899 153.94 235.297 153.522 235.597 153.028C235.898 152.534 236.094 151.975 236.171 151.39C236.249 150.806 236.206 150.211 236.046 149.646L246.852 141.199L240.346 138.584L231.082 147.007C230.216 147.358 229.5 148.039 229.07 148.919C228.64 149.799 228.526 150.818 228.749 151.782C228.973 152.747 229.518 153.59 230.282 154.151C231.045 154.713 231.975 154.955 232.893 154.831Z" fill="#A0616A"/>
<path d="M215.277 134.601C214.862 134.6 214.449 134.556 214.043 134.47C213.06 134.269 212.138 133.812 211.359 133.139C210.579 132.465 209.966 131.597 209.573 130.609L202.377 121.193C202.225 120.993 202.115 120.762 202.053 120.513C201.991 120.264 201.979 120.004 202.018 119.75C202.058 119.496 202.147 119.254 202.281 119.04C202.414 118.827 202.589 118.646 202.793 118.51L207.912 115.109C208.101 114.984 208.312 114.899 208.531 114.862C208.751 114.824 208.975 114.833 209.191 114.888C209.407 114.944 209.611 115.045 209.791 115.186C209.97 115.326 210.122 115.504 210.238 115.708L215.309 124.675L225.022 116.971C225.795 116.536 226.688 116.414 227.538 116.627C228.389 116.841 229.139 117.375 229.652 118.133C230.166 118.891 230.408 119.822 230.334 120.756C230.261 121.69 229.877 122.564 229.253 123.219L219.559 132.71C218.42 133.921 216.881 134.601 215.277 134.601Z" fill="#2F2E41"/>
<path d="M241.52 148.763C241.507 148.763 241.494 148.763 241.481 148.762C241.245 148.756 241.013 148.697 240.799 148.588C240.586 148.48 240.396 148.324 240.242 148.132L235.691 142.433C235.536 142.239 235.421 142.012 235.354 141.767C235.287 141.521 235.269 141.264 235.301 141.01C235.334 140.757 235.416 140.514 235.542 140.298C235.669 140.081 235.837 139.896 236.035 139.754L244.558 133.656L236.837 123.694C236.388 122.89 236.223 121.94 236.373 121.017C236.522 120.093 236.977 119.259 237.652 118.665C238.328 118.072 239.18 117.759 240.053 117.784C240.926 117.81 241.761 118.171 242.406 118.802L251.79 128.644C252.529 129.368 253.093 130.274 253.433 131.283C253.774 132.293 253.881 133.376 253.746 134.44C253.611 135.503 253.237 136.516 252.657 137.391C252.077 138.265 251.307 138.976 250.415 139.461L242.746 148.195C242.588 148.374 242.398 148.517 242.187 148.615C241.977 148.712 241.75 148.762 241.52 148.763Z" fill="#2F2E41"/>
<path d="M231.066 127.764C230.993 127.764 230.92 127.759 230.847 127.749C230.53 127.708 230.231 127.57 229.985 127.352C229.739 127.133 229.557 126.844 229.459 126.517L226.039 115.263C225.953 114.979 225.967 114.671 226.076 114.396C226.186 114.121 226.384 113.898 226.635 113.768L226.746 113.712C226.847 113.66 226.947 113.61 227.048 113.561C228.643 112.767 230.379 112.353 232.137 112.347C234.42 112.352 236.651 113.071 238.558 114.418C238.813 114.6 238.992 114.883 239.055 115.206C239.118 115.528 239.06 115.864 238.895 116.142L232.479 126.929C232.328 127.185 232.12 127.396 231.873 127.542C231.626 127.689 231.348 127.765 231.066 127.764Z" fill="#E6E6E6"/>
<path d="M243.957 92.1865C245.985 92.1865 247.629 90.4218 247.629 88.245C247.629 86.0682 245.985 84.3036 243.957 84.3036C241.928 84.3036 240.284 86.0682 240.284 88.245C240.284 90.4218 241.928 92.1865 243.957 92.1865Z" fill="#2F2E41"/>
<path d="M231.366 83.9127C228.787 83.9127 226.313 85.0125 224.489 86.9703C222.664 88.928 221.64 91.5832 221.64 94.3518V98.7684H226.701L229.122 94.3518L229.848 98.7684H245.208L241.093 94.3518C241.093 91.5832 240.068 88.928 238.244 86.9703C236.42 85.0125 233.946 83.9127 231.366 83.9127Z" fill="#2F2E41"/>
<path d="M245.844 85.5453C246.25 84.1824 247.091 83.0168 248.218 82.2534C249.346 81.49 250.688 81.1777 252.009 81.3714C254.35 81.7913 256.2 83.8104 257.303 86.0654C258.405 88.3205 258.914 90.8443 259.656 93.2636C260.397 95.6828 261.448 98.1152 263.319 99.6812C265.191 101.247 268.062 101.672 269.9 100.061C269.69 101.74 268.993 103.306 267.909 104.536C266.824 105.767 265.407 106.601 263.857 106.92C262.306 107.239 260.702 107.026 259.271 106.313C257.839 105.599 256.653 104.421 255.879 102.944C254.91 101.093 254.659 98.9226 254.372 96.821C254.084 94.7195 253.71 92.5451 252.553 90.8224C251.395 89.0997 249.228 87.9745 247.389 88.7592L245.844 85.5453Z" fill="#2F2E41"/>
<path d="M126.429 91.5584C123.08 91.558 119.87 90.1303 117.502 87.5894C115.135 85.0485 113.805 81.6025 113.805 78.0092C113.804 75.5586 113.806 73.6848 113.81 73.4184C113.916 65.0243 115.886 56.7784 119.555 49.3647C113.526 58.2231 110.211 68.8734 110.068 79.8424C110.065 80.1089 110.063 81.9826 110.063 84.4333C110.064 88.0266 111.394 91.4726 113.761 94.0135C116.129 96.5544 119.339 97.9821 122.687 97.9825C125.439 97.9813 128.114 97.0165 130.308 95.2345C132.502 93.4525 134.093 90.9507 134.841 88.1092C132.53 90.3339 129.533 91.5624 126.429 91.5584Z" fill="#3F3D56"/>
<path d="M160.4 55.853C164.271 56.0514 168.039 57.255 171.38 59.3605C174.722 61.466 177.538 64.4105 179.585 67.9411C181.633 71.4717 182.852 75.483 183.137 79.6305C183.422 83.778 182.765 87.9378 181.223 91.7527C183.454 88.94 185.094 85.644 186.031 82.0894C186.968 78.5347 187.18 74.805 186.652 71.1545C186.125 67.504 184.869 64.0186 182.973 60.9359C181.076 57.8531 178.582 55.2456 175.662 53.2909C172.741 51.3363 169.462 50.0805 166.048 49.6093C162.634 49.1381 159.165 49.4625 155.878 50.5603C152.592 51.6581 149.565 53.5036 147.003 55.971C144.441 58.4383 142.405 61.4695 141.034 64.8579C143.404 61.8656 146.383 59.4975 149.74 57.9363C153.098 56.375 156.745 55.6623 160.4 55.853Z" fill="#3F3D56"/>
<path d="M164.284 175.874C160.868 175.875 157.589 174.435 155.155 171.864C152.72 169.294 151.324 165.799 151.269 162.134C151.11 151.511 151.028 138.424 151.028 136.928C151.026 133.29 151.514 129.67 152.477 126.181L152.473 126.18C153.042 124.429 153.729 122.724 154.528 121.08C152.073 124.591 150.12 128.475 148.732 132.604L148.736 132.605C147.773 136.094 147.285 139.714 147.287 143.352C147.287 144.848 147.369 157.936 147.528 168.558C147.583 172.223 148.979 175.718 151.414 178.288C153.848 180.859 157.127 182.299 160.543 182.298C163.359 182.298 166.099 181.317 168.352 179.504C170.605 177.691 172.249 175.142 173.039 172.241C170.645 174.583 167.522 175.879 164.284 175.874Z" fill="#3F3D56"/>
<path d="M47.34 233.91L51.9262 233.91L54.1083 214.924L47.3389 214.924L47.34 233.91Z" fill="#FFB8B8"/>
<path d="M60.7722 238.48L46.3576 238.481L46.3573 232.504L55.2027 232.504C56.6797 232.504 58.0963 233.133 59.1408 234.254C60.1853 235.375 60.7721 236.895 60.7722 238.48L60.7722 238.48Z" fill="#2F2E41"/>
<path d="M30.8793 233.91L35.4655 233.91L37.6477 214.924L30.8782 214.924L30.8793 233.91Z" fill="#FFB8B8"/>
<path d="M44.3113 238.48L29.8966 238.481L29.8964 232.504L38.7417 232.504C40.2188 232.504 41.6354 233.133 42.6799 234.254C43.7244 235.375 44.3112 236.895 44.3113 238.48L44.3113 238.48Z" fill="#2F2E41"/>
<path d="M34.887 228.071L30.4071 227.818C30.1761 227.805 29.9498 227.743 29.7413 227.635C29.5328 227.528 29.3463 227.377 29.1926 227.191C29.0388 227.006 28.9209 226.79 28.8456 226.555C28.7704 226.32 28.7392 226.072 28.7541 225.824L34.1086 162.199L58.7664 169.34L61.1421 168.645L53.7129 224.97C53.6496 225.393 53.4536 225.781 53.1572 226.069C52.8607 226.357 52.4816 226.528 52.0825 226.553L47.2532 226.795C47.0117 226.809 46.7701 226.77 46.5436 226.679C46.317 226.588 46.1106 226.447 45.9372 226.266C45.7638 226.085 45.6273 225.868 45.5362 225.627C45.4452 225.387 45.4016 225.129 45.4083 224.869L46.2833 191.064C46.2874 190.908 46.2368 190.756 46.1415 190.637C46.0461 190.519 45.913 190.443 45.7683 190.425C45.6235 190.407 45.4777 190.448 45.3596 190.539C45.2414 190.631 45.1594 190.766 45.1299 190.92L36.6911 226.578C36.6115 227.001 36.3976 227.382 36.0859 227.654C35.7742 227.927 35.384 228.075 34.9818 228.074C34.9504 228.074 34.9188 228.073 34.887 228.071Z" fill="#2F2E41"/>
<path d="M48.1638 110.141C53.2385 110.141 57.3523 105.725 57.3523 100.279C57.3523 94.8329 53.2385 90.4178 48.1638 90.4178C43.0892 90.4178 38.9753 94.8329 38.9753 100.279C38.9753 105.725 43.0892 110.141 48.1638 110.141Z" fill="#FFB8B8"/>
<path d="M32.8652 129.251L33.8755 152.646L34.2408 161.157C34.2553 161.528 34.3725 161.885 34.5774 162.184C34.7823 162.482 35.0655 162.709 35.3909 162.834L59.0854 172.046C59.2768 172.122 59.4796 172.16 59.6838 172.158C59.9172 172.159 60.1484 172.11 60.3637 172.013C60.5789 171.916 60.7738 171.774 60.9366 171.595C61.0995 171.415 61.227 171.202 61.3115 170.969C61.396 170.735 61.4358 170.486 61.4285 170.236L60.4571 128.171C60.3933 124.72 59.2096 121.401 57.11 118.786C55.0105 116.171 52.1266 114.424 48.9557 113.847C48.7265 113.809 48.4933 113.772 48.2601 113.738C46.2938 113.476 44.298 113.68 42.4129 114.335C40.5279 114.99 38.7995 116.08 37.3492 117.529C35.8476 119.011 34.6676 120.829 33.8928 122.855C33.118 124.881 32.7672 127.064 32.8652 129.251L32.8652 129.251Z" fill="#CCCCCC"/>
<path d="M70.4042 167.378C69.8438 167.191 69.3318 166.866 68.909 166.429C68.4863 165.993 68.1645 165.456 67.9694 164.862C67.7743 164.268 67.7112 163.634 67.7852 163.009C67.8592 162.384 68.0683 161.787 68.3957 161.264L60.3606 149.797L67.2944 149.336L73.8617 160.296C74.5647 160.88 75.0539 161.71 75.2435 162.642C75.4331 163.574 75.311 164.547 74.8985 165.392C74.486 166.237 73.8095 166.899 72.9877 167.262C72.1659 167.625 71.2513 167.666 70.4042 167.378H70.4042Z" fill="#FFB8B8"/>
<path d="M64.7546 159.189C64.5417 159.096 64.3481 158.959 64.1849 158.785C64.0217 158.612 63.8923 158.405 63.804 158.178L51.6985 127.224C51.461 126.618 51.337 125.968 51.3338 125.31C51.3306 124.653 51.4481 124.001 51.6797 123.392C51.9112 122.783 52.2523 122.23 52.6833 121.763C53.1144 121.295 53.627 120.924 54.1919 120.669C54.7568 120.415 55.3628 120.283 55.9754 120.28C56.5881 120.277 57.1952 120.403 57.7622 120.652C58.3292 120.901 58.8449 121.268 59.2798 121.731C59.7148 122.194 60.0605 122.744 60.2971 123.351L72.4026 154.305C72.5815 154.764 72.5835 155.28 72.4081 155.741C72.2328 156.201 71.8944 156.568 71.4671 156.761L66.0929 159.182C65.8814 159.278 65.6541 159.328 65.4244 159.329C65.1947 159.33 64.967 159.283 64.7546 159.189L64.7546 159.189Z" fill="#CCCCCC"/>
<path d="M45.2091 158.097L56.8361 134.204C57.0603 133.744 57.4452 133.399 57.9063 133.244C58.3675 133.088 58.8672 133.136 59.2958 133.375L76.1724 142.835C76.6006 143.076 76.9223 143.489 77.067 143.984C77.2117 144.478 77.1676 145.015 76.9444 145.475L65.3174 169.368C65.0931 169.827 64.7082 170.173 64.2471 170.328C63.786 170.483 63.2863 170.436 62.8576 170.196L45.981 160.737C45.5529 160.496 45.2311 160.083 45.0864 159.588C44.9417 159.093 44.9858 158.557 45.2091 158.097Z" fill="#3F3D56"/>
<path d="M53.0071 147.181C52.8004 146.592 52.4682 146.062 52.037 145.635C51.6058 145.208 51.0875 144.895 50.5236 144.721C49.9596 144.547 49.3656 144.517 48.7889 144.633C48.2122 144.749 47.6688 145.008 47.202 145.39L36.0617 137.459L36.0427 144.915L46.6247 151.303C47.2088 152.022 48.0101 152.497 48.888 152.645C49.7659 152.793 50.6644 152.605 51.4258 152.113C52.1873 151.621 52.763 150.858 53.0522 149.956C53.3413 149.054 53.3253 148.071 53.0071 147.181Z" fill="#FFB8B8"/>
<path d="M38.9213 148.857L29.8168 141.117C28.8318 140.762 27.9418 140.156 27.2232 139.351C26.5046 138.546 25.9788 137.565 25.691 136.494C25.4032 135.422 25.3619 134.292 25.5707 133.2C25.7796 132.107 26.2323 131.086 26.8899 130.222L35.1567 118.595C35.7311 117.842 36.5391 117.335 37.4327 117.169C38.3264 117.002 39.2462 117.186 40.0238 117.687C40.8015 118.188 41.3852 118.973 41.6682 119.898C41.9512 120.823 41.9145 121.826 41.565 122.724L35.0241 134.207L44.6365 139.1C44.86 139.214 45.0585 139.378 45.2188 139.58C45.3791 139.782 45.4977 140.018 45.5665 140.273C45.6354 140.528 45.6531 140.796 45.6184 141.059C45.5837 141.322 45.4974 141.574 45.3653 141.798L41.4851 148.389C41.354 148.611 41.1807 148.801 40.9767 148.947C40.7726 149.093 40.5422 149.192 40.3004 149.236C40.2908 149.238 40.2812 149.24 40.2715 149.241C40.034 149.28 39.7916 149.265 39.5594 149.199C39.3271 149.133 39.11 149.017 38.9213 148.857Z" fill="#CCCCCC"/>
<path d="M41.2208 106.883C41.1814 106.759 41.1689 106.627 41.1842 106.497C41.1996 106.367 41.2425 106.243 41.3095 106.134C41.3765 106.025 41.466 105.933 41.571 105.867C41.676 105.8 41.7938 105.761 41.9153 105.751C42.1641 105.765 42.4077 105.834 42.6312 105.952C42.8547 106.07 43.0535 106.236 43.2157 106.439C43.5483 106.851 43.9354 107.207 44.3647 107.498C44.8092 107.739 45.412 107.704 45.6654 107.246C45.9033 106.815 45.7403 106.239 45.5962 105.739C45.2297 104.467 45.0246 103.147 44.9865 101.816C44.945 100.33 45.1403 98.7799 45.9067 97.6211C46.8958 96.1256 48.6644 95.5579 50.3382 95.599C52.0119 95.6402 53.6585 96.1947 55.3165 96.5452C55.8888 96.6662 56.5616 96.7281 56.9444 96.252C57.3515 95.7458 57.202 94.9265 57.0288 94.243C56.5795 92.4694 56.1029 90.6356 55.059 89.2032C53.9304 87.7148 52.3181 86.7406 50.547 86.4769C48.8466 86.2509 47.1205 86.4612 45.5106 87.0906C42.8877 87.9778 40.5797 89.7034 38.8953 92.0366C37.159 94.5178 36.4087 97.6359 36.8085 100.709C37.1991 103.386 38.5207 105.804 40.5069 107.476L41.2208 106.883Z" fill="#2F2E41"/>
<path d="M157.596 233.989C155.151 232.846 152.988 231.109 151.276 228.915C149.563 226.721 148.35 224.13 147.731 221.347C147.111 218.564 147.103 215.664 147.707 212.876C148.311 210.089 149.51 207.49 151.21 205.286C149.239 206.83 147.597 208.806 146.392 211.084C145.187 213.362 144.448 215.888 144.223 218.496C143.997 221.104 144.291 223.733 145.085 226.21C145.879 228.686 147.155 230.953 148.828 232.86C150.5 234.767 152.532 236.27 154.787 237.27C157.043 238.27 159.47 238.744 161.909 238.66C164.348 238.576 166.743 237.936 168.934 236.783C171.125 235.629 173.062 233.989 174.617 231.971C172.192 233.874 169.344 235.061 166.357 235.415C163.371 235.769 160.35 235.277 157.596 233.989Z" fill="#3F3D56"/>
</g>
<defs>
<clipPath id="clip0">
<rect width="316" height="239" fill="white"/>
</clipPath>
</defs>
</svg>
