<svg width="390" height="282" viewBox="0 0 390 282" fill="none" xmlns="http://www.w3.org/2000/svg">

<g clip-path="url(#clip0)">
<path d="M16.1715 32.2176C11.8825 32.2176 7.76926 30.5204 4.73652 27.4994C1.70378 24.4784 0 20.3811 0 16.1088C0 11.8365 1.70378 7.73913 4.73652 4.71815C7.76926 1.69717 11.8825 0 16.1715 0H163.355C167.644 0 171.758 1.69717 174.79 4.71815C177.823 7.73913 179.527 11.8365 179.527 16.1088C179.527 20.3811 177.823 24.4784 174.79 27.4994C171.758 30.5204 167.644 32.2176 163.355 32.2176H16.1715Z" fill="#E6E6E6"/>
<path d="M60.35 2.1012H31.5618V30.1165H60.35V2.1012Z" fill="white"/>
<path d="M163.355 2.1012H148.473V30.1165H163.355C167.085 30.1165 170.662 28.6407 173.299 26.0137C175.936 23.3868 177.417 19.8239 177.417 16.1088C177.417 12.3938 175.936 8.83088 173.299 6.20394C170.662 3.57699 167.085 2.1012 163.355 2.1012Z" fill="white"/>
<path d="M118.708 2.1012H90.115V30.1165H118.708V2.1012Z" fill="white"/>
<path d="M89.6463 2.1012H60.8188V30.1165H89.6463V2.1012Z" fill="#3466BB"/>
<path d="M148.004 2.1012H119.177V30.1165H148.004V2.1012Z" fill="#E6E6E6"/>
<path d="M31.0931 2.1012H16.1715C12.442 2.1012 8.86525 3.57699 6.22809 6.20394C3.59092 8.83088 2.10937 12.3938 2.10938 16.1088C2.10938 19.8239 3.59092 23.3868 6.22809 26.0137C8.86525 28.6407 12.442 30.1165 16.1715 30.1165H31.0931L31.0931 2.1012Z" fill="#3466BB"/>
<path d="M15.1369 21.4959L11.2217 16.4821L13.4985 14.7179L15.3519 17.0921L21.6142 10.5077L23.708 12.4838L15.1369 21.4959Z" fill="white"/>
<path d="M72.7917 21.4959L68.8765 16.4821L71.1533 14.7179L73.0067 17.0921L79.269 10.5077L81.3628 12.4838L72.7917 21.4959Z" fill="white"/>
<path d="M129.648 11.1168L128.349 12.4104L137.074 21.1009L138.372 19.8073L129.648 11.1168Z" fill="white"/>
<path d="M137.533 11.1168L128.809 19.8073L130.107 21.1008L138.832 12.4103L137.533 11.1168Z" fill="white"/>
<path d="M45.8995 24.5079C44.2307 24.5079 42.5995 24.015 41.2119 23.0915C39.8244 22.168 38.743 20.8554 38.1044 19.3196C37.4658 17.7839 37.2987 16.094 37.6243 14.4637C37.9498 12.8333 38.7534 11.3358 39.9334 10.1604C41.1134 8.98498 42.6167 8.18452 44.2534 7.86023C45.8901 7.53593 47.5866 7.70237 49.1283 8.33849C50.67 8.97462 51.9877 10.0519 52.9148 11.434C53.8419 12.8161 54.3368 14.441 54.3368 16.1033C54.3342 18.3316 53.4445 20.4679 51.8627 22.0435C50.281 23.6191 48.1364 24.5054 45.8995 24.5079ZM45.8995 9.56642C44.6015 9.56642 43.3328 9.9498 42.2536 10.6681C41.1744 11.3864 40.3333 12.4073 39.8366 13.6018C39.3399 14.7962 39.21 16.1106 39.4632 17.3786C39.7164 18.6467 40.3414 19.8114 41.2591 20.7256C42.1769 21.6398 43.3462 22.2624 44.6192 22.5146C45.8921 22.7669 47.2116 22.6374 48.4107 22.1427C49.6099 21.6479 50.6348 20.81 51.3558 19.7351C52.0769 18.6601 52.4618 17.3962 52.4618 16.1033C52.4598 14.3702 51.7678 12.7087 50.5376 11.4832C49.3073 10.2577 47.6393 9.56837 45.8995 9.56642Z" fill="#E6E6E6"/>
<path d="M104.492 24.5079C102.823 24.5079 101.192 24.015 99.8042 23.0915C98.4167 22.168 97.3353 20.8554 96.6967 19.3196C96.0581 17.7839 95.891 16.094 96.2166 14.4637C96.5421 12.8333 97.3457 11.3358 98.5257 10.1604C99.7056 8.98498 101.209 8.18452 102.846 7.86023C104.482 7.53593 106.179 7.70237 107.721 8.33849C109.262 8.97462 110.58 10.0519 111.507 11.434C112.434 12.8161 112.929 14.441 112.929 16.1033C112.927 18.3316 112.037 20.4679 110.455 22.0435C108.873 23.6191 106.729 24.5054 104.492 24.5079ZM104.492 9.56642C103.194 9.56642 101.925 9.9498 100.846 10.6681C99.7667 11.3864 98.9256 12.4073 98.4289 13.6018C97.9322 14.7962 97.8023 16.1106 98.0555 17.3786C98.3087 18.6467 98.9337 19.8114 99.8514 20.7256C100.769 21.6398 101.938 22.2624 103.211 22.5146C104.484 22.7669 105.804 22.6374 107.003 22.1427C108.202 21.6479 109.227 20.81 109.948 19.7351C110.669 18.6601 111.054 17.3962 111.054 16.1033C111.052 14.3702 110.36 12.7087 109.13 11.4832C107.9 10.2577 106.232 9.56837 104.492 9.56642Z" fill="#E6E6E6"/>
<path d="M162.85 24.5079C161.181 24.5079 159.55 24.015 158.162 23.0915C156.775 22.168 155.693 20.8554 155.055 19.3196C154.416 17.7839 154.249 16.094 154.574 14.4637C154.9 12.8333 155.704 11.3358 156.884 10.1604C158.064 8.98498 159.567 8.18452 161.204 7.86023C162.84 7.53593 164.537 7.70237 166.078 8.33849C167.62 8.97462 168.938 10.0519 169.865 11.434C170.792 12.8161 171.287 14.441 171.287 16.1033C171.284 18.3316 170.395 20.4679 168.813 22.0435C167.231 23.6191 165.087 24.5054 162.85 24.5079ZM162.85 9.56642C161.552 9.56642 160.283 9.94981 159.204 10.6681C158.125 11.3864 157.284 12.4073 156.787 13.6018C156.29 14.7962 156.16 16.1106 156.413 17.3786C156.667 18.6467 157.292 19.8114 158.209 20.7256C159.127 21.6398 160.296 22.2624 161.569 22.5146C162.842 22.7669 164.162 22.6374 165.361 22.1427C166.56 21.6479 167.585 20.81 168.306 19.7351C169.027 18.6601 169.412 17.3962 169.412 16.1033C169.41 14.3702 168.718 12.7087 167.488 11.4832C166.258 10.2577 164.589 9.56836 162.85 9.56642Z" fill="#E6E6E6"/>
</g>
<defs>
</defs>


<path d="M389.523 280H60.4769C60.3504 280 60.2291 279.947 60.1397 279.854C60.0502 279.76 60 279.633 60 279.5C60 279.367 60.0502 279.24 60.1397 279.146C60.2291 279.053 60.3504 279 60.4769 279H389.523C389.65 279 389.771 279.053 389.86 279.146C389.95 279.24 390 279.367 390 279.5C390 279.633 389.95 279.76 389.86 279.854C389.771 279.947 389.65 280 389.523 280Z" fill="#3F3D56"/>
<path d="M350.946 181.45H122.131C121.16 181.45 120.228 181.837 119.541 182.524C118.854 183.212 118.468 184.145 118.468 185.117C118.468 186.09 118.854 187.023 119.541 187.71C120.228 188.398 121.16 188.784 122.131 188.784H128.612V276.508C128.612 277.48 128.998 278.413 129.685 279.101C130.372 279.788 131.304 280.175 132.276 280.175C133.247 280.175 134.179 279.788 134.866 279.101C135.553 278.413 135.939 277.48 135.939 276.508L135.995 188.784H336.575V276.508C336.575 277.48 336.961 278.413 337.648 279.101C338.335 279.788 339.266 280.175 340.238 280.175C341.21 280.175 342.141 279.788 342.828 279.101C343.515 278.413 343.901 277.48 343.901 276.508V190.718L344.967 188.784H350.946C351.918 188.784 352.849 188.398 353.536 187.71C354.223 187.023 354.609 186.09 354.609 185.117C354.609 184.145 354.223 183.212 353.536 182.524C352.849 181.837 351.918 181.45 350.946 181.45Z" fill="#CCCCCC"/>
<path d="M248.988 183.37H179.677C178.335 183.368 177.049 182.834 176.1 181.884C175.151 180.934 174.617 179.646 174.615 178.303V140.105C174.617 138.762 175.151 137.474 176.1 136.524C177.049 135.574 178.335 135.04 179.677 135.038H248.988C250.33 135.04 251.617 135.574 252.566 136.524C253.515 137.474 254.049 138.762 254.05 140.105V178.303C254.049 179.646 253.515 180.934 252.566 181.884C251.617 182.834 250.33 183.368 248.988 183.37Z" fill="#3F3D56"/>
<path d="M248.988 138.938H179.678C179.369 138.939 179.072 139.062 178.854 139.281C178.635 139.499 178.512 139.796 178.511 140.106V178.303C178.512 178.613 178.635 178.91 178.854 179.128C179.072 179.347 179.369 179.471 179.678 179.471H248.988C249.297 179.471 249.593 179.347 249.812 179.128C250.03 178.91 250.153 178.613 250.154 178.303V140.106C250.153 139.796 250.03 139.499 249.812 139.281C249.593 139.062 249.297 138.939 248.988 138.938Z" fill="white"/>
<path d="M220.244 165.982C220.244 165.982 211.947 164.068 207.383 167.576C202.82 171.085 213.191 179.059 213.191 179.059L220.244 165.982Z" fill="#2F2E41"/>
<path d="M214.739 162.366C219.062 162.366 222.566 158.858 222.566 154.531C222.566 150.205 219.062 146.697 214.739 146.697C210.417 146.697 206.913 150.205 206.913 154.531C206.913 158.858 210.417 162.366 214.739 162.366Z" fill="#A0616A"/>
<path d="M208.687 143.534C209.209 142.647 209.966 141.922 210.873 141.439C211.781 140.955 212.804 140.732 213.831 140.795C214.904 140.929 215.952 141.223 216.939 141.666L222.055 143.663C223.379 144.18 224.829 144.814 225.404 146.115C225.937 147.322 225.539 148.717 225.137 149.974L223.222 155.95C223.01 154.598 222.646 153.273 222.138 152.002C221.62 150.723 220.686 149.657 219.486 148.976C218.157 148.294 216.591 148.308 215.099 148.38C212.986 148.482 210.689 148.751 209.187 150.243C208.39 151.09 207.85 152.146 207.629 153.289C207.412 154.425 207.302 155.579 207.302 156.736C206.436 155.246 205.706 153.679 205.122 152.057C204.641 150.848 204.367 149.568 204.312 148.269C204.261 146.958 204.696 145.675 205.531 144.665C205.956 144.172 206.509 143.807 207.13 143.611C207.75 143.416 208.413 143.398 209.043 143.559L208.687 143.534Z" fill="#2F2E41"/>
<path d="M233.427 172.775C233.353 172.51 233.203 172.273 232.996 172.094C232.788 171.914 232.533 171.8 232.26 171.765C232.242 171.753 232.223 171.741 232.204 171.731L220.52 165.177C220.186 164.99 219.794 164.939 219.423 165.034C219.053 165.13 218.733 165.364 218.532 165.689L215.336 170.868L210.523 166.05L210.447 165.974C210.2 165.727 209.873 165.574 209.525 165.544C209.177 165.513 208.83 165.607 208.544 165.807L198.941 172.538C198.924 172.538 198.907 172.544 198.891 172.544C198.431 172.62 198.011 172.852 197.701 173.199C197.39 173.547 197.208 173.99 197.183 174.456L196.935 179.471H235.281L233.427 172.775Z" fill="#3466BB"/>
<path d="M254.829 178.692H247.43C247.43 178.486 247.348 178.287 247.202 178.141C247.056 177.995 246.858 177.913 246.652 177.913H244.315C244.109 177.913 243.911 177.995 243.765 178.141C243.619 178.287 243.537 178.486 243.537 178.692H241.2C241.2 178.486 241.118 178.287 240.972 178.141C240.826 177.995 240.628 177.913 240.421 177.913H238.085C237.879 177.913 237.681 177.995 237.534 178.141C237.388 178.287 237.306 178.486 237.306 178.692H234.97C234.97 178.486 234.888 178.287 234.742 178.141C234.596 177.995 234.398 177.913 234.191 177.913H231.855C231.648 177.913 231.45 177.995 231.304 178.141C231.158 178.287 231.076 178.486 231.076 178.692H228.74C228.74 178.486 228.658 178.287 228.512 178.141C228.366 177.995 228.168 177.913 227.961 177.913H225.625C225.418 177.913 225.22 177.995 225.074 178.141C224.928 178.287 224.846 178.486 224.846 178.692H222.51C222.51 178.486 222.428 178.287 222.282 178.141C222.136 177.995 221.938 177.913 221.731 177.913H219.395C219.188 177.913 218.99 177.995 218.844 178.141C218.698 178.287 218.616 178.486 218.616 178.692H216.28C216.28 178.486 216.198 178.287 216.051 178.141C215.905 177.995 215.707 177.913 215.501 177.913H213.164C212.958 177.913 212.76 177.995 212.614 178.141C212.468 178.287 212.386 178.486 212.386 178.692H210.049C210.049 178.486 209.967 178.287 209.821 178.141C209.675 177.995 209.477 177.913 209.271 177.913H206.934C206.728 177.913 206.53 177.995 206.384 178.141C206.238 178.287 206.156 178.486 206.156 178.692H203.819C203.819 178.486 203.737 178.287 203.591 178.141C203.445 177.995 203.247 177.913 203.04 177.913H200.704C200.498 177.913 200.3 177.995 200.153 178.141C200.007 178.287 199.925 178.486 199.925 178.692H197.589C197.589 178.486 197.507 178.287 197.361 178.141C197.215 177.995 197.017 177.913 196.81 177.913H194.474C194.267 177.913 194.069 177.995 193.923 178.141C193.777 178.287 193.695 178.486 193.695 178.692H191.359C191.359 178.486 191.277 178.287 191.131 178.141C190.985 177.995 190.787 177.913 190.58 177.913H188.244C188.037 177.913 187.839 177.995 187.693 178.141C187.547 178.287 187.465 178.486 187.465 178.692H185.129C185.129 178.486 185.047 178.287 184.901 178.141C184.755 177.995 184.557 177.913 184.35 177.913H182.014C181.807 177.913 181.609 177.995 181.463 178.141C181.317 178.287 181.235 178.486 181.235 178.692H173.837C173.218 178.693 172.624 178.94 172.187 179.379C171.75 179.817 171.504 180.411 171.504 181.031C171.504 181.65 171.75 182.245 172.187 182.683C172.624 183.122 173.218 183.369 173.837 183.369H254.829C255.448 183.369 256.043 183.123 256.481 182.685C256.919 182.246 257.165 181.651 257.165 181.031C257.165 180.411 256.919 179.816 256.481 179.377C256.043 178.939 255.448 178.692 254.829 178.692Z" fill="#3F3D56"/>
<path d="M161.793 165.111V180.64H122.927C121.886 180.676 120.848 180.502 119.875 180.128C118.902 179.754 118.015 179.188 117.265 178.464C116.516 177.739 115.92 176.871 115.513 175.911C115.106 174.951 114.896 173.918 114.896 172.875C114.896 171.832 115.106 170.8 115.513 169.84C115.92 168.88 116.516 168.012 117.265 167.287C118.015 166.563 118.902 165.997 119.875 165.623C120.848 165.249 121.886 165.075 122.927 165.111H161.793Z" fill="#F2F2F2"/>
<path d="M162.748 180.52C162.748 180.679 162.685 180.83 162.573 180.942C162.461 181.054 162.309 181.117 162.151 181.117H122.235C120.067 181.117 117.988 180.255 116.455 178.721C114.922 177.186 114.061 175.105 114.061 172.935C114.061 170.765 114.922 168.684 116.455 167.149C117.988 165.615 120.067 164.753 122.235 164.753H162.151C162.309 164.753 162.461 164.816 162.573 164.928C162.685 165.04 162.748 165.192 162.748 165.35C162.748 165.509 162.685 165.66 162.573 165.772C162.461 165.884 162.309 165.947 162.151 165.947H122.235C120.385 165.949 118.611 166.686 117.303 167.996C115.995 169.307 115.26 171.083 115.26 172.935C115.26 174.787 115.995 176.564 117.303 177.874C118.611 179.184 120.385 179.921 122.235 179.923H162.151C162.309 179.923 162.461 179.986 162.573 180.098C162.685 180.21 162.748 180.362 162.748 180.52Z" fill="#3466BB"/>
<path d="M161.793 168.695H120.027C120.011 168.695 119.996 168.692 119.981 168.686C119.967 168.68 119.953 168.671 119.942 168.66C119.931 168.649 119.922 168.636 119.916 168.621C119.91 168.607 119.907 168.591 119.907 168.575C119.907 168.56 119.91 168.544 119.916 168.529C119.922 168.515 119.931 168.502 119.942 168.491C119.953 168.479 119.967 168.471 119.981 168.465C119.996 168.459 120.011 168.456 120.027 168.456H161.793C161.825 168.456 161.855 168.469 161.877 168.491C161.899 168.513 161.912 168.544 161.912 168.575C161.912 168.607 161.899 168.637 161.877 168.659C161.855 168.682 161.825 168.695 161.793 168.695Z" fill="#CCCCCC"/>
<path d="M161.793 171.562H120.027C120.011 171.562 119.996 171.559 119.981 171.553C119.967 171.547 119.953 171.538 119.942 171.527C119.931 171.516 119.922 171.503 119.916 171.488C119.91 171.473 119.907 171.458 119.907 171.442C119.907 171.426 119.91 171.411 119.916 171.396C119.922 171.382 119.931 171.368 119.942 171.357C119.953 171.346 119.967 171.337 119.981 171.331C119.996 171.326 120.011 171.323 120.027 171.323H161.793C161.825 171.323 161.855 171.336 161.877 171.358C161.899 171.38 161.912 171.411 161.912 171.442C161.912 171.474 161.899 171.504 161.877 171.526C161.855 171.549 161.825 171.561 161.793 171.562Z" fill="#CCCCCC"/>
<path d="M161.793 174.428H120.027C120.011 174.428 119.996 174.425 119.981 174.419C119.967 174.413 119.953 174.405 119.942 174.394C119.931 174.382 119.922 174.369 119.916 174.355C119.91 174.34 119.907 174.325 119.907 174.309C119.907 174.293 119.91 174.277 119.916 174.263C119.922 174.248 119.931 174.235 119.942 174.224C119.953 174.213 119.967 174.204 119.981 174.198C119.996 174.192 120.011 174.189 120.027 174.189H161.793C161.825 174.19 161.855 174.202 161.877 174.225C161.899 174.247 161.912 174.277 161.912 174.309C161.912 174.34 161.899 174.371 161.877 174.393C161.855 174.415 161.825 174.428 161.793 174.428Z" fill="#CCCCCC"/>
<path d="M161.793 177.295H120.027C120.011 177.295 119.996 177.292 119.981 177.286C119.967 177.28 119.953 177.271 119.942 177.26C119.931 177.249 119.922 177.236 119.916 177.221C119.91 177.207 119.907 177.191 119.907 177.176C119.907 177.16 119.91 177.144 119.916 177.13C119.922 177.115 119.931 177.102 119.942 177.091C119.953 177.08 119.967 177.071 119.981 177.065C119.996 177.059 120.011 177.056 120.027 177.056H161.793C161.825 177.056 161.855 177.069 161.877 177.091C161.899 177.114 161.912 177.144 161.912 177.176C161.912 177.207 161.899 177.237 161.877 177.26C161.855 177.282 161.825 177.295 161.793 177.295Z" fill="#CCCCCC"/>
<path d="M154.466 148.751V164.28H115.6C114.559 164.316 113.521 164.142 112.549 163.768C111.576 163.394 110.688 162.828 109.939 162.104C109.189 161.379 108.593 160.511 108.186 159.551C107.779 158.591 107.569 157.558 107.569 156.515C107.569 155.472 107.779 154.44 108.186 153.48C108.593 152.52 109.189 151.652 109.939 150.927C110.688 150.203 111.576 149.637 112.549 149.263C113.521 148.889 114.559 148.715 115.6 148.751H154.466Z" fill="#F2F2F2"/>
<path d="M155.421 164.16C155.421 164.318 155.358 164.47 155.246 164.582C155.135 164.694 154.983 164.757 154.825 164.757H114.908C113.835 164.757 112.772 164.546 111.78 164.134C110.788 163.723 109.887 163.121 109.128 162.361C108.369 161.601 107.767 160.699 107.356 159.706C106.946 158.714 106.734 157.65 106.734 156.575C106.734 155.501 106.946 154.437 107.356 153.444C107.767 152.451 108.369 151.549 109.128 150.789C109.887 150.03 110.788 149.427 111.78 149.016C112.772 148.604 113.835 148.393 114.908 148.393H154.825C154.983 148.393 155.135 148.456 155.246 148.568C155.358 148.68 155.421 148.832 155.421 148.99C155.421 149.148 155.358 149.3 155.246 149.412C155.135 149.524 154.983 149.587 154.825 149.587H114.908C113.058 149.589 111.284 150.326 109.976 151.636C108.668 152.946 107.934 154.723 107.934 156.575C107.934 158.427 108.668 160.204 109.976 161.514C111.284 162.824 113.058 163.561 114.908 163.563H154.825C154.983 163.563 155.135 163.626 155.246 163.738C155.358 163.85 155.421 164.002 155.421 164.16Z" fill="#3F3D56"/>
<path d="M154.467 152.335H112.701C112.685 152.335 112.669 152.332 112.655 152.326C112.64 152.32 112.627 152.311 112.616 152.3C112.605 152.289 112.596 152.276 112.59 152.261C112.584 152.247 112.581 152.231 112.581 152.215C112.581 152.2 112.584 152.184 112.59 152.169C112.596 152.155 112.605 152.142 112.616 152.131C112.627 152.119 112.64 152.111 112.655 152.105C112.669 152.099 112.685 152.096 112.701 152.096H154.467C154.498 152.096 154.528 152.109 154.55 152.131C154.573 152.153 154.585 152.184 154.585 152.215C154.585 152.247 154.573 152.277 154.55 152.299C154.528 152.322 154.498 152.335 154.467 152.335Z" fill="#CCCCCC"/>
<path d="M154.467 155.201H112.701C112.685 155.202 112.669 155.199 112.655 155.193C112.64 155.187 112.627 155.178 112.616 155.167C112.605 155.156 112.596 155.142 112.59 155.128C112.584 155.113 112.581 155.098 112.581 155.082C112.581 155.066 112.584 155.051 112.59 155.036C112.596 155.022 112.605 155.008 112.616 154.997C112.627 154.986 112.64 154.977 112.655 154.971C112.669 154.965 112.685 154.962 112.701 154.963H154.467C154.498 154.963 154.528 154.975 154.55 154.998C154.573 155.02 154.585 155.05 154.585 155.082C154.585 155.114 154.573 155.144 154.55 155.166C154.528 155.189 154.498 155.201 154.467 155.201Z" fill="#CCCCCC"/>
<path d="M154.467 158.068H112.701C112.685 158.068 112.669 158.065 112.655 158.059C112.64 158.053 112.627 158.045 112.616 158.034C112.605 158.022 112.596 158.009 112.59 157.995C112.584 157.98 112.581 157.965 112.581 157.949C112.581 157.933 112.584 157.917 112.59 157.903C112.596 157.888 112.605 157.875 112.616 157.864C112.627 157.853 112.64 157.844 112.655 157.838C112.669 157.832 112.685 157.829 112.701 157.829H154.467C154.498 157.83 154.528 157.842 154.55 157.865C154.573 157.887 154.585 157.917 154.585 157.949C154.585 157.98 154.573 158.011 154.55 158.033C154.528 158.055 154.498 158.068 154.467 158.068Z" fill="#CCCCCC"/>
<path d="M154.467 160.935H112.701C112.685 160.935 112.669 160.932 112.655 160.926C112.64 160.92 112.627 160.911 112.616 160.9C112.605 160.889 112.596 160.876 112.59 160.861C112.584 160.847 112.581 160.831 112.581 160.816C112.581 160.8 112.584 160.784 112.59 160.77C112.596 160.755 112.605 160.742 112.616 160.731C112.627 160.72 112.64 160.711 112.655 160.705C112.669 160.699 112.685 160.696 112.701 160.696H154.467C154.498 160.696 154.528 160.709 154.55 160.731C154.573 160.754 154.585 160.784 154.585 160.816C154.585 160.847 154.573 160.877 154.55 160.9C154.528 160.922 154.498 160.935 154.467 160.935Z" fill="#CCCCCC"/>
<path d="M199.68 235.834V222.295C199.68 221.697 199.442 221.123 199.019 220.7C198.596 220.276 198.023 220.039 197.425 220.039H146.139C145.541 220.039 144.968 220.276 144.545 220.7C144.122 221.123 143.885 221.697 143.885 222.295V235.834H199.68Z" fill="#CCCCCC"/>
<path d="M199.68 240.912H143.885V258.4H199.68V240.912Z" fill="#CCCCCC"/>
<path d="M143.885 263.477V277.017C143.885 277.615 144.122 278.189 144.545 278.612C144.968 279.035 145.541 279.273 146.139 279.273H197.425C198.023 279.273 198.596 279.035 199.019 278.612C199.442 278.189 199.68 277.615 199.68 277.017V263.477H143.885Z" fill="#CCCCCC"/>
<path d="M171.5 230.193C172.434 230.193 173.191 229.435 173.191 228.501C173.191 227.566 172.434 226.808 171.5 226.808C170.567 226.808 169.81 227.566 169.81 228.501C169.81 229.435 170.567 230.193 171.5 230.193Z" fill="white"/>
<path d="M171.5 252.759C172.434 252.759 173.191 252.001 173.191 251.066C173.191 250.131 172.434 249.374 171.5 249.374C170.567 249.374 169.81 250.131 169.81 251.066C169.81 252.001 170.567 252.759 171.5 252.759Z" fill="white"/>
<path d="M171.591 274.846C172.525 274.846 173.282 274.089 173.282 273.154C173.282 272.219 172.525 271.462 171.591 271.462C170.657 271.462 169.9 272.219 169.9 273.154C169.9 274.089 170.657 274.846 171.591 274.846Z" fill="white"/>
<path d="M193.354 204.601V220.129H154.488C153.446 220.166 152.408 219.992 151.436 219.618C150.463 219.244 149.575 218.678 148.826 217.953C148.077 217.229 147.481 216.361 147.073 215.401C146.666 214.44 146.457 213.408 146.457 212.365C146.457 211.322 146.666 210.29 147.073 209.33C147.481 208.37 148.077 207.502 148.826 206.777C149.575 206.053 150.463 205.486 151.436 205.113C152.408 204.739 153.446 204.565 154.488 204.601H193.354Z" fill="#F2F2F2"/>
<path d="M194.308 220.01C194.308 220.168 194.245 220.32 194.134 220.432C194.022 220.544 193.87 220.607 193.712 220.607H153.795C152.721 220.608 151.658 220.397 150.665 219.986C149.673 219.575 148.771 218.973 148.011 218.213C147.251 217.453 146.649 216.551 146.237 215.558C145.826 214.565 145.615 213.5 145.615 212.425C145.615 211.35 145.826 210.285 146.237 209.292C146.649 208.299 147.251 207.397 148.011 206.637C148.771 205.877 149.673 205.274 150.665 204.864C151.658 204.453 152.721 204.242 153.795 204.243H193.712C193.87 204.243 194.022 204.306 194.134 204.418C194.246 204.53 194.308 204.682 194.308 204.84C194.308 204.998 194.246 205.15 194.134 205.262C194.022 205.374 193.87 205.437 193.712 205.437H153.795C151.945 205.439 150.171 206.176 148.863 207.486C147.555 208.796 146.821 210.573 146.821 212.425C146.821 214.277 147.555 216.053 148.863 217.364C150.171 218.674 151.945 219.411 153.795 219.413H193.712C193.87 219.413 194.022 219.476 194.134 219.588C194.245 219.7 194.308 219.851 194.308 220.01Z" fill="#3F3D56"/>
<path d="M193.354 208.184H151.588C151.572 208.185 151.557 208.182 151.542 208.176C151.527 208.17 151.514 208.161 151.503 208.15C151.492 208.139 151.483 208.125 151.477 208.111C151.471 208.096 151.468 208.081 151.468 208.065C151.468 208.049 151.471 208.034 151.477 208.019C151.483 208.005 151.492 207.991 151.503 207.98C151.514 207.969 151.527 207.96 151.542 207.954C151.557 207.948 151.572 207.945 151.588 207.946H193.354C193.385 207.946 193.415 207.958 193.438 207.981C193.46 208.003 193.472 208.033 193.472 208.065C193.472 208.097 193.46 208.127 193.438 208.149C193.415 208.172 193.385 208.184 193.354 208.184Z" fill="#CCCCCC"/>
<path d="M193.354 211.051H151.588C151.572 211.051 151.557 211.048 151.542 211.042C151.527 211.036 151.514 211.028 151.503 211.017C151.492 211.005 151.483 210.992 151.477 210.978C151.471 210.963 151.468 210.948 151.468 210.932C151.468 210.916 151.471 210.9 151.477 210.886C151.483 210.871 151.492 210.858 151.503 210.847C151.514 210.836 151.527 210.827 151.542 210.821C151.557 210.815 151.572 210.812 151.588 210.812H193.354C193.385 210.813 193.415 210.825 193.438 210.848C193.46 210.87 193.472 210.9 193.472 210.932C193.472 210.963 193.46 210.994 193.438 211.016C193.415 211.038 193.385 211.051 193.354 211.051Z" fill="#CCCCCC"/>
<path d="M193.354 213.918H151.588C151.572 213.918 151.557 213.915 151.542 213.909C151.527 213.903 151.514 213.894 151.503 213.883C151.492 213.872 151.483 213.859 151.477 213.844C151.471 213.83 151.468 213.814 151.468 213.799C151.468 213.783 151.471 213.767 151.477 213.753C151.483 213.738 151.492 213.725 151.503 213.714C151.514 213.703 151.527 213.694 151.542 213.688C151.557 213.682 151.572 213.679 151.588 213.679H193.354C193.385 213.679 193.415 213.692 193.438 213.714C193.46 213.737 193.472 213.767 193.472 213.799C193.472 213.83 193.46 213.86 193.438 213.883C193.415 213.905 193.385 213.918 193.354 213.918Z" fill="#CCCCCC"/>
<path d="M193.354 216.785H151.588C151.572 216.785 151.557 216.782 151.542 216.776C151.527 216.77 151.514 216.761 151.503 216.75C151.492 216.739 151.483 216.726 151.477 216.711C151.471 216.697 151.468 216.681 151.468 216.665C151.468 216.65 151.471 216.634 151.477 216.619C151.483 216.605 151.492 216.592 151.503 216.581C151.514 216.57 151.527 216.561 151.542 216.555C151.557 216.549 151.572 216.546 151.588 216.546H193.354C193.385 216.546 193.415 216.559 193.438 216.581C193.46 216.604 193.472 216.634 193.472 216.665C193.472 216.697 193.46 216.727 193.438 216.75C193.415 216.772 193.385 216.785 193.354 216.785Z" fill="#CCCCCC"/>
<path d="M284.927 176.6H267.219C267.051 176.6 266.885 176.638 266.735 176.713L262.265 178.952C262.118 179.015 261.993 179.119 261.905 179.253C261.817 179.386 261.77 179.543 261.77 179.703C261.77 179.863 261.817 180.019 261.905 180.152C261.993 180.286 262.118 180.39 262.265 180.453L266.735 182.693C266.885 182.767 267.051 182.805 267.219 182.805H284.927C285.171 182.819 285.411 182.737 285.594 182.575C285.778 182.414 285.891 182.186 285.908 181.942V177.463C285.891 177.219 285.778 176.991 285.594 176.83C285.411 176.668 285.171 176.586 284.927 176.6Z" fill="#3F3D56"/>
<path d="M285.908 177.463V181.942C285.891 182.186 285.778 182.414 285.594 182.575C285.411 182.737 285.171 182.819 284.927 182.805H281.399V176.6H284.927C285.171 176.586 285.411 176.668 285.594 176.83C285.778 176.991 285.891 177.219 285.908 177.463Z" fill="#3466BB"/>
<path d="M284.794 143.09C285.596 142.743 286.462 142.571 287.336 142.582C288.209 142.594 289.07 142.791 289.863 143.159C290.655 143.528 291.361 144.059 291.933 144.72C292.506 145.38 292.933 146.154 293.186 146.991C293.265 147.256 293.325 147.527 293.366 147.8L318.129 160.092L323.86 156.29L330.99 164.507L322.24 171.621C321.188 172.47 319.89 172.956 318.54 173.008C317.189 173.061 315.858 172.675 314.744 171.91L289.62 154.519C289.433 154.598 289.242 154.668 289.048 154.728C288.211 154.981 287.331 155.054 286.465 154.943C285.598 154.832 284.765 154.539 284.019 154.083C283.274 153.627 282.633 153.019 282.139 152.297C281.644 151.576 281.308 150.759 281.152 149.898C281.105 149.649 281.075 149.396 281.06 149.143C280.99 147.873 281.311 146.612 281.978 145.53C282.646 144.448 283.628 143.596 284.794 143.09Z" fill="#FFB8B8"/>
<path d="M336.37 218.768H309.312C309.312 219.547 281.426 220.179 281.426 220.179C280.989 220.509 280.59 220.887 280.237 221.307C279.178 222.572 278.599 224.17 278.603 225.82V226.948C278.603 228.818 279.346 230.612 280.667 231.934C281.988 233.256 283.779 233.999 285.647 234H336.37C338.238 233.999 340.029 233.255 341.349 231.933C342.67 230.611 343.413 228.818 343.415 226.948V225.82C343.412 223.951 342.669 222.159 341.348 220.837C340.028 219.515 338.237 218.771 336.37 218.768Z" fill="#3F3D56"/>
<path d="M306.938 281.108H314.264V233.72H306.938V281.108Z" fill="#3F3D56"/>
<path d="M286.085 280.85C286.085 281.643 297.187 281.157 310.883 281.157C324.578 281.157 335.68 281.643 335.68 280.85C335.68 280.058 324.578 273.774 310.883 273.774C297.187 273.774 286.085 280.058 286.085 280.85Z" fill="#3F3D56"/>
<path d="M292.699 275.296L285.79 275.295L282.503 257.357L292.7 257.358L292.699 275.296Z" fill="#FFB8B8"/>
<path d="M294.461 282L272.182 281.999V281.717C272.182 280.577 272.407 279.448 272.842 278.395C273.278 277.342 273.917 276.385 274.722 275.579C275.527 274.773 276.483 274.134 277.535 273.698C278.588 273.262 279.715 273.037 280.854 273.037H280.855L294.462 273.038L294.461 282Z" fill="#2F2E41"/>
<path d="M282.365 264.172L268.59 233.253C267.44 230.647 267.313 227.703 268.234 225.007C269.155 222.312 271.057 220.062 273.56 218.707L303.438 202.67L317.072 201.509L329.648 200.365L329.738 200.519C329.854 200.715 332.558 205.39 330.731 210.516C329.344 214.405 325.738 217.442 320.012 219.544C306.647 224.449 291.208 228.641 285.19 230.216C284.924 230.284 284.676 230.408 284.461 230.579C284.246 230.75 284.07 230.965 283.944 231.209C283.818 231.45 283.743 231.715 283.724 231.987C283.705 232.258 283.742 232.531 283.833 232.788L296.63 261.567C296.764 261.932 296.812 262.323 296.771 262.709C296.73 263.096 296.601 263.468 296.393 263.796C296.186 264.125 295.906 264.402 295.575 264.605C295.244 264.808 294.87 264.932 294.484 264.968L284.921 265.665C284.84 265.673 284.759 265.677 284.679 265.677C284.189 265.677 283.71 265.534 283.299 265.267C282.889 265 282.564 264.62 282.365 264.172Z" fill="#2F2E41"/>
<path d="M296.08 275.296L289.171 275.295L285.884 257.357L296.082 257.358L296.08 275.296Z" fill="#FFB8B8"/>
<path d="M297.843 282L275.564 281.999V281.717C275.564 280.577 275.788 279.448 276.224 278.395C276.66 277.342 277.299 276.385 278.104 275.579C278.909 274.773 279.865 274.134 280.917 273.698C281.969 273.262 283.097 273.037 284.236 273.037H284.236L297.843 273.038L297.843 282Z" fill="#2F2E41"/>
<path d="M286.31 265.865L272.535 234.945C271.385 232.339 271.258 229.395 272.179 226.7C273.1 224.004 275.002 221.755 277.505 220.4L307.383 204.362L321.017 203.202L333.593 202.057L333.684 202.211C333.8 202.407 336.504 207.082 334.676 212.209C333.289 216.097 329.683 219.134 323.957 221.236C310.592 226.141 295.153 230.334 289.135 231.908C288.869 231.976 288.621 232.1 288.406 232.271C288.191 232.442 288.015 232.657 287.889 232.901C287.763 233.142 287.688 233.407 287.669 233.679C287.65 233.951 287.687 234.223 287.778 234.48L300.575 263.259C300.709 263.624 300.757 264.015 300.716 264.402C300.675 264.788 300.546 265.16 300.338 265.489C300.131 265.818 299.851 266.094 299.52 266.297C299.189 266.5 298.815 266.625 298.429 266.661L288.867 267.358C288.785 267.365 288.705 267.369 288.624 267.369C288.134 267.369 287.655 267.227 287.244 266.96C286.834 266.693 286.509 266.312 286.31 265.865Z" fill="#2F2E41"/>
<path d="M279.444 171.41C273.656 163.704 269.08 155.155 265.876 146.063C265.69 145.519 265.703 144.927 265.913 144.392C266.123 143.856 266.515 143.413 267.021 143.141L286.828 132.517C287.149 132.344 287.504 132.246 287.868 132.231C288.232 132.217 288.594 132.285 288.928 132.432C289.267 132.58 289.569 132.803 289.809 133.085C290.05 133.367 290.223 133.7 290.315 134.059C292.62 142.821 296.954 150.916 302.965 157.691C303.212 157.967 303.394 158.295 303.495 158.652C303.597 159.008 303.615 159.383 303.55 159.748C303.487 160.107 303.344 160.447 303.13 160.742C302.916 161.037 302.638 161.28 302.316 161.451L282.509 172.074C282.002 172.345 281.416 172.427 280.855 172.305C280.294 172.183 279.794 171.866 279.444 171.41Z" fill="#CCCCCC"/>
<path d="M280.796 170.394C280.902 170.527 281.052 170.619 281.219 170.653C281.386 170.688 281.56 170.663 281.71 170.583L301.518 159.959C301.614 159.909 301.697 159.837 301.761 159.749C301.825 159.661 301.867 159.56 301.885 159.453C301.906 159.34 301.9 159.224 301.868 159.113C301.837 159.003 301.78 158.901 301.702 158.817C295.514 151.843 291.053 143.508 288.679 134.488C288.652 134.377 288.599 134.273 288.525 134.185C288.451 134.098 288.358 134.029 288.252 133.983C288.153 133.939 288.045 133.918 287.936 133.922C287.828 133.927 287.722 133.957 287.626 134.009L267.819 144.633C267.669 144.714 267.552 144.845 267.489 145.003C267.425 145.162 267.418 145.337 267.47 145.5C270.617 154.43 275.111 162.825 280.796 170.394Z" fill="white"/>
<path d="M345.247 168.577L329.735 174.477L325.947 163.946C325.445 162.548 325.452 161.017 325.968 159.623C326.483 158.23 327.475 157.064 328.767 156.331C330.073 155.59 331.602 155.341 333.076 155.629C334.55 155.917 335.872 156.723 336.805 157.902L345.247 168.577Z" fill="#3466BB"/>
<path d="M305.791 210.3C305.464 210.069 305.191 209.771 304.988 209.426C304.786 209.081 304.659 208.696 304.617 208.298C302.63 189.733 304.014 175.204 308.847 163.881C309.698 161.928 310.98 160.194 312.598 158.808C314.215 157.423 316.125 156.422 318.184 155.882L330.723 155.248L330.788 155.279C333.618 156.667 335.925 158.93 337.369 161.733C338.812 164.537 339.315 167.731 338.802 170.843C334.769 181.485 331.392 192.564 333.967 201.502C334.075 201.876 334.106 202.267 334.06 202.653C334.013 203.04 333.889 203.412 333.694 203.749C333.506 204.075 333.253 204.358 332.951 204.582C332.649 204.806 332.304 204.966 331.938 205.052L308.054 210.739C307.668 210.831 307.266 210.84 306.875 210.764C306.485 210.688 306.115 210.53 305.791 210.3Z" fill="#3466BB"/>
<path d="M326.538 150.56C334.183 150.56 340.38 144.356 340.38 136.704C340.38 129.052 334.183 122.848 326.538 122.848C318.893 122.848 312.696 129.052 312.696 136.704C312.696 144.356 318.893 150.56 326.538 150.56Z" fill="#FFB8B8"/>
<path d="M288.129 147.678L277.341 152.445C276.93 152.626 276.465 152.636 276.047 152.474C275.629 152.312 275.293 151.99 275.111 151.58L274.844 150.975C274.664 150.564 274.653 150.099 274.815 149.68C274.977 149.262 275.298 148.925 275.708 148.743L286.496 143.977C286.906 143.796 287.372 143.785 287.79 143.947C288.208 144.11 288.544 144.431 288.726 144.841L288.993 145.446C289.173 145.857 289.184 146.323 289.022 146.741C288.86 147.16 288.538 147.497 288.129 147.678Z" fill="#CCCCCC"/>
<path d="M292.074 155.012L281.286 159.779C280.875 159.96 280.41 159.97 279.992 159.808C279.574 159.646 279.238 159.324 279.056 158.914L278.789 158.309C278.609 157.898 278.598 157.433 278.76 157.014C278.922 156.596 279.243 156.259 279.653 156.077L290.441 151.31C290.852 151.13 291.317 151.119 291.735 151.281C292.153 151.443 292.489 151.765 292.671 152.175L292.938 152.78C293.118 153.191 293.129 153.657 292.967 154.075C292.805 154.493 292.484 154.83 292.074 155.012Z" fill="#CCCCCC"/>
<path d="M300.393 183.657L276.342 164.665C276.151 164.733 275.956 164.79 275.758 164.838C274.91 165.036 274.028 165.054 273.172 164.89C272.316 164.725 271.504 164.382 270.789 163.883C270.069 163.384 269.464 162.736 269.014 161.984C268.565 161.232 268.281 160.392 268.181 159.521C268.02 158.128 268.334 156.722 269.071 155.53C269.809 154.338 270.927 153.431 272.244 152.955C273.067 152.66 273.942 152.542 274.813 152.609C275.684 152.676 276.531 152.926 277.299 153.344C278.066 153.761 278.737 154.336 279.267 155.031C279.797 155.726 280.175 156.525 280.375 157.376C280.437 157.646 280.48 157.92 280.504 158.196L304.446 172.021L310.404 168.588L317.004 177.237L307.753 183.837C306.67 184.603 305.369 185 304.043 184.967C302.717 184.935 301.437 184.476 300.393 183.657Z" fill="#FFB8B8"/>
<path d="M319.939 179.931L306.216 170.59L312.665 161.447C313.521 160.233 314.779 159.361 316.215 158.985C317.652 158.609 319.175 158.754 320.515 159.394C321.871 160.04 322.951 161.151 323.56 162.525C324.169 163.9 324.268 165.446 323.837 166.887L319.939 179.931Z" fill="#3466BB"/>
<path d="M321.463 134.64C317.906 137.078 313.234 139.583 309.6 136.988C307.214 135.283 306.463 132.127 307.43 129.358C309.17 124.377 313.951 122.184 318.522 120.504C324.465 118.319 330.935 116.581 337.07 118.145C343.205 119.71 348.627 125.656 347.519 131.895C346.629 136.913 341.9 141.088 342.572 146.139C343.247 151.223 348.959 153.9 354.002 154.808C359.045 155.717 364.688 156.009 368.312 159.634C372.935 164.26 371.78 172.527 367.43 177.41C363.08 182.294 356.515 184.507 350.154 186.012C341.726 188.006 332.61 189.054 324.606 185.745C316.601 182.436 310.372 173.529 312.691 165.176C313.67 161.648 315.978 158.667 318.208 155.764C320.437 152.861 322.695 149.826 323.546 146.265C324.255 143.297 323.73 139.851 321.764 137.625C321.406 137.235 321.181 136.742 321.121 136.216C321.061 135.691 321.169 135.159 321.429 134.699L321.463 134.64Z" fill="#2F2E41"/>
</svg>
