<svg width="283" height="177" viewBox="0 0 283 177" fill="none" xmlns="http://www.w3.org/2000/svg">
<g clip-path="url(#clip0)">
<path d="M278.962 71.5019C268.578 30.6832 232.697 1.2178 190.581 0.0359691C168.315 -0.588829 144.885 6.79306 127.827 32.625C97.3328 78.8024 129.701 110.712 152.267 125.875C163.169 133.216 172.992 142.042 181.453 152.098C196.695 170.18 226.019 192.648 260.941 157.443C286.254 131.927 285.879 98.6912 278.962 71.5019Z" fill="#F2F2F2"/>
<path d="M38.9758 102.448C38.696 102.034 38.4209 101.609 38.1582 101.184L38.5826 100.922C38.8418 101.341 39.1132 101.761 39.3892 102.169L38.9758 102.448Z" fill="#3F3D56"/>
<path d="M36.6538 98.5115C36.191 97.6036 35.7609 96.6658 35.3755 95.724L35.8372 95.535C36.2176 96.4642 36.6418 97.3894 37.0984 98.285L36.6538 98.5115ZM34.3329 92.8401C34.0268 91.8692 33.7577 90.8731 33.533 89.8799L34.0197 89.7698C34.2413 90.7498 34.5067 91.7323 34.8086 92.6901L34.3329 92.8401ZM32.9813 86.8637C32.8399 85.8572 32.7385 84.8309 32.6798 83.8129L33.178 83.7842C33.2357 84.7886 33.3359 85.8013 33.4753 86.7943L32.9813 86.8637ZM33.1266 80.759L32.6279 80.7473C32.6519 79.7279 32.7182 78.6987 32.8248 77.6886L33.321 77.741C33.2158 78.7377 33.1504 79.7531 33.1266 80.759ZM33.7621 74.7491L33.2719 74.6561C33.4619 73.6559 33.6962 72.6515 33.9682 71.6707L34.4491 71.8039C34.1806 72.7715 33.9495 73.7625 33.7621 74.7491ZM35.378 68.9256L34.91 68.753C35.2627 67.7976 35.6602 66.8449 36.0913 65.9215L36.5434 66.1324C36.1181 67.0434 35.726 67.9832 35.378 68.9256ZM103.706 67.384C103.316 66.4594 102.882 65.539 102.416 64.6482L102.858 64.4171C103.331 65.3201 103.771 66.253 104.166 67.1901L103.706 67.384ZM37.9358 63.4453L37.5026 63.1979C38.0079 62.3144 38.5566 61.4405 39.1336 60.6003L39.5448 60.8826C38.9756 61.7115 38.4342 62.5737 37.9358 63.4453ZM100.905 62.028C100.367 61.1797 99.7879 60.3429 99.1824 59.5411L99.5807 59.2406C100.194 60.0533 100.782 60.9014 101.326 61.7612L100.905 62.028ZM41.3592 58.4608L40.9723 58.1457C41.6159 57.3563 42.3 56.5841 43.0059 55.8502L43.3655 56.1958C42.6691 56.9199 41.994 57.6819 41.3592 58.4608ZM97.262 57.2035C96.5928 56.4536 95.8844 55.7226 95.1563 55.0305L95.5002 54.6691C96.238 55.3706 96.956 56.1115 97.6342 56.8713L97.262 57.2035ZM45.5503 54.1026L45.2202 53.7288C45.9836 53.0552 46.7845 52.4049 47.6006 51.796L47.899 52.1956C47.0937 52.7965 46.3036 53.4381 45.5503 54.1026ZM92.8799 53.0371C92.0973 52.4066 91.2788 51.8008 90.4475 51.2368L90.7276 50.824C91.5703 51.3958 92.3997 52.0096 93.1929 52.6487L92.8799 53.0371ZM50.3955 50.4879L50.131 50.0651C50.9948 49.5249 51.8911 49.0146 52.795 48.5483L53.0238 48.9915C52.132 49.4515 51.2478 49.955 50.3955 50.4879ZM87.8754 49.6423C86.9989 49.1478 86.0922 48.6845 85.1805 48.2653L85.389 47.8121C86.3131 48.2372 87.2322 48.7068 88.1206 49.2079L87.8754 49.6423ZM55.7661 47.7172L55.5747 47.2567C56.5149 46.8664 57.4826 46.5107 58.4511 46.1997L58.6036 46.6746C57.6483 46.9813 56.6936 47.3321 55.7661 47.7172ZM82.3807 47.1156C81.4365 46.773 80.4657 46.4656 79.4954 46.2023L79.6262 45.721C80.6096 45.988 81.5937 46.2994 82.551 46.6468L82.3807 47.1156ZM61.5199 45.8701L61.4074 45.3842C62.3982 45.1546 63.4121 44.9636 64.4208 44.8162L64.4929 45.3097C63.4977 45.4551 62.4976 45.6436 61.5199 45.8701V45.8701ZM76.5442 45.5313C75.5581 45.3497 74.5501 45.2067 73.5484 45.1066L73.5981 44.6103C74.6133 44.7119 75.635 44.8566 76.6346 45.0409L76.5442 45.5313ZM67.5019 44.9962L67.4704 44.4984C68.4852 44.4344 69.5198 44.4116 70.5366 44.43L70.5276 44.9287C69.5235 44.9103 68.5034 44.9331 67.5019 44.9962Z" fill="#3F3D56"/>
<path d="M105.209 71.6755C105.075 71.2008 104.93 70.7224 104.777 70.2535L105.252 70.0989C105.407 70.5742 105.554 71.0592 105.689 71.5403L105.209 71.6755Z" fill="#3F3D56"/>
<path d="M102.167 43.7456H101.668C101.668 43.2465 101.676 42.7401 101.694 42.2406L102.193 42.2579C102.175 42.7518 102.167 43.2522 102.167 43.7456Z" fill="#3F3D56"/>
<path d="M102.404 39.2588L101.908 39.206C102.015 38.2016 102.159 37.189 102.338 36.1964L102.829 36.2845C102.653 37.2654 102.51 38.2662 102.404 39.2588ZM103.466 33.3484L102.983 33.2252C103.233 32.2463 103.521 31.2649 103.841 30.3081L104.314 30.4659C103.998 31.4115 103.713 32.3813 103.466 33.3484ZM183.035 28.0865C182.662 27.161 182.251 26.2376 181.812 25.3421L182.26 25.1229C182.704 26.0291 183.12 26.9635 183.498 27.9002L183.035 28.0865ZM105.369 27.6494L104.908 27.4577C105.296 26.5258 105.723 25.5954 106.178 24.6924L106.623 24.9167C106.174 25.8091 105.752 26.7284 105.369 27.6494ZM180.395 22.6923C179.893 21.8305 179.354 20.9753 178.791 20.1507L179.204 19.8697C179.773 20.7041 180.319 21.5694 180.826 22.4415L180.395 22.6923ZM108.072 22.2816L107.643 22.0259C108.16 21.1599 108.716 20.3005 109.296 19.4716L109.705 19.7573C109.132 20.5764 108.583 21.4257 108.072 22.2816H108.072ZM177.01 17.7301C176.39 16.9472 175.734 16.1776 175.061 15.4424L175.428 15.1056C176.11 15.8495 176.773 16.6282 177.401 17.4203L177.01 17.7301ZM111.514 17.3565L111.126 17.0423C111.763 16.2577 112.435 15.4864 113.125 14.75L113.489 15.091C112.807 15.8189 112.143 16.5811 111.514 17.3565ZM172.953 13.2992C172.228 12.6127 171.469 11.944 170.698 11.3114L171.014 10.9259C171.795 11.5658 172.562 12.2425 173.296 12.9371L172.953 13.2992ZM115.621 12.9722L115.282 12.6061C116.023 11.9205 116.798 11.2526 117.586 10.6213L117.898 11.0104C117.119 11.6345 116.353 12.2944 115.621 12.9721V12.9722ZM168.307 9.48935C167.492 8.91292 166.646 8.3589 165.792 7.84262L166.05 7.41596C166.914 7.93833 167.77 8.49893 168.595 9.08218L168.307 9.48935ZM120.308 9.21612L120.025 8.80577C120.856 8.23251 121.718 7.68202 122.587 7.1694L122.841 7.59898C121.981 8.10563 121.129 8.64967 120.308 9.21611V9.21612ZM163.165 6.38036C162.276 5.92618 161.359 5.49904 160.44 5.11049L160.635 4.6512C161.564 5.04425 162.492 5.47663 163.392 5.93617L163.165 6.38036ZM125.482 6.16765L125.26 5.72102C126.164 5.27245 127.095 4.85102 128.029 4.46856L128.218 4.93005C127.295 5.30799 126.375 5.72442 125.482 6.16764V6.16765ZM157.631 4.04032C156.687 3.71911 155.718 3.42809 154.751 3.17543L154.877 2.693C155.856 2.94858 156.836 3.24313 157.791 3.56812L157.631 4.04032ZM131.036 3.89274L130.88 3.41884C131.839 3.10469 132.822 2.82134 133.803 2.57671L133.924 3.0606C132.955 3.3023 131.983 3.58223 131.036 3.89273L131.036 3.89274ZM151.817 2.52095C150.836 2.33891 149.836 2.19024 148.844 2.07895L148.9 1.58337C149.903 1.696 150.916 1.84638 151.908 2.03049L151.817 2.52095ZM136.864 2.43888L136.778 1.94744C137.772 1.77441 138.786 1.63523 139.791 1.53357L139.842 2.02987C138.848 2.1302 137.846 2.26779 136.864 2.43887L136.864 2.43888ZM145.847 1.85027C144.848 1.80973 143.832 1.80437 142.841 1.83396L142.826 1.33546C143.829 1.30551 144.856 1.31074 145.867 1.35202L145.847 1.85027Z" fill="#3F3D56"/>
<path d="M184.494 32.3661C184.361 31.8915 184.217 31.4124 184.066 30.9418L184.541 30.7898C184.694 31.2659 184.84 31.7507 184.975 32.231L184.494 32.3661Z" fill="#3F3D56"/>
<path d="M38.6839 108.638C43.2735 108.638 46.9941 108.359 46.9941 108.015C46.9941 107.671 43.2735 107.392 38.6839 107.392C34.0944 107.392 30.3738 107.671 30.3738 108.015C30.3738 108.359 34.0944 108.638 38.6839 108.638Z" fill="#3466BB"/>
<path d="M104.957 78.525C109.547 78.525 113.268 78.246 113.268 77.902C113.268 77.5579 109.547 77.2789 104.957 77.2789C100.368 77.2789 96.6472 77.5579 96.6472 77.902C96.6472 78.246 100.368 78.525 104.957 78.525Z" fill="#3466BB"/>
<path d="M186.812 47.1654C191.402 47.1654 195.122 46.8864 195.122 46.5424C195.122 46.1983 191.402 45.9193 186.812 45.9193C182.223 45.9193 178.502 46.1983 178.502 46.5424C178.502 46.8864 182.223 47.1654 186.812 47.1654Z" fill="#3466BB"/>
<path d="M183.52 44.4968L158.531 69.4764L158.884 69.8291L183.872 44.8495L183.52 44.4968Z" fill="#3F3D56"/>
<path d="M151.287 72.6682H109.32V73.167H151.287V72.6682Z" fill="#3F3D56"/>
<path d="M101.661 76.0683L78.1887 99.532L78.5415 99.8846L102.013 76.4209L101.661 76.0683Z" fill="#3F3D56"/>
<path d="M71.0934 102.782H43.0466V103.28H71.0934V102.782Z" fill="#3F3D56"/>
<path d="M35.4226 105.939L7.55225 133.799L7.905 134.152L35.7754 106.291L35.4226 105.939Z" fill="#3F3D56"/>
<path d="M38.684 107.642C37.7718 107.642 36.88 107.371 36.1215 106.865C35.363 106.358 34.7718 105.638 34.4227 104.796C34.0735 103.953 33.9822 103.026 34.1601 102.132C34.3381 101.237 34.7774 100.416 35.4224 99.7709C36.0675 99.1261 36.8893 98.6869 37.784 98.509C38.6787 98.3311 39.6061 98.4224 40.4489 98.7714C41.2917 99.1203 42.0121 99.7113 42.5189 100.47C43.0257 101.228 43.2962 102.119 43.2962 103.031C43.2948 104.253 42.8085 105.425 41.9438 106.29C41.0792 107.154 39.9068 107.64 38.684 107.642ZM38.684 98.9192C37.8704 98.9191 37.0751 99.1603 36.3987 99.6121C35.7222 100.064 35.195 100.706 34.8836 101.457C34.5723 102.209 34.4908 103.036 34.6495 103.833C34.8082 104.631 35.1999 105.364 35.7752 105.939C36.3505 106.514 37.0834 106.905 37.8813 107.064C38.6793 107.223 39.5064 107.141 40.258 106.83C41.0096 106.519 41.6521 105.992 42.1041 105.316C42.5561 104.639 42.7973 103.844 42.7973 103.031C42.7961 101.941 42.3623 100.896 41.5912 100.125C40.8201 99.3541 39.7745 98.9204 38.684 98.9192Z" fill="#3F3D56"/>
<path d="M75.4563 107.642C74.5441 107.642 73.6523 107.371 72.8939 106.865C72.1354 106.358 71.5442 105.638 71.1951 104.796C70.846 103.953 70.7547 103.026 70.9326 102.132C71.1106 101.237 71.5499 100.416 72.1949 99.7709C72.84 99.126 73.6618 98.6869 74.5565 98.509C75.4512 98.3311 76.3786 98.4224 77.2214 98.7714C78.0642 99.1203 78.7845 99.7113 79.2913 100.47C79.7982 101.228 80.0687 102.119 80.0687 103.031C80.0673 104.254 79.5809 105.425 78.7163 106.29C77.8516 107.154 76.6792 107.64 75.4563 107.642ZM75.4563 98.9192C74.6428 98.9192 73.8475 99.1603 73.171 99.6121C72.4946 100.064 71.9674 100.706 71.656 101.458C71.3447 102.209 71.2632 103.036 71.422 103.833C71.5807 104.631 71.9724 105.364 72.5477 105.939C73.123 106.514 73.8559 106.905 74.6538 107.064C75.4518 107.223 76.2788 107.141 77.0305 106.83C77.7821 106.519 78.4245 105.992 78.8765 105.316C79.3285 104.639 79.5698 103.844 79.5698 103.031C79.5685 101.941 79.1347 100.896 78.3636 100.125C77.5924 99.354 76.5469 98.9204 75.4563 98.9192Z" fill="#3F3D56"/>
<path d="M104.957 77.5283C104.045 77.5283 103.153 77.2578 102.395 76.7512C101.637 76.2446 101.045 75.5245 100.696 74.682C100.347 73.8395 100.256 72.9125 100.434 72.0181C100.612 71.1238 101.051 70.3022 101.696 69.6574C102.341 69.0126 103.163 68.5735 104.058 68.3956C104.952 68.2177 105.88 68.309 106.723 68.658C107.565 69.0069 108.286 69.5979 108.792 70.3561C109.299 71.1143 109.57 72.0057 109.57 72.9176C109.568 74.14 109.082 75.3119 108.217 76.1763C107.353 77.0407 106.18 77.5269 104.957 77.5283ZM104.957 68.8058C104.144 68.8058 103.349 69.0469 102.672 69.4988C101.996 69.9506 101.469 70.5928 101.157 71.3441C100.846 72.0955 100.764 72.9223 100.923 73.7199C101.082 74.5175 101.474 75.2502 102.049 75.8252C102.624 76.4003 103.357 76.7919 104.155 76.9505C104.953 77.1092 105.78 77.0277 106.532 76.7165C107.283 76.4053 107.926 75.8782 108.378 75.202C108.83 74.5258 109.071 73.7308 109.071 72.9176C109.07 71.8274 108.636 70.7823 107.865 70.0114C107.094 69.2406 106.048 68.807 104.957 68.8057V68.8058Z" fill="#3F3D56"/>
<path d="M155.649 77.5283C154.737 77.5283 153.845 77.2578 153.087 76.7512C152.328 76.2446 151.737 75.5245 151.388 74.682C151.039 73.8395 150.948 72.9125 151.125 72.0181C151.303 71.1238 151.743 70.3022 152.388 69.6574C153.033 69.0126 153.855 68.5735 154.749 68.3956C155.644 68.2177 156.571 68.309 157.414 68.658C158.257 69.0069 158.977 69.5979 159.484 70.3561C159.991 71.1143 160.261 72.0057 160.261 72.9176C160.26 74.14 159.774 75.312 158.909 76.1763C158.044 77.0407 156.872 77.5269 155.649 77.5283ZM155.649 68.8058C154.836 68.8058 154.04 69.0469 153.364 69.4988C152.687 69.9506 152.16 70.5928 151.849 71.3441C151.538 72.0955 151.456 72.9223 151.615 73.7199C151.774 74.5175 152.165 75.2502 152.741 75.8252C153.316 76.4003 154.049 76.7919 154.847 76.9505C155.645 77.1092 156.472 77.0277 157.223 76.7165C157.975 76.4053 158.617 75.8782 159.069 75.202C159.521 74.5258 159.763 73.7308 159.763 72.9176C159.761 71.8274 159.328 70.7822 158.556 70.0114C157.785 69.2405 156.74 68.8069 155.649 68.8057V68.8058Z" fill="#3F3D56"/>
<path d="M186.812 46.1687C185.9 46.1686 185.008 45.8982 184.25 45.3916C183.491 44.885 182.9 44.1649 182.551 43.3224C182.202 42.4799 182.111 41.5529 182.289 40.6585C182.467 39.7641 182.906 38.9426 183.551 38.2978C184.196 37.653 185.018 37.2139 185.912 37.036C186.807 36.8581 187.734 36.9494 188.577 37.2983C189.42 37.6473 190.14 38.2382 190.647 38.9964C191.154 39.7547 191.425 40.6461 191.425 41.558C191.423 42.7804 190.937 43.9523 190.072 44.8167C189.207 45.6811 188.035 46.1673 186.812 46.1687ZM186.812 37.4461C185.999 37.4461 185.203 37.6873 184.527 38.1391C183.85 38.591 183.323 39.2332 183.012 39.9845C182.701 40.7359 182.619 41.5627 182.778 42.3603C182.937 43.1579 183.328 43.8906 183.904 44.4656C184.479 45.0407 185.212 45.4323 186.01 45.5909C186.808 45.7496 187.635 45.6681 188.386 45.3569C189.138 45.0457 189.78 44.5186 190.232 43.8424C190.684 43.1662 190.926 42.3712 190.926 41.558C190.924 40.4678 190.491 39.4227 189.719 38.6518C188.948 37.881 187.903 37.4474 186.812 37.4461V37.4461Z" fill="#3F3D56"/>
<path d="M4.61247 141.701C3.70023 141.701 2.80847 141.431 2.04995 140.924C1.29144 140.418 0.700247 139.698 0.351131 138.855C0.00201487 138.013 -0.0893426 137.086 0.0886122 136.191C0.266567 135.297 0.705841 134.475 1.35088 133.83C1.99593 133.186 2.81777 132.746 3.71248 132.568C4.60719 132.391 5.53459 132.482 6.37739 132.831C7.22019 133.18 7.94055 133.771 8.44737 134.529C8.95418 135.287 9.22469 136.179 9.22469 137.091C9.22331 138.313 8.73695 139.485 7.87229 140.349C7.00763 141.214 5.8353 141.7 4.61247 141.701ZM4.61247 132.979C3.79891 132.979 3.00361 133.22 2.32714 133.672C1.65068 134.123 1.12343 134.766 0.812075 135.517C0.500721 136.268 0.419244 137.095 0.577947 137.893C0.736651 138.69 1.12841 139.423 1.70367 139.998C2.27894 140.573 3.01188 140.965 3.80981 141.124C4.60774 141.282 5.43482 141.201 6.18646 140.89C6.9381 140.578 7.58053 140.051 8.03253 139.375C8.48452 138.699 8.72577 137.904 8.72577 137.091C8.72452 136 8.29076 134.955 7.51964 134.184C6.74852 133.414 5.70301 132.98 4.61247 132.979Z" fill="#3F3D56"/>
<path d="M38.6839 75.8251C37.5926 75.8251 36.512 76.0399 35.5038 76.4574C34.4955 76.8749 33.5794 77.4868 32.8078 78.2582C32.0361 79.0296 31.424 79.9454 31.0063 80.9532C30.5887 81.9611 30.3738 83.0413 30.3738 84.1323C30.3738 88.7202 38.6839 103.862 38.6839 103.862C38.6839 103.862 46.9941 88.7202 46.9941 84.1323C46.9941 83.0413 46.7791 81.9611 46.3615 80.9532C45.9439 79.9454 45.3318 79.0296 44.5601 78.2582C43.7884 77.4868 42.8723 76.8749 41.8641 76.4574C40.8558 76.0399 39.7752 75.8251 38.6839 75.8251ZM38.6839 88.4935C37.821 88.4935 36.9775 88.2377 36.2601 87.7585C35.5426 87.2793 34.9834 86.5982 34.6532 85.8012C34.323 85.0043 34.2366 84.1274 34.4049 83.2814C34.5733 82.4354 34.9888 81.6583 35.5989 81.0484C36.2091 80.4384 36.9865 80.0231 37.8328 79.8548C38.6791 79.6865 39.5563 79.7729 40.3535 80.103C41.1507 80.4331 41.8321 80.9921 42.3115 81.7093C42.7909 82.4265 43.0467 83.2697 43.0467 84.1323C43.0467 85.2889 42.5871 86.3982 41.7689 87.2161C40.9507 88.034 39.841 88.4935 38.6839 88.4935Z" fill="#3466BB"/>
<path d="M104.957 44.6732C102.753 44.6732 100.64 45.5484 99.0812 47.1063C97.5228 48.6642 96.6472 50.7772 96.6472 52.9804C96.6472 57.5683 104.957 72.7099 104.957 72.7099C104.957 72.7099 113.268 57.5683 113.268 52.9804C113.268 51.8895 113.053 50.8092 112.635 49.8014C112.217 48.7935 111.605 47.8777 110.834 47.1063C110.062 46.3349 109.146 45.723 108.138 45.3056C107.129 44.8881 106.049 44.6732 104.957 44.6732ZM104.957 57.3417C104.094 57.3417 103.251 57.0859 102.534 56.6067C101.816 56.1274 101.257 55.4463 100.927 54.6494C100.596 53.8525 100.51 52.9756 100.678 52.1296C100.847 51.2836 101.262 50.5065 101.872 49.8965C102.483 49.2866 103.26 48.8712 104.106 48.7029C104.953 48.5347 105.83 48.621 106.627 48.9511C107.424 49.2812 108.106 49.8402 108.585 50.5574C109.064 51.2746 109.32 52.1178 109.32 52.9804C109.32 54.1371 108.861 55.2464 108.042 56.0643C107.224 56.8822 106.114 57.3417 104.957 57.3417Z" fill="#3466BB"/>
<path d="M268.098 176.391H154.959V177H268.098V176.391Z" fill="#2F2E41"/>
<path d="M248.321 18.0625C246.562 23.2683 243.865 28.0115 238.369 28.0115C232.872 28.0115 228.726 23.5484 228.416 18.0625C228.02 11.0524 232.745 8.08434 238.369 8.11337C245.012 8.14767 250.409 11.8844 248.321 18.0625Z" fill="#2F2E41"/>
<path d="M248.06 17.277H228.416V42.1497H248.06V17.277Z" fill="#2F2E41"/>
<path d="M248.636 35.8073H250.307C250.307 35.8073 254.391 41.0034 252.535 48.0553C250.679 55.1073 252.164 56.4063 252.164 56.4063C252.164 56.4063 254.581 64.0429 251.982 75.5487C249.383 87.0545 254.391 90.1813 254.391 90.1813L249.75 80.9025L247.151 56.4063L248.636 35.8073Z" fill="#575A89"/>
<path opacity="0.1" d="M248.636 36.4177H250.307C250.307 36.4177 254.391 41.6139 252.535 48.6658C250.679 55.7177 252.164 57.0168 252.164 57.0168C252.164 57.0168 254.581 64.6534 251.982 76.1592C249.383 87.665 254.391 90.7918 254.391 90.7918L249.75 81.5129L247.151 57.0168L248.636 36.4177Z" fill="black"/>
<path d="M242.788 26.8068C242.788 26.8068 241.303 32.7453 242.046 32.7453C242.789 32.7453 245.388 35.9001 245.388 35.9001L247.058 42.0241L245.759 46.478L241.303 45.5501L235.734 39.426L234.063 37.7558L232.578 32.3741C232.578 32.3741 234.435 30.1472 233.135 28.2914C231.836 26.4356 242.788 26.8068 242.788 26.8068Z" fill="#FBBEBE"/>
<path opacity="0.1" d="M242.788 26.8068C242.788 26.8068 241.303 32.7453 242.046 32.7453C242.789 32.7453 245.388 35.9001 245.388 35.9001L247.058 42.0241L245.759 46.478L241.303 45.5501L235.734 39.426L234.063 37.7558L232.578 32.3741C232.578 32.3741 234.435 30.1472 233.135 28.2914C231.836 26.4356 242.788 26.8068 242.788 26.8068Z" fill="black"/>
<path d="M197.863 43.3231L193.779 36.6424C193.779 36.6424 189.37 26.8913 186.214 30.4173C183.058 33.9433 190.994 41.0962 190.994 41.0962L195.078 46.4779L197.863 43.3231Z" fill="#FBBEBE"/>
<path d="M252.071 101.409L249.101 123.121C249.101 123.121 249.472 124.791 245.759 130.915C242.046 137.04 232.021 150.401 232.021 150.401L229.051 144.834C229.051 144.834 232.578 127.204 238.704 123.492L237.962 96.7693L252.071 101.409Z" fill="#FBBEBE"/>
<path opacity="0.1" d="M252.071 101.409L249.101 123.121C249.101 123.121 249.472 124.791 245.759 130.915C242.046 137.04 232.021 150.401 232.021 150.401L229.051 144.834C229.051 144.834 232.578 127.204 238.704 123.492L237.962 96.7693L252.071 101.409Z" fill="black"/>
<path d="M229.051 142.607L233.135 150.401C233.135 150.401 229.794 159.866 231.093 160.793C232.393 161.721 234.063 170.072 230.536 169.144C227.009 168.217 224.224 164.505 224.224 163.948C224.224 163.392 226.266 155.597 225.153 153.742C224.039 151.886 223.296 151.329 223.296 151.329L220.511 155.968L219.583 155.412L224.224 147.618C224.224 147.618 224.781 146.133 227.009 145.205L229.051 142.607Z" fill="#2F2E41"/>
<path opacity="0.1" d="M229.051 142.607L233.135 150.401C233.135 150.401 229.794 159.866 231.093 160.793C232.393 161.721 234.063 170.072 230.536 169.144C227.009 168.217 224.224 164.505 224.224 163.948C224.224 163.392 226.266 155.597 225.153 153.742C224.039 151.886 223.296 151.329 223.296 151.329L220.511 155.968L219.583 155.412L224.224 147.618C224.224 147.618 224.781 146.133 227.009 145.205L229.051 142.607Z" fill="black"/>
<path d="M238.005 98.3282C238.005 98.3282 239.447 118.853 236.291 124.235V150.958L232.021 151.515C232.021 151.515 223.399 137.367 226.555 123.448C229.711 109.53 223.296 96.7693 223.296 96.7693L238.005 98.3282Z" fill="#FBBEBE"/>
<path d="M236.941 31.3534C241.247 31.3534 244.738 27.8638 244.738 23.5591C244.738 19.2545 241.247 15.7649 236.941 15.7649C232.635 15.7649 229.144 19.2545 229.144 23.5591C229.144 27.8638 232.635 31.3534 236.941 31.3534Z" fill="#FBBEBE"/>
<path d="M244.831 44.0654L237.034 34.2299L232.578 31.2606L230.722 33.6731L225.524 35.1577C225.524 35.1577 222.182 35.9 218.655 39.9827C215.128 44.0654 208.816 46.4779 208.816 46.4779L203.618 45.5501C203.618 45.5501 197.492 42.7664 197.492 42.0241C197.492 41.2818 192.108 47.0347 193.407 49.2616C194.707 51.4885 197.492 54.2722 198.977 55.7568C200.462 57.2414 201.019 61.5097 210.115 60.2107C219.212 58.9116 222.553 54.4578 222.553 54.4578C222.553 54.4578 224.224 62.9943 229.051 64.6645C233.878 66.3347 249.657 67.4482 249.657 67.4482L252.999 56.3135C252.999 56.3135 256.712 51.4885 251.699 44.4366C251.699 44.4366 251.603 40.4927 251.064 37.8682C250.855 36.8474 250.578 36.0263 250.214 35.7145C248.915 34.601 242.046 32.7452 242.046 32.7452C242.046 32.7452 243.16 36.4568 243.717 36.6424C244.274 36.8279 245.573 43.1375 244.831 44.0654Z" fill="#575A89"/>
<path d="M219.862 99.4602C229.211 98.8107 234.654 100.342 237.082 101.509C237.533 101.713 237.958 101.971 238.348 102.277C238.526 102.428 238.612 102.545 238.612 102.615C238.612 103.172 251.421 104.285 256.062 103.172C260.703 102.058 252.906 78.1189 250.864 76.0775C248.822 74.0362 249.923 66.5648 249.923 66.5648C249.923 66.5648 245.852 65.6852 244.738 66.0564C243.624 66.4275 237.869 65.4996 235.827 64.3862C233.785 63.2727 231.186 64.015 229.515 63.6439C228.769 63.4787 228.392 63.7571 228.204 64.1171C227.913 64.6571 227.472 65.1022 226.935 65.3994C222.993 67.669 219.83 83.3614 217.448 92.0372C214.849 101.502 219.862 99.4602 219.862 99.4602Z" fill="#2F2E41"/>
<path d="M237.034 149.288L237.776 153.37C237.776 153.37 241.675 158.938 240.561 163.577C240.561 163.577 241.489 169.701 244.831 171.371C248.172 173.041 245.388 176.939 242.232 176.753C239.076 176.567 236.105 176.939 235.734 176.011C235.363 175.083 233.135 165.99 233.135 165.99L232.526 176.631L230.669 176.816L231.279 164.505C231.279 164.505 229.794 161.721 231.836 157.082L231.32 149.96C231.32 149.96 236.477 151.143 237.034 149.288Z" fill="#2F2E41"/>
<path opacity="0.1" d="M237.082 101.509C237.533 101.713 237.958 101.971 238.348 102.277C238.446 100.524 239.014 89.9178 238.333 90.0886L237.082 101.509Z" fill="black"/>
<path d="M233.713 12.8261C233.713 12.8261 233.627 12.3456 230.25 13.6116C226.872 14.8776 224.848 24.2198 226.537 29.7057C227.217 31.9165 226.664 33.5104 225.76 34.6257C222.37 38.8109 223.704 45.0969 228.643 47.2491C228.782 47.3098 228.924 47.3699 229.07 47.4292L231.18 48.6952C231.18 48.6952 228.49 45.1561 229.836 40.6289C231.005 36.7716 231.15 32.6763 230.255 28.7463C230.101 28.0833 229.925 27.3999 229.726 26.7025C228.037 20.7946 228.858 21.4769 234.768 15.5691C234.768 15.5691 238.146 18.101 241.101 19.367C244.055 20.6329 246.588 21.8989 244.478 26.1188C242.367 30.3387 237.301 34.1366 240.678 39.6224C244.055 45.1083 244.478 42.9983 244.055 45.1083L243.633 47.2182L246.166 44.6863L244.478 48.0622C244.478 48.0622 249.965 48.0622 251.654 43.8423L252.498 44.6863C252.498 44.6863 255.875 38.7784 249.543 33.2926C249.543 33.2926 247.433 32.0266 250.388 27.8067C253.343 23.5868 251.073 14.5141 247.274 12.8261C243.475 11.1382 233.713 12.8261 233.713 12.8261Z" fill="#2F2E41"/>
<path d="M238.369 10.2079C240.539 10.2079 242.298 8.44963 242.298 6.28066C242.298 4.11169 240.539 2.35339 238.369 2.35339C236.199 2.35339 234.44 4.11169 234.44 6.28066C234.44 8.44963 236.199 10.2079 238.369 10.2079Z" fill="#2F2E41"/>
<path d="M233.654 4.18606C233.654 3.21251 234.016 2.27369 234.67 1.5517C235.323 0.829705 236.221 0.376013 237.19 0.278621C237.061 0.265789 236.93 0.258789 236.797 0.258789C235.755 0.258789 234.756 0.672553 234.019 1.40906C233.283 2.14556 232.869 3.14448 232.869 4.18606C232.869 5.22763 233.283 6.22655 234.019 6.96306C234.756 7.69956 235.755 8.11333 236.797 8.11333C236.93 8.11333 237.061 8.10633 237.19 8.09349C236.221 7.9961 235.323 7.54241 234.67 6.82042C234.016 6.09843 233.654 5.1596 233.654 4.18606Z" fill="#2F2E41"/>
<path d="M186.812 14.7673C185.721 14.7673 184.64 14.9822 183.632 15.3997C182.624 15.8172 181.708 16.4291 180.936 17.2005C180.165 17.9718 179.552 18.8876 179.135 19.8955C178.717 20.9034 178.502 21.9836 178.502 23.0745C178.502 27.6624 186.812 42.8041 186.812 42.8041C186.812 42.8041 195.122 27.6624 195.122 23.0745C195.122 21.9836 194.908 20.9034 194.49 19.8955C194.072 18.8876 193.46 17.9718 192.688 17.2005C191.917 16.4291 191.001 15.8172 189.992 15.3997C188.984 14.9822 187.904 14.7673 186.812 14.7673ZM186.812 27.4358C185.949 27.4358 185.106 27.18 184.388 26.7008C183.671 26.2216 183.112 25.5404 182.782 24.7435C182.451 23.9466 182.365 23.0697 182.533 22.2237C182.702 21.3777 183.117 20.6006 183.727 19.9906C184.338 19.3807 185.115 18.9653 185.961 18.7971C186.808 18.6288 187.685 18.7151 188.482 19.0452C189.279 19.3753 189.96 19.9343 190.44 20.6515C190.919 21.3687 191.175 22.2119 191.175 23.0745C191.175 24.2312 190.716 25.3405 189.897 26.1584C189.079 26.9763 187.969 27.4358 186.812 27.4358Z" fill="#3466BB"/>
<path d="M119.821 169.335C122.304 169.335 124.318 167.323 124.318 164.84C124.318 162.358 122.304 160.345 119.821 160.345C117.338 160.345 115.324 162.358 115.324 164.84C115.324 167.323 117.338 169.335 119.821 169.335Z" fill="#F1F1F1"/>
<path d="M147.797 150.322C150.281 150.322 152.294 148.31 152.294 145.827C152.294 143.345 150.281 141.332 147.797 141.332C145.314 141.332 143.301 143.345 143.301 145.827C143.301 148.31 145.314 150.322 147.797 150.322Z" fill="#F1F1F1"/>
<path d="M113.2 132.618C115.683 132.618 117.697 130.606 117.697 128.123C117.697 125.641 115.683 123.628 113.2 123.628C110.717 123.628 108.703 125.641 108.703 128.123C108.703 130.606 110.717 132.618 113.2 132.618Z" fill="#F1F1F1"/>
</g>
<defs>
<clipPath id="clip0">
<rect width="283" height="177" fill="white"/>
</clipPath>
</defs>
</svg>
