<svg width="232" height="232" viewBox="0 0 232 232" fill="none" xmlns="http://www.w3.org/2000/svg">
<g opacity="0.5">
<path opacity="0.5" d="M116 232C180.065 232 232 180.065 232 116C232 51.935 180.065 0 116 0C51.935 0 0 51.935 0 116C0 180.065 51.935 232 116 232Z" fill="url(#paint0_linear)"/>
</g>
<path d="M116.226 228.812C178.94 228.812 229.78 177.973 229.78 115.259C229.78 52.5448 178.94 1.70509 116.226 1.70509C53.5121 1.70509 2.67236 52.5448 2.67236 115.259C2.67236 177.973 53.5121 228.812 116.226 228.812Z" fill="#F5F5F5"/>
<path d="M116.333 229.261C138.521 229.297 160.229 222.801 178.75 210.582C174.565 187.714 158.641 186.411 158.641 186.411H70.8267C70.8267 186.411 55.7999 187.644 51.1067 208.68C70.2016 222.112 92.9869 229.301 116.333 229.261Z" fill="#969696"/>
<path d="M115.126 167.675C145.396 167.675 169.935 143.136 169.935 112.866C169.935 82.5954 145.396 58.0565 115.126 58.0565C84.8553 58.0565 60.3164 82.5954 60.3164 112.866C60.3164 143.136 84.8553 167.675 115.126 167.675Z" fill="#333333"/>
<path opacity="0.1" d="M97.4368 158.518H132.556V186.614C132.556 191.27 130.707 195.735 127.415 199.028C124.124 202.321 119.659 204.172 115.003 204.173C110.346 204.173 105.88 202.323 102.586 199.03C99.2934 195.737 97.4434 191.271 97.4434 186.614V158.518H97.4368Z" fill="black"/>
<path d="M98.5502 157.215H131.456C131.751 157.215 132.034 157.332 132.243 157.541C132.452 157.75 132.569 158.033 132.569 158.328V185.311C132.57 187.618 132.115 189.902 131.233 192.033C130.35 194.164 129.056 196.101 127.425 197.732C125.794 199.363 123.857 200.656 121.725 201.539C119.594 202.421 117.31 202.875 115.003 202.874C110.346 202.874 105.879 201.024 102.586 197.731C99.2934 194.438 97.4434 189.971 97.4434 185.314V158.328C97.4434 158.034 97.5597 157.752 97.7671 157.543C97.9745 157.335 98.256 157.217 98.5502 157.215Z" fill="#D1D1D1"/>
<path opacity="0.1" d="M97.5 171.78C108.819 176.009 121.277 176.043 132.619 171.876V167.555H97.5V171.78Z" fill="black"/>
<path d="M115.126 174.13C142.927 174.13 165.464 151.592 165.464 123.791C165.464 95.9897 142.927 73.4523 115.126 73.4523C87.3245 73.4523 64.7871 95.9897 64.7871 123.791C64.7871 151.592 87.3245 174.13 115.126 174.13Z" fill="#DDDDDD"/>
<path opacity="0.1" d="M79.2688 78.0025C79.2688 78.0025 100.485 121.065 160.329 96.0573L146.396 74.2101L121.697 65.3456L79.2688 78.0025Z" fill="black"/>
<path d="M79.2688 77.371C79.2688 77.371 100.485 120.434 160.329 95.4192L146.396 73.572L121.697 64.7074L79.2688 77.371Z" fill="#333333"/>
<path d="M79.0826 74.4527C80.5131 70.0245 82.9854 66.0043 86.2919 62.7298C96.1934 52.9412 112.427 50.8772 120.753 39.7159C122.747 42.8137 121.205 47.5766 117.761 48.9062C125.739 48.853 134.982 48.155 139.492 41.5938C140.607 44.1888 140.962 47.0468 140.517 49.8357C140.072 52.6246 138.844 55.2299 136.976 57.3486C144.046 57.6809 151.601 62.4672 152.046 69.5302C152.352 74.2367 149.387 78.6906 145.535 81.3895C141.683 84.0884 136.99 85.3282 132.386 86.3419C118.945 89.31 70.3111 101.731 79.0826 74.4527Z" fill="#333333"/>
<path d="M64.7672 132.526C67.3537 132.526 69.4504 128.594 69.4504 123.744C69.4504 118.895 67.3537 114.963 64.7672 114.963C62.1807 114.963 60.084 118.895 60.084 123.744C60.084 128.594 62.1807 132.526 64.7672 132.526Z" fill="#DCDCDC"/>
<path d="M165.458 132.526C168.044 132.526 170.141 128.594 170.141 123.744C170.141 118.895 168.044 114.963 165.458 114.963C162.871 114.963 160.775 118.895 160.775 123.744C160.775 128.594 162.871 132.526 165.458 132.526Z" fill="#DCDCDC"/>
<defs>
<linearGradient id="paint0_linear" x1="116" y1="232" x2="116" y2="0" gradientUnits="userSpaceOnUse">
<stop stop-color="#808080" stop-opacity="0.25"/>
<stop offset="0.54" stop-color="#808080" stop-opacity="0.12"/>
<stop offset="1" stop-color="#808080" stop-opacity="0.1"/>
</linearGradient>
</defs>
</svg>
